<?xml version="1.0" encoding="utf-8"?>
<!DOCTYPE svg PUBLIC "-//W3C//DTD SVG 20010904//EN" "http://www.w3.org/TR/2001/REC-SVG-20010904/DTD/svg10.dtd">
<svg version="1.0" xmlns="http://www.w3.org/2000/svg" width="936px" height="616px" viewBox="0 0 936 616" preserveAspectRatio="xMidYMid meet">
 <g fill="#444540">
  <path d="M0 308 l0 -308 468 0 468 0 0 308 0 308 -468 0 -468 0 0 -308z"/>
 </g>
 <g fill="#71726f">
  <path d="M0 308 l0 -308 468 0 468 0 0 101 0 101 -3.4 0 c-6.2 0 -6.6 -0.5 -6.6 -8.6 0 -6.1 -0.3 -7.2 -1.5 -6.8 -1.9 0.8 -1.9 -0.4 0 -3.6 0.8 -1.4 1.4 -4.6 1.5 -7.3 0 -4.3 -0.3 -4.9 -3.2 -6.7 -2.9 -1.7 -5.1 -2 -17 -2 l-13.8 0 0 -13.5 c0 -15.9 -1 -18.9 -6.3 -19.9 -3.8 -0.7 -6.3 -0.1 -9 2.2 -1.5 1.4 -1.7 3.7 -1.7 22.6 0 11.6 0.4 21.6 0.8 22.2 2.6 3.7 5.6 4.4 19.4 4.4 l13.7 0 0.3 14.9 c0.3 14.5 0.4 14.9 2.8 17 2.2 1.8 3.9 2 13.3 2.1 l10.7 0 0 198.5 0 198.5 -468 0 -468 0 0 -308z m339.5 19.1 c5.2 -2.3 10.1 -7.9 11.6 -13.3 1.5 -5.6 1.5 -17.5 -0.1 -22.4 -3.1 -9.5 -10 -14.4 -21.6 -15.2 -12.4 -0.8 -20.4 3.3 -24.8 12.7 -3.1 6.9 -3 21.7 0.2 28.4 2.8 5.6 9.1 10.4 15.5 11.7 5.5 1.1 14.2 0.3 19.2 -1.9z m112.1 0.9 c1.2 -0.5 3.8 -2.3 5.8 -4 5.4 -4.8 6.6 -10.1 6.6 -30.2 l0 -16.8 -6.4 0 -6.4 0 -0.3 18.6 -0.4 18.6 -2.8 2.4 c-3.7 3.2 -8.7 3.2 -12.4 0 l-2.8 -2.4 -0.3 -18.6 -0.4 -18.6 -6.5 0 -6.5 0 0.4 19.3 c0.3 18.3 0.4 19.4 2.8 23.6 2.7 4.8 7.2 8 12.9 9.2 3.9 0.8 13.2 0.2 16.7 -1.1z m59.4 -0.1 c2.8 -1 3 -1.4 3 -6.5 l0 -5.3 -4.1 1.4 c-2.3 0.8 -6.4 1.5 -9.1 1.5 -4.3 0 -5.5 -0.5 -8.3 -3.3 -3.7 -3.7 -5.2 -9.7 -4.1 -17 1.7 -11.4 9.3 -15 21.8 -10.2 1.7 0.7 5.4 -6.5 4.5 -8.8 -0.8 -2.2 -10.1 -4 -17.1 -3.5 -15.3 1.3 -23.3 11.6 -22.4 29 0.8 13.9 6.4 21.5 17.8 23.9 4.1 0.9 13.7 0.2 18 -1.2z m121 -0.5 c8.3 -3.5 12.2 -10.3 12.8 -22.5 0.7 -13.2 -3 -21.8 -11.1 -26.1 -3.5 -1.9 -5.7 -2.3 -13.7 -2.3 -11.8 0 -16.7 2.3 -21.5 9.9 -2.9 4.7 -3 5.4 -3 16 0 11.7 1 15 5.9 20.4 6 6.7 20.4 8.8 30.6 4.6z m187 0 c8.3 -3.5 12.2 -10.3 12.8 -22.5 0.7 -13.2 -3 -21.8 -11.1 -26.1 -3.5 -1.9 -5.7 -2.3 -13.7 -2.3 -8.6 0 -10 0.3 -14.2 2.8 -3.1 1.8 -5.7 4.4 -7.5 7.5 -2.6 4.4 -2.8 5.5 -2.8 15.7 0 11.6 1 15 5.9 20.3 6 6.7 20.4 8.8 30.6 4.6z m-687 -24.4 l0 -26 -6.5 0 -6.5 0 0 26 0 26 6.5 0 6.5 0 0 -26z m24.3 7.3 c-0.2 -10.6 0.1 -18.3 0.6 -18.3 0.5 0 5.3 8.3 10.6 18.5 l9.6 18.5 9 0 8.9 0 0 -26 0 -26 -5.5 0 -5.5 0 0 18.1 c0 13.9 -0.3 18 -1.2 17.7 -0.7 -0.3 -5.3 -8.3 -10.3 -17.9 l-9 -17.4 -9.3 -0.3 -9.2 -0.3 0 26.1 0 26.1 5.8 -0.3 5.7 -0.3 -0.2 -18.2z m73.7 -1 c0 -10.9 0.4 -20.3 0.8 -21 0.4 -0.6 3.4 -1.3 6.7 -1.5 l6 -0.3 0.3 -4.7 0.3 -4.8 -20.1 0 -20.1 0 0.3 4.8 0.3 4.7 6.3 0.3 6.2 0.3 0 20.3 c0 11.1 0.3 20.6 0.7 20.9 0.3 0.4 3.3 0.7 6.5 0.7 l5.8 0 0 -19.7z m36.2 10 c0.3 -9.1 0.4 -9.8 2.4 -10.1 1.8 -0.3 3.2 1.4 8 9.7 l5.9 10.1 7.2 0 7.3 0 -7.4 -11.2 -7.4 -11.3 3.5 -3.3 c1.9 -1.9 3.9 -4.5 4.4 -5.9 1.5 -4 1 -9.6 -1.1 -13 -3.4 -5.6 -6.8 -6.7 -22.2 -7.1 l-13.8 -0.4 0 26.1 0 26.1 6.5 0 6.4 0 0.3 -9.7z m124.7 8 c11.8 -3.8 17.7 -13.4 16.9 -27.5 -0.6 -10.1 -4 -16 -11.3 -19.7 -4.5 -2.4 -6.3 -2.6 -18.7 -2.9 l-13.8 -0.4 0 26.1 0 26.1 10.9 0 c7.4 0 12.5 -0.5 16 -1.7z m157.1 -19.3 l0 -21 6.5 0 6.5 0 0 -5 0 -5 -19.5 0 -19.5 0 0 5 0 4.9 6.3 0.3 6.2 0.3 0.3 20.8 0.2 20.7 6.5 0 6.5 0 0 -21z m35 -5 l0 -26 -6.5 0 -6.5 0 0 26 0 26 6.5 0 6.5 0 0 -26z m84.8 7.5 c-0.2 -11.9 0.1 -18.5 0.7 -18.5 0.6 0 5.3 8.3 10.5 18.5 l9.5 18.5 8.8 0 8.7 0 0 -26 0 -26 -5.5 0 -5.5 0 0 18 c0 9.9 -0.4 18 -0.8 18 -0.4 0 -5 -8.1 -10.2 -18 l-9.4 -18 -8.8 0 -8.8 0 0 26 0 26 5.6 0 5.6 0 -0.4 -18.5z m93.2 -2.5 l0 -21 6.5 0 6.5 0 0 -5 0 -5 -19.5 0 -19.5 0 0 5 0 4.9 6.3 0.3 6.2 0.3 0.3 20.8 0.2 20.7 6.5 0 6.5 0 0 -21z m-214.1 -124 c20.9 -4 38.1 -25.4 38.1 -47.5 0 -22 -14.6 -40.3 -37.1 -46.7 -18.6 -5.2 -38.6 2.6 -50 19.5 -6.7 10.1 -8.4 16 -8.3 29.2 0 9.7 0.3 11.7 2.7 16.8 5.2 11.4 11.8 18.1 23.3 23.8 11.6 5.6 20.3 7 31.3 4.9z m-258.4 -22.5 c2.9 -2.8 3.3 -8 1.1 -11.1 -1.3 -1.7 -3.1 -2 -15.3 -2.4 l-13.8 -0.5 -0.5 -13.8 c-0.7 -18.2 -0.1 -17.7 -18.6 -17.7 l-13.4 0 0 -13.4 c0 -18.5 0.5 -17.9 -17.7 -18.6 l-13.8 -0.5 -0.5 -13.6 c-0.6 -16.3 -1 -17.1 -8.4 -16.7 -7.4 0.4 -7.7 1.3 -7.4 24.1 0.4 23.8 -0.6 22.6 18.5 22.7 l13.1 0 0.4 13.8 c0.3 12.1 0.5 14.1 2.2 15.8 1.7 1.7 3.7 1.9 15.8 2.2 l13.8 0.4 0 13.4 c0 13.3 0 13.5 2.6 15.9 2.7 2.5 2.9 2.5 21.1 2.5 18.2 0 18.4 0 20.8 -2.5z m-46.1 -145.5 l15.1 -15 -12.7 0 -12.8 0 -7.5 7.5 c-8.3 8.2 -10.2 11.6 -8.6 15.8 1.1 2.9 6.5 6.7 9.5 6.7 1.1 0 8.3 -6.4 17 -15z m671.1 13.5 c1.1 -0.8 5.3 -4.7 9.2 -8.7 l7.3 -7.3 0 -6.2 0 -6.3 -6.5 0 -6.5 0 -7.6 7.7 c-4.2 4.2 -8 8.8 -8.5 10.3 -1.3 3.7 0.3 7.6 4.3 10 3.9 2.4 5.6 2.5 8.3 0.5z"/>
  <path d="M322.3 318 c-4.2 -1.7 -6.3 -6.7 -6.3 -14.8 0 -12.1 4.6 -18.2 12.8 -16.8 6.7 1 10.2 6.8 10.2 16.8 0 12 -7.4 18.5 -16.7 14.8z"/>
  <path d="M613.1 316.5 c-8.2 -6.9 -5.7 -27.2 3.7 -29.9 10.1 -2.9 16 6.1 14 21.4 -0.5 4.4 -1.3 6.1 -3.8 8.3 -4.1 3.6 -9.6 3.7 -13.9 0.2z"/>
  <path d="M800.1 316.5 c-6 -5.1 -6.5 -20.5 -0.8 -27.1 2.5 -2.9 8 -4 11.9 -2.5 5.4 2 8.4 10.4 7.2 20 -1.3 10.8 -10.9 15.8 -18.3 9.6z"/>
  <path d="M266.4 298.6 c-0.3 -0.7 -0.4 -3.8 -0.2 -6.7 l0.3 -5.4 4.4 0.1 c5 0.1 7.1 2.1 7.1 6.5 0 1.8 -0.9 3.5 -2.6 4.8 -3 2.4 -8.2 2.8 -9 0.7z"/>
  <path d="M377 302.5 l0 -15.5 5.1 0 c4.4 0 5.5 0.4 8.3 3.3 4 3.9 5.3 10.5 3.6 17.8 -1.6 6.7 -5.5 9.9 -12.1 9.9 l-4.9 0 0 -15.5z"/>
  <path d="M525.3 166.4 c-13.1 -4.8 -21.9 -21.4 -19.2 -36.1 1.9 -10.1 7.8 -17.5 17.7 -22.1 4.8 -2.2 7.1 -2.7 14.2 -2.6 7.2 0 9.3 0.4 13.7 2.7 11.7 6.1 19 21.5 16.2 34.5 -2.2 10.1 -8.1 17.8 -16.9 22 -6.8 3.3 -19 4 -25.7 1.6z"/>
 </g>
 <g fill="#9a989c">
  <path d="M0 308 l0 -308 468 0 468 0 0 100.5 0 100.5 -4.5 0 -4.5 0 0 -8.1 c0 -6.8 -0.2 -8 -1.5 -7.5 -1.8 0.7 -1.8 -0.2 0 -3.4 2.2 -3.8 1.8 -8.5 -0.9 -11.7 -2.4 -2.8 -2.5 -2.8 -17.3 -3.3 l-14.8 -0.5 -0.5 -14.8 c-0.5 -14.1 -0.6 -15 -2.9 -16.8 -3.5 -2.9 -9.6 -2.5 -12.6 0.7 -2.5 2.7 -2.5 2.8 -2.5 23 0 20 0 20.3 2.4 23.1 2.4 2.8 2.5 2.8 17.3 3.3 l14.8 0.5 0.3 14.6 c0.2 14.2 0.3 14.7 2.8 17 2.3 2.2 3.6 2.4 13.5 2.7 l10.9 0.4 0 197.9 0 197.9 -468 0 -468 0 0 -308z m340.5 19.3 c8.1 -4.2 11.5 -10.3 12.3 -21.8 0.6 -10.9 -1.5 -18.2 -6.8 -23.5 -4.7 -4.7 -9.9 -6.3 -19.5 -6.3 -16.1 0.1 -24.7 9.2 -24.8 26.3 -0.2 14.5 5.9 24.4 16.6 27.1 5.7 1.4 17.8 0.4 22.2 -1.8z m109.7 1.7 c5 -1.4 9.7 -5.5 11.9 -10.5 1.6 -3.4 1.9 -6.7 1.9 -23.2 l0 -19.3 -7 0 -7 0 0 18.4 c0 17 -0.1 18.5 -2.1 21 -1.6 2.1 -2.9 2.6 -6.3 2.6 -7.6 0 -8 -1.2 -8.6 -22.9 l-0.5 -18.6 -6.7 -0.3 -6.8 -0.3 0 19.3 c0 21 0.8 24.6 6.3 29.6 5.1 4.7 16.3 6.6 24.9 4.2z m61.6 -0.9 c1.9 -1 2.2 -2.1 2.2 -6.8 0 -5.3 -0.1 -5.5 -2.2 -4.8 -16.1 5 -22.8 1.1 -22.8 -13.5 0 -7 1.8 -12 5.1 -14.4 2.9 -2 9.5 -2.1 14.3 -0.1 l3.7 1.6 1.4 -3.6 c2.7 -6.4 2.4 -7.8 -2 -9.3 -5.7 -2 -17.1 -1.9 -22 0.2 -5.4 2.3 -10.3 7.1 -12.8 12.6 -1.7 3.6 -2.1 6.4 -2 13.6 0 8.1 0.4 9.7 2.9 14.4 5 9.2 11.4 12.3 24 11.6 4.4 -0.2 9.1 -0.9 10.2 -1.5z m117.3 0.9 c6.3 -1.8 10.2 -5.1 13.4 -11.5 2.6 -5.3 3 -7.1 3 -14.5 0 -9.8 -1.5 -14.7 -5.9 -19.8 -4.5 -5.2 -10.5 -7.5 -19.5 -7.5 -9.1 0 -15.1 2.2 -19.7 7.5 -4.4 5 -5.9 9.9 -5.9 19.8 0 14.5 5.1 22.6 16.5 26.1 3.7 1.1 14 1 18.1 -0.1z m191.6 -1.8 c8.4 -4.3 13 -15 12 -27.4 -1.4 -16.2 -9.7 -24 -25.8 -24.1 -11.9 0 -19.1 4.1 -23.3 13.2 -3.1 6.8 -3 21.7 0.3 28.4 2.6 5.2 7 9.2 12.8 11.3 5.6 2.1 18.7 1.3 24 -1.4z m-687.7 -24.7 l0 -26.5 -7 0 -7 0 0 26.5 0 26.5 7 0 7 0 0 -26.5z m24 8.3 c0 -10.2 0.4 -17.8 0.9 -17.3 0.4 0.6 4.8 8.8 9.7 18.3 l8.9 17.2 9.2 0 9.3 0 0 -26.5 0 -26.5 -6 0 -6 0 0 18.2 c0 10 -0.3 17.8 -0.7 17.4 -0.5 -0.4 -4.9 -8.5 -9.8 -17.9 l-9.1 -17.2 -9.2 -0.3 -9.2 -0.3 0 26.6 0 26.5 6 0 6 0 0 -18.2z m74.2 -2.5 l0.3 -20.8 6.3 -0.3 6.2 -0.3 0 -5.4 0 -5.5 -20 0 -20 0 0 5.5 0 5.4 6.3 0.3 6.2 0.3 0.3 20.8 0.2 20.7 7 0 7 0 0.2 -20.7z m35.8 11.2 c0 -8.7 0.2 -9.5 1.9 -9.5 1.3 0 3.5 2.7 7.3 9.3 l5.3 9.2 7.8 0.3 c4.2 0.2 7.7 0 7.7 -0.3 0 -0.3 -3.2 -5.3 -7.1 -11.1 l-7.1 -10.6 3.7 -3.8 c9.2 -9.4 5.3 -23.2 -7.5 -25.9 -2.8 -0.6 -9.8 -1.1 -15.5 -1.1 l-10.5 0 0 26.5 0 26.5 7 0 7 0 0 -9.5z m125.3 8.1 c10.4 -3.7 15.9 -12.6 16 -25.5 0 -8.7 -2.2 -14.8 -6.9 -19.3 -5.2 -4.9 -9.8 -6.1 -24.1 -6.6 l-13.3 -0.4 0 26.6 0 26.6 12.3 0 c7.5 -0.1 13.6 -0.6 16 -1.4z m155.7 -18.5 c0 -14.9 0.3 -20.1 1.3 -20.9 0.7 -0.6 3.7 -1.2 6.7 -1.4 5.2 -0.3 5.5 -0.4 5.8 -3.2 0.2 -1.5 0.1 -3.9 -0.2 -5.2 l-0.6 -2.4 -20 0 -20 0 0 5.5 0 5.4 6.3 0.3 6.2 0.3 0.3 20.8 0.2 20.7 7 0 7 0 0 -19.9z m35 -6.6 l0 -26.5 -6.4 0 c-4.9 0 -6.5 0.4 -7 1.6 -0.8 2.1 -0.8 49.9 0.1 50.7 0.3 0.4 3.5 0.7 7 0.7 l6.3 0 0 -26.5z m85.7 8.5 c-0.3 -9.9 -0.3 -18 0.1 -18 0.4 0 4.8 8 9.9 17.8 l9.1 17.7 9.6 0.3 9.6 0.3 0 -26.6 0 -26.6 -6.2 0.3 -6.3 0.3 0.1 17.8 c0.1 9.7 -0.2 17.7 -0.5 17.7 -0.6 0 -2.5 -3.4 -13.3 -24.2 l-6.1 -11.8 -9.3 0 -9.4 0 0 26.5 0 26.5 6.7 0 6.6 0 -0.6 -18z m93.5 -2.7 l0.3 -20.8 5.8 -0.3 5.7 -0.3 0 -5.5 0 -5.4 -19.7 0.2 -19.8 0.3 -0.3 5.2 -0.3 5.2 6.3 0.3 6.3 0.3 0.3 20.8 0.2 20.7 7.5 0 7.5 0 0.2 -20.7z m-215.7 -123.8 c11.7 -1.6 26.5 -12.5 32.8 -24.3 3.7 -6.9 6.7 -17.4 6.7 -23.7 0 -6.6 -3.1 -17.2 -7 -24.1 -12.4 -21.5 -41.6 -30.7 -63.1 -19.9 -11.1 5.6 -20 15.9 -24.7 28.4 -2 5.5 -2.4 8.4 -2.5 17.1 0 10 0.2 10.9 3.6 18.3 4.8 10.3 12.4 18 23.1 23.2 7.5 3.8 19.4 6.7 24.1 5.9 1.1 -0.1 4.2 -0.6 7 -0.9z m-257 -23.1 c1.4 -1.5 2.5 -3.7 2.5 -5 0 -3.1 -1.9 -7.1 -3.9 -8 -0.9 -0.4 -7.4 -1 -14.6 -1.3 l-13 -0.6 -0.3 -12.5 c-0.1 -6.9 -0.7 -13.5 -1.3 -14.7 -1.8 -3.3 -6 -4.3 -19 -4.3 l-11.9 0 0 -13.3 c0 -12 -0.2 -13.5 -2 -15.5 -1.2 -1.2 -2.2 -2.3 -2.3 -2.3 -0.1 -0.1 -6.3 -0.4 -13.7 -0.8 l-13.5 -0.6 -0.5 -13 c-0.3 -7.1 -1 -13.8 -1.6 -14.8 -1.7 -3 -8.3 -3.3 -11.6 -0.7 l-2.8 2.1 0 19.3 c0 25.6 -0.7 24.6 16.9 24.6 8.5 0 13.1 0.4 13.9 1.2 0.8 0.8 1.2 5.2 1.2 13.4 0 10.8 0.2 12.4 2.1 14.8 2 2.6 2.2 2.6 15.4 2.6 l13.3 0 0.4 13.4 c0.3 12.6 0.4 13.6 2.7 16 l2.4 2.6 19.4 0 19.4 0 2.4 -2.6z m-46.1 -145.4 l15.1 -15 -13.6 0 -13.5 0 -8.2 8.4 c-8.5 8.7 -9.3 10.5 -7.2 16 1.1 3 5.4 5.5 9.4 5.6 2.4 0 5.4 -2.5 18 -15z m669.9 13.9 c1.2 -0.6 5.5 -4.3 9.5 -8.2 l7.2 -7.1 0 -6.8 0 -6.8 -6.8 0 -6.8 0 -8.2 8.4 c-8.5 8.7 -9.3 10.5 -7.2 16 1 2.6 5.3 5.5 8.3 5.6 1 0 2.8 -0.5 4 -1.1z"/>
  <path d="M320.1 315.6 c-5.5 -5.8 -5.2 -20.6 0.4 -26.2 4.9 -4.9 14 -2.5 16.6 4.3 1.4 3.7 1.1 14.9 -0.5 18.8 -1.8 4.1 -4.2 5.5 -9.9 5.5 -3.3 0 -4.9 -0.6 -6.6 -2.4z"/>
  <path d="M612.6 315.5 c-2.6 -2.8 -3.6 -6.5 -3.6 -13.7 0 -9.3 4.1 -14.8 11 -14.8 7.1 0 11 5.5 11 15.4 0 6.3 -2.4 13.2 -5.1 14.6 -1 0.6 -3.8 1 -6.4 1 -3.6 0 -5.1 -0.5 -6.9 -2.5z"/>
  <path d="M800.2 315.8 c-3 -3.3 -4.2 -7.1 -4.2 -13.4 0 -9.9 4 -15.4 11 -15.4 7.1 0 11 5.5 11 15.4 0 6.3 -2.4 13.2 -5.1 14.6 -3.4 1.9 -10.4 1.2 -12.7 -1.2z"/>
  <path d="M267 293 l0 -6 3.1 0 c4.9 0 6.9 1.6 6.9 5.5 0 4.3 -2.2 6.5 -6.6 6.5 l-3.4 0 0 -6z"/>
  <path d="M378 302.4 l0 -15.7 4.5 0.6 c5.7 0.8 8.1 2.4 10.1 6.6 1.9 4.1 1.5 15.3 -0.7 18.9 -1.7 2.8 -6.8 5.2 -10.8 5.2 l-3.1 0 0 -15.6z"/>
  <path d="M526.5 166.2 c-7.1 -2.4 -15.5 -10.8 -18.4 -18.7 -3 -7.9 -2.6 -17.8 0.9 -24.8 9.5 -18.9 37.2 -23 50.4 -7.6 6.6 7.8 8 11.4 8 21.4 0.1 10.2 -1.4 14.2 -8.2 21.7 -7.4 8.2 -21.8 11.7 -32.7 8z"/>
 </g>
 <g fill="#c4cace">
  <path d="M0 308 l0 -308 242.6 0 c193.8 0 242.4 0.3 241.7 1.3 -0.4 0.6 -1 7.3 -1.3 14.7 l-0.5 13.5 -13 0.5 c-14.2 0.6 -16.6 1.3 -18.5 6 -1.6 3.9 0.1 8.5 4.1 10.5 3.6 1.9 35.4 2.1 39.4 0.3 4.5 -2 5.5 -5.4 5.5 -19.3 l0 -12.5 13.5 0 c13.1 0 13.7 -0.1 16 -2.5 2 -1.9 2.5 -3.4 2.5 -7.5 l0 -5 202 0 202 0 0 100.5 0 100.5 -4.5 0 -4.5 0 0 -8.5 c0 -5.2 -0.4 -8.5 -1 -8.5 -0.7 0 -0.7 -0.6 0 -1.9 0.5 -1.1 1 -4 1 -6.5 0 -3.6 -0.5 -4.8 -2.6 -6.5 -2.4 -1.9 -4 -2.1 -17 -2.1 l-14.4 0 0 -13.5 c0 -15.4 -1 -18.6 -6.1 -20.4 -3.8 -1.3 -7.6 -0.5 -10.6 2.2 -2.2 2 -2.3 2.5 -2.3 22.9 0 13.1 0.4 21.7 1.1 23 2 3.6 6.9 4.8 20.9 4.8 l13 0 0 14.2 c0 14 0 14.2 2.7 17 2.6 2.7 2.9 2.8 13.5 2.8 l10.8 0 0 198 0 198 -468 0 -468 0 0 -308z m513.1 20 c1.5 -0.9 1.9 -2.1 1.9 -6.4 0 -2.9 -0.3 -5.5 -0.6 -5.9 -0.3 -0.3 -2.4 0.1 -4.6 0.9 -2.2 0.8 -6.3 1.4 -9 1.4 -4.1 0 -5.4 -0.5 -7.8 -2.8 -5.6 -5.6 -5.3 -19.1 0.5 -24.9 3.8 -3.8 6.7 -4.1 13.9 -1.7 2.6 0.9 4.9 1.5 5.1 1.3 0.2 -0.2 1.3 -2.8 2.4 -5.7 l2.1 -5.3 -3.7 -1.6 c-2.6 -1.2 -6.7 -1.7 -12.8 -1.7 -8.1 -0.1 -9.5 0.2 -13.8 2.7 -9.3 5.5 -13.4 14.8 -12.4 28.2 1 14 7.8 21.8 20.2 23.4 5.6 0.7 15.6 -0.3 18.6 -1.9z m-380.1 -25 l0 -27 -7.5 0 -7.5 0 0 26.3 c0 14.5 0.3 26.7 0.7 27 0.3 0.4 3.7 0.7 7.5 0.7 l6.8 0 0 -27z m24.2 8.8 l0.3 -18.3 9.5 18 9.5 18 9.5 0 9.5 0 0.3 -26.7 0.2 -26.8 -6.5 0 -6.5 0 0 17.8 c-0.1 15.1 -0.3 17.4 -1.4 15.9 -0.8 -1 -5.1 -9 -9.7 -17.7 l-8.3 -16 -9.8 0 -9.8 0 0 26.3 c0 14.5 0.3 26.7 0.7 27 0.3 0.4 3.2 0.7 6.4 0.7 l5.9 0 0.2 -18.2z m74 -2.5 l0.3 -20.8 6.2 -0.3 c7 -0.3 7.8 -1.3 7.1 -8.3 l-0.3 -3.4 -20.5 0 -20.5 0 0 5.5 0 5.5 6.3 0.3 6.2 0.3 0 19.4 c0 10.6 0.3 20 0.6 20.9 0.5 1.2 2.1 1.6 7.5 1.6 l6.9 0 0.2 -20.7z m35.8 10.7 c0.4 -7.5 0.8 -9.5 2 -9.5 1.3 0 5 5.5 11.2 16.5 1.7 2.9 1.8 3 9.8 3 4.4 0 8 -0.3 8 -0.7 0 -0.5 -3.4 -5.7 -7.5 -11.8 l-7.4 -11 3.4 -2.7 c6.8 -5.7 7.4 -16.8 1.2 -22.4 -4.8 -4.4 -9.1 -5.4 -23.4 -5.4 l-12.3 0 0 26.3 c0 14.5 0.3 26.7 0.7 27.1 0.4 0.4 3.7 0.6 7.3 0.4 l6.5 -0.3 0.5 -9.5z m73.9 7.4 c5.5 -2.8 9.3 -7.4 11.2 -13.5 1.6 -5.3 1.3 -18.3 -0.6 -23.9 -4 -12 -19 -18.1 -33.8 -13.6 -10.3 3.1 -15.5 10.6 -16.4 23.5 -0.8 10.8 1.4 17.8 7.2 23.6 5.2 5.2 8.3 6.3 19.1 6.4 6.8 0.1 8.8 -0.3 13.3 -2.5z m52.6 0.2 c5 -2.1 10 -6.9 12.8 -12.1 2.9 -5.5 3.1 -21.2 0.3 -26.5 -2.6 -4.9 -5.5 -7.9 -10.1 -10.3 -3.4 -1.9 -6 -2.2 -18.7 -2.5 l-14.8 -0.4 0 26.4 c0 14.6 0.3 26.8 0.8 27.3 1.3 1.4 25.4 -0.1 29.7 -1.9z m62.3 -0.8 c2.5 -1.7 4.9 -4.5 6.3 -7.5 2.3 -4.5 2.4 -5.8 2.4 -23.8 l0 -19 -7.2 -0.3 -7.1 -0.3 -0.4 19.1 c-0.3 18.8 -0.4 19.2 -2.7 21.1 -2.5 2.1 -7.1 2.5 -10.1 0.9 -3.2 -1.7 -4 -6.7 -4 -24.1 l0 -16.9 -7.6 0 -7.6 0 0.4 19.8 c0.3 17.8 0.5 20.1 2.5 23.7 4.4 8.4 9.3 10.7 21.9 10.2 7.9 -0.2 9.7 -0.6 13.2 -2.9z m93 -18 l0.2 -20.7 6.3 -0.3 6.2 -0.3 0.3 -5.7 0.3 -5.8 -20.6 0 -20.5 0 0 6 0 6 6.5 0 6.5 0 0 20.3 c0 11.2 0.3 20.7 0.7 21.1 0.4 0.4 3.7 0.6 7.3 0.4 l6.5 -0.3 0.3 -20.7z m35 -6 l0.2 -26.8 -7.5 0 -7.5 0 0 26.3 c0 14.5 0.3 26.7 0.7 27.1 0.4 0.4 3.7 0.6 7.3 0.4 l6.5 -0.3 0.3 -26.7z m46.5 26.1 c4.7 -1.3 10.2 -6 13 -11.3 1.9 -3.5 2.2 -5.7 2.2 -15.1 0 -11.6 -1 -15 -5.9 -20.3 -4.5 -5.1 -9.4 -6.7 -19.6 -6.7 -11.3 0 -16.2 2 -21 8.7 -4.1 5.6 -5.3 10.8 -4.8 20.8 0.6 12.5 5.5 20.3 14.4 23.5 4.7 1.7 16.4 1.9 21.7 0.4z m38.2 -17.2 c0 -9.7 0.2 -17.7 0.5 -17.7 0.3 0 4.7 8.1 9.8 18 l9.3 18 9.5 0 9.4 0 0 -27 0 -27 -6.5 0 -6.5 0 -0.2 17.5 -0.3 17.5 -9.1 -17.3 -9.1 -17.2 -9.7 -0.3 -9.6 -0.3 0 27.1 0 27.1 6.3 -0.3 6.2 -0.3 0 -17.8z m93.3 -2.9 l0.2 -20.7 6.3 -0.3 6.2 -0.3 0.3 -5.7 0.3 -5.8 -20.6 0 -20.5 0 0 6 0 6 6.5 0 6.5 0 0 20.3 c0 11.2 0.3 20.7 0.7 21.1 0.4 0.4 3.7 0.6 7.3 0.4 l6.5 -0.3 0.3 -20.7z m55.5 20.1 c2.1 -0.5 5.3 -2.4 7.3 -4.1 5.6 -4.9 7.7 -10 8.2 -19.9 0.7 -13.9 -3.1 -22.3 -12.2 -27.2 -3.4 -1.8 -5.7 -2.2 -13.6 -2.2 -11.3 0 -16.2 2 -21 8.7 -4.1 5.6 -5.3 10.8 -4.8 20.8 0.6 12.5 5.5 20.3 14.4 23.5 4.7 1.7 16.4 1.9 21.7 0.4z m-635.2 -121.4 c10.9 -5.7 11.8 -22 1.4 -28 -7.7 -4.6 -17.7 -2.3 -22.5 5.1 -2.9 4.4 -2.7 12.9 0.4 17.5 4.4 6.4 13.9 8.9 20.7 5.4z m371.1 -24.3 c10.3 -3.6 18.1 -10 25 -20.6 20.2 -31.2 -0.8 -71.7 -39.1 -75.2 -17.4 -1.6 -37.5 10.2 -45.3 26.7 -5 10.6 -5.3 12 -5.3 23.9 0 11.2 0.1 11.7 3.7 19 11.1 22.6 38.1 34.2 61 26.2z m114.4 -14 c5.5 -4.2 8 -11.1 6.3 -17.7 -1.3 -4.8 -4.1 -8 -9.1 -10.6 -12.2 -6.2 -25.9 5.9 -21.9 19.3 1.5 5 6.1 9.8 10.3 10.8 4.3 1.1 11.8 0.1 14.4 -1.8z m-378 -7.5 c3.2 -3.8 3.2 -9 -0.1 -12.2 -2.3 -2.4 -2.9 -2.5 -15.5 -2.5 l-13 0 0 -12.6 c0 -6.9 -0.5 -13.4 -1 -14.5 -2.1 -3.8 -6.2 -4.9 -18.9 -4.9 l-11.9 0 -0.4 -13.5 c-0.4 -18.2 -0.1 -17.9 -18.3 -18.3 l-13.5 -0.4 0 -12.9 c0 -12.5 -0.1 -13.1 -2.5 -15.4 -1.7 -1.7 -3.5 -2.5 -6 -2.5 -4.9 0 -7.1 1.3 -8.4 5.1 -1.4 4 -1.5 33.6 -0.1 37.6 1.8 5.1 5.3 6.3 18.9 6.3 l12.1 0 0 12 c0 18.6 0.8 19.4 19 19.6 l12.5 0.2 0.5 12.8 c0.3 7.1 0.9 13.6 1.3 14.4 0.4 0.9 2 2.3 3.5 3.3 2.3 1.5 5.1 1.7 21 1.5 l18.4 -0.3 2.4 -2.8z m-46.2 -145.7 l15.1 -15 -13.6 0 -13.6 0 -7.2 7.1 c-3.9 3.9 -7.6 7.9 -8.1 8.9 -3.3 6.1 1.6 14 8.6 14 3.5 0 4.8 -1 18.8 -15z m678.7 6.3 l8.9 -8.7 0 -6.3 0 -6.3 -7.5 0 -7.6 0 -7.9 8.2 c-7.2 7.4 -8 8.5 -8 12 0 5.4 4.3 9.8 9.6 9.8 3.3 0 4.6 -0.9 12.5 -8.7z"/>
  <path d="M267 293 c0 -5.9 0 -6 2.8 -6 4.1 0 7.2 2.6 7.2 6 0 3.4 -3.1 6 -7.2 6 -2.8 0 -2.8 -0.1 -2.8 -6z"/>
  <path d="M320.7 315.6 c-3.1 -2.9 -4.1 -7.4 -3.5 -16.3 0.4 -5.9 0.7 -6.9 3.6 -9.4 5.9 -5.3 14 -2.8 16.2 4.9 2.2 8.2 0.6 17.8 -3.7 21.2 -3.6 2.8 -9.3 2.7 -12.6 -0.4z"/>
  <path d="M378.7 317.3 c-0.4 -0.3 -0.7 -7.1 -0.7 -15.1 l0 -14.5 5.1 0.5 c6.1 0.6 8.7 2.9 10 8.9 1.6 7.1 -0.9 16.7 -4.9 18.7 -2.5 1.4 -8.7 2.3 -9.5 1.5z"/>
  <path d="M613 315.2 c-6 -6.1 -4.7 -23.2 2.1 -26.7 3.5 -1.9 6.3 -1.9 9.8 -0.1 7 3.7 8 20.8 1.6 27.2 -3.5 3.5 -9.7 3.3 -13.5 -0.4z"/>
  <path d="M800.7 316 c-4.6 -3.6 -5.9 -16 -2.5 -23.4 2.2 -5 8.4 -6.9 13.7 -4.1 7 3.6 7.9 22.3 1.4 27.5 -3.3 2.6 -9.2 2.6 -12.6 0z"/>
  <path d="M524 164.4 c-10.9 -5.1 -17.5 -15.7 -17.5 -28.4 0 -6 0.5 -8.5 2.4 -12.3 3.2 -6.1 8.3 -11.2 14.6 -14.5 4.3 -2.2 6.3 -2.6 14 -2.7 10.3 0 14.4 1.6 20.9 8.1 16.1 16.1 10.1 43.3 -11.3 50.9 -6.9 2.4 -16.6 2 -23.1 -1.1z"/>
 </g>
 <g fill="#e8ecef">
  <path d="M0 308 l0 -308 115.7 0 115.7 0 -6.4 6.6 c-9.9 10.2 -9.9 10.2 -10.6 12.9 -1.7 6.8 6.5 14 13.2 11.5 2.7 -1 30.4 -28.4 30.4 -30 0 -0.7 37.2 -1 113 -1 69.9 0 113 0.4 113 0.9 0 0.6 -0.4 1.3 -1 1.6 -0.6 0.4 -1 6.2 -1 14.1 l0 13.4 -12.6 0 c-16.1 0 -19.3 1.5 -19.4 9.3 0 2.8 0.7 4.4 2.6 6.2 2.7 2.5 2.9 2.5 22.4 2.5 19.5 0 19.7 0 22.4 -2.5 2.6 -2.4 2.6 -2.6 2.6 -16 l0 -13.5 12.5 0 c17 0 20.5 -2 20.5 -12 l0 -3.9 146.8 0 c94.9 -0.1 146.2 0.3 145.2 0.9 -1.1 0.7 -0.7 1 1.8 1 2 0 3.1 -0.4 2.7 -1 -0.4 -0.7 14.2 -1 43.2 -1 l43.8 0 -7.7 7.8 c-8.7 8.7 -10.1 11.4 -8.7 16.4 1.1 4.3 7.4 8.2 11.4 7.2 1.4 -0.3 6.3 -4.4 11 -8.9 l8.5 -8.4 0 -7 c0 -6.9 0.1 -7.1 2.5 -7.1 l2.5 0 0 100.5 0 100.5 -4 0 -4 0 0 -8.4 c0 -4.7 -0.4 -8.6 -1 -8.8 -0.7 -0.2 -0.7 -1.4 0 -3.6 1.2 -4.5 0.3 -8.6 -2.7 -11.4 -2.3 -2.1 -3.4 -2.3 -16.9 -2.6 l-14.4 -0.4 0 -13.8 c0 -12.2 -0.2 -14 -2 -16.3 -4.1 -5.1 -12.6 -4.7 -16 0.8 -2 3.2 -2.1 4.6 -1.8 23.5 l0.3 20.2 3.3 2.9 3.2 2.9 13.9 0 14 0 0.3 14.6 c0.3 14.6 0.3 14.6 3.1 17 2.6 2.2 3.6 2.4 13.8 2.4 l10.9 0 0 198 0 198 -468 0 -468 0 0 -308z m480.8 260.3 c-1 -0.2 -2.6 -0.2 -3.5 0 -1 0.3 -0.2 0.5 1.7 0.5 1.9 0 2.7 -0.2 1.8 -0.5z m3.5 -31 c-2.3 -0.2 -6.4 -0.2 -9 0 -2.6 0.2 -0.7 0.3 4.2 0.3 5 0 7.1 -0.1 4.8 -0.3z m-89.6 -84.6 c-0.1 -12.2 -0.2 -2.2 -0.2 22.3 0 24.5 0.1 34.5 0.2 22.2 0.2 -12.2 0.2 -32.2 0 -44.5z m44.3 -25.4 c0 -0.8 -0.9 0 -5 4.5 l-4.5 4.7 4.8 -4.5 c2.6 -2.4 4.7 -4.5 4.7 -4.7z m42.3 -15 c-1.3 -0.2 -3.3 -0.2 -4.5 0 -1.3 0.2 -0.3 0.4 2.2 0.4 2.5 0 3.5 -0.2 2.3 -0.4z m-144.2 -82.9 c11.6 -3.5 17.7 -14.1 16.6 -29.4 -1.1 -17 -10 -25.4 -26.6 -25.3 -7.7 0.1 -12.9 1.7 -17.4 5.4 -5.9 4.9 -8 9.9 -8.5 20.5 -0.5 9.8 0.6 14.6 4.3 20.1 6.1 9.1 18.6 12.5 31.6 8.7z m113.6 0.1 c6.1 -1.8 11.7 -7.4 13.3 -13.4 0.6 -2.4 0.9 -11.4 0.8 -22.3 l-0.3 -18.3 -6.9 -0.3 c-4.9 -0.2 -7.2 0.1 -7.7 1 -0.5 0.7 -0.9 9.5 -0.9 19.5 l0 18.2 -2.6 2 c-3.5 2.8 -6.9 2.6 -9.9 -0.4 -2.5 -2.4 -2.5 -2.7 -2.5 -20.2 0 -9.8 -0.4 -18.4 -0.9 -19.1 -0.5 -0.9 -2.8 -1.2 -7.7 -1 l-6.9 0.3 -0.3 18.5 c-0.2 12.2 0.1 20 0.9 22.9 3.1 11.2 17.3 16.8 31.6 12.6z m61.1 -0.5 c3.2 -1.2 3.2 -1.3 3.2 -7.6 0 -3.5 -0.3 -6.4 -0.7 -6.4 -0.5 0 -3 0.7 -5.7 1.5 -8.8 2.7 -13.9 1.6 -16.9 -3.5 -2.5 -4.2 -2.3 -16.5 0.3 -20.7 2.8 -4.6 6.1 -5.1 17.7 -2.8 3 0.7 3.3 0.5 4.8 -3.1 3.2 -7.8 3.2 -8 -2.4 -9.9 -10.4 -3.4 -22 -1.8 -29.7 4 -11.1 8.4 -11.7 34.5 -1 44.4 4.3 4 12.1 6.2 20.1 5.7 3.9 -0.3 8.5 -1 10.3 -1.6z m118 0.5 c9.5 -2.8 14.3 -9 16.1 -20.7 1.2 -6.9 0 -17.1 -2.4 -21.7 -1.7 -3.4 -6.2 -7.9 -9.5 -9.6 -1.4 -0.7 -5.3 -1.8 -8.5 -2.4 -7.4 -1.3 -16.6 0.4 -21.8 3.9 -9.5 6.5 -13 21.2 -8.6 35.9 3.8 12.6 19.3 19.1 34.7 14.6z m187 0 c11.1 -3.3 16.4 -11.8 16.3 -26.4 0 -9.8 -1 -13.9 -4.6 -19.1 -4.9 -7.1 -16.4 -10.9 -27.2 -8.9 -14.3 2.7 -20.6 11 -20.7 27.4 -0.1 7.7 0.3 9.8 2.5 14.6 1.6 3.3 4.1 6.7 6.3 8.4 7 5.3 17.6 6.9 27.4 4z m-683.3 -27 l0 -27 -7.5 0 -7.5 0 -0.3 27.3 -0.2 27.3 7.7 -0.3 7.8 -0.3 0 -27z m24.3 10 c-0.2 -9.6 -0.2 -17.5 -0.1 -17.5 0.1 0 4.3 7.9 9.3 17.5 l9.1 17.5 10 0 9.9 0 -0.2 -27.2 -0.3 -27.3 -6.5 0 -6.5 0 -0.5 16.9 -0.5 17 -7.2 -14 c-4 -7.6 -8.2 -15.4 -9.3 -17.2 l-2 -3.3 -9.3 0.3 -9.2 0.3 -0.3 27.3 -0.2 27.2 7 0 7.1 0 -0.3 -17.5z m74 -3.7 l0.2 -20.8 6.6 0 6.5 0 -0.3 -6.2 -0.3 -6.3 -20.5 0 -20.5 0 -0.3 6.3 -0.3 6.2 6.6 0 6.5 0 0 21 0 21.1 7.8 -0.3 7.7 -0.3 0.3 -20.7z m36 11.5 c0.2 -6.7 0.6 -9.3 1.5 -9.3 0.7 0 3.7 4.3 6.7 9.5 l5.4 9.5 8.3 0 c5 0 8.3 -0.4 8.3 -1 0 -0.6 -3.2 -5.8 -7.1 -11.6 l-7.1 -10.6 3.8 -3.9 c3.5 -3.5 3.8 -4.5 4.2 -10.1 0.4 -8.1 -1.9 -12.1 -8.6 -15 -3.9 -1.8 -6.8 -2.1 -17.7 -2.2 l-13 -0.1 -0.3 27.3 -0.2 27.3 7.7 -0.3 7.8 -0.3 0.3 -9.2z m124 8.2 c9.5 -2.9 15.3 -10 17.1 -21.1 1.8 -11.8 -1.8 -22.2 -9.8 -27.4 -5.7 -3.8 -9 -4.4 -23.6 -4.5 l-12 0 -0.3 27.3 -0.2 27.2 11.8 0 c7.8 0 13.6 -0.5 17 -1.5z m157.4 -19.2 l0.3 -20.8 6.3 -0.3 6.3 -0.3 -0.3 -6.2 -0.3 -6.2 -20.2 -0.3 -20.3 -0.2 -0.5 2.3 c-0.4 1.3 -0.5 4.1 -0.3 6.3 l0.3 3.9 6.3 0.3 6.2 0.3 0 20.3 c0 11.1 0.3 20.6 0.7 20.9 0.3 0.4 3.9 0.7 7.9 0.7 l7.4 0 0.2 -20.7z m34.6 -6.5 l-0.3 -27.3 -7 0 -7 0 -0.3 27.3 -0.2 27.2 7.5 0 7.5 0 -0.2 -27.2z m85.4 9.8 l0.3 -17.5 8.4 16.2 c4.6 8.9 8.8 16.8 9.4 17.5 0.7 0.9 3.7 1.2 10.6 1 l9.6 -0.3 0 -27 0 -27 -6.5 0 -6.5 0 -0.5 17.2 -0.5 17.2 -5.4 -10.2 c-2.9 -5.6 -7.1 -13.5 -9.3 -17.4 l-3.9 -7.3 -9.4 0 c-7.5 0 -9.4 0.3 -9.9 1.6 -0.8 2.1 -0.8 51.9 0.1 52.7 0.3 0.4 3.5 0.7 6.9 0.7 l6.4 0 0.2 -17.4z m93 -3.3 l0.3 -20.8 6.3 -0.3 6.3 -0.3 -0.3 -6.2 -0.3 -6.2 -20.2 -0.3 -20.3 -0.2 -0.5 2.3 c-0.4 1.3 -0.5 4.1 -0.3 6.3 l0.3 3.9 6.5 0.5 6.5 0.5 0.3 20.8 0.2 20.7 7.5 0 7.5 0 0.2 -20.7z m-674.2 -112.8 c17 -17 31 -31.2 31 -31.5 0 -0.4 -7.3 6.7 -16.2 15.7 -8.9 8.9 -23.2 23.3 -31.8 31.8 -8.7 8.6 -15.3 15.4 -14.9 15.3 0.5 -0.2 14.8 -14.2 31.9 -31.3z m675 28 c1.9 -1.9 3.2 -3.5 2.9 -3.5 -0.3 0 -2 1.6 -3.9 3.5 -1.9 1.9 -3.2 3.5 -2.9 3.5 0.3 0 2 -1.6 3.9 -3.5z m-688.7 -41.5 l31.2 -31.5 -31.8 31.5 c-31.5 31.3 -31.7 31.6 -31.5 35.5 l0.1 4 0.4 -4 c0.4 -3.7 2.5 -6.1 31.6 -35.5z m702.7 27.5 c1.9 -1.9 3.2 -3.5 2.9 -3.5 -0.3 0 -2 1.6 -3.9 3.5 -1.9 1.9 -3.2 3.5 -2.9 3.5 0.3 0 2 -1.6 3.9 -3.5z m-593.9 -3 c10.3 -5.4 10.7 -22.4 0.7 -28.5 -5 -3 -9.3 -3.5 -14.3 -1.6 -5.6 2.2 -10.1 7.3 -11 12.4 -2.3 14.1 11.8 24.3 24.6 17.7z m365.8 -22.6 c12.3 -2.8 25.4 -13.3 31.7 -25.4 3.5 -6.7 6.4 -17.1 6.4 -23 0 -5.9 -2.9 -16.3 -6.4 -23 -11 -21.1 -39 -32 -60.8 -23.6 -30.6 11.8 -42.3 52.3 -22.1 76.9 4.1 5 13.9 12.6 19.3 15 8.5 3.8 23 5.2 31.9 3.1z m119.5 -16.3 c11.7 -8.9 6.7 -27.7 -7.8 -29.3 -6.2 -0.7 -9 0.2 -13.6 4.3 -3 2.7 -4 4.5 -4.6 7.9 -1 6.7 0.4 12.1 3.9 15.6 4.1 4.2 6.2 4.9 12.9 4.6 4.3 -0.2 6.4 -1 9.2 -3.1z m-379.9 -5.2 c3.2 -2.1 4.6 -6.4 3.4 -10.8 -1.4 -5 -6.1 -6.6 -19.9 -6.6 l-11 0 0 -12.9 0 -12.9 -3.1 -2.6 c-2.9 -2.5 -3.5 -2.6 -16 -2.6 l-12.9 0 0 -12.5 c0 -6.9 -0.5 -13.5 -1.1 -14.8 -1.8 -3.9 -5 -4.7 -18.4 -4.7 l-12.5 0 0 -13.3 c0 -13 -0.1 -13.4 -2.6 -15.8 -3.7 -3.5 -9.8 -3.3 -13.1 0.5 -2.4 2.8 -2.4 2.9 -2.1 22.1 0.3 18.9 0.4 19.4 2.7 21.9 2.4 2.5 2.7 2.6 15.8 2.6 l13.3 0 0 13.1 0 13.1 2.9 2.9 2.9 2.9 13.1 0 13.1 0 0 13.1 0 13.1 2.9 2.9 2.9 2.9 18.7 0 c15.2 0 19 -0.3 21 -1.6z m112.2 -19.6 c-0.2 -1.3 -0.4 -0.5 -0.4 1.7 -0.1 2.2 0.1 3.2 0.4 2.3 0.2 -1 0.2 -2.8 0 -4z m16 -4 c-0.2 -1.3 -0.4 -0.3 -0.4 2.2 0 2.5 0.2 3.5 0.4 2.3 0.2 -1.3 0.2 -3.3 0 -4.5z m-1 -13 c-0.2 -1.3 -0.4 -0.5 -0.4 1.7 -0.1 2.2 0.1 3.2 0.4 2.3 0.2 -1 0.2 -2.8 0 -4z m-17 -12 c-0.2 -1.3 -0.4 -0.3 -0.4 2.2 0 2.5 0.2 3.5 0.4 2.3 0.2 -1.3 0.2 -3.3 0 -4.5z m16 -5 c-0.2 -1.3 -0.4 -0.5 -0.4 1.7 -0.1 2.2 0.1 3.2 0.4 2.3 0.2 -1 0.2 -2.8 0 -4z m429.3 -5.5 c0 -0.8 -0.9 0 -5 4.5 l-4.5 4.7 4.8 -4.5 c2.6 -2.4 4.7 -4.5 4.7 -4.7z m-446.3 -3.5 c-0.2 -1.3 -0.4 -0.3 -0.4 2.2 0 2.5 0.2 3.5 0.4 2.3 0.2 -1.3 0.2 -3.3 0 -4.5z m16 -4.5 c-0.2 -1.6 -0.4 -0.3 -0.4 2.7 0 3 0.2 4.3 0.4 2.8 0.2 -1.6 0.2 -4 0 -5.5z m374.3 1.4 c0 -0.2 -1.5 -1.6 -3.2 -3.3 l-3.3 -2.9 2.9 3.3 c2.8 3 3.6 3.7 3.6 2.9z m-650 -13.4 c0 -0.8 -0.9 0 -5 4.5 l-4.5 4.7 4.8 -4.5 c2.6 -2.4 4.7 -4.5 4.7 -4.7z m258.7 2.5 c-0.2 -1.3 -0.4 -0.3 -0.4 2.2 0 2.5 0.2 3.5 0.4 2.3 0.2 -1.3 0.2 -3.3 0 -4.5z m16 -5.5 c-0.2 -1.6 -0.4 -0.3 -0.4 2.7 0 3 0.2 4.3 0.4 2.8 0.2 -1.6 0.2 -4 0 -5.5z m-309.9 2 c-1.5 -0.2 -4.2 -0.2 -6 0 -1.8 0.2 -0.6 0.4 2.7 0.4 3.3 0 4.8 -0.2 3.3 -0.4z m267.9 -11 c-0.3 -1 -0.5 -0.2 -0.5 1.7 0 1.9 0.2 2.7 0.5 1.8 0.2 -1 0.2 -2.6 0 -3.5z m404 -3.5 c-0.2 -1.3 -0.4 -0.3 -0.4 2.2 0 2.5 0.2 3.5 0.4 2.3 0.2 -1.3 0.2 -3.3 0 -4.5z m-138.9 1.5 c-1 -0.2 -2.6 -0.2 -3.5 0 -1 0.3 -0.2 0.5 1.7 0.5 1.9 0 2.7 -0.2 1.8 -0.5z m7.9 -53.5 c-0.1 -9 -0.3 -1.9 -0.3 15.7 0 17.6 0.2 24.9 0.3 16.3 0.2 -8.6 0.2 -23 0 -32z m-19 -1.1 c-0.1 -8.4 -0.3 -1.3 -0.3 15.8 0 17.1 0.2 23.9 0.3 15.2 0.2 -8.7 0.2 -22.7 0 -31z m-268.9 41.6 c-1 -0.2 -2.6 -0.2 -3.5 0 -1 0.3 -0.2 0.5 1.7 0.5 1.9 0 2.7 -0.2 1.8 -0.5z m-280.9 -20.3 l2.3 -3.5 -2.6 3 c-1.4 1.7 -2.6 3.4 -2.6 3.9 0 1.1 0 1.1 2.9 -3.4z m49.1 -3.3 c0 -0.2 -1.5 -1.6 -3.2 -3.3 l-3.3 -2.9 2.9 3.3 c2.8 3 3.6 3.7 3.6 2.9z m-53 -19.4 c0 -0.8 -0.9 0 -5 4.5 l-4.5 4.7 4.8 -4.5 c2.6 -2.4 4.7 -4.5 4.7 -4.7z m32.3 8 c-1.3 -0.2 -3.3 -0.2 -4.5 0 -1.3 0.2 -0.3 0.4 2.2 0.4 2.5 0 3.5 -0.2 2.3 -0.4z m703.5 -1 c-1 -0.2 -2.8 -0.2 -4 0 -1.3 0.2 -0.5 0.4 1.7 0.4 2.2 0.1 3.2 -0.1 2.3 -0.4z m-704.1 -17 c-2 -0.2 -5.2 -0.2 -7 0 -1.7 0.2 0 0.4 3.8 0.4 3.9 0 5.3 -0.2 3.2 -0.4z"/>
  <path d="M323.3 317 c-4.7 -1.9 -7.2 -10.3 -5.8 -19.5 0.9 -6.5 4 -9.5 9.9 -9.5 3.7 0 4.8 0.5 7 3.1 2.6 3.1 3.2 6.1 2.7 14.4 -0.5 9.7 -6.3 14.5 -13.8 11.5z"/>
  <path d="M616.5 317.1 c-4.4 -1.8 -6 -4.9 -6.3 -12.7 -0.6 -11.3 2.4 -16.4 9.6 -16.4 7.1 0 10.2 4.6 10.2 15.2 0 10.8 -6 16.9 -13.5 13.9z"/>
  <path d="M803.5 317.1 c-4.4 -1.9 -6 -5 -6.3 -12.7 -0.6 -11.6 2.3 -16.4 10.1 -16.4 7.3 0 10.5 6.2 9.4 18.2 -0.4 4.6 -1.1 6.7 -2.9 8.4 -2.6 2.6 -7.3 3.8 -10.3 2.5z"/>
  <path d="M268 292.4 c0 -5.9 -0.4 -5.7 5.6 -3.9 5.2 1.4 2.9 9.5 -2.6 9.5 -3 0 -3 -0.1 -3 -5.6z"/>
  <path d="M378.4 315.7 c-0.2 -0.7 -0.3 -7.1 -0.2 -14.3 0.3 -12.6 0.4 -12.9 2.6 -13.2 1.2 -0.2 3.8 0.2 5.6 0.8 4.4 1.4 6.6 6 6.6 13.5 0 9.6 -3.7 14.5 -11.1 14.5 -1.6 0 -3.2 -0.6 -3.5 -1.3z"/>
  <path d="M524.5 164.2 c-10.8 -5.2 -17.9 -16.3 -17.9 -28.2 0 -7.8 2.5 -13.6 8.4 -19.9 12.2 -12.8 33.9 -12.7 44.4 0.2 6.2 7.8 7.1 10.3 7.1 20.7 0 9.3 -0.1 9.6 -3.7 15 -5 7.6 -7.4 9.6 -14.6 12.5 -8.6 3.5 -15.8 3.4 -23.7 -0.3z"/>
 </g>
 <g fill="#ffffff">
  <path d="M0 444.1 c0 -113.6 0.3 -172.2 1 -172.6 0.6 -0.4 1 -5.9 1 -13.1 0 -8.1 -0.4 -12.3 -1 -11.9 -0.6 0.4 -1 -2 -1 -6.4 0 -3.8 0.5 -7.3 1 -7.6 1.4 -0.9 1.4 -132.1 0 -133 -0.6 -0.4 -1 -10 -1 -25.5 0 -15.5 0.4 -25.1 1 -25.5 0.6 -0.4 1 -9.5 1 -23.9 l0 -23.3 58.9 -0.5 c32.5 -0.3 83.8 -0.3 114.1 0 l55.1 0.5 -7.5 7.7 c-4.1 4.2 -7.8 8.9 -8.2 10.4 -1.5 6.2 5.9 13.7 12.1 12.2 1.8 -0.5 8.3 -6.2 17.8 -15.7 l14.9 -14.9 86.1 0 c47.4 0 98.1 -0.3 112.7 -0.6 22 -0.5 26.3 -0.4 25.2 0.7 -0.8 0.9 -1.2 5.3 -1.2 14.5 l0 13.2 -12.7 0.4 c-10.3 0.3 -13.3 0.7 -15.5 2.1 -3.6 2.5 -4.9 6.6 -3.6 11.1 1.8 5.8 4.8 6.6 24.8 6.6 24.8 0 26 -1 26 -21.5 l0 -11.5 12.9 0 c12.8 0 12.9 0 16 -2.9 2.7 -2.5 3.1 -3.6 3.1 -8.2 l0 -5.2 17.3 0.6 c9.4 0.4 29.9 0.7 45.5 0.7 l28.2 0 0 32.1 0 32.1 2.9 2.9 c4 3.9 9.7 4 13.8 0.3 l2.8 -2.6 -2.9 2.1 c-4.1 3 -10 2.8 -13.1 -0.4 l-2.5 -2.4 0 -32.1 0 -32 9 0 9 0 0.3 32.2 0.2 32.3 0.3 -32.3 0.2 -32.2 135.7 0 135.7 0.1 -7.2 7.2 c-7.6 7.7 -9.6 11.3 -8.6 15.5 1.3 5.3 7 9 12.1 7.7 1.5 -0.3 6.4 -4.3 11 -8.7 l8.3 -8.2 0 61.7 0 61.7 2.5 0 2.5 0 0 31.5 0 31.5 -4 0 -4 0 0 -9 c0 -5.5 -0.4 -9 -1 -9 -0.7 0 -0.7 -0.6 0 -1.9 1.8 -3.5 1.2 -8.8 -1.4 -11.8 l-2.4 -2.8 -15.1 -0.3 -15.1 -0.3 0 -13.2 c0 -15.7 -0.4 -17.3 -4.1 -19.2 -4.7 -2.5 -9.6 -1.9 -13 1.4 l-2.9 2.9 0 20.6 0 20.5 3.1 3.6 3.1 3.5 14.4 0 14.4 0 0 14.4 0 14.4 3.5 3.1 c3.5 3 3.8 3.1 14 3.1 l10.5 0 0 31.4 0 31.5 -2.2 0.3 -2.3 0.3 -0.3 25.3 -0.2 25.2 2.5 0 2.5 0 0 110.8 0 110.9 -2.5 2.3 -2.5 2.3 0 27.4 0 27.3 -465.5 0 -465.5 0 0 -171.9z m488.2 121.7 c6.7 -3.4 11.7 -6.8 10.1 -6.8 -0.5 0 -1.3 0.4 -1.8 0.9 -0.6 0.5 -4.1 2.5 -7.9 4.5 -6.7 3.5 -12.8 4.6 -14.1 2.6 -0.3 -0.5 -1.2 -1 -1.8 -1 -0.7 0 -0.3 0.7 0.7 1.5 3.1 2.3 8.1 1.8 14.8 -1.7z m-25.1 -4.8 c-1.3 -1.1 -2.8 -2 -3.5 -2 -0.6 0 0.3 0.9 1.9 2 3.8 2.5 4.7 2.5 1.6 0z m39.5 -3.1 c0.3 -0.6 2.1 -1.7 3.8 -2.5 1.7 -0.8 4.5 -2.3 6.1 -3.4 1.7 -1.1 4.9 -2.9 7.3 -4.1 2.3 -1.2 4.1 -2.4 3.8 -2.6 -0.6 -0.6 -22.3 11.4 -23.2 12.8 -0.3 0.5 -0.1 0.9 0.5 0.9 0.5 0 1.3 -0.5 1.7 -1.1z m-51.6 -3.9 c-2.4 -1.9 -4 -2.5 -4 -1.5 0 0.5 5.1 3.4 6 3.4 0.3 0 -0.6 -0.8 -2 -1.9z m-10 -5.5 c0 -0.2 -1.4 -1.2 -3.1 -2.1 -1.7 -0.8 -2.8 -1.1 -2.4 -0.4 0.4 0.6 1.7 1.5 2.9 2 2.7 1.1 2.6 1.1 2.6 0.5z m-8.4 -4.4 c-0.8 -1.2 -14.8 -9.3 -15.3 -8.8 -0.3 0.3 14.4 9.4 15.5 9.6 0.2 0.1 0.1 -0.3 -0.2 -0.8z m96.1 -1.1 c1.4 -1.1 2.2 -2 1.7 -2 -1.2 0.1 -6.1 3.9 -5.1 4 0.5 0 2 -0.9 3.4 -2z m353.3 -6.6 c0 -1.7 -1.2 -1.8 -2.8 -0.2 -1.8 1.8 -1.5 2.7 0.8 2.1 1.1 -0.3 2 -1.2 2 -1.9z m-388 -0.3 c2.1 -0.9 1.9 -1 -1.5 -0.3 -5.2 0.9 -21.1 0.9 -25.5 -0.1 -2.1 -0.5 -3.1 -0.4 -2.5 0.2 0.6 0.5 2.4 1.2 4 1.4 5 0.8 22.8 0 25.5 -1.2z m47.4 0 c0.3 -0.5 2.9 -2.1 5.8 -3.6 5.7 -3 9.6 -5.5 8.6 -5.5 -0.4 0 -4.1 1.8 -8.2 4.1 -7.3 3.9 -9.9 5.9 -7.7 5.9 0.5 0 1.2 -0.4 1.5 -0.9z m-36.4 -3.6 c3.3 -1.9 2.1 -1.9 -2.1 0 -1.9 0.8 -2.7 1.4 -1.9 1.4 0.8 0 2.6 -0.6 4 -1.4z m-58.1 -4.6 c-3.5 -2.3 -9.3 -7.1 -12.8 -10.7 -3.5 -3.6 -5.9 -5.7 -5.3 -4.6 2.6 4.8 20.3 19.4 23.6 19.4 0.5 0 -2 -1.9 -5.5 -4.1z m-40 1.4 c-1.3 -1 -4 -2.6 -5.9 -3.6 l-3.5 -1.8 2.4 2 c1.3 1.2 2.9 2.1 3.6 2.1 0.7 0 1.8 0.7 2.5 1.5 0.7 0.8 1.7 1.5 2.3 1.5 0.5 0 -0.1 -0.8 -1.4 -1.7z m110 -4.4 c0.2 -0.7 -1.4 0.1 -3.5 1.6 -5.9 4.4 -6.4 5.1 -1.4 2.2 2.5 -1.5 4.7 -3.2 4.9 -3.8z m46.1 -3.1 c0 -0.4 -1.3 0.4 -3 1.9 -1.6 1.4 -3 2.8 -3 3 0 0.2 1.4 -0.6 3 -1.9 1.7 -1.2 3 -2.5 3 -3z m-36.1 -6 c3.8 -4.3 6.1 -7.9 6.1 -9.5 0 -0.4 -0.9 0.8 -2.1 2.7 -1.1 1.9 -4.6 6.2 -7.7 9.4 -3.2 3.3 -4.4 5 -2.9 3.8 1.6 -1.2 4.6 -4.1 6.6 -6.4z m-130.7 6 c-0.9 -0.9 -1.2 -12.7 -1.2 -46.9 0 -45.4 0 -45.6 2.2 -48.5 l2.2 -2.9 -2.7 2.4 -2.7 2.4 0 45.8 c0 25.2 0.3 46.4 0.6 47.3 0.3 0.9 1.1 1.6 1.7 1.6 0.7 0 0.7 -0.4 -0.1 -1.2z m30.2 -14.8 c-1 -1.6 -2 -2.8 -2.2 -2.6 -0.4 0.5 2.8 5.6 3.5 5.6 0.2 0 -0.4 -1.3 -1.3 -3z m41 -3.9 c-6.2 -2.9 -8.9 -5.1 -13.7 -10.9 -1.5 -1.9 -2.7 -3 -2.7 -2.5 0 0.4 1.9 3 4.1 5.6 3.9 4.5 13.5 10.5 16.9 10.7 0.8 0 -1.2 -1.3 -4.6 -2.9z m30.2 -2.3 c3.5 -2.8 7.3 -7 7.4 -8.2 0 -0.5 -1 0.4 -2.2 1.9 -1.1 1.5 -3.9 4 -6.1 5.6 -2.2 1.6 -3.5 2.9 -3 2.9 0.6 0 2.3 -1 3.9 -2.2z m-77.1 -6.8 c-0.7 -2.5 -1.4 -3.8 -1.4 -2.9 -0.1 1.8 2 8.2 2.5 7.7 0.2 -0.2 -0.3 -2.4 -1.1 -4.8z m103.6 -5.2 c-0.4 -3.5 -0.6 -3.8 -0.9 -1.5 -0.3 2.6 0.3 5.7 1 5.7 0.2 0 0.1 -1.9 -0.1 -4.2z m-106.4 -14.5 c-0.1 -8.7 -0.2 -9.7 -0.7 -5.3 -0.6 4.7 -0.2 16 0.5 16 0.2 0 0.2 -4.8 0.2 -10.7z m31.7 -8.8 c0.3 -1.1 0 -0.6 -0.8 1 -0.8 1.7 -1.5 5.5 -1.4 8.5 l0.1 5.5 0.7 -6.5 c0.4 -3.6 1 -7.4 1.4 -8.5z m74.3 7.3 c-0.2 -1.3 -0.4 -0.5 -0.4 1.7 -0.1 2.2 0.1 3.2 0.4 2.3 0.2 -1 0.2 -2.8 0 -4z m0 -13 c-0.2 -1.3 -0.4 -0.5 -0.4 1.7 -0.1 2.2 0.1 3.2 0.4 2.3 0.2 -1 0.2 -2.8 0 -4z m-102.2 -8.6 c-0.4 -0.5 -3.5 9.7 -3.4 11.2 0 0.6 0.9 -1.6 2 -4.9 1 -3.2 1.6 -6.1 1.4 -6.3z m36.4 1.2 c1.4 -1.6 0.5 -0.8 -2.1 2 -2.7 2.7 -4.8 5.4 -4.8 5.9 0 0.5 1 -0.3 2.2 -1.9 1.2 -1.6 3.3 -4.3 4.7 -6z m45.4 2 c-2.6 -3.4 -10 -9 -10.9 -8.2 -0.2 0.3 1.4 1.4 3.5 2.6 2.1 1.2 5.1 3.8 6.5 5.7 1.5 1.9 2.9 3.5 3.2 3.5 0.3 0 -0.7 -1.6 -2.3 -3.6z m-36.3 -8.4 c0.8 -0.5 1.1 -1 0.5 -1 -0.5 0 -2.1 1 -3.5 2.1 -2.4 2 -0.5 1.3 3 -1.1z m18.8 -2.2 c-3.1 -0.8 -12.9 -0.8 -15 0 -0.9 0.4 2.6 0.7 7.8 0.7 5.2 0 8.5 -0.3 7.2 -0.7z m-46.7 -16.1 c1.9 -1.8 2.6 -2.5 1.5 -1.7 -3.9 2.7 -8.8 7.5 -10.8 10.5 -1.2 1.8 -0.5 1.2 1.8 -1.3 2.2 -2.4 5.5 -5.8 7.5 -7.5z m85.4 4.2 c-4.8 -5 -12.9 -11 -17 -12.7 -2.8 -1.1 -2.8 -1.1 -1.1 0.3 1.1 0.8 2.4 1.5 2.8 1.5 1.4 0 10.9 7.4 14.7 11.4 1.9 2 3.7 3.6 4 3.6 0.3 0 -1.3 -1.8 -3.4 -4.1z m36.4 -6.5 c-1.8 -2.1 -6.9 -4.7 -6.9 -3.4 0 0.5 0.6 1 1.4 1 0.8 0 2.4 0.9 3.7 2 2.9 2.4 3.6 2.5 1.8 0.4z m-150.9 -6.9 c0 -0.8 -3.8 0.8 -6 2.6 -2.3 1.8 -2.2 1.8 1.8 -0.2 2.3 -1.1 4.2 -2.2 4.2 -2.4z m142.5 1.6 c-1.6 -1.3 -16.5 -9.3 -16.5 -8.7 0 0.5 16 9.5 17 9.6 0.2 0 0 -0.4 -0.5 -0.9z m-129 -9.4 c1.6 -1.5 -8.8 3.9 -11 5.8 -1.1 0.9 0.7 0.2 4 -1.6 3.3 -1.7 6.5 -3.6 7 -4.2z m36.5 5.1 c1 -0.6 0.7 -0.7 -1 -0.2 -1.4 0.3 -3.2 1.1 -4 1.6 -1 0.6 -0.7 0.7 1 0.2 1.4 -0.3 3.2 -1.1 4 -1.6z m41 0.7 c-4.6 -1.8 -6.4 -1.7 -2.5 0 1.7 0.8 3.7 1.4 4.5 1.4 0.8 0 -0.1 -0.7 -2 -1.4z m-15.6 -3.7 c-3.4 -0.5 -9.3 -0.5 -13 0 -6.1 0.7 -5.5 0.8 6.1 0.8 11 0 12 -0.2 6.9 -0.8z m49.6 -2.3 c0 -0.2 -1.3 -1.1 -3 -2 -3.8 -1.9 -4 -1.1 -0.2 0.9 3.1 1.7 3.2 1.8 3.2 1.1z m-99 -7.1 c0 -0.2 -1.3 0.2 -3 1.1 -1.6 0.9 -3 1.8 -3 2.1 0 0.2 1.4 -0.2 3 -1.1 1.7 -0.9 3 -1.8 3 -2.1z m92 3.1 c0 -0.2 -1.3 -1.1 -3 -2 -3.8 -1.9 -4 -1.1 -0.2 0.9 3.1 1.7 3.2 1.8 3.2 1.1z m-80.7 -8.8 c3.7 -2.1 6.7 -4.1 6.7 -4.4 0 -0.3 -2.6 1 -5.7 2.8 -3.2 1.8 -7 3.9 -8.5 4.6 -1.6 0.8 -2.8 1.6 -2.8 1.8 0 0.7 3.2 -0.8 10.3 -4.8z m73.2 4.4 c-1.6 -1.3 -16.5 -9.3 -16.5 -8.7 0 0.5 16 9.5 17 9.6 0.2 0 0 -0.4 -0.5 -0.9z m-18 -10 c-2.2 -2 -19.6 -11.1 -21.3 -11 -1.1 0 -0.8 0.3 0.8 0.9 1.4 0.4 6.6 3.1 11.5 5.8 9.1 5.2 10.7 5.9 9 4.3z m-30.5 -8.6 c0 -0.3 -2.2 0.6 -5 2 -2.7 1.4 -5 2.8 -5 3 0 0.3 2.3 -0.6 5 -2 2.8 -1.4 5 -2.8 5 -3z m-134.1 -54.1 c6.9 -2 12.2 -7.5 14.6 -15 2.4 -7.6 1.8 -21.2 -1.3 -27 -9 -17.5 -38.7 -17.7 -47.7 -0.3 -2.4 4.5 -3.6 15.3 -2.6 21.8 1.9 11.6 7.2 18.2 17.1 21.2 4.3 1.3 14.4 1 19.9 -0.7z m117.4 -1.7 c2.4 -1.5 5.5 -4.4 6.8 -6.4 2.3 -3.6 2.4 -4.7 2.7 -25.1 l0.3 -21.3 -7.8 0.3 -7.8 0.3 -0.5 19.1 c-0.6 21.7 -0.8 22.4 -7.5 22.4 -6.7 0 -6.9 -0.7 -7.5 -22.4 l-0.5 -19.1 -7.7 -0.3 -7.8 -0.3 0 20.3 c0 22.9 0.8 26.3 7.1 31.1 4.8 3.6 9.3 4.7 18 4.3 6.1 -0.2 8.5 -0.8 12.2 -2.9z m57 1.5 c2.6 -1.1 2.7 -1.5 2.7 -7.8 0 -6.4 -0.1 -6.6 -2.2 -6.1 -11.6 2.7 -13.4 2.9 -16 1.8 -4.4 -1.7 -6.8 -6.6 -6.8 -13.8 0 -13.2 6 -17.9 17.9 -13.7 2.4 0.8 4.7 1.1 5.1 0.7 1.7 -1.9 4.3 -11.4 3.4 -12.3 -1.3 -1.3 -12.2 -4 -16.4 -4 -9.4 0 -19.9 6.1 -23.4 13.5 -2.9 6.1 -3.9 14.7 -2.6 22.2 1.9 11.2 6.4 17 15.4 19.9 4.7 1.6 18.6 1.3 22.9 -0.4z m122.5 -1.7 c3.6 -2 6.1 -4.2 7.7 -6.9 7.6 -13.4 4.9 -34 -5.5 -41.5 -10.5 -7.6 -27.6 -6.5 -36.5 2.4 -10.1 10 -10.2 31.4 -0.3 42.1 5.2 5.7 10.6 7.5 21.3 7.1 6.6 -0.3 9 -0.8 13.3 -3.2z m183 1.9 c6 -2 10.8 -6.3 13.4 -12.1 4 -9.1 3.2 -25.1 -1.7 -32.5 -5.6 -8.4 -17.4 -12.4 -29.5 -9.8 -12.2 2.6 -18.9 11 -19.8 24.6 -1 16 5.1 26.7 17.6 30.4 4.6 1.4 14.7 1.1 20 -0.6z m-684 -26.6 l-0.3 -27.3 -7.7 -0.3 -7.8 -0.3 0 27.6 0 27.5 8 0 8 0 -0.2 -27.2z m24.4 10.6 l0.3 -16.7 8.5 16.7 8.5 16.6 10.5 -0.2 10.5 -0.3 0.3 -25 c0.1 -13.7 0 -26 -0.3 -27.2 -0.5 -2.1 -1.1 -2.3 -7.5 -2.3 l-7 0 0 17.3 0 17.2 -9.1 -17.2 -9 -17.3 -10 0 -9.9 0 0 27.5 0 27.5 7 0 7 0 0.2 -16.6z m73.8 -3.9 l0 -20.4 6.3 -0.3 6.2 -0.3 0.3 -6.7 0.3 -6.8 -21.1 0 -21.1 0 0.3 6.8 0.3 6.7 6.3 0.3 6.2 0.3 0 20.4 0 20.5 8 0 8 0 0 -20.5z m36 10.9 c0 -7.2 0.3 -9.5 1.2 -9.2 0.7 0.3 3.6 4.5 6.4 9.4 l5.2 8.9 9.1 0.3 9.2 0.3 -1.2 -2.3 c-0.6 -1.3 -4 -6.5 -7.5 -11.6 l-6.4 -9.4 3.4 -3.2 c6.2 -5.8 7.1 -15.5 1.9 -21.6 -4.6 -5.5 -7.4 -6.3 -23 -6.8 l-14.3 -0.5 0 27.7 0 27.6 8 0 8 0 0 -9.6z m127.6 6.9 c11.7 -6.2 17.2 -20.8 13 -34.7 -2 -6.5 -5.8 -11.2 -11.9 -14.3 -4.9 -2.6 -5.9 -2.7 -19.7 -2.8 l-14.5 0 -0.3 26 c-0.1 14.3 0 26.6 0.3 27.3 0.4 1.1 3.4 1.3 14.8 1 12.2 -0.3 14.8 -0.7 18.3 -2.5z m153.4 -17.8 l0 -20.5 6.5 0 c7.4 0 7.9 -0.7 7.3 -9.1 l-0.3 -4.4 -21 0 -21 0 0 6.5 0 6.5 6.3 0.3 6.2 0.3 0 20.4 0 20.5 8 0 8 0 0 -20.5z m35.8 -6.7 l-0.3 -27.3 -8 0 -8 0 -0.3 26 c-0.1 14.3 0 26.5 0.3 27.2 0.3 0.9 2.9 1.3 8.5 1.3 l8 0 -0.2 -27.2z m84.7 10 c-0.1 -9.2 0 -16.6 0.1 -16.5 0.5 0.5 7.1 13.2 12 22.9 l5.5 10.8 10.5 0 10.4 0 -0.2 -27.2 -0.3 -27.3 -6.7 -0.3 c-5 -0.2 -6.8 0 -6.8 1 -0.1 0.7 -0.1 8.5 -0.1 17.2 0.1 8.7 -0.2 15.6 -0.6 15.2 -0.3 -0.3 -4.5 -7.9 -9.2 -16.9 l-8.6 -16.2 -10 0 -10 0 -0.3 27.3 -0.2 27.3 7.2 -0.3 7.3 -0.3 0 -16.7z m92.5 -3.3 l0 -20.5 5.9 0 c7.2 0 8.3 -1.1 7.9 -8.2 l-0.3 -5.3 -21 0 -21 0 0 6.5 0 6.5 6.3 0.3 6.2 0.3 0 19.8 c0 10.9 0.3 20.1 0.7 20.4 0.3 0.4 3.9 0.7 8 0.7 l7.3 0 0 -20.5z m-9.2 -74.9 c4.5 -2.4 61 -59.8 61.7 -62.7 0.7 -2.8 -1.2 -7.6 -3.9 -9.8 -2.5 -2.1 -8.8 -2.5 -11.1 -0.7 -1.8 1.4 -1.7 1.4 1.7 0.4 7.1 -2.1 14.2 3.8 12 10.1 -0.9 2.5 -56.2 58.7 -60.9 61.8 -4.7 3.1 -12.3 -2.1 -12.3 -8.4 0 -3.1 1.9 -5.3 22 -25.4 12.1 -12 21.6 -21.9 21.2 -21.9 -0.4 0 -10.6 9.8 -22.5 21.8 -19.8 20 -21.7 22.2 -21.7 25.3 0.1 3.8 1.7 6.4 5.7 9.1 3.4 2.2 4.6 2.2 8.1 0.4z m-665.5 -36.3 c17 -17 31.5 -32.2 32.3 -33.9 3.6 -8.5 -5.9 -17.5 -13.9 -13.2 -1.2 0.6 -16 14.9 -32.9 31.8 l-30.8 30.7 0 4.7 c0 6.5 3.9 10.6 10.1 10.6 4.2 0 4.3 -0.1 35.2 -30.7z m94.6 9.9 c1.9 -0.9 4.8 -3.3 6.4 -5.4 2.5 -3.1 2.9 -4.5 2.9 -9.6 0 -7 -1.8 -10.7 -6.7 -14.1 -11.3 -7.7 -26.5 0.4 -26.5 14.1 0.1 12 13.4 20.4 23.9 15z m369.5 -23.8 c7.2 -1.7 11.4 -4.2 18.5 -10.9 14.2 -13.2 20.2 -32.2 15.5 -48.6 -6.4 -22.5 -26.2 -37.9 -48.9 -38.2 -12.9 -0.1 -23.2 4.2 -32.8 13.6 -8 8 -9.9 10.7 -13.2 19.7 -2.4 6.3 -2.8 9.1 -2.9 17.5 0 8.7 0.4 10.9 2.9 17 3.5 8.6 4.1 9.6 11.2 16.8 7.1 7.1 16.9 12.2 27.3 14.1 8.1 1.5 13.1 1.3 22.4 -1z m240.1 -13.9 c3.7 -3.6 6.4 -6.5 5.9 -6.5 -0.5 0 -3.9 2.9 -7.4 6.5 -3.5 3.6 -6.2 6.5 -5.8 6.5 0.3 0 3.6 -2.9 7.3 -6.5z m-124.4 -0.2 c4.4 -2.6 7.9 -9 7.9 -14.5 0 -17.1 -21.4 -23.8 -30.7 -9.7 -4.5 6.9 -3 17.8 3.2 22.9 4.8 4 14 4.5 19.6 1.3z m-377.8 -7.7 c3.4 -3.1 4.3 -6.8 2.6 -10.7 -1.9 -4.7 -5.9 -5.9 -19.4 -5.9 l-11.5 0 0 -12.6 c0 -7.1 -0.5 -13.4 -1.1 -14.6 -1.9 -3.5 -7 -4.8 -19.4 -4.8 l-11.5 0 0 -12.7 c-0.1 -18 0.3 -17.6 -17.7 -18.3 l-13.8 -0.5 -0.3 -12.5 c-0.1 -6.9 -0.7 -13.5 -1.3 -14.7 -2.9 -5.6 -13.5 -5.2 -15.8 0.6 -0.9 1.9 -1.1 8.8 -0.9 21.9 0.4 23.8 -0.7 22.5 18.3 23.2 l13 0.5 0.5 13.2 c0.5 12.1 0.7 13.3 2.9 15.7 2.3 2.4 2.9 2.6 15.5 2.8 l13.1 0.3 0.5 13.7 c0.3 7.5 0.7 13.8 1 14.1 4.3 3.5 5.4 3.7 24.1 3.7 18.3 0 18.7 0 21.2 -2.4z m125.9 -7.6 c2.9 -2.9 3 -3.4 2.4 -8.8 -0.3 -3.1 -0.8 -10.6 -1.2 -16.7 -0.3 -6 -0.9 -11.3 -1.3 -11.7 -0.3 -0.4 -0.1 6.8 0.6 16 1.4 18.3 1 20.2 -3.7 22.2 -3.4 1.4 -7.6 0.4 -9.5 -2.3 -0.8 -1.2 -1.5 -4.2 -1.5 -6.7 0 -2.5 -0.4 -5.1 -0.8 -5.8 -0.5 -0.7 -0.7 1.6 -0.4 5 0.3 5.4 0.8 6.7 3.3 9.1 4 3.7 8.1 3.6 12.1 -0.3z m-16.6 -39 c-1.3 -15.1 -1.4 -15.9 -1 -5.5 0.5 14.9 1.8 30 2.1 26 0.2 -1.6 -0.4 -10.9 -1.1 -20.5z m410.2 6.3 c-1 -0.2 -2.6 -0.2 -3.5 0 -1 0.3 -0.2 0.5 1.7 0.5 1.9 0 2.7 -0.2 1.8 -0.5z m-15.9 -2.7 c-0.2 -0.1 -1.9 -0.8 -3.6 -1.4 -3.7 -1.2 -4.5 -0.6 -1 0.8 2.2 0.9 5.4 1.3 4.6 0.6z m32.7 -1.2 c1 -0.8 1.3 -1.2 0.6 -0.9 -0.8 0.4 -2.6 1.1 -4 1.5 -2.2 0.7 -2.3 0.8 -0.6 0.9 1.1 0.1 2.9 -0.6 4 -1.5z m-46 -4.9 c-3.2 -1.9 -6.1 -3.5 -6.5 -3.5 -1 0.1 10.2 7 11.3 7 0.5 0 -1.6 -1.6 -4.8 -3.5z m54.4 0.4 c2.4 -1.8 6.3 -5.3 8.7 -7.8 4.5 -4.7 12.3 -19.3 12.3 -22.7 -0.1 -1 -0.9 0.4 -1.9 3.1 -4.3 11.9 -11.7 21.7 -21 27.7 -2.5 1.5 -4 2.8 -3.4 2.8 0.5 0 3 -1.4 5.3 -3.1z m-420 -19.8 c-0.6 -9.7 -1.6 -18.3 -2.1 -19.3 -2.9 -5.4 -9.6 -6.3 -14.1 -1.8 l-3 3.1 0.7 10.2 c0.4 5.6 1.1 10.7 1.7 11.2 0.6 0.7 0.7 0.5 0.4 -0.5 -0.2 -0.8 -0.7 -5.9 -1.1 -11.3 -0.6 -9.4 -0.5 -9.8 1.9 -12.2 3.2 -3.2 7.9 -3.3 11 -0.2 2.2 2.2 3 8.9 4.7 40.2 0.1 2 0.1 2 0.6 0 0.3 -1 0 -9.8 -0.7 -19.4z m353 8.7 c-1.7 -1.8 -4.4 -6 -6 -9.2 -1.7 -3.3 -3 -5.4 -3 -4.7 0 2.9 9.3 17.1 11.3 17.1 0.4 0 -0.6 -1.5 -2.3 -3.2z m-651.5 -2.4 c18.6 -6.4 32.3 -24.2 33.9 -43.9 l0.5 -7 -1.3 8 c-3.7 22.4 -17.3 37.9 -37.9 43.1 -9.2 2.4 -15.4 1.6 -31.2 -4 -1.3 -0.5 -1.1 -0.2 0.5 0.8 2.2 1.3 9 3.7 14.5 5 3.7 0.9 16 -0.3 21 -2z m678 -0.4 c-0.3 -0.5 -1.2 -1 -1.9 -1 -1.8 0 -10.2 -8.4 -12.1 -12 -0.9 -1.7 -1.8 -3 -2.1 -3 -0.2 0 0.2 1.2 1 2.8 2.4 4.5 8.3 10.8 11.8 12.5 3.9 2 4.1 2 3.3 0.7z m28.3 -1 c4.5 -2.7 4 -3.4 -0.5 -0.8 -4.7 2.7 -4.9 2.8 -3.7 2.8 0.5 0 2.4 -0.9 4.2 -2z m-744.8 -3.4 c0 -0.2 -1.7 -1.5 -3.8 -2.8 -6.7 -4.5 -13.3 -12.1 -17 -19.8 -3.6 -7.3 -3.7 -7.7 -3.7 -19.3 0 -8.3 -0.2 -10.8 -0.9 -8.5 -0.4 1.8 -0.6 7.2 -0.4 11.9 0.3 7.2 0.9 9.6 4 16 4 8.5 10.3 16 16.7 20.1 4.5 2.8 5.1 3.1 5.1 2.4z m754.4 -5.4 c2.7 -4 4.9 -9.2 4.2 -9.9 -0.2 -0.2 -0.9 1.2 -1.6 3.3 -0.7 2 -2.8 5.4 -4.8 7.6 -1.9 2.1 -2.8 3.6 -1.9 3.2 0.8 -0.3 2.7 -2.2 4.1 -4.2z m-485.5 -1.4 c-0.2 -0.2 -1.7 -1.4 -3.4 -2.8 l-3 -2.5 2.4 2.8 c1.4 1.5 2.9 2.7 3.4 2.7 0.6 0 0.8 -0.1 0.6 -0.2z m411.1 -5.8 c-0.5 -2.2 -0.8 -2.7 -0.9 -1.3 -0.1 2.1 0.9 5.6 1.4 5.1 0.2 -0.2 0 -1.9 -0.5 -3.8z m-643.9 -2 c5.9 -3 12.6 -9.5 15.2 -15 3.1 -6.4 3.1 -19.8 0 -25.5 -5.3 -9.9 -14.2 -16.6 -24.1 -18.1 -5.8 -0.9 -15.9 1.9 -21.7 6.1 -6.3 4.4 -10.2 10.1 -12.1 17.5 -1.5 5.8 -1.5 6.9 0 12.6 2.8 11.5 10.2 20.2 20.3 24 5.4 2 16.8 1.2 22.4 -1.6z m226.1 0.8 c-0.5 -0.7 -1.2 -2.2 -1.5 -3.3 -0.5 -2 -0.5 -2 -0.6 0.1 0 1.1 0.4 2.5 1.1 3.2 1.6 1.6 2.3 1.5 1 0z m435.9 -9.3 c-0.5 -3.3 -0.9 -4.6 -1 -3 -0.1 3.6 1.1 11.4 1.6 10 0.1 -0.6 -0.1 -3.7 -0.6 -7z m-404.4 -1.2 c-0.2 -1.6 -0.4 -0.3 -0.4 2.7 0 3 0.2 4.3 0.4 2.8 0.2 -1.6 0.2 -4 0 -5.5z m385 -1.5 c-0.2 -1.8 -0.4 -0.4 -0.4 3.2 0 3.6 0.2 5 0.4 3.3 0.2 -1.8 0.2 -4.8 0 -6.5z m82 0 c-0.2 -1.3 -0.4 -0.5 -0.4 1.7 -0.1 2.2 0.1 3.2 0.4 2.3 0.2 -1 0.2 -2.8 0 -4z m-498.3 -3.8 c1 -1.3 0.9 -1.3 -0.6 -0.1 -1 0.7 -1.7 2.3 -1.7 3.5 0.1 2 0.2 2 0.6 0.1 0.3 -1.1 1 -2.7 1.7 -3.5z m418 -4 c0.4 -2.5 0.3 -3.1 -0.4 -2 -0.5 0.8 -1 2.6 -1 3.9 0 3.2 0.6 2.4 1.4 -1.9z m78.4 -0.1 c-1.8 -5.5 -6.6 -12.1 -11.2 -15.6 -2.4 -1.8 -4.7 -3.3 -5.2 -3.3 -0.5 0 0.3 0.7 1.6 1.7 6.8 4.5 11.7 10.6 13.9 17.6 0.7 2.1 1.5 3.7 1.7 3.4 0.2 -0.2 -0.1 -1.9 -0.8 -3.8z m-471.3 -1.4 c-1.6 -1.4 -3.7 -2.5 -4.5 -2.4 -1.3 0 -1.3 0.1 0 0.6 0.8 0.3 2.6 1.4 3.9 2.4 3.5 2.8 4.1 2.2 0.6 -0.6z m420.2 -10.8 c3.1 -3.3 3.3 -3.6 0.8 -1.8 -3.2 2.4 -9.5 10.8 -9.5 12.5 0 0.6 1.1 -0.6 2.4 -2.8 1.3 -2.1 4.1 -5.6 6.3 -7.9z m66.4 0 c-2.7 -5.5 -5.8 -9.9 -9.3 -13.2 l-5.2 -5 5.2 5.8 c5 5.7 12.1 18.4 12.3 22.3 0.1 1.7 0.2 1.8 0.6 0.1 0.3 -1 -1.4 -5.5 -3.6 -10z m-498.2 8.2 l5.6 -0.8 -5.8 0.3 c-3.2 0.1 -6.3 0.9 -7 1.6 -1 1 -0.9 1.1 0.2 0.5 0.8 -0.4 3.9 -1.2 7 -1.6z m419 -22 c6.5 -6.4 12.4 -9.9 21.1 -12.5 l4.5 -1.4 -3.9 0.6 c-5.3 0.7 -15.3 5.7 -19.6 9.8 -7.2 6.6 -16 19.7 -16 23.7 0 0.6 1.7 -2.2 3.7 -6.2 2.5 -5 5.8 -9.5 10.2 -14z m-625.3 0.6 c-10.5 -27.7 -43.4 -40.9 -68.7 -27.4 -10.9 5.8 -22.2 19.5 -24.2 29.4 -0.6 2.9 -0.6 2.9 0.4 0.5 5.7 -13.3 14.8 -24.4 23.9 -29 20.9 -10.7 47.9 -3.8 62.2 16 3.3 4.5 7.8 15.9 8 20.2 l0.1 3.3 0.4 -3.1 c0.2 -1.8 -0.7 -6 -2.1 -9.9z m663.1 3.8 c-2 -0.2 -5.2 -0.2 -7 0 -1.7 0.2 0 0.4 3.8 0.4 3.9 0 5.3 -0.2 3.2 -0.4z m25.4 -9.6 c-1.1 -1.4 -11.4 -6.7 -12.8 -6.7 -0.4 0.1 1.9 1.4 5.2 3.1 3.3 1.7 6.4 3.5 7 4 1.4 1.4 1.9 1.1 0.6 -0.4z m-26.3 -9.4 c-2.1 -0.2 -5.5 -0.2 -7.5 0 -2.1 0.2 -0.4 0.4 3.7 0.4 4.1 0 5.8 -0.2 3.8 -0.4z"/>
  <path d="M323.9 316.6 c-4.4 -1.4 -6.3 -5.4 -6.3 -13.6 -0.1 -10.5 3 -15 10.2 -15 6.6 0 9.6 5.4 9 16.4 -0.3 6.1 -0.8 7.9 -2.6 9.9 -2.9 3.1 -5.9 3.7 -10.3 2.3z"/>
  <path d="M614.7 315.9 c-4.4 -2.6 -6.3 -15.8 -3.2 -22.4 2.7 -5.5 10.2 -7.3 14.3 -3.5 5.5 5.1 5.5 21.6 -0.1 25.5 -2.5 1.7 -8.3 1.9 -11 0.4z"/>
  <path d="M801.7 315.9 c-4.2 -2.4 -6.2 -14.4 -3.6 -21.8 2.1 -6.1 10.7 -8.1 15.2 -3.5 4.5 4.5 4.9 18.4 0.5 23.9 -1.5 2 -2.8 2.5 -6.1 2.5 -2.3 0 -5 -0.5 -6 -1.1z"/>
  <path d="M268 293 c0 -4.8 0.1 -5 2.8 -5 3.5 0 5.2 1.6 5.2 5 0 3.4 -1.7 5 -5.2 5 -2.7 0 -2.8 -0.2 -2.8 -5z"/>
  <path d="M379 303 l0 -14 3.6 0 c1.9 0 4.4 0.5 5.6 1.1 4.4 2.4 6.3 13.5 3.4 20.4 -1.6 3.6 -5.9 6.5 -10.1 6.5 l-2.5 0 0 -14z"/>
  <path d="M527.4 165.2 c-6.7 -2.8 -11.3 -6.4 -14.8 -11.7 -4.4 -6.6 -5.6 -10.6 -5.6 -17.9 0.1 -21.7 26.8 -36.4 45.4 -24.9 5 3.1 7.8 6.3 11.4 12.8 2.2 4.2 2.7 6.2 2.7 13 0 6.5 -0.4 8.9 -2.4 12.7 -7.1 13.8 -24.1 21.2 -36.7 16z"/>
  <path d="M93 82.1 c-14 -3 -24.7 -19.7 -22 -34.2 4.7 -24.9 37.3 -33 52.5 -13.2 14.5 19 2.7 45.8 -21 47.7 -3.3 0.3 -7.6 0.1 -9.5 -0.3z"/>
 </g>
 <g fill="#60edff">
  <path d="M469.5 564.4 c-3.3 -1.9 -7.3 -4.1 -9 -4.9 -1.6 -0.9 -4.3 -2.4 -6 -3.4 -4.6 -2.8 -10.5 -6.1 -16 -9.1 -2.7 -1.4 -6.8 -3.8 -9 -5.2 -2.2 -1.3 -8 -4.6 -13 -7.3 -4.9 -2.6 -9.7 -5.2 -10.5 -5.9 -0.8 -0.6 -3.1 -2 -5 -3 -1.9 -1.1 -4 -2.7 -4.7 -3.5 -0.9 -1.2 -1.2 -12.9 -1.3 -47.3 l0 -45.7 2.3 -2.4 c1.2 -1.4 5.4 -4.2 9.2 -6.2 3.9 -2.1 12.7 -7.1 19.7 -11.1 6.9 -4.1 12.9 -7.4 13.2 -7.4 0.4 0 2.3 -1.1 4.4 -2.3 2 -1.3 10 -5.9 17.7 -10.2 10 -5.6 14.9 -7.8 17.5 -7.8 3.6 0 4.5 0.5 37.5 19 8.8 5 20.7 11.7 26.5 14.9 5.8 3.2 10.7 6.1 11 6.5 0.3 0.3 1.4 0.9 2.6 1.3 1.1 0.3 3.2 1.8 4.5 3.2 l2.4 2.6 0.3 43.6 c0.1 24 0 44.7 -0.3 46 -0.8 3.2 -4.9 6.6 -14 11.3 -4.4 2.3 -8.7 4.7 -9.5 5.5 -0.8 0.7 -2.6 1.7 -4 2.3 -1.4 0.6 -4.3 2.2 -6.5 3.6 -2.2 1.4 -5.1 3 -6.4 3.6 -2.1 0.8 -15.9 8.6 -24.9 14 -9.1 5.4 -16.9 8.9 -19.6 8.8 -1.7 -0.1 -5.8 -1.6 -9.1 -3.5z m28.5 -29.4 c7.4 -2.4 16.1 -7 20.4 -10.9 5.6 -4.9 11.7 -11.6 13.2 -14.4 1.9 -3.6 1.3 -4.4 -7.5 -9 -9.4 -4.9 -14.4 -7.7 -15.8 -8.9 -1.5 -1.2 -2.7 -0.5 -6.9 4.1 -5.4 6.1 -12.3 9.2 -20.8 9.6 -6.5 0.3 -8.1 0 -13.6 -2.6 -11.3 -5.3 -19 -16.6 -19 -27.9 0 -10.3 7 -21.8 16.7 -27.7 4.3 -2.5 5.7 -2.8 13.8 -2.8 8 0 9.7 0.3 14.8 3 3.2 1.6 7.2 4.6 8.9 6.7 1.6 2.1 3.3 3.8 3.7 3.8 0.9 0 24.2 -12.9 25.5 -14.1 1.4 -1.3 -0.5 -4.7 -6 -10.8 -8.6 -9.6 -18.2 -15.2 -32.4 -19.2 -6.7 -1.8 -23.3 -1.6 -30.5 0.5 -14.4 4.3 -27.9 14.1 -35.1 25.6 -14.5 23.3 -14.3 47.9 0.8 71.5 6.1 9.6 21.9 21.2 31.3 22.9 2.2 0.4 4.5 1.1 5 1.6 3.2 2.7 24.3 2 33.5 -1z m29.8 -46.8 l0.3 -4.2 4.4 0 4.4 0 0.3 4.2 c0.2 3.1 0.8 4.4 2 4.6 1.3 0.3 1.7 -0.6 2 -4 0.3 -4.3 0.3 -4.3 4.6 -4.6 3.4 -0.3 4.2 -0.7 4.2 -2.3 0 -1.3 -0.7 -1.9 -2.2 -1.9 -5.8 0 -6.9 -1 -6.6 -5.4 0.3 -4.1 0.3 -4.1 4.8 -4.6 3.1 -0.3 4.5 -1 4.5 -2 0 -1 -1.4 -1.7 -4.5 -2 l-4.5 -0.5 -0.3 -4.3 c-0.3 -3.4 -0.7 -4.3 -2 -4 -1.2 0.2 -1.9 1.6 -2.2 4.3 -0.5 3.9 -0.6 4 -4.5 4 l-4 0 -0.3 -4.3 c-0.3 -3.8 -0.6 -4.3 -2.5 -4 -1.8 0.2 -2.3 1.1 -2.5 4.6 -0.3 4.2 -0.3 4.2 -4.3 4.2 -3.2 0 -3.9 0.3 -3.9 2 0 1.7 0.7 2 4 2 l4 0 0 4.4 c0 4.6 -0.9 5.6 -5.6 5.6 -1.7 0 -2.4 0.6 -2.4 2 0 1.7 0.7 2 4 2 4 0 4 0 4 3.8 0 4.3 0.7 5.4 3 5 1 -0.2 1.6 -1.7 1.8 -4.6z"/>
  <path d="M528.4 478.7 c-0.3 -0.9 -0.4 -3 -0.2 -4.9 0.3 -3.1 0.5 -3.3 4.3 -3.3 l4 0 0 4.5 c0 4.5 0 4.5 -3.8 4.8 -2.6 0.2 -3.9 -0.1 -4.3 -1.1z"/>
 </g>
 <g fill="#6993a9">
  <path d="M473.5 566.6 c-1.1 -0.7 -9.9 -5.7 -19.5 -11.1 -9.6 -5.4 -22 -12.3 -27.5 -15.5 -5.5 -3.2 -12.2 -6.9 -15 -8.4 -7.9 -4.2 -11.8 -6.6 -14.2 -8.9 l-2.3 -2 0 -45.8 0 -45.8 2.3 -2.4 c1.2 -1.4 5.4 -4.2 9.2 -6.2 3.9 -2.1 12.7 -7.1 19.7 -11.1 6.9 -4.1 12.9 -7.4 13.2 -7.4 0.4 0 2.3 -1.1 4.4 -2.3 2 -1.3 10 -5.9 17.7 -10.2 10 -5.6 14.9 -7.8 17.5 -7.8 3.6 0 4.5 0.5 37.5 19 8.8 5 20.7 11.7 26.5 14.9 5.8 3.2 10.7 6.1 11 6.4 0.3 0.3 1.8 1.2 3.4 2 1.6 0.8 3.1 2 3.3 2.5 0.2 0.6 -2.3 2.5 -5.4 4.3 -3.2 1.7 -8.3 4.6 -11.3 6.4 -11.4 6.5 -10.2 6.2 -13 2.6 -11 -14.3 -21.1 -21.2 -38 -25.9 -6.7 -1.8 -23.3 -1.6 -30.5 0.5 -14.4 4.3 -27.9 14.1 -35.1 25.6 -12.9 20.7 -14.1 41.9 -3.6 63.8 4.8 10.1 16.7 22.3 26.2 26.9 11.2 5.4 17.4 6.8 29.5 6.8 12.5 0 20.5 -2.1 31 -8 6.6 -3.7 17.3 -13.7 21.2 -19.8 1.7 -2.7 2.8 -3.6 3.6 -2.9 0.7 0.5 5 3 9.7 5.5 4.7 2.5 10.4 5.6 12.7 6.9 l4.3 2.5 -2.3 2 c-2 1.8 -14.7 9.1 -39.2 22.6 -4.9 2.7 -13 7.3 -18 10.2 -20.2 11.8 -24.2 13.2 -29 10.1z"/>
  <path d="M473.5 505.1 c-13.7 -2.5 -25.5 -16.4 -25.5 -30.1 0 -10.3 7 -21.8 16.7 -27.7 4.3 -2.5 5.7 -2.8 13.8 -2.8 8 0 9.7 0.3 14.8 3 5.2 2.6 11.7 8.8 11.7 11.2 0 0.8 -5.9 4.4 -17.1 10.6 -4.7 2.6 -9.9 5.9 -9.9 6.3 0 0.3 1 0.9 2.3 1.5 7 3.1 24.1 12.7 24.4 13.6 0.7 2 -6.7 9.2 -12 11.7 -5.8 2.7 -13.2 3.8 -19.2 2.7z"/>
  <path d="M745 233.3 c-3.8 -2.6 -4.9 -4.5 -5 -8.1 0 -3 2.6 -5.9 30 -33.2 18 -18 30.9 -30.2 32.5 -30.6 6.1 -1.5 12.6 4.9 10.7 10.5 -0.8 2.4 -55.7 58.2 -60.7 61.7 -2.6 1.8 -4.5 1.8 -7.5 -0.3z"/>
  <path d="M47.5 226.8 c-3.3 -1.9 -4.4 -4.1 -4.5 -8.3 0 -3.8 0.7 -4.6 31.9 -35.9 l31.9 -31.9 3.9 0.6 c5 0.8 8.3 4.6 8.3 9.5 0 3.5 -1.6 5.3 -31.8 35.4 -27.6 27.7 -32.1 31.8 -34.7 31.8 -1.7 0 -3.9 -0.6 -5 -1.2z"/>
  <path d="M405.3 156 c-1.2 -0.5 -2.6 -1.7 -3.1 -2.7 -0.6 -1 -1.7 -12.4 -2.6 -25.3 -1.6 -23.8 -2.1 -30.4 -3.2 -44.2 -0.5 -7.3 -0.4 -7.9 2 -10.3 3.2 -3.2 7.9 -3.3 11 -0.2 2.1 2.1 2.3 3.7 3.4 20.2 0.7 9.9 1.5 20.9 1.7 24.5 0.3 3.6 1 12.5 1.5 19.8 1.1 14.3 0.7 16.1 -3.7 18.1 -2.8 1.3 -4 1.3 -7 0.1z"/>
  <path d="M796 120.5 c-19.6 -5.4 -34 -18.9 -38.5 -36 -4.3 -16.9 1.1 -35.1 14.5 -48.6 15 -15 36.1 -18.1 56.5 -8.3 17.9 8.6 29.9 31.7 26.6 51 -2.5 14.2 -12.6 29.5 -23.8 36.1 -11 6.4 -24.8 8.7 -35.3 5.8z m21.3 -19.5 c14.2 -5.3 23.3 -22.6 19.2 -36.6 -6.7 -23.2 -30.4 -31.4 -49.9 -17.4 -8.4 6.1 -13.6 17.9 -12.1 27.8 1.6 11.1 10.4 23 19.5 26.4 6.3 2.3 16.7 2.3 23.3 -0.2z"/>
  <path d="M90 100.1 c-8.9 -2.5 -12.9 -4.4 -18.5 -8.7 -7.4 -5.6 -11.3 -10.3 -15.3 -18.4 -3.6 -7.3 -3.7 -7.8 -3.7 -18.5 0 -11.5 0.9 -15.4 5.7 -24.5 3 -5.9 14.1 -17.1 19.8 -20 17.4 -8.9 40.5 -5.6 54.8 7.9 6.6 6.3 9.5 10.4 12.7 18.6 2.4 5.9 2.8 8.4 2.8 16.5 0 8.1 -0.4 10.5 -2.8 16.5 -6.5 16.3 -18.2 26.8 -34.2 31 -7.4 1.9 -13.2 1.8 -21.3 -0.4z m23.1 -19.1 c5.9 -3 12.6 -9.5 15.2 -15 3.1 -6.4 3.1 -19.8 0 -25.5 -5.3 -9.9 -14.2 -16.6 -24.1 -18.1 -5.8 -0.9 -15.9 1.9 -21.7 6.1 -6.3 4.4 -10.2 10.1 -12.1 17.5 -1.5 5.8 -1.5 6.9 0 12.6 2.8 11.5 10.2 20.2 20.3 24 5.4 2 16.8 1.2 22.4 -1.6z"/>
  <path d="M347.4 89.1 c-2.3 -1 -5.4 -3.6 -7 -5.6 -2.4 -3.2 -2.9 -4.8 -2.9 -9.5 0 -4.7 0.5 -6.3 2.9 -9.5 3.7 -4.8 8.6 -6.8 15.2 -6.3 8.9 0.8 14.4 7 14.4 16.2 0 6.8 -3.8 12.5 -9.9 15 -5.3 2.1 -7.6 2 -12.7 -0.3z"/>
  <path d="M627.5 67.5 l-2.5 -2.4 0 -32.1 0 -32 9 0 9 0 0 32.4 0 32.5 -2.6 2 c-3.8 3 -9.8 2.8 -12.9 -0.4z"/>
 </g>
 <g fill="#4191cf">
  <path d="M473.5 566.6 c-1.1 -0.7 -9.9 -5.7 -19.5 -11.1 -9.6 -5.4 -22 -12.4 -27.5 -15.5 -5.5 -3.2 -12.2 -6.9 -15 -8.4 -9.1 -4.8 -12 -6.7 -14.2 -9.2 l-2.3 -2.5 0 -45.1 c0 -43.9 0.1 -45.1 2.1 -47.9 1.1 -1.6 2.4 -2.9 2.9 -2.9 0.5 0 3.5 -1.5 6.7 -3.4 5.5 -3.2 9 -5.1 20.1 -11.2 2.6 -1.5 6.1 -3.4 7.7 -4.4 1.7 -1 5 -2.9 7.5 -4.2 2.5 -1.4 6.3 -3.5 8.5 -4.8 2.2 -1.3 6 -3.4 8.5 -4.8 2.5 -1.3 7.1 -4 10.3 -5.8 6.5 -3.8 12.7 -4.5 16.4 -1.9 1.2 0.8 4.3 2.7 7 4.1 2.6 1.4 6.6 3.6 8.8 4.9 2.2 1.3 5 2.9 6.2 3.4 1.2 0.6 4 2.2 6.3 3.6 2.2 1.4 6.6 3.9 9.8 5.6 3.1 1.6 6.4 3.4 7.2 3.9 1.9 1.2 18 10.4 20 11.4 4.7 2.3 9.4 5.3 9.7 6.1 0.2 0.6 -2.3 2.5 -5.4 4.3 -3.2 1.7 -8.3 4.6 -11.3 6.4 -10 5.7 -10.3 5.8 -11.7 4.6 -0.7 -0.6 -1.3 -1.6 -1.3 -2.2 0 -1.7 -12 -13.5 -17.6 -17.3 -11.3 -7.5 -27.6 -11.2 -42.1 -9.5 -11.7 1.4 -20.8 5.1 -29.8 12.2 -8.6 6.9 -13.2 12.3 -17.8 21.1 -9.4 18 -9.4 39.8 0 57.8 3.3 6.3 10.1 16.1 11.3 16.1 0.3 0 2.5 1.8 5 4 5 4.5 13.5 8.9 22.5 11.7 8.9 2.7 26.9 2.5 35 -0.4 8.3 -3 11.4 -4.4 16 -7.4 5.1 -3.4 15.1 -13.3 18.2 -18.2 1.7 -2.7 2.8 -3.6 3.6 -2.9 0.7 0.5 5 3 9.7 5.5 4.7 2.5 10.4 5.6 12.7 6.9 l4.3 2.5 -2.3 2 c-1.2 1.1 -4.9 3.5 -8.2 5.3 -7.9 4.3 -27 15 -42 23.6 -28.5 16.2 -31.1 17.2 -36 14z"/>
  <path d="M473.5 505.1 c-9.1 -1.6 -17.2 -8.1 -22.2 -17.6 -3.7 -7 -3.9 -17.9 -0.4 -24.5 8.2 -15.5 20.5 -21.7 35.9 -17.8 7.4 1.8 18.2 9.7 18.2 13.3 0 0.9 -5.5 4.4 -17.1 10.8 -4.7 2.6 -9.9 5.9 -9.9 6.3 0 0.3 1 0.9 2.3 1.5 7 3.1 24.1 12.7 24.4 13.6 0.7 2 -6.4 8.8 -11.9 11.5 -5.8 2.9 -13.1 4 -19.3 2.9z"/>
  <path d="M794 119.4 c-16.8 -4.5 -31.6 -18.8 -35.9 -34.6 -1.7 -6 -1 -22.7 1.1 -28.6 6.1 -16.8 20.3 -29.5 36.9 -33 6.7 -1.4 8.9 -1.4 15.6 -0.4 33.7 5.4 52.7 39.5 38.6 69.3 -6.1 13 -15.5 21.7 -28.7 26.5 -7.9 2.8 -18.8 3.1 -27.6 0.8z m25.5 -19 c20.7 -9.5 24.8 -36.8 8 -52.3 -6.5 -6 -12.5 -8.4 -21 -8.4 -11.9 0 -23.9 7.1 -29.7 17.8 -3.3 5.9 -3.2 20.9 0.1 27.9 2.6 5.6 9.1 12.4 14.2 15 7.7 4 19.8 4 28.4 0z"/>
  <path d="M88.5 99.1 c-9.4 -2.7 -15.1 -6 -22 -12.8 -4.2 -4.1 -7.5 -8.5 -9.7 -13 -3 -6.2 -3.3 -7.8 -3.6 -17.5 -0.3 -9 0 -11.8 1.7 -16.9 7.9 -22.6 29.4 -36.5 51.3 -32.9 10.6 1.7 22.3 7.6 28.5 14.4 8.1 8.8 13.3 21.7 13.3 33.1 0 6.2 -3 16.8 -6.6 23.4 -3 5.7 -11.3 14.3 -17 17.8 -10 6 -24.2 7.8 -35.9 4.4z m24.1 -17.2 c5.5 -2.5 13.1 -9.3 15.5 -14.1 8.3 -16.3 0.9 -36.2 -16.4 -44.1 -2.5 -1.1 -6.3 -1.7 -11 -1.7 -6 0 -8.2 0.5 -13.2 3.1 -3.3 1.6 -7.5 4.4 -9.3 6.2 -12.1 11.6 -12.2 31.1 -0.1 43.7 8.7 9.3 22.8 12 34.5 6.9z"/>
  <path d="M347.6 88.8 c-8.4 -3.1 -12.5 -14.7 -7.9 -22.6 5.6 -9.7 19.5 -10.8 26.5 -2 2.8 3.6 3.3 4.9 3.3 9.8 0 4.7 -0.5 6.3 -2.9 9.5 -4.5 5.9 -11.8 7.9 -19 5.3z"/>
 </g>
 <g fill="#4b7fa7">
  <path d="M395.6 519.4 c-0.3 -0.9 -0.6 -21.3 -0.6 -45.4 l0 -43.8 2.6 -3.1 c1.4 -1.7 3 -3.1 3.4 -3.1 0.5 0 6.2 -3.1 12.7 -6.9 6.5 -3.7 15.4 -8.8 19.8 -11.1 4.4 -2.4 9.4 -5.2 11 -6.1 1.7 -1 6.8 -3.9 11.5 -6.5 4.7 -2.6 11 -6.2 14.1 -8.1 7.1 -4.1 10.7 -4.2 17.1 -0.3 2.6 1.7 5.1 3 5.4 3 0.2 0 6.4 3.4 13.5 7.5 7.2 4.1 13.2 7.5 13.3 7.5 0.3 0 30.2 16.8 36.5 20.5 2.5 1.5 4 3 3.5 3.5 -0.5 0.4 -6.5 4.1 -13.3 8.1 l-12.4 7.2 -1.9 -2.4 c-12.3 -15.7 -21.4 -21.9 -38.8 -26.4 -8 -2.1 -26 -1.6 -33 0.9 -18.4 6.8 -30.9 18.4 -38.7 36.1 -7.1 16 -6.9 34.5 0.6 50.5 2.8 6.1 2.7 6.5 -1.6 8.4 -2.1 0.8 -6.7 3.2 -10.3 5.2 -13 7.4 -13.4 7.5 -14.4 4.8z"/>
  <path d="M451 486.4 c-2.7 -6.3 -2.7 -16.9 0 -22.9 4.4 -9.6 13.8 -17.2 22.6 -18.4 7 -1 15.2 0.3 20.1 3.1 4.7 2.7 10.3 7.8 10.3 9.5 0 0.7 -5.5 4.4 -12.2 8.4 -6.8 3.9 -13 7.9 -13.8 8.8 -1.9 2.1 -22.7 16.1 -24 16.1 -0.5 0 -1.8 -2.1 -3 -4.6z"/>
  <path d="M793.3 119 c-16.7 -4.9 -30.1 -17.6 -34.9 -33 -1.8 -5.8 -1.8 -20.1 0 -26.5 5.1 -18.6 20.5 -33 38.9 -36.6 20.5 -3.9 43.4 8.4 53.3 28.6 3.9 8 3.9 8.1 3.9 20 l0 12 -4.2 8.5 c-2.3 4.7 -6.1 10.6 -8.5 13.2 -12.7 13.7 -31.1 19 -48.5 13.8z m26.2 -18.5 c20.6 -9.4 24.8 -36.9 8 -52.4 -12.4 -11.4 -30.4 -11.4 -42.9 0 -8.4 7.6 -10.1 11.5 -10.1 22.9 0 7.9 0.4 10.3 2.3 14.3 2.6 5.5 9.4 12.7 14.2 15.2 7.5 3.9 20 3.9 28.5 0z"/>
  <path d="M89.8 99.4 c-13.8 -3.3 -26.9 -13.8 -33.1 -26.3 -2.9 -5.9 -3.2 -7.7 -3.5 -17.3 -0.3 -9.1 0 -11.5 1.9 -17 8.3 -23.1 28.6 -36.1 50.9 -32.7 20.7 3.2 35.4 16.4 40.5 36.4 2.9 11.3 1 23.7 -5.4 34.8 -3.6 6.3 -13 15.6 -18.9 18.6 -9.7 4.9 -21.4 6.2 -32.4 3.5z m22.8 -17.6 c6.5 -2.8 13.8 -10 16.4 -16 3.2 -7.3 3.2 -18.3 0.1 -25.2 -2.9 -6.2 -10.8 -14.1 -16.7 -16.6 -10.3 -4.5 -24.2 -1.7 -33.3 6.6 -15.5 14 -12.7 38.5 5.8 49.9 7.6 4.7 18.9 5.2 27.7 1.3z"/>
  <path d="M347.6 88.8 c-8.2 -3 -12.4 -14.8 -7.9 -22.6 5.5 -9.7 19.5 -10.8 26.4 -2.1 2.8 3.6 3.2 4.9 3.2 9.9 0 4.9 -0.4 6.5 -2.8 9.5 -4.4 5.9 -11.7 7.9 -18.9 5.3z"/>
 </g>
 <g fill="#085a9b">
  <path d="M396 474.8 c0.1 -52 -0.9 -47 10.5 -53.2 3.9 -2.1 9.9 -5.5 13.5 -7.6 3.6 -2 8.6 -4.9 11.3 -6.4 12 -6.6 14.8 -8.2 23.5 -13.2 5.2 -3 9.5 -5.4 9.7 -5.4 0.2 0 3.1 -1.6 6.4 -3.5 3.2 -1.9 6.9 -3.5 8.1 -3.5 1.3 0 4.8 1.4 7.9 3.1 14.5 8.2 31.6 17.8 41.8 23.6 12.7 7.2 22.2 12.5 27.1 15 1.8 0.9 3.1 2.1 2.9 2.6 -0.4 1.3 -23.5 14.7 -25.3 14.7 -0.8 0 -1.4 -0.4 -1.4 -1 0 -1.4 -8.7 -10.9 -13.9 -15.2 -5.3 -4.4 -10.7 -7.1 -21.1 -10.5 -6 -2 -9.6 -2.5 -18 -2.5 -15.5 0 -26.4 3.6 -37.5 12.3 -10 7.9 -14.9 14 -20.2 25.2 -7.2 15.3 -7.3 37 -0.2 50.9 1 2.1 1.9 4.4 1.9 5.2 0 0.8 -2.3 2.6 -5 4 -2.8 1.4 -8.2 4.4 -12 6.6 -3.7 2.2 -7.6 4 -8.4 4 -1.4 0 -1.6 -4.7 -1.6 -45.2z"/>
  <path d="M451.1 485.5 c-4 -10.7 -2.2 -20.7 5.5 -30 7.1 -8.8 17.5 -12.1 29.3 -9.6 5.7 1.2 13.5 5.9 16.4 9.8 1.8 2.4 1.8 2.5 0 3.8 -1 0.8 -2.9 2 -4.3 2.7 -7.8 4.1 -21 12.1 -21 12.8 0 0.5 -1.1 1.5 -2.4 2.2 -1.3 0.7 -6.4 4 -11.3 7.3 -4.8 3.3 -9.1 6.1 -9.5 6.3 -0.3 0.2 -1.6 -2.2 -2.7 -5.3z"/>
 </g>
</svg>