<!DOCTYPE svg PUBLIC "-//W3C//DTD SVG 20010904//EN" "http://www.w3.org/TR/2001/REC-SVG-20010904/DTD/svg10.dtd">
<svg version="1.0" xmlns="http://www.w3.org/2000/svg" width="926px" height="617px" viewBox="0 0 9260 6170" preserveAspectRatio="xMidYMid meet">
<g id="layer101" fill="#0e4b79" stroke="none">
<path d="M0 3085 l0 -3085 4630 0 4630 0 0 3085 0 3085 -4630 0 -4630 0 0 -3085z"/>
</g>
<g id="layer102" fill="#76d0a7" stroke="none">
<path d="M0 3085 l0 -3085 894 0 893 0 -8 38 c-40 190 -101 297 -209 370 -57 38 -143 75 -235 101 -184 51 -297 102 -340 153 -23 27 -24 32 -11 56 43 82 128 118 350 147 261 35 579 4 835 -81 138 -46 245 -107 348 -200 66 -59 123 -201 138 -339 9 -90 26 -208 31 -227 5 -17 170 -18 3290 -18 l3284 0 0 832 c0 457 -2 829 -4 827 -2 -2 -6 -13 -8 -24 -1 -11 -7 -24 -11 -30 -4 -5 -31 -50 -60 -98 -102 -172 -230 -273 -432 -339 -60 -20 -91 -23 -215 -23 -126 0 -154 3 -210 23 -87 31 -177 75 -282 139 -143 87 -444 243 -468 243 -6 0 -10 29 -10 73 -1 133 -33 267 -92 376 -71 132 -138 207 -273 308 -128 95 -475 455 -475 492 0 87 190 313 369 439 210 148 522 255 871 301 41 6 118 16 170 23 52 7 200 12 330 13 218 0 240 -2 308 -23 188 -59 376 -214 463 -381 11 -23 23 -41 25 -41 2 0 4 684 4 1520 l0 1520 -3670 0 c-2018 0 -3670 -3 -3670 -7 0 -19 40 -332 46 -363 23 -119 124 -257 244 -336 219 -144 285 -213 296 -310 6 -47 3 -53 -53 -135 -84 -124 -94 -134 -154 -165 -53 -28 -58 -29 -214 -29 -194 0 -251 9 -401 61 -112 38 -199 85 -329 175 -113 79 -237 191 -297 269 -61 79 -116 216 -158 395 -41 175 -57 232 -80 282 -11 24 -20 45 -20 49 0 3 -16 30 -36 60 l-36 54 -364 0 -364 0 0 -3085z m4721 1431 c20 -7 171 -91 335 -186 165 -96 445 -259 624 -362 179 -104 335 -199 347 -210 13 -12 34 -44 48 -72 l25 -50 0 -775 c0 -730 -2 -778 -19 -816 -10 -22 -32 -54 -49 -71 -16 -17 -164 -109 -329 -204 -164 -95 -323 -188 -353 -206 -235 -139 -612 -353 -639 -362 -44 -15 -138 -15 -182 0 -18 6 -99 49 -179 96 -80 47 -188 109 -240 140 -712 412 -861 500 -893 530 -20 20 -46 55 -57 77 -19 40 -20 64 -20 816 l0 775 25 50 c14 28 35 60 48 72 29 27 320 195 423 244 107 50 205 66 305 49 169 -28 265 -132 289 -312 5 -41 10 -386 10 -771 0 -816 12 -738 -118 -738 -54 0 -84 5 -100 16 l-22 15 0 728 0 728 -22 33 c-40 58 -72 75 -142 75 -72 0 -101 -14 -331 -148 l-140 -82 -3 -731 c-2 -686 -1 -732 15 -746 10 -8 155 -94 323 -190 168 -97 439 -253 602 -347 163 -94 306 -171 316 -171 11 0 188 97 393 216 206 119 480 277 609 351 129 75 241 140 248 145 9 8 12 168 12 739 l0 728 -92 54 c-51 30 -250 145 -443 257 -192 112 -431 250 -529 307 -99 58 -187 105 -195 106 -9 0 -89 -43 -178 -96 -90 -53 -167 -97 -173 -97 -6 0 -33 11 -60 25 -27 14 -74 34 -105 46 -30 11 -55 26 -55 34 0 7 89 66 198 131 290 173 292 174 371 174 36 -1 82 -7 102 -14z m-2916 -948 c37 -43 89 -151 107 -223 9 -33 21 -105 27 -160 20 -174 34 -259 47 -299 21 -59 21 -59 -53 -53 -75 7 -235 -11 -328 -37 -114 -32 -220 -92 -304 -175 -71 -69 -80 -81 -91 -133 -15 -65 -4 -120 32 -170 20 -29 10 -40 -12 -13 -7 8 -18 15 -24 15 -15 0 -82 70 -135 141 -71 96 -118 208 -162 387 -15 62 -11 69 66 97 81 28 247 119 331 181 100 73 278 251 378 377 42 53 81 97 86 97 4 0 20 -14 35 -32z m3365 -23 c168 -25 262 -68 343 -154 76 -81 91 -125 92 -261 0 -133 -13 -169 -86 -234 -81 -74 -197 -110 -489 -151 -221 -31 -336 -60 -367 -91 -18 -18 -23 -34 -23 -71 0 -98 63 -146 219 -166 165 -20 352 15 411 78 12 12 34 54 49 91 l28 69 104 0 104 0 0 -60 c-1 -131 -86 -265 -208 -326 -109 -56 -193 -72 -377 -72 -186 -1 -256 11 -366 65 -84 41 -165 126 -190 200 -12 34 -19 81 -19 133 0 71 4 89 33 147 66 135 185 185 542 228 316 38 400 75 400 173 0 83 -51 144 -143 172 -73 22 -274 31 -378 16 -159 -23 -235 -81 -259 -197 -10 -45 -16 -57 -38 -65 -40 -16 -180 -7 -193 11 -15 22 -3 128 21 193 42 113 168 213 316 251 140 36 323 44 474 21z"/>
</g>
<g id="layer103" fill="#fde89d" stroke="none">
<path d="M0 3085 l0 -3085 894 0 893 0 -8 38 c-40 190 -101 297 -209 370 -57 38 -143 75 -235 101 -184 51 -297 102 -340 153 -23 27 -24 32 -11 56 43 82 128 118 350 147 261 35 579 4 835 -81 138 -46 245 -107 348 -200 66 -59 123 -201 138 -339 9 -90 26 -208 31 -227 5 -17 170 -18 3290 -18 l3284 0 0 832 c0 457 -2 829 -4 827 -2 -2 -6 -13 -8 -24 -1 -11 -7 -24 -11 -30 -4 -5 -31 -50 -60 -98 -102 -172 -230 -273 -432 -339 -60 -20 -91 -23 -215 -23 -126 0 -154 3 -210 23 -87 31 -177 75 -282 139 -155 94 -444 243 -472 243 -8 0 -17 -8 -19 -17 -40 -155 -54 -205 -84 -298 -76 -235 -172 -444 -280 -608 -187 -283 -452 -413 -684 -335 -192 64 -372 212 -456 374 -65 126 -76 249 -48 539 19 190 19 318 1 422 -15 83 -67 223 -90 242 -13 11 -80 -26 -546 -299 -324 -190 -622 -359 -649 -368 -44 -15 -138 -15 -182 0 -18 6 -99 49 -179 96 -80 47 -188 109 -240 140 -712 412 -861 500 -893 530 -20 20 -46 55 -57 77 -19 40 -20 64 -20 816 l0 775 25 50 c14 28 35 60 48 72 29 27 320 195 423 244 107 50 205 66 305 49 169 -28 265 -132 289 -312 5 -41 10 -386 10 -771 0 -816 12 -738 -118 -738 -54 0 -84 5 -100 16 l-22 15 0 728 0 728 -23 33 c-39 58 -71 75 -141 75 -72 0 -101 -14 -331 -148 l-140 -82 -3 -731 c-2 -686 -1 -732 15 -746 10 -8 155 -94 323 -190 168 -97 439 -253 602 -347 163 -94 306 -171 316 -171 11 0 188 97 393 216 206 119 457 264 558 322 l183 106 -33 29 c-39 32 -267 208 -284 219 -7 4 -41 -8 -78 -28 -112 -59 -198 -77 -387 -77 -186 -1 -256 11 -366 65 -84 41 -165 126 -190 200 -12 34 -19 81 -19 133 0 71 4 89 33 147 36 74 72 106 165 148 73 32 165 54 297 69 168 20 154 14 174 78 10 32 25 67 33 80 12 18 108 85 188 129 33 18 28 34 -18 54 -127 56 -447 51 -565 -9 -55 -28 -98 -89 -112 -157 -10 -45 -16 -57 -38 -65 -40 -16 -180 -7 -193 11 -6 8 -8 42 -5 76 12 147 89 255 230 324 185 90 502 105 726 34 94 -29 152 -66 212 -133 l48 -53 155 -2 155 -3 0 133 0 133 -92 54 c-51 30 -250 145 -443 257 -192 112 -431 250 -529 307 -99 58 -187 105 -195 106 -9 0 -89 -43 -178 -96 -90 -53 -167 -97 -173 -97 -6 0 -33 11 -60 25 -27 14 -74 34 -105 46 -30 11 -55 26 -55 34 0 7 89 66 198 131 290 173 292 174 371 174 36 -1 82 -7 102 -14 20 -7 171 -91 335 -186 165 -96 439 -254 609 -353 171 -99 325 -191 342 -204 18 -13 45 -45 60 -71 27 -46 28 -51 33 -246 l5 -199 50 -27 c105 -55 152 -84 225 -138 71 -53 249 -216 278 -254 7 -10 22 -22 32 -28 17 -9 23 -3 51 52 61 121 202 273 348 376 210 148 522 255 871 301 41 6 118 16 170 23 52 7 200 12 330 13 218 0 240 -2 308 -23 188 -59 376 -214 463 -381 11 -23 23 -41 25 -41 2 0 4 684 4 1520 l0 1520 -1232 -1 c-678 0 -1226 -3 -1218 -6 8 -3 19 -10 25 -15 5 -4 40 -30 76 -57 158 -118 189 -205 189 -532 0 -190 -9 -262 -48 -370 -25 -72 -90 -160 -139 -190 -105 -65 -247 -63 -374 6 -129 69 -160 119 -229 355 -50 171 -103 263 -186 323 -46 34 -148 74 -304 122 -254 77 -390 193 -390 334 l0 31 -1755 0 c-965 0 -1755 -3 -1755 -7 0 -19 40 -332 46 -363 23 -119 124 -257 244 -336 219 -144 285 -213 296 -310 6 -47 3 -53 -53 -135 -84 -124 -93 -134 -154 -165 -54 -29 -54 -29 -234 -28 -190 1 -233 7 -381 59 -113 40 -200 86 -329 176 -148 103 -257 208 -331 319 -44 67 -82 172 -120 330 -47 198 -61 247 -84 297 -11 24 -20 45 -20 49 0 3 -16 30 -36 60 l-36 54 -364 0 -364 0 0 -3085z m1858 396 c47 -91 66 -162 81 -296 36 -315 52 -365 122 -365 12 0 36 -4 53 -9 17 -6 69 -21 116 -35 258 -77 449 -222 602 -457 121 -185 158 -311 159 -544 0 -279 -74 -469 -253 -647 -94 -94 -108 -104 -233 -159 -43 -19 -114 -29 -207 -29 -198 0 -369 78 -427 196 -39 78 -39 150 1 363 15 82 15 239 -1 304 -10 40 -26 71 -53 102 -38 44 -156 125 -181 125 -7 0 -19 6 -25 13 -7 6 -16 12 -20 12 -15 1 -122 60 -122 67 0 4 -7 8 -15 8 -8 0 -15 5 -15 10 0 6 -7 10 -15 10 -8 0 -28 14 -45 30 -17 17 -36 30 -43 30 -7 0 -37 25 -67 55 -30 30 -59 55 -65 55 -14 0 -82 72 -134 141 -73 99 -116 202 -161 384 l-17 70 75 27 c100 37 245 115 339 184 99 72 297 271 388 391 l70 91 27 -25 c15 -15 45 -60 66 -102z"/>
</g>
<g id="layer104" fill="#feffff" stroke="none">
<path d="M0 5859 c0 -291 1 -310 18 -305 145 44 407 44 602 0 112 -25 298 -86 353 -115 22 -12 22 2 2 42 -20 38 -48 130 -75 244 -41 175 -57 232 -80 282 -11 24 -20 45 -20 49 0 3 -16 30 -36 60 l-36 54 -364 0 -364 0 0 -311z"/>
<path d="M1920 6163 c0 -19 40 -332 46 -363 23 -119 124 -257 244 -336 219 -144 285 -213 296 -310 6 -47 3 -53 -53 -135 -84 -124 -93 -134 -154 -165 -53 -29 -56 -29 -225 -29 l-171 0 28 -50 c79 -145 102 -237 102 -420 0 -123 -4 -164 -22 -230 -43 -157 -92 -269 -181 -415 l-61 -101 30 -35 c41 -46 94 -153 113 -229 9 -33 21 -105 27 -160 36 -315 52 -365 122 -365 12 0 36 -4 53 -9 17 -6 69 -21 116 -35 258 -77 449 -222 602 -457 121 -185 158 -311 159 -544 0 -279 -74 -469 -253 -647 -94 -94 -108 -104 -233 -159 -43 -19 -114 -29 -207 -29 -198 0 -369 78 -427 196 -39 78 -39 150 1 363 15 82 15 239 -1 304 -10 40 -26 71 -53 102 -39 44 -156 125 -182 125 -7 0 -19 7 -26 15 -6 8 -15 13 -18 12 -11 -3 -122 56 -122 65 0 4 -7 8 -15 8 -8 0 -15 5 -15 10 0 6 -7 10 -15 10 -8 0 -28 13 -45 30 -17 16 -36 30 -43 30 -7 0 -37 25 -67 55 -30 30 -59 55 -65 55 -14 0 -82 72 -134 141 -72 98 -124 223 -162 392 l-14 57 -50 -7 c-98 -15 -255 -7 -335 17 -158 47 -301 140 -388 251 -58 75 -110 169 -104 188 3 8 0 11 -7 7 -8 -5 -11 -449 -11 -1687 l0 -1679 894 0 893 0 -8 37 c-40 191 -101 298 -209 371 -57 38 -143 75 -235 101 -184 51 -297 102 -340 153 -23 27 -24 32 -11 56 43 82 128 118 350 147 261 35 579 4 835 -81 138 -46 245 -107 348 -200 66 -59 123 -201 138 -339 9 -90 26 -208 31 -227 5 -17 170 -18 3290 -18 l3284 0 0 832 c0 457 -2 829 -4 827 -2 -2 -6 -13 -8 -24 -1 -11 -7 -24 -11 -30 -4 -5 -31 -50 -60 -98 -102 -172 -230 -273 -432 -339 -60 -20 -91 -23 -215 -23 -126 0 -154 3 -210 23 -87 31 -177 75 -282 139 -155 94 -444 243 -472 243 -8 0 -17 -8 -19 -18 -40 -154 -54 -204 -84 -297 -76 -235 -172 -444 -280 -608 -187 -283 -452 -413 -684 -335 -192 64 -372 212 -456 374 -65 126 -76 249 -48 539 19 190 19 318 1 422 -15 83 -67 223 -90 242 -13 11 -80 -26 -546 -299 -324 -190 -622 -359 -649 -368 -44 -15 -138 -15 -182 0 -18 6 -99 49 -179 96 -80 47 -188 109 -240 140 -712 412 -861 500 -893 530 -20 20 -46 55 -57 77 -19 40 -20 64 -20 816 l0 775 25 50 c14 28 35 60 48 72 29 27 320 195 423 244 107 50 205 66 305 49 169 -28 265 -132 289 -312 5 -41 10 -386 10 -771 0 -816 12 -738 -118 -738 -54 0 -84 5 -100 16 l-22 15 0 728 0 728 -22 33 c-40 58 -72 75 -142 75 -72 0 -101 -14 -331 -148 l-140 -82 -3 -731 c-2 -686 -1 -732 15 -746 10 -8 155 -94 323 -190 168 -97 439 -253 602 -347 163 -94 306 -171 316 -171 11 0 188 97 393 216 206 119 457 264 558 322 l183 106 -33 29 c-39 32 -267 208 -284 219 -7 4 -41 -8 -78 -28 -112 -59 -198 -77 -387 -77 -186 -1 -256 11 -366 65 -84 41 -165 126 -190 200 -12 34 -19 81 -19 133 0 71 4 89 33 147 36 74 72 106 165 148 73 32 165 54 297 69 168 20 154 14 174 78 10 32 25 67 33 80 12 18 108 85 188 129 33 18 28 34 -18 54 -127 56 -447 51 -565 -9 -55 -28 -98 -89 -112 -157 -10 -45 -16 -57 -38 -65 -40 -16 -180 -7 -193 11 -6 8 -8 42 -5 76 12 147 89 255 230 324 185 90 502 105 726 34 94 -29 152 -66 212 -133 l48 -53 155 -2 155 -3 0 133 0 133 -92 54 c-51 30 -250 145 -443 257 -192 112 -431 250 -529 307 -99 58 -187 105 -195 106 -9 0 -89 -43 -178 -96 -90 -53 -167 -97 -173 -97 -6 0 -33 11 -60 25 -27 14 -74 34 -105 46 -30 11 -55 26 -55 34 0 7 89 66 198 131 290 173 292 174 371 174 36 -1 82 -7 102 -14 20 -7 171 -91 335 -186 165 -96 439 -254 609 -353 171 -99 325 -191 342 -204 18 -13 45 -45 60 -71 27 -46 28 -51 33 -246 l5 -199 50 -27 c105 -55 152 -84 225 -138 71 -53 249 -216 278 -254 7 -10 22 -22 32 -28 17 -9 23 -3 51 52 61 121 202 273 348 376 210 148 522 255 871 301 41 6 118 16 170 23 52 7 200 12 330 13 218 0 240 -2 308 -23 188 -59 376 -214 463 -381 11 -23 23 -41 25 -41 2 0 4 684 4 1520 l0 1520 -1232 -1 c-678 0 -1226 -3 -1218 -6 8 -3 19 -10 25 -15 5 -4 40 -30 76 -57 158 -118 189 -205 189 -532 0 -190 -9 -262 -48 -370 -25 -72 -90 -160 -139 -190 -105 -65 -247 -63 -374 6 -129 69 -160 119 -229 355 -50 171 -103 263 -186 323 -46 34 -148 74 -304 122 -254 77 -390 193 -390 334 l0 31 -1755 0 c-965 0 -1755 -3 -1755 -7z"/>
<path d="M4924 2730 c-148 -23 -249 -54 -269 -82 -21 -31 -19 -106 4 -144 25 -41 88 -70 181 -85 129 -20 328 3 384 44 19 14 19 15 -4 48 -13 19 -27 36 -30 39 -11 8 -84 123 -100 155 -16 32 -29 45 -45 44 -5 -1 -60 -9 -121 -19z"/>
</g>


</svg>