<!DOCTYPE svg PUBLIC "-//W3C//DTD SVG 20010904//EN" "http://www.w3.org/TR/2001/REC-SVG-20010904/DTD/svg10.dtd">
<svg version="1.0" xmlns="http://www.w3.org/2000/svg" width="506px" height="338px" viewBox="0 0 5060 3380" preserveAspectRatio="xMidYMid meet">
<g id="layer101" fill="#344866" stroke="none">
<path d="M0 1690 l0 -1690 2530 0 2530 0 0 1690 0 1690 -2530 0 -2530 0 0 -1690z"/>
</g>
<g id="layer102" fill="#18498b" stroke="none">
<path d="M478 3370 c393 -4 479 -7 462 -18 -12 -7 -20 -8 -20 -2 0 7 -157 10 -460 10 l-460 0 0 -199 c0 -150 3 -201 13 -204 10 -4 10 -6 0 -6 -10 -1 -13 -60 -13 -262 l0 -262 40 7 c25 4 40 2 40 -4 0 -5 -18 -10 -40 -10 l-40 0 0 -1210 0 -1210 2530 0 2530 0 0 1680 0 1680 -1842 0 c-1014 0 -1847 1 -1853 2 -5 2 825 5 1845 8 1825 5 1814 5 -680 5 -1394 0 -2318 -2 -2052 -5z m929 -45 c8 -9 13 -18 11 -21 -3 -2 -13 5 -23 16 -21 23 -11 27 12 5z m-527 -9 c0 -3 -4 -8 -10 -11 -5 -3 -10 -1 -10 4 0 6 5 11 10 11 6 0 10 -2 10 -4z m2667 -22 c-3 -3 -12 -4 -19 -1 -8 3 -5 6 6 6 11 1 17 -2 13 -5z m370 0 c-3 -3 -12 -4 -19 -1 -8 3 -5 6 6 6 11 1 17 -2 13 -5z m-3097 -18 c0 -3 -4 -8 -10 -11 -5 -3 -10 -1 -10 4 0 6 5 11 10 11 6 0 10 -2 10 -4z m3337 -3 c-4 -3 -10 -3 -14 0 -3 4 0 7 7 7 7 0 10 -3 7 -7z m-3377 -17 c0 -3 -4 -8 -10 -11 -5 -3 -10 -1 -10 4 0 6 5 11 10 11 6 0 10 -2 10 -4z m680 -6 c0 -5 -2 -10 -4 -10 -3 0 -8 5 -11 10 -3 6 -1 10 4 10 6 0 11 -4 11 -10z m1837 -7 c-4 -3 -10 -3 -14 0 -3 4 0 7 7 7 7 0 10 -3 7 -7z m-2557 -7 c0 -3 -4 -8 -10 -11 -5 -3 -10 -1 -10 4 0 6 5 11 10 11 6 0 10 -2 10 -4z m3387 -13 c-4 -3 -10 -3 -14 0 -3 4 0 7 7 7 7 0 10 -3 7 -7z m-3427 -7 c0 -3 -4 -8 -10 -11 -5 -3 -10 -1 -10 4 0 6 5 11 10 11 6 0 10 -2 10 -4z m777 -13 c-4 -3 -7 0 -7 7 0 7 3 10 7 7 3 -4 3 -10 0 -14z m2780 0 c-4 -3 -10 -3 -14 0 -3 4 0 7 7 7 7 0 10 -3 7 -7z m-3597 -7 c0 -3 -4 -8 -10 -11 -5 -3 -10 -1 -10 4 0 6 5 11 10 11 6 0 10 -2 10 -4z m-43 -23 c-4 -3 -10 -3 -14 0 -3 4 0 7 7 7 7 0 10 -3 7 -7z m880 -10 c-4 -3 -7 0 -7 7 0 7 3 10 7 7 3 -4 3 -10 0 -14z m2500 -10 c-4 -3 -10 -3 -14 0 -3 4 0 7 7 7 7 0 10 -3 7 -7z m-3477 -17 c0 -3 -4 -8 -10 -11 -5 -3 -10 -1 -10 4 0 6 5 11 10 11 6 0 10 -2 10 -4z m1000 -18 c0 -19 -2 -20 -10 -8 -13 19 -13 30 0 30 6 0 10 -10 10 -22z m-1040 -2 c0 -3 -4 -8 -10 -11 -5 -3 -10 -1 -10 4 0 6 5 11 10 11 6 0 10 -2 10 -4z m3248 -13 c-10 -2 -26 -2 -35 0 -10 3 -2 5 17 5 19 0 27 -2 18 -5z m609 -10 c-4 -3 -10 -3 -14 0 -3 4 0 7 7 7 7 0 10 -3 7 -7z m-1140 -9 c-3 -3 -12 -4 -19 -1 -8 3 -5 6 6 6 11 1 17 -2 13 -5z m-2817 -8 c0 -3 -4 -8 -10 -11 -5 -3 -10 -1 -10 4 0 6 5 11 10 11 6 0 10 -2 10 -4z m1160 -53 c0 -43 -5 -41 -13 5 -4 18 -2 32 3 32 6 0 10 -16 10 -37z m-1260 13 c0 -2 -9 -6 -20 -9 -11 -3 -20 -1 -20 4 0 5 9 9 20 9 11 0 20 -2 20 -4z m-63 -23 c-4 -3 -10 -3 -14 0 -3 4 0 7 7 7 7 0 10 -3 7 -7z m-67 -23 c-19 -13 -30 -13 -30 0 0 6 10 10 23 10 18 0 19 -2 7 -10z m-50 -14 c0 -2 -9 -6 -20 -9 -11 -3 -20 -1 -20 4 0 5 9 9 20 9 11 0 20 -2 20 -4z m2797 -33 c-4 -3 -10 -3 -14 0 -3 4 0 7 7 7 7 0 10 -3 7 -7z m590 -30 c-4 -3 -10 -3 -14 0 -3 4 0 7 7 7 7 0 10 -3 7 -7z m530 -40 c-4 -3 -10 -3 -14 0 -3 4 0 7 7 7 7 0 10 -3 7 -7z m-420 -69 c-3 -3 -12 -4 -19 -1 -8 3 -5 6 6 6 11 1 17 -2 13 -5z m110 0 c-3 -3 -12 -4 -19 -1 -8 3 -5 6 6 6 11 1 17 -2 13 -5z m-2147 -186 c0 -67 -2 -119 -4 -117 -8 10 -14 239 -5 239 5 0 9 -54 9 -122z m2477 -25 c-4 -3 -10 -3 -14 0 -3 4 0 7 7 7 7 0 10 -3 7 -7z m-520 -50 c-4 -3 -10 -3 -14 0 -3 4 0 7 7 7 7 0 10 -3 7 -7z m190 1 c-3 -3 -12 -4 -19 -1 -8 3 -5 6 6 6 11 1 17 -2 13 -5z m-3130 -21 c-4 -3 -10 -3 -14 0 -3 4 0 7 7 7 7 0 10 -3 7 -7z m-57 -13 c0 -5 -10 -10 -22 -9 -22 0 -22 1 -3 9 11 5 21 9 23 9 1 1 2 -3 2 -9z m-100 -20 c0 -5 -10 -10 -22 -9 -22 0 -22 1 -3 9 11 5 21 9 23 9 1 1 2 -3 2 -9z m-100 -20 c0 -5 -15 -10 -32 -9 -31 1 -32 1 -8 9 35 11 40 11 40 0z m-120 -20 c0 -5 -10 -10 -22 -9 -22 0 -22 1 -3 9 11 5 21 9 23 9 1 1 2 -3 2 -9z m297 -20 c-14 -11 -29 -20 -33 -20 -4 0 3 9 16 20 13 11 27 20 33 20 5 0 -2 -9 -16 -20z m-77 -54 c0 -3 -4 -8 -10 -11 -5 -3 -10 -1 -10 4 0 6 5 11 10 11 6 0 10 -2 10 -4z m-75 -56 c-10 -11 -20 -18 -23 -16 -5 6 21 35 32 36 5 0 1 -9 -9 -20z m909 -167 c-3 -82 -8 -150 -10 -152 -2 -2 -4 64 -4 147 0 96 4 152 10 152 7 0 8 -50 4 -147z m-974 123 c0 -3 -4 -8 -10 -11 -5 -3 -10 -1 -10 4 0 6 5 11 10 11 6 0 10 -2 10 -4z m-50 -31 c-7 -8 -17 -15 -22 -15 -11 0 14 29 26 30 5 0 3 -7 -4 -15z m-50 -29 c0 -3 -4 -8 -10 -11 -5 -3 -10 -1 -10 4 0 6 5 11 10 11 6 0 10 -2 10 -4z m1000 -6 c0 -5 -4 -10 -10 -10 -5 0 -10 5 -10 10 0 6 5 10 10 10 6 0 10 -4 10 -10z m2017 3 c-4 -3 -10 -3 -14 0 -3 4 0 7 7 7 7 0 10 -3 7 -7z m-3057 -17 c0 -3 -4 -8 -10 -11 -5 -3 -10 -1 -10 4 0 6 5 11 10 11 6 0 10 -2 10 -4z m3696 -34 c-6 -5 -36 23 -36 34 0 4 9 -1 20 -11 11 -10 18 -20 16 -23z m30 23 c9 -8 11 -15 6 -15 -5 0 -15 7 -22 15 -7 8 -9 15 -6 15 4 0 14 -7 22 -15z m-2317 -159 c-9 -8 -10 1 -5 38 3 27 7 67 8 90 1 23 4 5 5 -38 3 -52 0 -83 -8 -90z m-488 65 c-45 -45 -86 -81 -90 -81 -5 0 30 38 78 84 47 47 87 83 89 81 2 -2 -33 -40 -77 -84z m-984 62 c-4 -3 -10 -3 -14 0 -3 4 0 7 7 7 7 0 10 -3 7 -7z m4340 0 c-4 -3 -10 -3 -14 0 -3 4 0 7 7 7 7 0 10 -3 7 -7z m-4380 -20 c-4 -3 -10 -3 -14 0 -3 4 0 7 7 7 7 0 10 -3 7 -7z m3663 -13 c0 -11 -4 -20 -8 -20 -4 0 -8 9 -9 20 -1 11 2 20 8 20 5 0 9 -9 9 -20z m147 3 c-4 -3 -7 0 -7 7 0 7 3 10 7 7 3 -4 3 -10 0 -14z m119 -38 c9 -8 11 -15 6 -15 -5 0 -15 7 -22 15 -7 8 -9 15 -6 15 4 0 14 -7 22 -15z m-286 -15 c0 -5 -5 -10 -11 -10 -5 0 -7 5 -4 10 3 6 8 10 11 10 2 0 4 -4 4 -10z m180 -35 c0 -2 -5 -16 -12 -30 -11 -25 -28 -34 -28 -15 0 6 5 10 10 10 6 0 10 9 10 20 0 11 5 20 10 20 6 0 10 -2 10 -5z m-234 -40 c-9 -9 -16 -13 -16 -8 0 12 22 34 28 28 2 -2 -3 -11 -12 -20z m374 -25 c0 -27 -3 -50 -7 -50 -5 0 -8 23 -8 50 0 28 3 50 8 50 4 0 7 -22 7 -50z m-195 -30 c-10 -11 -20 -18 -23 -16 -5 6 21 35 32 36 5 0 1 -9 -9 -20z m-335 -35 c-13 -14 -25 -23 -28 -21 -5 6 41 55 47 50 3 -2 -6 -15 -19 -29z m110 25 c0 -5 -5 -10 -11 -10 -5 0 -7 5 -4 10 3 6 8 10 11 10 2 0 4 -4 4 -10z m-2043 -27 c-4 -3 -7 0 -7 7 0 7 3 10 7 7 3 -4 3 -10 0 -14z m2023 -13 c0 -5 -5 -10 -11 -10 -5 0 -7 5 -4 10 3 6 8 10 11 10 2 0 4 -4 4 -10z m420 0 c0 -5 -5 -10 -11 -10 -5 0 -7 5 -4 10 3 6 8 10 11 10 2 0 4 -4 4 -10z m-3173 -27 c-4 -3 -7 0 -7 7 0 7 3 10 7 7 3 -4 3 -10 0 -14z m2953 13 c0 -3 -4 -8 -10 -11 -5 -3 -10 -1 -10 4 0 6 5 11 10 11 6 0 10 -2 10 -4z m-220 -26 c0 -5 -5 -10 -11 -10 -5 0 -7 5 -4 10 3 6 8 10 11 10 2 0 4 -4 4 -10z m420 0 c0 -5 -5 -10 -11 -10 -5 0 -7 5 -4 10 3 6 8 10 11 10 2 0 4 -4 4 -10z m-3153 -27 c-4 -3 -7 0 -7 7 0 7 3 10 7 7 3 -4 3 -10 0 -14z m2613 13 c0 -3 -4 -8 -10 -11 -5 -3 -10 -1 -10 4 0 6 5 11 10 11 6 0 10 -2 10 -4z m320 0 c0 -3 -4 -8 -10 -11 -5 -3 -10 -1 -10 4 0 6 5 11 10 11 6 0 10 -2 10 -4z m-2994 -21 c-8 -8 -18 -15 -22 -15 -3 0 -1 7 6 15 7 8 17 15 22 15 5 0 3 -7 -6 -15z m569 -5 c3 -5 1 -10 -4 -10 -6 0 -11 5 -11 10 0 6 2 10 4 10 3 0 8 -4 11 -10z m2205 0 c0 -5 -5 -10 -11 -10 -5 0 -7 5 -4 10 3 6 8 10 11 10 2 0 4 -4 4 -10z m-120 -14 c0 -3 -4 -8 -10 -11 -5 -3 -10 -1 -10 4 0 6 5 11 10 11 6 0 10 -2 10 -4z m314 -23 c-7 -37 -14 -42 -14 -11 0 21 7 38 16 38 1 0 0 -12 -2 -27z m206 17 c0 -5 -5 -10 -11 -10 -5 0 -7 5 -4 10 3 6 8 10 11 10 2 0 4 -4 4 -10z m-540 -37 c0 -5 -5 -15 -10 -23 -8 -12 -10 -11 -10 8 0 12 5 22 10 22 6 0 10 -3 10 -7z m497 -30 c-4 -3 -7 0 -7 7 0 7 3 10 7 7 3 -4 3 -10 0 -14z m-3337 -53 c0 -5 -5 -10 -11 -10 -5 0 -7 5 -4 10 3 6 8 10 11 10 2 0 4 -4 4 -10z m3317 -32 c-3 -7 -5 -2 -5 12 0 14 2 19 5 13 2 -7 2 -19 0 -25z m-337 0 c0 -19 -2 -20 -10 -8 -13 19 -13 30 0 30 6 0 10 -10 10 -22z m187 -10 c-3 -7 -5 -2 -5 12 0 14 2 19 5 13 2 -7 2 -19 0 -25z m-3227 2 c0 -5 -5 -10 -11 -10 -5 0 -7 5 -4 10 3 6 8 10 11 10 2 0 4 -4 4 -10z m-40 -20 c0 -5 -5 -10 -11 -10 -5 0 -7 5 -4 10 3 6 8 10 11 10 2 0 4 -4 4 -10z m1007 -7 c-4 -3 -7 0 -7 7 0 7 3 10 7 7 3 -4 3 -10 0 -14z m1931 -18 c-3 -3 -9 2 -12 12 -6 14 -5 15 5 6 7 -7 10 -15 7 -18z m159 -2 c-4 -3 -7 0 -7 7 0 7 3 10 7 7 3 -4 3 -10 0 -14z m190 0 c-4 -3 -7 0 -7 7 0 7 3 10 7 7 3 -4 3 -10 0 -14z m-3330 0 c-4 -3 -10 -3 -14 0 -3 4 0 7 7 7 7 0 10 -3 7 -7z m-57 -33 c0 -5 -5 -10 -11 -10 -5 0 -7 5 -4 10 3 6 8 10 11 10 2 0 4 -4 4 -10z m3055 0 c3 -5 1 -10 -4 -10 -6 0 -11 5 -11 10 0 6 2 10 4 10 3 0 8 -4 11 -10z m360 0 c3 -5 1 -10 -4 -10 -6 0 -11 5 -11 10 0 6 2 10 4 10 3 0 8 -4 11 -10z m145 0 c0 -5 -2 -10 -4 -10 -3 0 -8 5 -11 10 -3 6 -1 10 4 10 6 0 11 -4 11 -10z m-274 -66 c31 -30 54 -57 52 -59 -2 -3 -31 22 -63 55 -33 33 -56 60 -52 60 4 0 33 -25 63 -56z m-152 -31 c24 -26 43 -49 41 -51 -4 -4 -95 85 -95 93 0 11 11 3 54 -42z m-3314 17 c0 -5 -5 -10 -11 -10 -5 0 -7 5 -4 10 3 6 8 10 11 10 2 0 4 -4 4 -10z m-40 -20 c0 -5 -5 -10 -11 -10 -5 0 -7 5 -4 10 3 6 8 10 11 10 2 0 4 -4 4 -10z m3756 -28 c-6 -5 -36 23 -36 34 0 4 9 -1 20 -11 11 -10 18 -20 16 -23z m-3816 8 c0 -5 -5 -10 -11 -10 -5 0 -7 5 -4 10 3 6 8 10 11 10 2 0 4 -4 4 -10z m3960 0 c0 -5 -2 -10 -4 -10 -3 0 -8 5 -11 10 -3 6 -1 10 4 10 6 0 11 -4 11 -10z m-85 -40 c3 -5 1 -10 -4 -10 -6 0 -11 5 -11 10 0 6 2 10 4 10 3 0 8 -4 11 -10z m40 -20 c3 -5 1 -10 -4 -10 -6 0 -11 5 -11 10 0 6 2 10 4 10 3 0 8 -4 11 -10z m125 0 c0 -5 -2 -10 -4 -10 -3 0 -8 5 -11 10 -3 6 -1 10 4 10 6 0 11 -4 11 -10z m-265 -75 c36 -36 62 -65 57 -65 -4 0 -37 29 -72 65 -35 36 -61 65 -57 65 4 0 37 -29 72 -65z m182 48 c-4 -3 -10 -3 -14 0 -3 4 0 7 7 7 7 0 10 -3 7 -7z m-402 -13 c3 -5 1 -10 -4 -10 -6 0 -11 5 -11 10 0 6 2 10 4 10 3 0 8 -4 11 -10z m440 0 c3 -5 1 -10 -4 -10 -6 0 -11 5 -11 10 0 6 2 10 4 10 3 0 8 -4 11 -10z m105 0 c0 -5 -2 -10 -4 -10 -3 0 -8 5 -11 10 -3 6 -1 10 4 10 6 0 11 -4 11 -10z m-65 -20 c3 -5 1 -10 -4 -10 -6 0 -11 5 -11 10 0 6 2 10 4 10 3 0 8 -4 11 -10z m105 0 c0 -5 -2 -10 -4 -10 -3 0 -8 5 -11 10 -3 6 -1 10 4 10 6 0 11 -4 11 -10z m-563 -7 c-4 -3 -10 -3 -14 0 -3 4 0 7 7 7 7 0 10 -3 7 -7z m520 -20 c-4 -3 -10 -3 -14 0 -3 4 0 7 7 7 7 0 10 -3 7 -7z m103 -13 c0 -5 -2 -10 -4 -10 -3 0 -8 5 -11 10 -3 6 -1 10 4 10 6 0 11 -4 11 -10z m-540 -25 c13 -14 20 -25 16 -25 -4 0 -18 11 -32 25 -14 14 -21 25 -16 25 5 0 19 -11 32 -25z m497 18 c-4 -3 -10 -3 -14 0 -3 4 0 7 7 7 7 0 10 -3 7 -7z m40 -20 c-4 -3 -10 -3 -14 0 -3 4 0 7 7 7 7 0 10 -3 7 -7z m-317 -73 c0 -5 -2 -10 -4 -10 -3 0 -8 5 -11 10 -3 6 -1 10 4 10 6 0 11 -4 11 -10z m40 -60 c0 -5 -2 -10 -4 -10 -3 0 -8 5 -11 10 -3 6 -1 10 4 10 6 0 11 -4 11 -10z m-84 -48 c-6 -5 -36 23 -36 34 0 4 9 -1 20 -11 11 -10 18 -20 16 -23z m104 8 c0 -5 -2 -10 -4 -10 -3 0 -8 5 -11 10 -3 6 -1 10 4 10 6 0 11 -4 11 -10z m-80 -40 c0 -5 -4 -10 -10 -10 -5 0 -10 5 -10 10 0 6 5 10 10 10 6 0 10 -4 10 -10z m97 -27 c-4 -3 -7 0 -7 7 0 7 3 10 7 7 3 -4 3 -10 0 -14z m-70 -60 c-4 -3 -7 0 -7 7 0 7 3 10 7 7 3 -4 3 -10 0 -14z m-3562 -69 c-46 -7 -125 -8 -125 -1 0 4 33 6 73 6 39 -1 63 -3 52 -5z m240 0 c-46 -7 -125 -8 -125 -1 0 4 33 6 73 6 39 -1 63 -3 52 -5z m343 -1 c-21 -2 -55 -2 -75 0 -21 2 -4 4 37 4 41 0 58 -2 38 -4z m392 0 c0 -5 -24 -7 -52 -5 -89 5 -97 9 -20 11 39 0 72 -2 72 -6z m345 1 c-46 -7 -125 -8 -125 -1 0 4 33 6 73 6 39 -1 63 -3 52 -5z m355 -14 c0 -11 -4 -20 -10 -20 -5 0 -7 7 -3 16 5 14 -4 15 -71 12 -42 -1 -76 0 -76 5 0 4 36 7 80 7 73 0 80 -2 80 -20z m240 16 c0 -3 -4 -8 -10 -11 -5 -3 -10 -1 -10 4 0 6 5 11 10 11 6 0 10 -2 10 -4z m200 -6 c0 -5 -2 -10 -4 -10 -3 0 -8 5 -11 10 -3 6 -1 10 4 10 6 0 11 -4 11 -10z m705 4 c-46 -7 -125 -8 -125 -1 0 4 33 6 73 6 39 -1 63 -3 52 -5z m415 2 c0 -3 -4 -8 -10 -11 -5 -3 -10 -1 -10 4 0 6 5 11 10 11 6 0 10 -2 10 -4z m200 -6 c0 -5 -2 -10 -4 -10 -3 0 -8 5 -11 10 -3 6 -1 10 4 10 6 0 11 -4 11 -10z m-2980 -34 c0 -3 -4 -8 -10 -11 -5 -3 -10 -1 -10 4 0 6 5 11 10 11 6 0 10 -2 10 -4z m380 -6 c0 -5 -4 -10 -10 -10 -5 0 -10 5 -10 10 0 6 5 10 10 10 6 0 10 -4 10 -10z m680 6 c0 -3 -4 -8 -10 -11 -5 -3 -10 -1 -10 4 0 6 5 11 10 11 6 0 10 -2 10 -4z m310 -11 c-7 -8 -17 -15 -22 -15 -11 0 14 29 26 30 5 0 3 -7 -4 -15z m387 -11 c14 -14 23 -27 21 -30 -3 -2 -17 10 -33 26 -35 36 -24 40 12 4z m933 11 c-7 -8 -17 -15 -22 -15 -11 0 14 29 26 30 5 0 3 -7 -4 -15z m396 -21 c20 -19 33 -38 30 -41 -3 -4 -7 -4 -8 -2 -2 2 -19 21 -37 42 -44 47 -32 49 15 1z m94 16 c0 -11 -4 -20 -9 -20 -5 0 -7 9 -4 20 3 11 7 20 9 20 2 0 4 -9 4 -20z m-1983 -17 c-4 -3 -7 0 -7 7 0 7 3 10 7 7 3 -4 3 -10 0 -14z m-210 -20 c-4 -3 -7 0 -7 7 0 7 3 10 7 7 3 -4 3 -10 0 -14z m2173 -13 c0 -5 -5 -10 -11 -10 -5 0 -7 5 -4 10 3 6 8 10 11 10 2 0 4 -4 4 -10z m-1983 -27 c-4 -3 -7 0 -7 7 0 7 3 10 7 7 3 -4 3 -10 0 -14z m-1290 -20 c-4 -3 -7 0 -7 7 0 7 3 10 7 7 3 -4 3 -10 0 -14z m1933 7 c0 -5 -4 -10 -10 -10 -5 0 -10 5 -10 10 0 6 5 10 10 10 6 0 10 -4 10 -10z m1317 -12 c-3 -8 -6 -5 -6 6 -1 11 2 17 5 13 3 -3 4 -12 1 -19z m-1980 -15 c-4 -3 -7 0 -7 7 0 7 3 10 7 7 3 -4 3 -10 0 -14z m328 0 c-22 -3 -43 -10 -47 -16 -5 -8 -8 -8 -8 -1 0 19 12 24 54 22 l41 -1 -40 -4z m1300 0 c-11 -3 -23 -10 -27 -17 -5 -7 -8 -7 -8 0 0 16 11 24 34 23 20 -1 20 -1 1 -6z m52 0 c-4 -3 -10 -3 -14 0 -3 4 0 7 7 7 7 0 10 -3 7 -7z m-1890 -20 c-4 -3 -7 0 -7 7 0 7 3 10 7 7 3 -4 3 -10 0 -14z m893 -35 c0 -36 -4 -35 -14 5 -4 16 -2 27 4 27 5 0 10 -14 10 -32z m1320 0 c0 -36 -4 -35 -14 5 -4 16 -2 27 4 27 5 0 10 -14 10 -32z m-2020 7 c0 -8 -4 -15 -10 -15 -5 0 -7 7 -4 15 4 8 8 15 10 15 2 0 4 -7 4 -15z m-212 -2 c-10 -2 -26 -2 -35 0 -10 3 -2 5 17 5 19 0 27 -2 18 -5z m279 -15 c-3 -8 -6 -5 -6 6 -1 11 2 17 5 13 3 -3 4 -12 1 -19z m1320 0 c-3 -8 -6 -5 -6 6 -1 11 2 17 5 13 3 -3 4 -12 1 -19z m380 5 c-4 -3 -7 0 -7 7 0 7 3 10 7 7 3 -4 3 -10 0 -14z m-1488 -60 c-1 -44 -3 -51 -8 -28 -6 29 -3 85 5 85 2 0 3 -26 3 -57z m1320 0 c-1 -44 -3 -51 -8 -28 -6 29 -3 85 5 85 2 0 3 -26 3 -57z m-1132 20 c-4 -3 -7 0 -7 7 0 7 3 10 7 7 3 -4 3 -10 0 -14z m1320 0 c-4 -3 -7 0 -7 7 0 7 3 10 7 7 3 -4 3 -10 0 -14z m-1750 -40 c-4 -3 -7 0 -7 7 0 7 3 10 7 7 3 -4 3 -10 0 -14z m663 -43 c0 -11 -4 -20 -9 -20 -5 0 -7 9 -4 20 3 11 7 20 9 20 2 0 4 -9 4 -20z m1320 0 c0 -11 -4 -20 -9 -20 -5 0 -7 9 -4 20 3 11 7 20 9 20 2 0 4 -9 4 -20z m-3212 -92 c-2 -90 -2 -91 -5 -20 -2 39 -8 72 -14 72 -5 0 -4 9 3 20 7 11 14 20 15 20 2 0 2 -42 1 -92z m1492 62 c0 -5 -2 -10 -4 -10 -3 0 -8 5 -11 10 -3 6 -1 10 4 10 6 0 11 -4 11 -10z m1317 -7 c-4 -3 -7 0 -7 7 0 7 3 10 7 7 3 -4 3 -10 0 -14z m-1300 -40 c-4 -3 -7 0 -7 7 0 7 3 10 7 7 3 -4 3 -10 0 -14z m360 0 c-4 -3 -7 0 -7 7 0 7 3 10 7 7 3 -4 3 -10 0 -14z m963 7 c0 -5 -2 -10 -4 -10 -3 0 -8 5 -11 10 -3 6 -1 10 4 10 6 0 11 -4 11 -10z m357 -7 c-4 -3 -7 0 -7 7 0 7 3 10 7 7 3 -4 3 -10 0 -14z m-3237 -13 c0 -5 -5 -10 -11 -10 -5 0 -7 5 -4 10 3 6 8 10 11 10 2 0 4 -4 4 -10z m1304 -15 c-4 -8 -11 -15 -16 -15 -6 0 -5 6 2 15 7 8 14 15 16 15 2 0 1 -7 -2 -15z m-984 -20 c0 -19 -5 -25 -22 -24 -13 0 -17 3 -10 6 6 2 12 13 12 24 0 10 5 19 10 19 6 0 10 -11 10 -25z m1353 15 c-14 -6 -32 -6 -45 0 -19 7 -15 9 22 9 37 0 41 -2 23 -9z m224 -7 c-4 -3 -7 0 -7 7 0 7 3 10 7 7 3 -4 3 -10 0 -14z m1096 7 c-14 -6 -32 -6 -45 0 -19 7 -15 9 22 9 37 0 41 -2 23 -9z m-3033 -40 c0 -5 -5 -10 -11 -10 -5 0 -7 5 -4 10 3 6 8 10 11 10 2 0 4 -4 4 -10z m1920 0 c0 -5 -2 -10 -4 -10 -3 0 -8 5 -11 10 -3 6 -1 10 4 10 6 0 11 -4 11 -10z m267 4 c-3 -3 -12 -4 -19 -1 -8 3 -5 6 6 6 11 1 17 -2 13 -5z m513 -34 c-4 -3 -10 -14 -13 -25 -2 -11 -5 0 -6 24 -1 41 0 43 13 25 8 -10 11 -21 6 -24z m-2720 -6 c0 -3 -7 -12 -15 -20 -16 -17 -18 -14 -9 10 6 15 24 23 24 10z m107 -61 c-3 -10 -5 -2 -5 17 0 19 2 27 5 18 2 -10 2 -26 0 -35z m1173 37 c0 -5 -8 -10 -17 -10 -15 0 -16 2 -3 10 19 12 20 12 20 0z m580 0 c0 -5 -5 -10 -11 -10 -5 0 -7 5 -4 10 3 6 8 10 11 10 2 0 4 -4 4 -10z m-2203 -42 c-3 -7 -5 -2 -5 12 0 14 2 19 5 13 2 -7 2 -19 0 -25z m63 22 c0 -5 -5 -10 -11 -10 -5 0 -7 5 -4 10 3 6 8 10 11 10 2 0 4 -4 4 -10z m537 -7 c-4 -3 -7 0 -7 7 0 7 3 10 7 7 3 -4 3 -10 0 -14z m520 0 c-4 -3 -7 0 -7 7 0 7 3 10 7 7 3 -4 3 -10 0 -14z m50 0 c-4 -3 -7 0 -7 7 0 7 3 10 7 7 3 -4 3 -10 0 -14z m1833 7 c0 -5 -4 -10 -10 -10 -5 0 -10 5 -10 10 0 6 5 10 10 10 6 0 10 -4 10 -10z m157 -27 c-4 -3 -10 -3 -14 0 -3 4 0 7 7 7 7 0 10 -3 7 -7z m-3204 -20 c-18 -2 -48 -2 -65 0 -18 2 -4 4 32 4 36 0 50 -2 33 -4z m255 0 c-21 -2 -55 -2 -75 0 -21 2 -4 4 37 4 41 0 58 -2 38 -4z m345 0 c-18 -2 -48 -2 -65 0 -18 2 -4 4 32 4 36 0 50 -2 33 -4z m440 0 c-62 -2 -164 -2 -225 0 -62 1 -12 3 112 3 124 0 174 -2 113 -3z m425 0 c-42 -2 -114 -2 -160 0 -46 1 -11 3 77 3 88 0 125 -2 83 -3z m1450 0 c-65 -2 -171 -2 -235 0 -65 1 -12 3 117 3 129 0 182 -2 118 -3z"/>
</g>
<g id="layer103" fill="#f38119" stroke="none">
<path d="M480 3373 l484 -3 -51 -35 c-29 -19 -57 -35 -63 -35 -5 0 -10 -4 -10 -9 0 -7 -210 -115 -275 -141 -11 -4 -42 -18 -70 -30 -132 -59 -371 -143 -467 -164 l-28 -6 0 -260 0 -261 67 6 c38 3 86 10 108 15 22 5 69 14 105 20 124 21 221 41 283 57 9 2 17 -1 17 -7 0 -13 -99 -110 -111 -110 -4 0 -14 -6 -21 -13 -7 -7 -29 -24 -48 -37 -19 -13 -44 -32 -54 -42 -11 -10 -26 -18 -33 -18 -7 0 -13 -4 -13 -8 0 -5 -12 -15 -28 -22 -15 -8 -34 -19 -42 -26 -20 -15 -111 -67 -177 -101 l-53 -27 0 -348 c0 -338 1 -348 19 -348 11 0 23 5 26 10 3 6 14 10 25 10 10 0 35 8 57 19 21 10 61 29 88 41 28 12 61 28 75 34 14 6 27 13 30 16 3 3 23 15 45 27 84 45 121 66 147 84 14 11 31 19 37 19 6 0 11 5 11 10 0 6 5 10 10 10 6 0 10 -98 10 -275 l0 -275 70 0 70 0 0 330 0 330 27 17 c16 10 36 26 46 37 16 18 17 18 17 -27 0 -128 90 -198 275 -213 l87 -7 -4 -54 c-7 -76 -29 -96 -112 -101 -57 -4 -133 6 -178 23 -12 5 -19 -3 -28 -31 -16 -47 -5 -57 91 -78 171 -39 297 -7 340 88 15 34 19 67 19 201 1 154 2 159 18 135 9 -14 45 -53 80 -87 l63 -62 -40 -129 c-23 -71 -41 -135 -41 -141 0 -8 20 -11 67 -9 l67 3 58 185 c31 102 63 209 69 238 7 28 15 52 19 52 16 0 96 -302 115 -432 l6 -48 70 0 c38 0 69 3 69 6 0 3 -11 56 -25 117 -32 141 -85 310 -131 422 l-36 86 -81 -3 -80 -3 -14 -35 c-12 -31 -12 -19 -6 95 15 247 3 830 -19 965 -17 109 -64 223 -111 275 -10 11 -28 32 -39 47 l-19 28 1853 3 c1190 1 947 2 -682 2 -1394 0 -2317 -1 -2050 -2z m776 -1165 c-3 -51 -6 -119 -6 -150 0 -54 -2 -58 -24 -58 -24 0 -36 -16 -36 -51 0 -19 -2 -18 -33 5 -42 32 -109 56 -156 56 l-36 0 140 144 c77 79 144 145 148 145 5 1 6 -41 3 -91z m281 -305 c-4 -3 -7 0 -7 7 0 7 3 10 7 7 3 -4 3 -10 0 -14z m-416 -20 l49 -26 0 -74 0 -73 -62 0 c-124 0 -168 28 -168 108 0 90 82 119 181 65z"/>
<path d="M3800 2212 c0 -5 7 -15 16 -22 23 -20 44 -77 44 -121 0 -40 -17 -89 -32 -89 -4 0 -8 -4 -8 -10 0 -5 -16 -30 -35 -55 -67 -89 -96 -188 -76 -263 19 -73 98 -192 128 -192 4 0 22 -13 38 -28 51 -47 355 -186 371 -169 5 4 -52 43 -98 66 -16 8 -28 18 -28 23 0 4 -6 8 -13 8 -7 0 -22 8 -33 18 -10 10 -35 29 -54 42 -44 31 -108 95 -139 139 -17 24 -24 47 -25 85 0 52 19 116 35 116 5 0 9 6 9 13 0 7 8 22 18 33 10 10 30 45 46 78 24 48 28 66 23 107 -6 48 -50 128 -86 156 -58 45 -101 73 -101 65z"/>
<path d="M3594 2041 c-165 -164 -234 -275 -234 -379 0 -23 4 -50 9 -60 5 -9 15 -30 22 -47 15 -32 152 -175 209 -217 19 -14 46 -35 59 -47 13 -11 27 -21 31 -21 14 0 210 -202 210 -216 0 -8 5 -14 10 -14 6 0 10 -9 10 -20 0 -11 3 -20 8 -20 15 0 32 -83 32 -160 0 -44 -1 -80 -3 -80 -2 0 -27 23 -55 50 -29 28 -61 50 -71 50 -11 0 -23 4 -26 10 -8 13 -182 13 -190 0 -3 -5 -13 -10 -21 -10 -25 0 -162 -100 -188 -139 -45 -65 -66 -181 -47 -263 l9 -38 -74 0 -74 0 0 225 0 226 -67 -3 c-61 -3 -68 -5 -71 -25 -2 -16 -11 -23 -35 -25 l-32 -3 -3 -197 -2 -198 -45 0 c-41 0 -45 -2 -45 -25 0 -22 -4 -25 -35 -25 l-35 0 0 -60 0 -60 235 0 235 0 0 25 c0 21 5 25 30 25 28 0 30 2 30 41 l0 41 33 -44 c49 -66 127 -101 225 -101 88 1 129 14 206 70 97 71 119 104 146 215 11 50 11 67 -3 133 -17 75 -17 77 5 123 27 57 36 186 18 235 -21 57 -55 122 -72 141 -10 11 -18 24 -18 30 0 10 -164 172 -289 285 -39 35 -71 70 -71 77 0 8 -4 14 -8 14 -4 0 -18 20 -30 45 -17 34 -22 64 -22 119 0 65 4 81 38 144 20 39 60 103 88 144 92 132 81 142 -32 29z m114 -1351 c61 -38 88 -140 60 -232 -18 -61 -54 -68 -136 -26 -46 24 -75 126 -57 203 6 28 15 56 19 63 11 19 77 14 114 -8z"/>
<path d="M2295 870 c-3 -5 -13 -10 -20 -10 -27 0 -161 -98 -188 -137 -25 -36 -57 -134 -57 -178 -1 -14 -5 -11 -16 14 -8 19 -24 42 -35 52 -23 20 -22 24 26 134 17 39 45 114 45 120 0 3 -32 5 -70 5 -65 0 -71 -2 -80 -24 -6 -16 -18 -26 -36 -28 -24 -3 -31 -12 -58 -85 -28 -77 -33 -83 -58 -83 l-28 0 0 110 0 111 -67 -3 c-62 -3 -68 -5 -71 -25 -3 -19 -10 -23 -38 -23 l-34 0 0 -200 0 -201 -75 3 -76 3 -2 220 -2 220 -67 3 c-67 3 -68 3 -68 -23 0 -23 -4 -25 -40 -25 l-40 0 0 -200 0 -200 -40 0 c-36 0 -40 -2 -40 -25 0 -21 -5 -25 -30 -25 l-30 0 0 250 0 250 -67 0 c-72 0 -86 -5 -96 -32 -3 -10 -17 -18 -29 -18 -18 0 -37 -23 -95 -117 l-73 -118 0 143 0 143 -67 -3 c-62 -3 -68 -5 -71 -25 -3 -19 -10 -23 -38 -23 l-34 0 0 -285 0 -285 74 0 c68 0 75 2 90 25 9 14 25 25 36 25 10 0 22 9 25 20 3 11 11 20 16 20 5 0 9 5 9 10 0 6 25 47 55 93 l55 82 0 -138 0 -137 70 0 c68 0 70 1 70 25 0 20 5 25 25 25 20 0 25 -5 25 -25 l0 -25 235 0 235 0 0 25 c0 21 5 25 30 25 25 0 30 -4 30 -25 l0 -25 174 0 c168 0 174 1 207 25 19 13 45 30 59 37 32 16 70 59 70 79 0 8 5 20 12 27 9 9 15 3 28 -26 46 -102 135 -155 260 -155 86 1 127 15 204 70 93 69 120 107 145 211 11 44 11 67 0 128 -7 41 -17 74 -21 74 -4 0 -8 8 -8 18 0 23 -105 122 -130 122 -10 0 -22 5 -25 10 -3 6 -46 10 -95 10 -49 0 -92 -4 -95 -10z m96 -183 c19 -12 40 -36 48 -52 21 -43 25 -118 11 -171 -19 -67 -53 -75 -138 -32 -46 24 -75 126 -57 203 6 28 15 56 19 63 12 20 80 14 117 -11z m-577 -223 c31 -31 20 -44 -39 -44 -54 0 -55 0 -55 30 0 28 2 30 39 30 23 0 46 -7 55 -16z"/>
<path d="M267 863 c-4 -3 -7 -15 -7 -25 0 -14 -8 -18 -35 -18 l-35 0 0 -285 0 -285 70 0 c68 0 70 1 70 25 0 22 4 25 35 25 l35 0 0 285 0 285 -63 0 c-35 0 -67 -3 -70 -7z"/>
</g>
<g id="layer104" fill="#ce925f" stroke="none">
<path d="M520 3370 c289 -3 1430 -3 2535 0 l2010 6 -2535 0 c-1394 0 -2299 -3 -2010 -6z"/>
<path d="M1360 3350 c0 -5 5 -10 11 -10 5 0 7 5 4 10 -3 6 -8 10 -11 10 -2 0 -4 -4 -4 -10z"/>
<path d="M938 3343 c7 -3 16 -2 19 1 4 3 -2 6 -13 5 -11 0 -14 -3 -6 -6z"/>
<path d="M905 3330 c-3 -5 -1 -10 4 -10 6 0 11 5 11 10 0 6 -2 10 -4 10 -3 0 -8 -4 -11 -10z"/>
<path d="M845 3290 c-3 -5 -1 -10 4 -10 6 0 11 5 11 10 0 6 -2 10 -4 10 -3 0 -8 -4 -11 -10z"/>
<path d="M1420 3270 c0 -5 5 -10 11 -10 5 0 7 5 4 10 -3 6 -8 10 -11 10 -2 0 -4 -4 -4 -10z"/>
<path d="M738 3223 c7 -3 16 -2 19 1 4 3 -2 6 -13 5 -11 0 -14 -3 -6 -6z"/>
<path d="M1460 3210 c0 -7 3 -10 7 -7 3 4 3 10 0 14 -4 3 -7 0 -7 -7z"/>
<path d="M698 3203 c7 -3 16 -2 19 1 4 3 -2 6 -13 5 -11 0 -14 -3 -6 -6z"/>
<path d="M660 3190 c-13 -8 -12 -10 3 -10 9 0 17 5 17 10 0 12 -1 12 -20 0z"/>
<path d="M1482 3160 c0 -14 2 -19 5 -12 2 6 2 18 0 25 -3 6 -5 1 -5 -13z"/>
<path d="M603 3163 c4 -3 10 -3 14 0 3 4 0 7 -7 7 -7 0 -10 -3 -7 -7z"/>
<path d="M565 3150 c-3 -5 -1 -10 4 -10 6 0 11 5 11 10 0 6 -2 10 -4 10 -3 0 -8 -4 -11 -10z"/>
<path d="M520 3130 c-13 -8 -12 -10 3 -10 9 0 17 5 17 10 0 12 -1 12 -20 0z"/>
<path d="M1502 3100 c0 -14 2 -19 5 -12 2 6 2 18 0 25 -3 6 -5 1 -5 -13z"/>
<path d="M425 3090 c-3 -5 -1 -10 4 -10 6 0 11 5 11 10 0 6 -2 10 -4 10 -3 0 -8 -4 -11 -10z"/>
<path d="M378 3063 c7 -3 16 -2 19 1 4 3 -2 6 -13 5 -11 0 -14 -3 -6 -6z"/>
<path d="M320 3050 c-13 -8 -12 -10 3 -10 9 0 17 5 17 10 0 12 -1 12 -20 0z"/>
<path d="M1521 2990 c0 -40 2 -50 9 -38 6 10 7 31 1 55 -9 38 -9 38 -10 -17z"/>
<path d="M263 3023 c4 -3 10 -3 14 0 3 4 0 7 -7 7 -7 0 -10 -3 -7 -7z"/>
<path d="M208 3003 c6 -2 18 -2 25 0 6 3 1 5 -13 5 -14 0 -19 -2 -12 -5z"/>
<path d="M148 2983 c6 -2 18 -2 25 0 6 3 1 5 -13 5 -14 0 -19 -2 -12 -5z"/>
<path d="M78 2963 c7 -3 16 -2 19 1 4 3 -2 6 -13 5 -11 0 -14 -3 -6 -6z"/>
<path d="M15 2950 c-19 -8 -19 -9 3 -9 12 -1 22 4 22 9 0 6 -1 10 -2 9 -2 0 -12 -4 -23 -9z"/>
<path d="M1540 2380 c0 -167 3 -301 6 -297 8 8 8 587 0 595 -3 3 -6 -131 -6 -298z"/>
<path d="M540 2531 c0 -5 9 -7 20 -4 11 3 20 7 20 9 0 2 -9 4 -20 4 -11 0 -20 -4 -20 -9z"/>
<path d="M590 2530 c0 -7 3 -10 7 -7 3 4 3 10 0 14 -4 3 -7 0 -7 -7z"/>
<path d="M473 2513 c9 -2 23 -2 30 0 6 3 -1 5 -18 5 -16 0 -22 -2 -12 -5z"/>
<path d="M360 2491 c0 -4 11 -6 25 -3 14 2 25 6 25 8 0 2 -11 4 -25 4 -14 0 -25 -4 -25 -9z"/>
<path d="M555 2480 c-10 -11 -15 -20 -11 -20 11 0 39 30 34 36 -3 2 -13 -5 -23 -16z"/>
<path d="M253 2473 c9 -2 25 -2 35 0 9 3 1 5 -18 5 -19 0 -27 -2 -17 -5z"/>
<path d="M128 2451 c12 -7 62 -4 62 5 0 2 -17 4 -37 4 -24 0 -33 -3 -25 -9z"/>
<path d="M13 2433 c9 -2 23 -2 30 0 6 3 -1 5 -18 5 -17 0 -22 -2 -12 -5z"/>
<path d="M450 2395 c-7 -8 -9 -15 -6 -15 4 0 14 7 22 15 9 8 11 15 6 15 -5 0 -15 -7 -22 -15z"/>
<path d="M385 2350 c-3 -5 -1 -10 4 -10 6 0 11 5 11 10 0 6 -2 10 -4 10 -3 0 -8 -4 -11 -10z"/>
<path d="M363 2323 c4 -3 10 -3 14 0 3 4 0 7 -7 7 -7 0 -10 -3 -7 -7z"/>
<path d="M305 2290 c-3 -5 -1 -10 4 -10 6 0 11 5 11 10 0 6 -2 10 -4 10 -3 0 -8 -4 -11 -10z"/>
<path d="M1220 2289 c0 -5 5 -7 10 -4 6 3 10 8 10 11 0 2 -4 4 -10 4 -5 0 -10 -5 -10 -11z"/>
<path d="M240 2250 c-13 -8 -12 -10 3 -10 9 0 17 5 17 10 0 12 -1 12 -20 0z"/>
<path d="M203 2223 c4 -3 10 -3 14 0 3 4 0 7 -7 7 -7 0 -10 -3 -7 -7z"/>
<path d="M472 2184 c-29 -30 -31 -36 -18 -49 8 -8 20 -15 26 -15 16 0 60 -47 60 -65 0 -8 5 -15 10 -15 6 0 10 -13 10 -29 0 -17 5 -33 10 -36 7 -4 11 -55 10 -133 -1 -70 -1 -254 -1 -409 l1 -283 70 0 70 0 1 333 c1 453 -1 511 -12 515 -5 2 -9 17 -9 33 0 16 -4 29 -10 29 -5 0 -10 8 -10 18 0 10 -9 24 -19 32 -11 7 -18 17 -15 22 3 4 1 8 -4 8 -5 0 -23 14 -40 30 -18 17 -39 30 -47 30 -8 0 -15 5 -15 10 0 21 -36 7 -68 -26z"/>
<path d="M3800 2211 c0 -5 5 -13 10 -16 6 -3 10 -2 10 4 0 5 -4 13 -10 16 -5 3 -10 2 -10 -4z"/>
<path d="M138 2183 c7 -3 16 -2 19 1 4 3 -2 6 -13 5 -11 0 -14 -3 -6 -6z"/>
<path d="M3834 2178 c-4 -7 -3 -8 4 -4 7 4 12 9 12 12 0 8 -9 4 -16 -8z"/>
<path d="M105 2170 c-3 -5 -1 -10 4 -10 6 0 11 5 11 10 0 6 -2 10 -4 10 -3 0 -8 -4 -11 -10z"/>
<path d="M3894 2135 c20 -19 39 -35 43 -35 4 0 -8 16 -27 35 -19 19 -38 35 -42 35 -5 0 7 -16 26 -35z"/>
<path d="M63 2143 c4 -3 10 -3 14 0 3 4 0 7 -7 7 -7 0 -10 -3 -7 -7z"/>
<path d="M23 2123 c4 -3 10 -3 14 0 3 4 0 7 -7 7 -7 0 -10 -3 -7 -7z"/>
<path d="M1252 2063 c-2 -59 -3 -63 -26 -63 -24 0 -36 -16 -36 -51 0 -17 -4 -16 -40 10 -47 34 -116 55 -164 49 -19 -2 -32 0 -30 4 3 4 0 8 -5 8 -6 0 -11 -4 -11 -10 0 -5 -11 -10 -25 -10 -29 0 -95 -59 -95 -85 0 -8 -4 -15 -9 -15 -9 0 -7 -41 5 -118 7 -48 66 -107 128 -131 30 -11 93 -23 141 -27 l87 -7 -4 -54 c-7 -76 -29 -96 -112 -101 -57 -4 -133 6 -178 23 -12 5 -19 -3 -28 -31 -16 -47 -5 -57 91 -78 171 -39 297 -7 340 88 16 36 19 69 19 289 0 238 -1 247 -20 247 -16 0 -20 8 -23 63 l-3 62 -2 -62z m-131 -180 l49 -26 0 -74 0 -73 -62 0 c-124 0 -168 28 -168 108 0 90 82 119 181 65z"/>
<path d="M3585 2030 c-49 -49 -86 -90 -82 -90 5 0 35 28 69 62 42 43 62 57 68 48 5 -8 9 -9 14 -1 4 6 2 11 -3 11 -6 0 -11 5 -11 11 0 6 6 9 13 6 7 -2 18 6 24 19 6 13 8 24 4 24 -3 0 -47 -40 -96 -90z"/>
<path d="M3960 2050 c0 -5 5 -10 11 -10 5 0 7 5 4 10 -3 6 -8 10 -11 10 -2 0 -4 -4 -4 -10z"/>
<path d="M3850 2010 c0 -7 3 -10 7 -7 3 4 3 10 0 14 -4 3 -7 0 -7 -7z"/>
<path d="M3983 1970 c0 -25 2 -35 4 -22 2 12 2 32 0 45 -2 12 -4 2 -4 -23z"/>
<path d="M1565 1988 c-23 -62 -35 -89 -31 -72 2 12 0 28 -5 35 -5 9 -9 -14 -9 -58 0 -42 -4 -73 -10 -73 -5 0 -10 -13 -10 -30 0 -16 -4 -30 -10 -30 -5 0 -10 -12 -10 -26 0 -14 -7 -32 -15 -40 -13 -14 -22 -8 -74 45 -33 34 -63 61 -68 61 -4 0 25 -33 66 -74 l73 -73 -41 -130 c-23 -72 -41 -136 -41 -142 0 -8 20 -11 67 -9 l67 3 58 185 c31 102 63 209 69 238 7 28 15 52 19 52 16 0 96 -302 115 -432 l6 -48 70 0 c38 0 69 3 69 6 0 3 -11 56 -25 117 -32 141 -85 310 -131 421 l-36 86 -79 0 c-55 0 -81 -4 -84 -12z"/>
<path d="M3600 1990 c0 -7 3 -10 7 -7 3 4 3 10 0 14 -4 3 -7 0 -7 -7z"/>
<path d="M3825 1970 c-3 -5 -1 -10 4 -10 6 0 11 5 11 10 0 6 -2 10 -4 10 -3 0 -8 -4 -11 -10z"/>
<path d="M3540 1900 c0 -7 3 -10 7 -7 3 4 3 10 0 14 -4 3 -7 0 -7 -7z"/>
<path d="M3765 1890 c-3 -5 -1 -10 4 -10 6 0 11 5 11 10 0 6 -2 10 -4 10 -3 0 -8 -4 -11 -10z"/>
<path d="M762 1854 c-12 -13 -19 -24 -14 -24 5 0 19 11 32 25 13 14 19 25 14 24 -5 0 -19 -11 -32 -25z"/>
<path d="M3520 1865 c0 -8 2 -15 4 -15 2 0 6 7 10 15 3 8 1 15 -4 15 -6 0 -10 -7 -10 -15z"/>
<path d="M3750 1860 c0 -7 3 -10 7 -7 3 4 3 10 0 14 -4 3 -7 0 -7 -7z"/>
<path d="M3425 1850 c-3 -5 -1 -10 4 -10 6 0 11 5 11 10 0 6 -2 10 -4 10 -3 0 -8 -4 -11 -10z"/>
<path d="M3501 1824 c0 -11 3 -14 6 -6 3 7 2 16 -1 19 -3 4 -6 -2 -5 -13z"/>
<path d="M3920 1829 c0 -5 5 -7 10 -4 6 3 10 8 10 11 0 2 -4 4 -10 4 -5 0 -10 -5 -10 -11z"/>
<path d="M3726 1815 c-3 -8 -1 -15 4 -15 6 0 10 7 10 15 0 8 -2 15 -4 15 -2 0 -6 -7 -10 -15z"/>
<path d="M3391 1774 c0 -11 3 -14 6 -6 3 7 2 16 -1 19 -3 4 -6 -2 -5 -13z"/>
<path d="M3481 1731 c-1 -30 1 -52 4 -49 11 11 13 47 5 75 -7 24 -8 20 -9 -26z"/>
<path d="M3880 1769 c0 -5 5 -7 10 -4 6 3 10 8 10 11 0 2 -4 4 -10 4 -5 0 -10 -5 -10 -11z"/>
<path d="M3709 1753 c0 -10 -2 -34 -3 -53 -1 -19 1 -44 5 -55 5 -12 8 9 8 53 1 39 -1 72 -4 72 -3 0 -5 -8 -6 -17z"/>
<path d="M3367 1720 c-3 -11 -1 -20 4 -20 5 0 9 9 9 20 0 11 -2 20 -4 20 -2 0 -6 -9 -9 -20z"/>
<path d="M3860 1730 c0 -7 3 -10 7 -7 3 4 3 10 0 14 -4 3 -7 0 -7 -7z"/>
<path d="M540 1689 c0 -5 5 -7 10 -4 6 3 10 8 10 11 0 2 -4 4 -10 4 -5 0 -10 -5 -10 -11z"/>
<path d="M3840 1638 c0 -23 3 -39 6 -35 9 9 11 77 2 77 -5 0 -8 -19 -8 -42z"/>
<path d="M480 1649 c0 -5 5 -7 10 -4 6 3 10 8 10 11 0 2 -4 4 -10 4 -5 0 -10 -5 -10 -11z"/>
<path d="M448 1633 c7 -3 16 -2 19 1 4 3 -2 6 -13 5 -11 0 -14 -3 -6 -6z"/>
<path d="M3367 1625 c-4 -8 -2 -17 3 -20 6 -4 10 3 10 14 0 25 -6 27 -13 6z"/>
<path d="M3500 1630 c0 -7 3 -10 7 -7 3 4 3 10 0 14 -4 3 -7 0 -7 -7z"/>
<path d="M383 1593 c4 -3 10 -3 14 0 3 4 0 7 -7 7 -7 0 -10 -3 -7 -7z"/>
<path d="M3520 1590 c0 -7 3 -10 7 -7 3 4 3 10 0 14 -4 3 -7 0 -7 -7z"/>
<path d="M3730 1590 c0 -7 3 -10 7 -7 3 4 3 10 0 14 -4 3 -7 0 -7 -7z"/>
<path d="M340 1569 c0 -5 5 -7 10 -4 6 3 10 8 10 11 0 2 -4 4 -10 4 -5 0 -10 -5 -10 -11z"/>
<path d="M3386 1565 c4 -8 8 -15 10 -15 2 0 4 7 4 15 0 8 -4 15 -10 15 -5 0 -7 -7 -4 -15z"/>
<path d="M3860 1570 c0 -5 5 -10 11 -10 5 0 7 5 4 10 -3 6 -8 10 -11 10 -2 0 -4 -4 -4 -10z"/>
<path d="M300 1549 c0 -5 5 -7 10 -4 6 3 10 8 10 11 0 2 -4 4 -10 4 -5 0 -10 -5 -10 -11z"/>
<path d="M3540 1550 c0 -5 5 -10 11 -10 5 0 7 5 4 10 -3 6 -8 10 -11 10 -2 0 -4 -4 -4 -10z"/>
<path d="M260 1530 c0 -5 7 -7 15 -4 8 4 15 8 15 10 0 2 -7 4 -15 4 -8 0 -15 -4 -15 -10z"/>
<path d="M3415 1520 c10 -11 20 -18 23 -16 5 6 -23 36 -34 36 -4 0 1 -9 11 -20z"/>
<path d="M3795 1500 c21 -22 41 -38 43 -35 5 5 -65 75 -75 75 -4 0 10 -18 32 -40z"/>
<path d="M220 1509 c0 -5 5 -7 10 -4 6 3 10 8 10 11 0 2 -4 4 -10 4 -5 0 -10 -5 -10 -11z"/>
<path d="M3900 1516 c0 -10 50 -59 56 -54 2 3 -10 17 -26 33 -17 16 -30 25 -30 21z"/>
<path d="M180 1489 c0 -5 5 -7 10 -4 6 3 10 8 10 11 0 2 -4 4 -10 4 -5 0 -10 -5 -10 -11z"/>
<path d="M120 1470 c0 -5 7 -7 15 -4 8 4 15 8 15 10 0 2 -7 4 -15 4 -8 0 -15 -4 -15 -10z"/>
<path d="M80 1450 c0 -5 7 -7 15 -4 8 4 15 8 15 10 0 2 -7 4 -15 4 -8 0 -15 -4 -15 -10z"/>
<path d="M28 1433 c7 -3 16 -2 19 1 4 3 -2 6 -13 5 -11 0 -14 -3 -6 -6z"/>
<path d="M3680 1416 c0 -10 50 -59 56 -54 2 3 -10 17 -26 33 -17 16 -30 25 -30 21z"/>
<path d="M3905 1410 c3 -5 8 -10 11 -10 2 0 4 5 4 10 0 6 -5 10 -11 10 -5 0 -7 -4 -4 -10z"/>
<path d="M4020 1416 c0 -11 30 -39 36 -34 2 3 -5 13 -16 23 -11 10 -20 15 -20 11z"/>
<path d="M3565 1370 c16 -16 30 -28 33 -26 5 6 -44 56 -54 56 -4 0 5 -13 21 -30z"/>
<path d="M4003 1353 c4 -3 10 -3 14 0 3 4 0 7 -7 7 -7 0 -10 -3 -7 -7z"/>
<path d="M4100 1350 c0 -5 5 -10 11 -10 5 0 7 5 4 10 -3 6 -8 10 -11 10 -2 0 -4 -4 -4 -10z"/>
<path d="M4090 1316 c0 -2 7 -6 15 -10 8 -3 15 -1 15 4 0 6 -7 10 -15 10 -8 0 -15 -2 -15 -4z"/>
<path d="M4150 1300 c-13 -9 -13 -10 0 -10 8 0 22 5 30 10 13 9 13 10 0 10 -8 0 -22 -5 -30 -10z"/>
<path d="M3670 1285 c7 -8 17 -15 22 -15 5 0 3 7 -6 15 -8 8 -18 15 -22 15 -3 0 -1 -7 6 -15z"/>
<path d="M4200 1286 c0 -7 10 -16 22 -19 31 -9 33 -2 3 17 -20 13 -25 14 -25 2z"/>
<path d="M3763 1213 c4 -3 10 -3 14 0 3 4 0 7 -7 7 -7 0 -10 -3 -7 -7z"/>
<path d="M3815 1160 c21 -22 41 -38 43 -35 5 5 -65 75 -75 75 -4 0 10 -18 32 -40z"/>
<path d="M3900 1190 c0 -5 5 -10 11 -10 5 0 7 5 4 10 -3 6 -8 10 -11 10 -2 0 -4 -4 -4 -10z"/>
<path d="M3940 1130 c0 -5 5 -10 11 -10 5 0 7 5 4 10 -3 6 -8 10 -11 10 -2 0 -4 -4 -4 -10z"/>
<path d="M3980 1055 c0 -8 4 -15 10 -15 5 0 7 7 4 15 -4 8 -8 15 -10 15 -2 0 -4 -7 -4 -15z"/>
<path d="M3905 1050 c3 -5 8 -10 11 -10 2 0 4 5 4 10 0 6 -5 10 -11 10 -5 0 -7 -4 -4 -10z"/>
<path d="M3925 1010 c3 -5 8 -10 11 -10 2 0 4 5 4 10 0 6 -5 10 -11 10 -5 0 -7 -4 -4 -10z"/>
<path d="M4000 1000 c0 -11 4 -20 9 -20 5 0 7 9 4 20 -3 11 -7 20 -9 20 -2 0 -4 -9 -4 -20z"/>
<path d="M3952 960 c0 -14 2 -19 5 -12 2 6 2 18 0 25 -3 6 -5 1 -5 -13z"/>
<path d="M3970 885 c-7 -62 -6 -86 4 -100 9 -12 11 -6 8 32 -1 26 -4 57 -6 68 l-3 20 -3 -20z"/>
<path d="M2300 870 c-13 -8 -12 -10 3 -10 9 0 17 5 17 10 0 12 -1 12 -20 0z"/>
<path d="M2460 870 c0 -6 7 -10 15 -10 8 0 15 2 15 4 0 2 -7 6 -15 10 -8 3 -15 1 -15 -4z"/>
<path d="M3620 870 c-13 -8 -12 -10 3 -10 9 0 17 5 17 10 0 12 -1 12 -20 0z"/>
<path d="M3780 870 c0 -6 7 -10 15 -10 8 0 15 2 15 4 0 2 -7 6 -15 10 -8 3 -15 1 -15 -4z"/>
<path d="M270 845 c0 -22 -4 -25 -40 -25 l-40 0 0 -285 0 -285 69 0 68 0 7 38 c3 20 6 148 6 285 l0 247 -30 0 c-23 0 -30 4 -30 20 0 16 8 20 63 23 l62 3 -67 2 c-66 2 -68 1 -68 -23z"/>
<path d="M537 863 c18 -2 50 -2 70 0 21 2 7 4 -32 4 -38 0 -55 -2 -38 -4z"/>
<path d="M850 855 c-9 -10 -9 -15 -1 -15 6 0 11 5 11 10 0 6 27 10 60 10 l60 0 2 -222 3 -223 5 228 5 227 -66 0 c-47 0 -70 -4 -79 -15z"/>
<path d="M1278 863 l62 -4 0 -219 c0 -138 4 -220 10 -220 10 0 13 412 3 437 -4 9 -25 12 -72 11 l-66 -2 63 -3z"/>
<path d="M1590 845 c0 -22 -4 -25 -39 -25 l-38 0 -5 -253 c-3 -139 -3 -267 0 -285 l4 -32 172 0 c146 0 175 3 197 18 87 57 106 72 123 91 11 11 15 21 10 21 -5 0 -16 -9 -24 -20 -8 -11 -17 -20 -21 -20 -3 0 -6 31 -5 69 0 71 -13 111 -46 142 -20 18 -23 49 -8 79 6 11 15 29 20 40 6 11 10 25 10 30 0 6 9 30 20 52 28 59 26 65 -23 69 -90 8 -97 3 -131 -88 -29 -78 -32 -83 -61 -84 -23 -1 -25 -3 -7 -6 14 -3 22 -12 22 -24 0 -16 -7 -19 -50 -19 l-50 0 0 110 0 110 -30 0 c-23 0 -30 4 -30 20 0 16 8 20 63 23 l62 3 -67 2 c-66 2 -68 1 -68 -23z m225 -381 c10 -10 14 -25 11 -38 -3 -12 -6 -27 -6 -33 0 -9 -23 -13 -80 -13 l-80 0 0 50 0 50 69 0 c51 0 74 -4 86 -16z"/>
<path d="M1925 864 c46 -7 125 -8 125 -1 0 4 -33 6 -72 6 -40 -1 -64 -3 -53 -5z"/>
<path d="M3087 863 c-4 -3 -7 -14 -7 -24 0 -13 -9 -19 -32 -21 l-33 -3 0 -218 0 -217 -37 0 c-31 0 -38 4 -38 20 0 11 -4 20 -10 20 -5 0 -9 -10 -7 -22 2 -20 -3 -23 -35 -26 l-38 -3 0 -60 0 -59 235 0 235 0 0 53 c0 29 -5 58 -12 65 -7 7 -40 12 -80 12 l-68 0 0 220 0 220 -30 0 c-23 0 -30 4 -30 20 0 16 8 20 63 23 l62 3 -66 2 c-36 1 -69 -1 -72 -5z"/>
<path d="M2245 850 c-3 -5 -1 -10 4 -10 6 0 11 5 11 10 0 6 -2 10 -4 10 -3 0 -8 -4 -11 -10z"/>
<path d="M2520 850 c0 -5 5 -10 11 -10 5 0 7 5 4 10 -3 6 -8 10 -11 10 -2 0 -4 -4 -4 -10z"/>
<path d="M3565 850 c-3 -5 -1 -10 4 -10 6 0 11 5 11 10 0 6 -2 10 -4 10 -3 0 -8 -4 -11 -10z"/>
<path d="M3840 850 c0 -5 5 -10 11 -10 5 0 7 5 4 10 -3 6 -8 10 -11 10 -2 0 -4 -4 -4 -10z"/>
<path d="M511 833 c-1 -8 -16 -13 -41 -13 l-40 0 0 -285 0 -285 73 0 c79 0 87 5 126 83 14 27 31 36 31 16 0 -5 5 -7 11 -3 8 4 7 9 -2 15 -11 7 -12 12 -1 29 6 11 18 30 25 42 6 13 14 25 17 28 3 3 11 17 19 33 16 31 31 35 31 10 0 -15 2 -16 10 -3 6 9 5 17 -2 21 -6 4 -8 15 -3 25 14 35 23 -23 24 -163 l1 -133 69 0 c69 0 70 0 73 27 2 16 2 143 0 285 l-3 256 -47 4 c-92 6 -91 8 -171 -122 -41 -66 -78 -120 -82 -120 -5 0 -9 -9 -9 -20 0 -11 -4 -20 -10 -20 -5 0 -10 -6 -10 -14 0 -8 -5 -18 -10 -21 -6 -4 -10 -3 -9 2 1 4 1 77 0 161 l-1 152 -29 0 c-16 0 -32 6 -34 13 -4 10 -6 10 -6 0z"/>
<path d="M2257 833 c-4 -3 -16 -7 -26 -8 -34 -2 -115 -60 -143 -101 -15 -21 -34 -66 -43 -99 -16 -59 -32 -243 -17 -195 7 23 9 21 25 -21 25 -67 78 -123 139 -149 65 -28 182 -31 241 -7 52 22 127 77 127 94 0 7 5 13 11 13 5 0 8 4 5 8 -3 5 2 22 10 38 10 19 15 59 16 120 0 95 -14 154 -44 188 -10 11 -18 24 -18 29 0 20 -58 56 -130 81 -46 16 -141 22 -153 9z m134 -146 c41 -27 61 -66 67 -129 6 -62 -15 -139 -40 -146 -10 -2 -18 -9 -18 -15 0 -20 -36 -36 -81 -37 -38 0 -51 6 -82 34 -20 18 -37 41 -37 49 0 9 -4 19 -10 22 -5 3 -10 35 -10 71 0 36 4 64 10 64 6 0 10 10 10 22 0 27 27 58 50 58 10 0 20 7 24 15 9 24 77 19 117 -8z"/>
<path d="M2243 625 c0 -22 2 -30 4 -17 2 12 2 30 0 40 -3 9 -5 -1 -4 -23z"/>
<path d="M2240 544 c0 -19 4 -33 8 -30 8 5 4 66 -4 66 -2 0 -4 -16 -4 -36z"/>
<path d="M2260 475 c0 -8 4 -15 10 -15 5 0 7 7 4 15 -4 8 -8 15 -10 15 -2 0 -4 -7 -4 -15z"/>
<path d="M2300 430 c0 -5 5 -10 11 -10 5 0 7 5 4 10 -3 6 -8 10 -11 10 -2 0 -4 -4 -4 -10z"/>
<path d="M2340 409 c0 -5 9 -9 20 -9 11 0 20 2 20 4 0 2 -9 6 -20 9 -11 3 -20 1 -20 -4z"/>
<path d="M3577 833 c-4 -3 -16 -7 -27 -8 -32 -2 -115 -62 -143 -102 -14 -21 -34 -67 -43 -103 -15 -61 -15 -76 -1 -195 1 -11 5 -24 9 -30 4 -5 22 -30 40 -55 50 -68 126 -103 226 -103 89 1 132 15 207 72 37 28 51 46 53 66 1 15 7 34 13 41 14 18 14 237 0 242 -6 2 -11 12 -11 23 0 10 -4 19 -8 19 -5 0 -15 12 -23 28 -23 44 -56 67 -139 96 -46 16 -141 22 -153 9z m131 -143 c62 -38 88 -140 60 -233 -7 -23 -20 -42 -30 -45 -10 -2 -18 -10 -18 -17 0 -6 -11 -17 -25 -23 -32 -15 -95 -16 -95 -1 0 5 -4 8 -9 5 -12 -8 -71 48 -71 67 0 9 -4 19 -10 22 -5 3 -10 35 -10 71 0 36 4 64 10 64 6 0 10 10 10 23 0 25 60 91 60 66 1 -10 3 -9 11 4 14 24 75 22 117 -3z"/>
<path d="M3560 625 c0 -19 2 -35 4 -35 2 0 6 16 8 35 2 19 0 35 -4 35 -4 0 -8 -16 -8 -35z"/>
<path d="M3560 550 c0 -16 4 -30 8 -30 5 0 7 14 4 30 -2 17 -6 30 -8 30 -2 0 -4 -13 -4 -30z"/>
<path d="M3580 475 c0 -8 4 -15 10 -15 5 0 7 7 4 15 -4 8 -8 15 -10 15 -2 0 -4 -7 -4 -15z"/>
<path d="M3620 430 c0 -5 5 -10 11 -10 5 0 7 5 4 10 -3 6 -8 10 -11 10 -2 0 -4 -4 -4 -10z"/>
<path d="M3660 409 c0 -5 9 -9 20 -9 11 0 20 2 20 4 0 2 -9 6 -20 9 -11 3 -20 1 -20 -4z"/>
<path d="M4001 824 c0 -11 3 -14 6 -6 3 7 2 16 -1 19 -3 4 -6 -2 -5 -13z"/>
<path d="M1140 601 l0 -218 -67 -7 c-58 -6 -69 -4 -80 10 -11 15 -13 6 -13 -59 l0 -77 236 0 237 0 -7 37 c-3 21 -6 50 -6 66 l0 27 -80 0 -80 0 0 220 0 220 -70 0 -70 0 0 -219z"/>
<path d="M2020 810 c0 -7 3 -10 7 -7 3 4 3 10 0 14 -4 3 -7 0 -7 -7z"/>
<path d="M2000 765 c0 -8 2 -15 4 -15 2 0 6 7 10 15 3 8 1 15 -4 15 -6 0 -10 -7 -10 -15z"/>
<path d="M2620 750 c0 -5 5 -10 11 -10 5 0 7 5 4 10 -3 6 -8 10 -11 10 -2 0 -4 -4 -4 -10z"/>
<path d="M3940 748 c0 -4 5 -8 10 -8 6 0 10 -9 10 -20 0 -11 3 -20 8 -20 4 0 7 13 7 29 0 22 -5 29 -17 28 -10 -1 -18 -5 -18 -9z"/>
<path d="M1980 710 c0 -7 3 -10 7 -7 3 4 3 10 0 14 -4 3 -7 0 -7 -7z"/>
<path d="M2640 710 c0 -5 5 -10 11 -10 5 0 7 5 4 10 -3 6 -8 10 -11 10 -2 0 -4 -4 -4 -10z"/>
<path d="M1960 665 c0 -8 2 -15 4 -15 2 0 6 7 10 15 3 8 1 15 -4 15 -6 0 -10 -7 -10 -15z"/>
<path d="M2660 585 c0 -43 3 -75 6 -72 7 7 6 138 -1 145 -3 3 -5 -30 -5 -73z"/>
<path d="M3980 585 c0 -43 3 -75 7 -71 8 7 6 136 -2 144 -3 3 -5 -30 -5 -73z"/>
<path d="M1960 616 c0 -4 11 -18 25 -32 14 -14 25 -21 25 -16 0 5 -11 19 -25 32 -14 13 -25 20 -25 16z"/>
<path d="M740 469 c0 -5 5 -7 10 -4 6 3 10 8 10 11 0 2 -4 4 -10 4 -5 0 -10 -5 -10 -11z"/>
<path d="M2640 450 c0 -7 3 -10 7 -7 3 4 3 10 0 14 -4 3 -7 0 -7 -7z"/>
<path d="M3960 450 c0 -7 3 -10 7 -7 3 4 3 10 0 14 -4 3 -7 0 -7 -7z"/>
<path d="M700 409 c0 -5 5 -7 10 -4 6 3 10 8 10 11 0 2 -4 4 -10 4 -5 0 -10 -5 -10 -11z"/>
<path d="M2620 410 c0 -7 3 -10 7 -7 3 4 3 10 0 14 -4 3 -7 0 -7 -7z"/>
<path d="M3931 404 c-7 -8 -11 -17 -9 -20 3 -2 13 5 23 16 10 11 14 20 9 20 -5 -1 -15 -8 -23 -16z"/>
<path d="M640 310 c0 -7 3 -10 7 -7 3 4 3 10 0 14 -4 3 -7 0 -7 -7z"/>
</g>
<g id="layer105" fill="#799cb8" stroke="none">
<path d="M3433 3290 c-126 -10 -309 -42 -325 -58 -5 -5 11 -6 39 -1 26 4 143 13 260 20 454 26 937 -32 1156 -139 42 -21 77 -35 77 -31 0 4 -12 21 -26 38 -56 67 -232 126 -469 155 -156 20 -542 28 -712 16z"/>
<path d="M3445 3173 c-259 -9 -592 -50 -654 -81 -63 -30 -49 -72 39 -117 95 -48 248 -83 300 -69 20 5 12 9 -43 20 -92 18 -180 58 -175 81 8 41 177 76 463 94 339 21 843 -14 1030 -72 71 -22 100 -48 92 -80 l-6 -22 21 21 c18 18 20 25 10 46 -24 53 -198 112 -433 146 -165 24 -465 40 -644 33z"/>
<path d="M3 2943 c4 -3 10 -3 14 0 3 4 0 7 -7 7 -7 0 -10 -3 -7 -7z"/>
<path d="M3520 2919 c-152 -17 -280 -71 -280 -118 0 -21 34 -52 73 -69 35 -15 44 -15 29 0 -7 7 -12 16 -12 21 0 18 70 36 185 47 124 12 222 8 362 -16 l83 -14 65 32 c36 18 65 35 65 39 0 8 -162 56 -231 68 -90 16 -247 20 -339 10z"/>
<path d="M1542 2650 c0 -19 2 -27 5 -17 2 9 2 25 0 35 -3 9 -5 1 -5 -18z"/>
<path d="M3415 2634 c-163 -23 -255 -60 -255 -104 0 -22 36 -54 82 -73 l37 -16 -11 25 c-23 50 28 67 249 80 124 7 308 -6 445 -32 75 -14 77 -14 111 8 19 13 43 28 52 34 15 8 0 14 -76 32 -52 12 -121 26 -154 33 -60 11 -424 21 -480 13z"/>
<path d="M4240 2617 c0 -2 33 -24 72 -48 137 -81 219 -178 220 -261 2 -58 -14 -91 -58 -125 -33 -24 -46 -28 -106 -28 -37 0 -68 -1 -68 -3 0 -12 81 -32 132 -32 75 0 137 27 175 77 37 48 44 133 15 189 -24 46 -79 101 -140 138 -66 41 -242 109 -242 93z"/>
<path d="M283 2473 c4 -3 10 -3 14 0 3 4 0 7 -7 7 -7 0 -10 -3 -7 -7z"/>
<path d="M3275 2360 c-132 -9 -232 -24 -282 -45 -40 -17 -44 -48 -10 -70 42 -27 186 -75 274 -90 136 -24 146 -17 31 21 -176 57 -191 90 -53 114 56 10 148 11 353 7 251 -6 396 -18 607 -51 l40 -7 -50 27 c-27 15 -63 31 -80 36 -70 20 -282 48 -440 58 -184 11 -210 11 -390 0z"/>
<path d="M493 2205 c-7 -8 -13 -19 -13 -25 0 -6 -4 -9 -8 -6 -5 3 -9 -2 -9 -12 0 -9 22 -38 49 -64 26 -26 48 -54 48 -62 0 -9 5 -16 10 -16 7 0 10 -152 10 -435 l0 -435 70 0 70 0 1 333 c1 357 1 369 -11 377 -4 3 -8 43 -9 90 -1 47 -6 87 -11 88 -6 2 -10 12 -10 23 0 10 -4 19 -10 19 -5 0 -10 7 -10 15 0 20 -65 85 -85 85 -8 0 -15 5 -15 10 0 6 -9 10 -20 10 -11 0 -20 5 -20 10 0 14 -13 12 -27 -5z"/>
<path d="M1253 2165 c0 -22 2 -30 4 -17 2 12 2 30 0 40 -3 9 -5 -1 -4 -23z"/>
<path d="M3850 2130 c0 -7 3 -10 7 -7 3 4 3 10 0 14 -4 3 -7 0 -7 -7z"/>
<path d="M1253 2085 c0 -22 2 -30 4 -17 2 12 2 30 0 40 -3 9 -5 -1 -4 -23z"/>
<path d="M933 2003 c-18 -2 -33 -8 -33 -14 0 -5 -7 -9 -16 -9 -20 0 -44 -24 -44 -43 0 -9 -4 -17 -10 -19 -14 -4 -24 -89 -16 -133 10 -52 67 -110 130 -134 30 -11 93 -23 141 -27 l87 -7 -4 -54 c-7 -76 -29 -96 -112 -101 -57 -4 -133 6 -178 23 -12 5 -19 -3 -28 -31 -16 -47 -5 -57 91 -78 171 -39 297 -7 340 88 16 36 19 69 19 289 l0 247 -49 0 c-51 0 -61 -9 -61 -51 0 -19 -2 -18 -33 5 -63 48 -124 61 -224 49z m188 -120 l49 -26 0 -74 0 -73 -62 0 c-124 0 -168 28 -168 108 0 90 82 119 181 65z"/>
<path d="M2060 1988 c-101 -51 -119 -195 -35 -283 40 -43 124 -72 229 -81 84 -7 86 -7 86 -33 0 -54 -20 -101 -50 -116 -37 -19 -142 -19 -206 0 -27 8 -52 15 -55 15 -4 0 -11 -18 -17 -41 -10 -38 -9 -41 14 -49 124 -48 277 -52 351 -11 23 13 50 40 62 61 20 36 21 51 21 294 l0 256 -50 0 c-49 0 -50 -1 -50 -30 0 -16 -2 -30 -4 -30 -2 0 -33 16 -70 35 -84 44 -157 48 -226 13z m213 -94 c61 -31 67 -41 67 -116 l0 -68 -72 0 c-85 0 -136 21 -156 63 -17 35 -8 91 19 118 24 24 97 26 142 3z"/>
<path d="M1559 1973 c-6 -16 -13 -43 -16 -60 -3 -18 -10 -33 -14 -33 -5 0 -9 -18 -9 -40 0 -22 -4 -40 -10 -40 -5 0 -10 -15 -10 -34 0 -19 -4 -38 -10 -41 -5 -3 -10 -19 -10 -35 0 -15 -4 -30 -9 -32 -9 -3 -91 -254 -91 -277 0 -8 20 -11 67 -9 l67 3 58 185 c31 102 63 209 69 238 7 28 15 52 19 52 16 0 96 -302 115 -432 l6 -48 70 0 c38 0 69 3 69 6 0 3 -11 56 -25 117 -32 141 -85 310 -131 421 l-36 86 -79 0 c-77 0 -80 -1 -90 -27z"/>
<path d="M4000 1010 c0 -7 3 -10 7 -7 3 4 3 10 0 14 -4 3 -7 0 -7 -7z"/>
<path d="M2040 860 c0 -7 3 -10 7 -7 3 4 3 10 0 14 -4 3 -7 0 -7 -7z"/>
<path d="M810 822 c-24 -3 -83 -87 -186 -267 -54 -94 -54 -93 -54 94 l0 171 -70 0 -70 0 0 -285 0 -285 74 0 c68 0 75 2 90 25 9 14 14 25 11 25 -4 0 105 173 125 197 5 7 10 16 10 20 0 4 11 22 25 38 l24 30 1 -167 0 -168 71 0 72 0 -7 37 c-3 21 -6 149 -6 284 l0 247 -42 3 c-24 2 -54 3 -68 1z"/>
<path d="M1865 820 c-24 -4 -31 -15 -58 -85 -17 -44 -33 -82 -36 -85 -3 -3 -6 -11 -7 -17 -1 -7 -2 -17 -2 -23 -1 -5 -27 -10 -57 -10 l-55 0 0 110 0 110 -71 0 -71 0 4 -285 3 -285 168 0 c173 0 189 3 237 45 30 26 33 34 38 111 4 68 -21 134 -57 154 -22 11 -20 18 48 179 17 41 31 75 31 76 0 6 -88 10 -115 5z m-51 -356 c20 -20 20 -58 1 -78 -19 -19 -68 -29 -120 -24 l-40 3 -3 58 -3 57 75 0 c54 0 79 -4 90 -16z"/>
<path d="M2216 819 c2 -4 -10 -9 -26 -13 -44 -8 -115 -86 -136 -149 -24 -69 -21 -203 5 -261 47 -107 133 -159 264 -159 66 0 86 5 135 29 93 48 142 140 142 270 0 90 -22 153 -74 211 -50 56 -108 77 -218 78 -53 0 -95 -2 -92 -6z m175 -132 c41 -27 61 -66 67 -129 6 -64 -14 -133 -50 -169 -26 -25 -37 -29 -85 -29 -98 0 -143 53 -143 171 0 93 19 134 77 164 41 22 95 18 134 -8z"/>
<path d="M2241 604 c0 -11 3 -14 6 -6 3 7 2 16 -1 19 -3 4 -6 -2 -5 -13z"/>
<path d="M2240 570 c0 -7 3 -10 7 -7 3 4 3 10 0 14 -4 3 -7 0 -7 -7z"/>
<path d="M3536 819 c2 -4 -9 -9 -25 -12 -43 -9 -116 -88 -138 -149 -20 -60 -25 -206 -7 -229 6 -8 14 -25 17 -39 10 -43 72 -106 129 -130 40 -17 72 -23 131 -23 135 0 224 64 262 187 35 116 12 244 -59 323 -51 57 -108 78 -218 78 -53 1 -95 -2 -92 -6z m172 -129 c85 -52 96 -224 19 -301 -25 -25 -36 -29 -84 -29 -63 0 -103 22 -127 72 -18 35 -22 152 -6 193 11 28 48 69 71 78 32 13 95 6 127 -13z"/>
<path d="M3560 570 c0 -7 3 -10 7 -7 3 4 3 10 0 14 -4 3 -7 0 -7 -7z"/>
<path d="M3683 403 c4 -3 10 -3 14 0 3 4 0 7 -7 7 -7 0 -10 -3 -7 -7z"/>
<path d="M190 535 l0 -285 70 0 70 0 0 285 0 285 -70 0 -70 0 0 -285z"/>
<path d="M1141 593 l3 -228 -74 0 -74 0 -8 -40 c-14 -82 -36 -75 228 -75 l237 0 -7 37 c-3 21 -6 46 -6 56 0 15 -11 17 -80 17 l-80 0 0 230 0 230 -71 0 -71 0 3 -227z"/>
<path d="M3015 809 c-4 -5 -6 -108 -4 -227 l3 -217 -82 3 -82 4 0 -61 0 -61 236 0 237 0 -7 37 c-3 21 -6 46 -6 55 0 14 -12 18 -77 20 l-78 3 -3 228 -2 227 -65 0 c-35 0 -67 -5 -70 -11z"/>
<path d="M3960 730 c0 -7 3 -10 7 -7 3 4 3 10 0 14 -4 3 -7 0 -7 -7z"/>
</g>
<g id="layer106" fill="#99bad1" stroke="none">
<path d="M493 2205 c-7 -8 -13 -19 -13 -25 0 -6 -4 -9 -8 -6 -5 3 -9 -2 -9 -12 0 -9 22 -38 49 -64 26 -26 48 -54 48 -62 0 -9 5 -16 10 -16 7 0 10 -152 10 -435 l0 -435 64 0 65 0 3 353 c2 193 0 354 -3 357 -4 3 -7 43 -8 90 -1 47 -6 87 -11 88 -6 2 -10 12 -10 23 0 10 -4 19 -10 19 -5 0 -10 7 -10 15 0 20 -65 85 -85 85 -8 0 -15 5 -15 10 0 6 -9 10 -20 10 -11 0 -20 5 -20 10 0 14 -13 12 -27 -5z"/>
<path d="M938 2003 c-21 -2 -38 -8 -38 -14 0 -5 -7 -9 -16 -9 -20 0 -44 -24 -44 -43 0 -9 -6 -17 -12 -19 -9 -3 -13 -29 -13 -80 0 -67 3 -78 29 -112 44 -58 118 -88 233 -94 l93 -5 0 -59 c0 -50 -4 -62 -26 -83 -43 -40 -148 -44 -245 -10 l-35 13 -11 -38 -10 -38 41 -16 c134 -50 291 -42 354 17 49 45 51 60 57 332 l5 257 -31 -6 c-17 -3 -39 -6 -49 -6 -12 0 -20 -11 -24 -31 l-6 -31 -32 22 c-72 47 -137 63 -220 53z m143 -95 c19 -6 46 -20 62 -30 26 -18 27 -23 27 -99 l0 -79 -47 0 c-68 1 -134 18 -160 42 -47 44 -41 127 10 159 37 22 60 24 108 7z"/>
<path d="M2103 2001 c-45 -12 -81 -37 -104 -74 -17 -27 -20 -44 -16 -105 4 -66 7 -76 37 -107 50 -52 120 -77 228 -83 l92 -5 0 -52 c0 -115 -85 -148 -268 -103 -23 6 -44 9 -46 7 -2 -2 -7 -18 -10 -35 -6 -28 -4 -32 31 -47 64 -27 180 -40 247 -28 80 15 117 38 144 91 21 42 22 55 22 287 l0 243 -45 0 c-43 0 -46 -2 -51 -30 -7 -31 -18 -38 -29 -20 -4 6 -28 21 -54 35 -54 27 -130 38 -178 26z m191 -115 l46 -27 0 -79 0 -80 -53 0 c-70 0 -152 25 -172 53 -8 12 -15 41 -15 65 0 35 6 49 30 74 27 27 36 30 75 26 24 -3 64 -17 89 -32z"/>
<path d="M1572 1990 c-7 -5 -19 -44 -45 -142 -6 -27 -15 -48 -19 -48 -5 0 -8 -15 -8 -34 0 -19 -4 -38 -10 -41 -5 -3 -10 -19 -10 -35 0 -15 -4 -30 -8 -32 -5 -1 -16 -30 -26 -63 -36 -122 -53 -180 -61 -198 -7 -16 -2 -18 60 -15 l67 3 13 40 c37 114 106 347 117 393 6 29 15 49 18 45 23 -27 93 -277 111 -395 l13 -88 69 0 c37 0 66 4 63 8 -3 5 -16 60 -31 123 -35 155 -129 443 -154 470 -8 9 -149 17 -159 9z"/>
<path d="M2228 818 c-57 -12 -128 -71 -161 -132 -19 -35 -22 -57 -22 -151 0 -103 2 -113 30 -163 49 -89 129 -132 245 -132 172 0 271 99 279 278 5 137 -45 234 -146 282 -54 25 -157 34 -225 18z m173 -135 c41 -35 59 -79 59 -148 0 -66 -19 -115 -56 -150 -22 -20 -37 -25 -81 -25 -98 0 -143 54 -143 171 0 93 19 134 77 164 46 24 107 19 144 -12z"/>
<path d="M3575 824 c-91 -24 -151 -67 -186 -136 -63 -124 -25 -329 74 -396 59 -40 99 -52 177 -52 171 0 269 97 278 276 7 136 -43 236 -144 284 -42 21 -157 34 -199 24z m146 -141 c41 -35 59 -79 59 -148 0 -66 -19 -115 -56 -150 -22 -20 -37 -25 -81 -25 -98 0 -143 54 -143 171 0 77 10 110 43 143 30 30 42 34 99 35 37 1 53 -5 79 -26z"/>
<path d="M440 535 l0 -285 68 0 c65 0 69 2 83 28 16 30 123 200 139 219 5 7 10 16 10 20 0 4 11 22 25 38 l24 30 1 -167 0 -168 71 0 72 0 -7 37 c-3 21 -6 150 -6 286 l0 248 -67 -3 -68 -3 -92 -150 c-136 -220 -123 -218 -123 -17 l0 172 -65 0 -65 0 0 -285z"/>
<path d="M1148 593 l-3 -228 -75 0 -75 0 -3 -57 -3 -58 226 0 225 0 0 55 0 55 -80 0 -80 0 0 230 0 230 -65 0 -65 0 -2 -227z"/>
<path d="M1520 534 l0 -286 173 4 c191 3 209 9 247 71 40 65 16 207 -39 237 -22 11 -20 18 48 179 17 41 31 75 31 77 0 2 -31 4 -69 4 l-69 0 -42 -110 -43 -110 -53 0 -54 0 0 110 0 110 -65 0 -65 0 0 -286z m291 -64 c23 -13 26 -62 4 -84 -19 -19 -68 -29 -120 -24 l-40 3 -3 58 -3 57 71 0 c39 0 80 -5 91 -10z"/>
<path d="M3018 593 l-3 -228 -77 3 -78 3 0 -60 0 -61 225 0 225 0 0 55 0 54 -77 3 -78 3 -3 228 -2 227 -65 0 -65 0 -2 -227z"/>
</g>
<g id="layer107" fill="#e9feff" stroke="none">
<path d="M1262 3373 c698 -2 1838 -2 2535 0 698 1 127 2 -1267 2 -1394 0 -1965 -1 -1268 -2z"/>
<path d="M2227 816 c-108 -30 -177 -127 -185 -256 -11 -195 98 -320 278 -320 168 0 271 103 278 278 6 137 -44 234 -145 282 -58 27 -162 35 -226 16z m167 -125 c44 -24 67 -78 67 -153 0 -77 -10 -105 -51 -146 -28 -28 -38 -32 -87 -32 -98 0 -143 53 -143 171 0 101 28 148 103 175 36 14 69 9 111 -15z"/>
<path d="M3547 816 c-108 -30 -177 -127 -185 -256 -11 -194 98 -320 277 -320 168 0 270 101 279 276 7 136 -43 236 -144 284 -54 27 -163 34 -227 16z m167 -125 c44 -24 67 -78 67 -155 0 -117 -47 -176 -141 -176 -95 0 -140 55 -140 171 0 78 10 110 44 144 44 44 109 51 170 16z"/>
<path d="M200 535 l0 -285 65 0 65 0 0 285 0 285 -65 0 -65 0 0 -285z"/>
<path d="M440 535 l0 -286 66 3 66 3 74 115 c40 63 78 120 84 127 5 7 10 16 10 20 0 4 11 22 25 38 l24 30 1 -167 0 -168 65 0 65 0 0 285 0 285 -64 0 -63 0 -96 -152 c-141 -223 -127 -221 -127 -20 l0 172 -65 0 -65 0 0 -285z"/>
<path d="M1148 593 l-3 -228 -45 -2 c-25 -1 -60 -2 -77 -2 l-33 -1 0 -55 0 -55 225 0 225 0 0 55 0 55 -80 0 -80 0 0 230 0 230 -65 0 -65 0 -2 -227z"/>
<path d="M1520 534 l0 -286 168 4 c186 4 216 12 252 71 40 65 16 207 -39 237 -22 11 -20 18 48 179 17 41 31 75 31 77 0 2 -31 4 -69 4 l-68 0 -23 -62 c-12 -35 -32 -84 -43 -110 l-21 -48 -53 0 -53 0 0 110 0 110 -65 0 -65 0 0 -286z m270 -53 c14 -4 30 -17 37 -30 27 -55 -32 -96 -127 -89 l-45 3 -3 57 -3 57 38 4 c59 6 76 6 103 -2z"/>
<path d="M3018 593 l-3 -228 -45 -1 c-25 -1 -60 -2 -77 -3 l-33 -1 0 -55 0 -55 225 0 225 0 0 55 0 54 -77 3 -78 3 -3 228 -2 227 -65 0 -65 0 -2 -227z"/>
</g>
<g id="layer108" fill="#fcfefc" stroke="none">
<path d="M1058 3373 c56 -2 148 -2 205 0 56 1 10 3 -103 3 -113 0 -159 -2 -102 -3z"/>
<path d="M2228 817 c-106 -30 -176 -129 -186 -260 -5 -68 16 -162 42 -190 6 -7 16 -22 22 -32 15 -28 85 -74 111 -75 12 0 25 -4 28 -10 8 -13 142 -13 150 0 3 5 16 10 29 10 12 0 31 8 42 18 10 9 31 23 45 31 16 7 39 37 55 70 23 45 30 72 33 139 5 137 -45 234 -146 282 -57 27 -162 35 -225 17z m156 -116 c62 -36 85 -100 78 -212 -2 -38 -10 -53 -43 -87 -37 -39 -43 -42 -95 -42 -64 0 -104 22 -128 72 -19 38 -21 155 -4 195 14 32 57 73 76 73 6 0 12 5 12 10 0 16 72 10 104 -9z"/>
<path d="M3565 821 c-69 -19 -109 -46 -153 -103 -45 -57 -71 -240 -39 -270 8 -6 12 -21 10 -32 -3 -12 5 -31 16 -43 12 -12 21 -26 21 -31 0 -12 51 -56 80 -69 78 -33 201 -46 215 -23 3 5 16 10 29 10 12 0 31 8 42 18 10 9 31 23 45 31 46 23 82 110 87 207 7 136 -43 236 -144 284 -47 23 -160 34 -209 21z m139 -120 c62 -36 85 -100 78 -213 -3 -39 -10 -54 -43 -87 -36 -38 -43 -41 -95 -41 -99 0 -144 53 -144 171 0 95 20 135 86 176 27 17 84 14 118 -6z"/>
<path d="M200 541 l0 -279 37 -4 c61 -7 80 0 87 34 3 17 6 142 6 279 l0 249 -65 0 -65 0 0 -279z"/>
<path d="M440 540 c0 -260 1 -280 18 -281 78 -4 103 -4 110 0 5 4 41 56 80 116 40 61 77 115 82 122 6 7 10 15 10 19 0 3 10 20 22 37 l23 32 7 -40 c4 -22 7 -95 7 -162 1 -68 4 -123 9 -124 4 0 31 -2 60 -3 l52 -3 0 283 0 284 -55 0 c-64 0 -84 -15 -125 -90 -14 -25 -33 -54 -42 -64 -10 -11 -18 -26 -18 -33 0 -7 -4 -13 -8 -13 -4 0 -23 -26 -42 -57 -61 -102 -60 -103 -60 86 l0 171 -65 0 -65 0 0 -280z"/>
<path d="M1157 629 c1 -105 -1 -208 -5 -228 l-8 -36 -77 -3 -77 -3 2 -48 c2 -48 3 -49 38 -54 19 -3 46 -4 60 -2 14 2 98 4 188 4 l162 1 0 50 0 50 -80 0 -80 0 0 230 0 230 -62 0 -63 0 2 -191z"/>
<path d="M1520 540 c0 -217 3 -280 13 -281 59 -6 335 5 351 15 57 32 76 67 76 141 0 61 -27 127 -59 145 -22 11 -20 18 48 179 17 41 31 75 31 77 0 2 -31 4 -70 4 -56 0 -70 -3 -70 -15 0 -8 -4 -24 -10 -35 -5 -11 -14 -29 -20 -40 -5 -11 -10 -31 -10 -45 0 -14 -5 -25 -11 -25 -5 0 -15 -13 -20 -30 -10 -28 -14 -30 -65 -30 l-54 0 0 110 0 110 -65 0 -65 0 0 -280z m306 -74 c17 -18 17 -27 2 -61 -14 -31 -65 -48 -128 -43 l-45 3 -3 57 -3 57 38 4 c58 7 123 -1 139 -17z"/>
<path d="M3018 593 l-3 -228 -45 -1 c-122 -4 -110 2 -110 -53 l0 -50 213 -3 c116 -2 218 -1 225 1 7 2 12 21 12 52 l0 48 -77 3 -78 3 -3 228 -2 227 -65 0 -65 0 -2 -227z"/>
</g>


</svg>