<!DOCTYPE svg PUBLIC "-//W3C//DTD SVG 20010904//EN" "http://www.w3.org/TR/2001/REC-SVG-20010904/DTD/svg10.dtd">
<svg version="1.0" xmlns="http://www.w3.org/2000/svg" width="951px" height="634px" viewBox="0 0 9510 6340" preserveAspectRatio="xMidYMid meet">
<g id="layer101" fill="#111111" stroke="none">
<path d="M0 3170 l0 -3170 4755 0 4755 0 0 3170 0 3170 -4755 0 -4755 0 0 -3170z"/>
</g>
<g id="layer102" fill="#3773a5" stroke="none">
<path d="M856 6305 c-41 -53 -74 -132 -85 -205 -6 -36 -11 -200 -11 -365 l-1 -300 -22 30 c-70 96 -143 148 -250 179 -66 20 -206 15 -262 -9 -69 -29 -149 -86 -187 -134 l-38 -46 0 -229 c0 -260 0 -259 87 -332 83 -70 153 -98 258 -102 150 -7 248 31 343 132 108 114 144 259 106 429 l-6 27 441 0 441 0 0 75 0 76 93 -50 c152 -82 256 -114 442 -134 l110 -12 6 -60 c4 -33 14 -80 23 -104 9 -24 16 -47 16 -52 0 -5 -221 -9 -500 -9 l-500 0 0 -62 c0 -177 63 -420 155 -606 42 -84 57 -121 46 -118 -9 2 -26 7 -39 11 -51 15 -181 21 -257 13 -309 -33 -568 -255 -651 -558 -13 -47 -18 -102 -19 -195 0 -135 17 -217 66 -319 10 -22 19 -41 19 -42 0 0 -20 -4 -44 -7 -113 -16 -272 -92 -375 -181 -106 -89 -207 -243 -246 -371 -9 -30 -15 -90 -15 -147 l0 -98 230 0 230 0 0 -990 0 -990 -230 0 -230 0 0 -225 0 -225 1418 0 1418 0 64 96 c134 203 223 459 271 779 19 124 16 458 -4 595 -36 231 -88 403 -181 595 -160 329 -389 542 -663 617 -71 19 -111 21 -428 26 l-350 4 -34 74 c-18 40 -62 109 -97 153 l-64 81 0 290 0 290 380 0 381 0 -6 53 c-4 28 -11 74 -16 100 -5 26 -9 52 -9 58 0 5 44 -13 98 -40 188 -94 383 -148 575 -158 l107 -6 0 -183 0 -184 330 0 330 0 0 330 0 330 -330 0 -330 0 0 444 c0 490 -5 456 63 456 50 0 150 34 214 73 168 102 263 273 263 471 0 156 -55 282 -172 396 l-59 57 30 50 c81 131 140 295 156 436 l7 57 -1240 0 -1240 0 -26 -35z"/>
<path d="M5382 4443 c-108 -53 -173 -236 -158 -448 13 -183 63 -288 163 -336 45 -22 54 -22 364 -21 l319 2 0 -30 0 -30 -205 0 -205 0 0 -111 c0 -123 12 -162 58 -195 73 -53 172 -75 337 -75 131 0 240 18 301 49 47 25 99 77 113 115 13 33 14 421 2 484 -12 62 -49 111 -106 141 -50 26 -51 27 -325 32 -304 6 -323 10 -374 71 -53 63 -65 116 -66 302 l0 67 -92 0 c-65 0 -103 -5 -126 -17z m507 -999 c12 -15 21 -34 21 -44 0 -34 -39 -70 -75 -70 -36 0 -75 36 -75 70 0 34 39 70 75 70 24 0 39 -7 54 -26z"/>
</g>
<g id="layer103" fill="#4746c7" stroke="none">
<path d="M856 6305 c-41 -53 -74 -132 -85 -205 -6 -36 -11 -200 -11 -365 l-1 -300 -22 30 c-70 96 -143 148 -250 179 -66 20 -206 15 -262 -9 -69 -29 -149 -86 -187 -134 l-38 -46 0 -229 c0 -260 0 -259 87 -332 83 -70 153 -98 258 -102 150 -7 248 31 343 132 108 114 144 259 106 429 l-6 27 441 0 441 0 0 75 0 76 93 -50 c152 -82 256 -114 442 -134 l110 -12 6 -60 c4 -33 14 -80 23 -104 9 -24 16 -47 16 -52 0 -5 -221 -9 -500 -9 l-500 0 0 -62 c0 -177 63 -420 155 -606 42 -84 57 -121 46 -118 -9 2 -26 7 -39 11 -51 15 -181 21 -257 13 -199 -21 -380 -120 -506 -276 -106 -132 -156 -265 -166 -442 -7 -139 12 -227 83 -386 3 -7 -12 -14 -40 -17 -113 -16 -272 -92 -375 -181 -106 -89 -207 -243 -246 -371 -9 -30 -15 -90 -15 -147 l0 -98 230 0 230 0 0 -990 0 -990 -230 0 -230 0 0 -225 0 -225 1418 0 1418 0 64 96 c134 203 223 459 271 779 19 124 16 458 -4 595 -36 231 -88 403 -181 595 -160 329 -389 542 -663 617 -71 19 -111 21 -428 26 l-350 4 -34 74 c-18 40 -62 109 -97 153 l-64 81 0 290 0 290 380 0 380 0 -7 62 c-3 35 -11 84 -18 111 -7 26 -10 47 -8 47 2 0 47 -22 101 -49 188 -94 383 -148 575 -158 l107 -6 0 -183 0 -184 330 0 330 0 0 330 0 330 -330 0 -330 0 0 444 c0 490 -5 456 63 456 50 0 150 34 214 73 258 157 342 494 187 749 -34 56 -138 168 -155 168 -5 0 5 20 22 45 78 116 147 304 164 448 l7 57 -1240 0 -1240 0 -26 -35z m1991 -422 c-4 -3 -10 -3 -14 0 -3 4 0 7 7 7 7 0 10 -3 7 -7z m-1180 -340 c-4 -3 -7 0 -7 7 0 7 3 10 7 7 3 -4 3 -10 0 -14z m660 -100 c-4 -3 -7 0 -7 7 0 7 3 10 7 7 3 -4 3 -10 0 -14z m-1560 -30 c-4 -3 -7 0 -7 7 0 7 3 10 7 7 3 -4 3 -10 0 -14z m2420 -2020 c-4 -3 -10 -3 -14 0 -3 4 0 7 7 7 7 0 10 -3 7 -7z m-1910 -1990 c-4 -3 -10 -3 -14 0 -3 4 0 7 7 7 7 0 10 -3 7 -7z m-120 -9 c-3 -3 -12 -4 -19 -1 -8 3 -5 6 6 6 11 1 17 -2 13 -5z m40 -1 c-4 -3 -10 -3 -14 0 -3 4 0 7 7 7 7 0 10 -3 7 -7z m743 -307 c0 -3 -5 -8 -12 -12 -7 -4 -8 -3 -4 4 7 12 16 16 16 8z m466 -28 l29 -33 -32 29 c-31 28 -38 36 -30 36 2 0 16 -15 33 -32z m-501 -498 c3 -5 4 -10 1 -10 -3 0 -8 5 -11 10 -3 6 -4 10 -1 10 3 0 8 -4 11 -10z m30 -30 c3 -5 4 -10 1 -10 -3 0 -8 5 -11 10 -3 6 -4 10 -1 10 3 0 8 -4 11 -10z m-998 -77 c-4 -3 -10 -3 -14 0 -3 4 0 7 7 7 7 0 10 -3 7 -7z m1280 0 c-4 -3 -10 -3 -14 0 -3 4 0 7 7 7 7 0 10 -3 7 -7z"/>
<path d="M5773 4023 c4 -3 10 -3 14 0 3 4 0 7 -7 7 -7 0 -10 -3 -7 -7z"/>
<path d="M5658 3633 c7 -3 16 -2 19 1 4 3 -2 6 -13 5 -11 0 -14 -3 -6 -6z"/>
<path d="M5884 3348 c-4 -7 -3 -8 4 -4 12 7 16 16 8 16 -3 0 -8 -5 -12 -12z"/>
<path d="M6053 3193 c4 -3 10 -3 14 0 3 4 0 7 -7 7 -7 0 -10 -3 -7 -7z"/>
</g>
<g id="layer104" fill="#98b48b" stroke="none">
<path d="M856 6305 c-41 -53 -74 -132 -85 -205 -15 -88 -14 -648 0 -689 l11 -31 443 0 444 0 1 319 c0 420 -7 468 -91 591 l-34 50 -331 0 -332 0 -26 -35z"/>
<path d="M2795 5880 c-213 -25 -396 -181 -456 -387 -27 -94 -27 -228 1 -307 11 -33 20 -63 20 -68 0 -4 -225 -8 -500 -8 l-500 0 0 -62 c0 -177 63 -420 155 -606 48 -96 58 -121 43 -117 -10 3 -27 8 -39 11 -48 14 -180 20 -254 12 -199 -21 -380 -120 -506 -276 -106 -132 -156 -265 -166 -442 -7 -139 12 -227 83 -386 3 -7 -12 -14 -40 -17 -113 -16 -272 -92 -375 -181 -106 -89 -207 -243 -246 -371 -9 -30 -15 -90 -15 -147 l0 -98 369 0 370 0 3 -353 c3 -348 3 -353 27 -407 38 -85 76 -135 141 -185 79 -61 154 -87 252 -87 97 0 170 21 244 71 68 46 102 86 147 174 l32 62 3 419 c3 394 2 423 -18 500 -28 111 -85 226 -158 318 l-62 78 0 290 0 290 380 0 380 0 -7 63 c-3 34 -11 83 -18 110 -7 26 -10 47 -8 47 2 0 47 -22 101 -49 188 -94 383 -148 575 -158 l107 -6 0 -183 0 -184 330 0 330 0 0 330 0 330 -330 0 -330 0 0 444 c0 490 -5 456 63 456 50 0 150 34 214 73 258 157 342 494 187 749 -111 183 -317 283 -529 258z m475 -2150 c44 -22 84 -77 95 -127 15 -74 -35 -161 -113 -195 -114 -51 -241 37 -242 167 0 131 142 215 260 155z"/>
<path d="M5924 4880 c-119 -17 -210 -67 -246 -133 -15 -28 -17 -65 -18 -262 0 -131 5 -246 11 -268 13 -47 58 -99 107 -123 32 -17 71 -20 312 -25 306 -6 322 -9 379 -75 49 -55 55 -77 61 -229 l5 -140 70 -3 c129 -6 202 34 254 137 38 75 53 153 54 280 1 219 -65 357 -192 400 -22 7 -138 11 -342 11 l-309 0 0 30 0 30 205 0 205 0 0 110 c0 145 -21 185 -120 227 -90 38 -296 54 -436 33z m426 -140 c30 -30 27 -83 -6 -109 -15 -12 -34 -21 -44 -21 -32 0 -70 39 -70 73 0 65 76 101 120 57z"/>
<path d="M5708 2639 c-83 -13 -150 -69 -177 -148 -14 -43 -15 -571 -1 -622 14 -52 73 -115 125 -134 48 -19 129 -24 186 -12 99 20 173 124 167 234 l-3 58 -70 0 -70 0 -5 -57 c-8 -88 -61 -130 -132 -106 -54 19 -58 41 -58 327 0 169 4 269 11 284 24 54 104 66 148 23 22 -22 25 -35 29 -116 l4 -90 -51 0 -52 0 3 -62 3 -63 120 0 120 0 3 150 c3 163 -6 208 -54 264 -45 54 -153 84 -246 70z"/>
<path d="M4351 2627 c-8 -11 -11 -131 -9 -458 l3 -444 130 -3 c154 -4 218 8 267 48 59 49 91 125 91 220 1 68 -3 87 -29 137 -19 38 -44 68 -72 88 -40 27 -53 30 -140 35 l-97 5 -5 190 -5 190 -61 3 c-43 2 -64 -1 -73 -11z m280 -507 c50 -27 68 -150 32 -213 -25 -43 -58 -58 -118 -55 l-50 3 -3 124 c-1 69 0 131 2 138 6 16 108 18 137 3z"/>
<path d="M6093 2629 c-7 -7 0 -54 23 -157 40 -180 94 -425 130 -592 15 -69 31 -133 36 -143 8 -15 20 -17 85 -15 86 3 79 -3 103 108 5 25 21 99 35 165 14 66 32 147 40 180 45 193 95 440 91 452 -4 9 -26 13 -71 13 -74 0 -72 2 -89 -94 l-11 -61 -99 -3 c-69 -2 -102 1 -107 9 -4 7 -10 37 -14 68 -4 31 -12 62 -17 69 -13 15 -120 16 -135 1z m344 -291 c-3 -13 -20 -105 -38 -205 -18 -101 -35 -183 -39 -183 -3 0 -21 84 -39 188 -18 103 -35 195 -37 205 -5 15 3 17 76 17 80 0 82 -1 77 -22z"/>
<path d="M6735 2628 c-3 -7 -4 -213 -3 -458 l3 -445 67 -3 68 -3 26 43 c14 24 46 78 71 122 l45 78 67 -118 66 -119 70 0 70 0 0 455 0 455 -61 3 c-42 2 -64 -1 -72 -11 -8 -9 -13 -108 -14 -318 l-3 -304 -59 108 c-33 59 -62 107 -65 107 -4 0 -34 -51 -69 -112 l-62 -113 0 316 c0 358 8 329 -86 329 -35 0 -56 -5 -59 -12z"/>
<path d="M7435 2628 c-3 -7 -4 -213 -3 -458 l3 -445 214 -3 c153 -2 217 1 228 9 9 8 13 28 11 63 l-3 51 -150 5 -150 5 -3 127 -3 127 93 3 93 3 3 62 3 62 -93 3 -93 3 0 130 0 130 150 5 150 5 3 48 c5 78 9 77 -235 77 -162 0 -215 -3 -218 -12z"/>
<path d="M5090 2442 l0 -188 -46 -129 c-109 -307 -135 -386 -129 -395 9 -15 131 -12 143 3 5 6 31 85 58 175 26 89 50 159 54 155 4 -4 26 -75 50 -158 23 -82 47 -158 52 -167 7 -15 22 -18 78 -18 61 0 70 2 70 18 0 10 -40 132 -90 272 l-90 254 0 183 0 183 -75 0 -75 0 0 -188z"/>
<path d="M2027 1135 c-96 -36 -181 -130 -211 -234 -49 -169 33 -341 199 -418 86 -39 194 -39 280 0 78 36 140 97 176 172 25 52 29 72 29 145 0 120 -19 169 -100 251 -47 48 -78 70 -114 82 -61 21 -205 22 -259 2z"/>
</g>
<g id="layer105" fill="#fecd3d" stroke="none">
<path d="M2795 5880 c-270 -31 -475 -263 -475 -538 0 -98 19 -171 66 -262 91 -173 274 -281 477 -281 300 -1 537 240 537 545 -1 326 -280 574 -605 536z"/>
<path d="M5904 4875 c-115 -21 -182 -58 -223 -126 -20 -32 -21 -49 -21 -264 0 -127 5 -247 10 -267 14 -49 52 -93 104 -121 38 -20 59 -22 321 -28 287 -6 292 -6 351 -49 11 -8 34 -35 50 -59 28 -43 29 -50 34 -190 l5 -146 78 -1 c93 -2 134 9 179 47 79 64 119 190 120 369 0 224 -63 356 -191 399 -22 7 -138 11 -342 11 l-309 0 0 30 0 30 205 0 205 0 0 110 c0 145 -21 185 -120 227 -98 41 -311 55 -456 28z m446 -135 c30 -30 27 -83 -6 -109 -15 -12 -34 -21 -44 -21 -32 0 -70 39 -70 73 0 65 76 101 120 57z"/>
<path d="M1260 4349 c-303 -35 -565 -260 -645 -554 -9 -33 -19 -107 -22 -165 -7 -139 12 -227 83 -386 3 -7 -12 -14 -40 -17 -25 -4 -78 -18 -118 -32 -210 -73 -392 -249 -480 -461 -29 -70 -33 -92 -36 -193 l-4 -114 558 6 c306 4 665 7 796 7 l238 0 0 53 c0 131 -76 321 -180 451 l-60 74 0 291 0 291 380 0 380 0 -6 58 c-20 194 -102 362 -239 490 -114 107 -268 182 -406 197 -108 12 -125 12 -199 4z"/>
</g>
<g id="layer106" fill="#fedd72" stroke="none">
<path d="M2795 5880 c-211 -24 -396 -182 -456 -387 -23 -79 -24 -219 -3 -292 20 -66 79 -181 112 -216 113 -122 257 -186 415 -186 300 -1 537 240 537 545 -1 326 -280 574 -605 536z"/>
<path d="M5683 4483 c4 -3 10 -3 14 0 3 4 0 7 -7 7 -7 0 -10 -3 -7 -7z"/>
<path d="M5661 4443 c0 -25 1 -26 9 -8 7 16 9 17 9 3 1 -9 -4 -20 -10 -24 -17 -10 -5 -191 15 -230 42 -82 116 -111 281 -112 95 -1 113 1 86 9 -18 6 -31 12 -28 15 6 6 -52 64 -63 64 -4 0 -11 11 -14 25 -4 17 -11 23 -19 19 -9 -5 -9 -4 1 7 20 22 14 31 -16 24 -25 -5 -29 -3 -28 16 1 20 -4 23 -36 22 -26 0 -38 4 -38 13 0 8 3 13 8 13 4 -1 14 -1 22 0 11 2 9 5 -5 10 -11 5 -23 8 -26 7 -4 0 -16 7 -28 18 -20 18 -21 18 -30 -5 l-10 -24 0 23 c-1 13 3 31 8 41 7 13 3 22 -19 39 -18 15 -27 30 -25 43 3 15 -2 19 -21 19 -20 0 -24 -5 -23 -27z m176 -190 c-4 -3 -10 -3 -14 0 -3 4 0 7 7 7 7 0 10 -3 7 -7z"/>
<path d="M1260 4349 c-305 -35 -564 -259 -646 -559 -29 -102 -26 -303 5 -400 12 -41 32 -92 43 -113 11 -22 18 -40 16 -42 -2 -2 -23 -6 -48 -10 -25 -4 -76 -18 -115 -31 -206 -72 -390 -249 -477 -460 -29 -70 -33 -92 -36 -193 l-4 -114 558 6 c306 4 665 7 796 7 l238 0 0 53 c0 131 -77 323 -182 453 l-58 72 0 291 0 291 380 0 380 0 -6 58 c-20 194 -102 362 -239 490 -114 107 -268 182 -406 197 -108 12 -125 12 -199 4z"/>
<path d="M2027 1135 c-134 -50 -230 -197 -222 -342 6 -108 26 -153 104 -236 163 -174 468 -117 566 106 31 72 35 194 8 272 -27 75 -131 178 -202 199 -66 20 -201 20 -254 1z"/>
</g>
<g id="layer107" fill="#fefefe" stroke="none">
<path d="M1027 6113 c-4 -3 -7 -87 -7 -185 l0 -178 185 0 185 0 0 185 0 185 -178 0 c-98 0 -182 -3 -185 -7z"/>
<path d="M2858 5341 l2 -549 43 5 c227 24 410 173 477 389 27 89 27 225 0 313 -67 212 -247 359 -475 385 l-50 6 3 -549z"/>
<path d="M1260 4349 c-305 -35 -564 -259 -646 -559 -28 -102 -26 -302 4 -400 67 -212 209 -381 402 -476 78 -39 213 -74 283 -74 l47 0 0 380 0 380 380 0 380 0 -6 58 c-20 194 -102 362 -239 490 -114 107 -268 182 -406 197 -108 12 -125 12 -199 4z"/>
<path d="M2860 3570 l0 -330 330 0 330 0 0 330 0 330 -330 0 -330 0 0 -330z m410 160 c44 -22 84 -77 95 -127 15 -74 -35 -161 -113 -195 -114 -51 -241 37 -242 167 0 131 142 215 260 155z"/>
<path d="M0 225 l0 -225 415 0 415 0 24 48 c41 82 76 211 83 310 l6 92 -471 0 -472 0 0 -225z"/>
</g>


</svg>