<!DOCTYPE svg PUBLIC "-//W3C//DTD SVG 20010904//EN" "http://www.w3.org/TR/2001/REC-SVG-20010904/DTD/svg10.dtd">
<svg version="1.0" xmlns="http://www.w3.org/2000/svg" width="506px" height="337px" viewBox="0 0 5060 3370" preserveAspectRatio="xMidYMid meet">
<g id="layer101" fill="#343434" stroke="none">
<path d="M0 1685 l0 -1685 2530 0 2530 0 0 1685 0 1685 -2530 0 -2530 0 0 -1685z"/>
</g>
<g id="layer102" fill="#366a96" stroke="none">
<path d="M0 1685 l0 -1685 2530 0 2530 0 0 1685 0 1685 -2530 0 -2530 0 0 -1685z m4287 1263 c-3 -7 -5 -2 -5 12 0 14 2 19 5 13 2 -7 2 -19 0 -25z m-50 -20 c-3 -7 -5 -2 -5 12 0 14 2 19 5 13 2 -7 2 -19 0 -25z m760 -5 c-4 -3 -7 0 -7 7 0 7 3 10 7 7 3 -4 3 -10 0 -14z m-1087 -553 c64 -33 107 -94 119 -169 l8 -51 -113 0 -114 0 0 40 0 40 55 0 c30 0 55 4 55 9 0 27 -77 71 -122 71 -58 0 -128 -75 -128 -137 0 -130 138 -194 231 -107 14 13 27 24 30 24 3 0 20 -11 37 -24 l33 -24 -26 -30 c-80 -95 -259 -96 -339 -1 -40 47 -58 94 -58 153 -1 173 178 285 332 206z m-2750 -20 l0 -40 -90 0 -90 0 -2 -182 -3 -183 -47 -3 -48 -3 0 225 0 226 140 0 140 0 0 -40z m320 0 l0 -40 -90 0 -90 0 0 -60 0 -60 80 0 80 0 0 -40 0 -40 -80 0 -80 0 0 -40 0 -40 70 0 70 0 0 -45 0 -45 -120 0 -120 0 0 225 0 225 140 0 140 0 0 -40z m135 10 l16 -30 110 0 111 0 11 30 c11 28 15 30 64 30 l52 0 -71 -137 c-40 -76 -93 -178 -119 -227 l-47 -88 -77 148 c-43 82 -95 181 -116 221 -22 40 -39 75 -39 78 0 3 20 5 45 5 39 0 46 -3 60 -30z m495 -10 c0 -32 4 -40 18 -40 10 0 36 18 57 40 37 38 43 40 97 40 32 0 58 -3 58 -7 0 -4 -19 -27 -42 -51 l-43 -43 28 -21 c38 -28 67 -89 67 -142 0 -128 -80 -186 -257 -186 l-83 0 0 225 0 225 50 0 50 0 0 -40z m412 -85 l3 -124 144 120 c79 65 147 122 152 125 5 3 9 -91 9 -220 l0 -226 -45 0 -45 0 0 130 0 131 -147 -124 c-82 -68 -154 -127 -160 -131 -10 -6 -13 41 -13 218 l0 226 50 0 49 0 3 -125z m486 -97 l-3 -223 -47 -3 -48 -3 0 225 0 226 50 0 50 0 -2 -222z m184 97 l3 -124 144 120 c79 65 147 122 152 125 5 3 9 -91 9 -220 l0 -226 -45 0 -45 0 0 131 0 130 -155 -130 c-85 -72 -157 -131 -160 -131 -3 0 -5 101 -5 225 l0 225 50 0 49 0 3 -125z m-1289 -489 c178 -64 207 -297 49 -392 -61 -37 -95 -44 -219 -44 l-93 0 0 225 0 225 113 0 c67 -1 127 -6 150 -14z m497 -26 l0 -40 -90 0 -90 0 0 -60 0 -60 80 0 80 0 0 -40 0 -40 -80 0 -80 0 0 -40 0 -40 70 0 70 0 0 -45 0 -45 -120 0 -120 0 0 225 0 225 140 0 140 0 0 -40z m340 0 l0 -40 -90 0 -90 0 0 -60 0 -60 80 0 80 0 0 -40 0 -40 -80 0 -80 0 0 -40 0 -40 70 0 70 0 0 -45 0 -45 -120 0 -120 0 0 225 0 225 140 0 140 0 0 -40z m170 5 l0 -35 47 0 c101 0 181 -71 191 -169 6 -66 -12 -113 -58 -155 -48 -43 -92 -56 -197 -56 l-83 0 0 225 0 225 50 0 50 0 0 -35z m220 -585 c171 -88 161 -342 -17 -417 -18 -7 -57 -13 -88 -13 -131 0 -226 94 -226 223 0 176 176 286 331 207z m-1900 -15 l0 -35 47 0 c161 0 254 -189 151 -306 -48 -55 -81 -67 -195 -72 l-103 -5 0 227 0 226 50 0 50 0 0 -35z m540 -37 c0 -72 1 -75 63 -179 35 -58 76 -126 90 -150 l27 -45 -48 -2 -47 -2 -65 110 c-35 60 -66 107 -68 105 -3 -2 -33 -51 -66 -107 l-62 -103 -52 -3 c-29 -2 -52 -1 -52 2 0 3 43 76 95 161 94 154 95 156 95 220 l0 65 45 0 45 0 0 -72z m390 -108 l0 -180 60 0 60 0 0 -45 0 -45 -160 0 -160 0 0 45 0 45 55 0 55 0 0 180 0 180 45 0 45 0 0 -180z m270 80 l0 -100 100 0 100 0 0 100 0 100 45 0 45 0 0 -225 0 -225 -45 0 -45 0 0 85 0 85 -100 0 -99 0 -3 -82 -3 -83 -47 -3 -48 -3 0 225 0 226 50 0 50 0 0 -100z m992 -25 l3 -124 144 120 c79 65 147 122 152 125 5 3 9 -91 9 -220 l0 -226 -45 0 -45 0 0 130 0 131 -147 -124 c-82 -68 -154 -127 -160 -131 -10 -6 -13 41 -13 218 l0 226 50 0 49 0 3 -125z"/>
</g>
<g id="layer103" fill="#4c7192" stroke="none">
<path d="M0 2355 l0 -1015 33 0 c60 0 74 -29 76 -156 1 -39 3 -41 42 -53 22 -7 54 -21 71 -31 l31 -18 54 54 c74 74 112 72 181 -7 45 -51 41 -73 -23 -140 l-56 -58 19 -38 c11 -21 25 -55 31 -75 l13 -38 78 0 c73 0 80 -2 99 -26 32 -41 29 -125 -5 -159 -24 -25 -32 -26 -99 -23 -41 2 -73 1 -73 -2 1 -6 -8 -32 -39 -100 l-24 -55 55 -52 c75 -70 76 -95 5 -164 -67 -65 -86 -64 -153 6 -29 30 -56 55 -62 55 -5 0 -31 -11 -59 -25 -27 -13 -58 -25 -67 -25 -15 0 -18 -10 -18 -64 0 -82 -14 -122 -48 -135 -18 -6 835 -10 2486 -10 l2512 -1 0 1685 0 1685 -2530 0 -2530 0 0 -1015z m4759 990 c23 -8 42 -14 44 -13 1 1 27 -14 57 -34 70 -45 112 -92 152 -170 29 -56 32 -73 34 -153 3 -170 -59 -287 -196 -369 -72 -44 -143 -60 -238 -54 -189 12 -342 150 -372 335 -9 56 -3 173 9 173 4 0 7 10 8 22 3 38 45 107 96 159 47 48 95 78 166 104 49 18 189 18 240 0z m-849 -975 c64 -33 107 -94 119 -169 l8 -51 -113 0 -114 0 0 40 0 40 55 0 c30 0 55 4 55 9 0 27 -77 71 -122 71 -58 0 -128 -75 -128 -137 0 -130 138 -194 231 -107 14 13 27 24 30 24 3 0 20 -11 37 -24 l33 -24 -26 -30 c-80 -95 -259 -96 -339 -1 -40 47 -58 94 -58 153 -1 173 178 285 332 206z m-2750 -20 l0 -40 -90 0 -90 0 -2 -182 -3 -183 -47 -3 -48 -3 0 225 0 226 140 0 140 0 0 -40z m320 0 l0 -40 -90 0 -90 0 0 -60 0 -60 80 0 80 0 0 -40 0 -40 -80 0 -80 0 0 -40 0 -40 70 0 70 0 0 -45 0 -45 -120 0 -120 0 0 225 0 225 140 0 140 0 0 -40z m135 10 l16 -30 110 0 111 0 11 30 c11 28 15 30 64 30 l52 0 -71 -137 c-40 -76 -93 -178 -119 -227 l-47 -88 -77 148 c-43 82 -95 181 -116 221 -22 40 -39 75 -39 78 0 3 20 5 45 5 39 0 46 -3 60 -30z m495 -10 c0 -32 4 -40 18 -40 10 0 36 18 57 40 37 38 43 40 97 40 32 0 58 -3 58 -7 0 -4 -19 -27 -42 -51 l-43 -43 28 -21 c38 -28 67 -89 67 -142 0 -128 -80 -186 -257 -186 l-83 0 0 225 0 225 50 0 50 0 0 -40z m412 -85 l3 -124 144 120 c79 65 147 122 152 125 5 3 9 -91 9 -220 l0 -226 -45 0 -45 0 0 130 0 131 -147 -124 c-82 -68 -154 -127 -160 -131 -10 -6 -13 41 -13 218 l0 226 50 0 49 0 3 -125z m486 -97 l-3 -223 -47 -3 -48 -3 0 225 0 226 50 0 50 0 -2 -222z m184 97 l3 -124 144 120 c79 65 147 122 152 125 5 3 9 -91 9 -220 l0 -226 -45 0 -45 0 0 131 0 130 -155 -130 c-85 -72 -157 -131 -160 -131 -3 0 -5 101 -5 225 l0 225 50 0 49 0 3 -125z m-1289 -489 c178 -64 207 -297 49 -392 -61 -37 -95 -44 -219 -44 l-93 0 0 225 0 225 113 0 c67 -1 127 -6 150 -14z m497 -26 l0 -40 -90 0 -90 0 0 -60 0 -60 80 0 80 0 0 -40 0 -40 -80 0 -80 0 0 -40 0 -40 70 0 70 0 0 -45 0 -45 -120 0 -120 0 0 225 0 225 140 0 140 0 0 -40z m340 0 l0 -40 -90 0 -90 0 0 -60 0 -60 80 0 80 0 0 -40 0 -40 -80 0 -80 0 0 -40 0 -40 70 0 70 0 0 -45 0 -45 -120 0 -120 0 0 225 0 225 140 0 140 0 0 -40z m170 5 l0 -35 47 0 c101 0 181 -71 191 -169 6 -66 -12 -113 -58 -155 -48 -43 -92 -56 -197 -56 l-83 0 0 225 0 225 50 0 50 0 0 -35z m220 -585 c171 -88 161 -342 -17 -417 -18 -7 -57 -13 -88 -13 -131 0 -226 94 -226 223 0 176 176 286 331 207z m-1900 -15 l0 -35 47 0 c161 0 254 -189 151 -306 -48 -55 -81 -67 -195 -72 l-103 -5 0 227 0 226 50 0 50 0 0 -35z m540 -37 c0 -72 1 -75 63 -179 35 -58 76 -126 90 -150 l27 -45 -48 -2 -47 -2 -65 110 c-35 60 -66 107 -68 105 -3 -2 -33 -51 -66 -107 l-62 -103 -52 -3 c-29 -2 -52 -1 -52 2 0 3 43 76 95 161 94 154 95 156 95 220 l0 65 45 0 45 0 0 -72z m390 -108 l0 -180 60 0 60 0 0 -45 0 -45 -160 0 -160 0 0 45 0 45 55 0 55 0 0 180 0 180 45 0 45 0 0 -180z m270 80 l0 -100 100 0 100 0 0 100 0 100 45 0 45 0 0 -225 0 -225 -45 0 -45 0 0 85 0 85 -100 0 -99 0 -3 -82 -3 -83 -47 -3 -48 -3 0 225 0 226 50 0 50 0 0 -100z m992 -25 l3 -124 144 120 c79 65 147 122 152 125 5 3 9 -91 9 -220 l0 -226 -45 0 -45 0 0 130 0 131 -147 -124 c-82 -68 -154 -127 -160 -131 -10 -6 -13 41 -13 218 l0 226 50 0 49 0 3 -125z m665 -172 c-4 -3 -7 0 -7 7 0 7 3 10 7 7 3 -4 3 -10 0 -14z m57 -71 c3 -5 -1 -9 -9 -9 -8 0 -12 4 -9 9 3 4 7 8 9 8 2 0 6 -4 9 -8z m-44 -12 c0 -5 -2 -10 -4 -10 -3 0 -8 5 -11 10 -3 6 -1 10 4 10 6 0 11 -4 11 -10z m105 -20 c4 -6 -5 -10 -19 -10 -14 0 -26 5 -26 10 0 6 9 10 19 10 11 0 23 -4 26 -10z m299 -8 c16 -1 27 -5 23 -8 -3 -4 4 -15 16 -24 21 -17 22 -26 22 -168 0 -148 0 -151 -25 -172 -46 -40 -87 -50 -195 -49 -68 0 -110 5 -121 14 -10 7 -24 11 -31 8 -7 -3 -13 -1 -13 4 0 10 79 40 93 35 4 -1 7 3 7 8 0 6 -3 10 -7 10 -7 0 -12 22 -16 76 -1 20 -37 33 -37 13 0 -6 4 -8 9 -4 5 3 12 1 16 -5 3 -5 -1 -10 -9 -10 -8 0 -19 6 -23 14 -4 7 -15 16 -23 19 -11 5 -9 6 5 6 11 -1 50 -1 87 0 58 1 69 4 79 22 8 16 8 24 -1 33 -8 8 -9 6 -4 -8 6 -15 4 -17 -7 -10 -8 4 -38 9 -67 10 -52 2 -79 12 -54 21 18 7 15 23 -5 23 -15 0 -15 1 0 18 19 21 8 45 -19 40 -27 -4 -20 38 11 66 20 19 33 21 141 20 66 0 132 -2 148 -2z m-304 -142 c0 -13 -7 -20 -20 -20 -22 0 -23 1 -14 24 9 23 34 20 34 -4z m-41 -47 c2 -2 -3 -3 -11 -3 -9 0 -19 7 -22 16 -6 15 -4 15 11 3 10 -7 20 -15 22 -16z m-92 0 c-4 -3 -10 -3 -14 0 -3 4 0 7 7 7 7 0 10 -3 7 -7z m94 -60 c12 -16 12 -17 -2 -6 -9 7 -20 9 -24 5 -5 -4 -5 -1 -1 6 9 16 11 15 27 -5z m6 -40 c-4 -3 -10 -3 -14 0 -3 4 0 7 7 7 7 0 10 -3 7 -7z m0 -35 c-3 -8 -6 -5 -6 6 -1 11 2 17 5 13 3 -3 4 -12 1 -19z m11 -31 c8 -10 5 -13 -16 -14 -15 0 -19 1 -9 4 9 2 15 9 12 14 -9 14 1 11 13 -4z"/>
<path d="M4576 3300 c-188 -32 -326 -232 -283 -410 35 -144 130 -242 270 -276 78 -20 161 -11 237 25 140 65 224 239 188 386 -7 28 -11 56 -10 63 2 6 -1 12 -6 12 -5 0 -15 13 -22 29 -16 41 -92 114 -144 140 -42 20 -132 42 -165 40 -9 -1 -38 -5 -65 -9z m139 -155 c14 -13 25 -29 25 -35 0 -5 5 -10 10 -10 12 0 90 -72 90 -83 0 -12 27 -37 40 -37 6 0 13 -6 16 -14 4 -9 -33 -54 -100 -120 -58 -58 -108 -106 -111 -106 -3 0 -5 17 -5 38 1 32 9 45 69 105 63 63 68 70 57 93 -6 13 -14 24 -17 24 -4 0 -30 22 -58 48 -44 41 -51 53 -51 85 0 20 2 37 5 37 3 0 17 -11 30 -25z m-105 -16 c0 -24 -10 -42 -42 -74 -24 -23 -56 -56 -71 -72 l-28 -30 70 -70 c63 -61 71 -74 71 -106 0 -20 -3 -37 -8 -37 -4 0 -54 47 -110 104 -69 70 -101 109 -97 118 15 25 190 197 203 197 7 1 12 -12 12 -30z"/>
<path d="M4763 3043 c4 -3 10 -3 14 0 3 4 0 7 -7 7 -7 0 -10 -3 -7 -7z"/>
<path d="M4215 390 c4 -6 11 -8 16 -5 14 9 11 15 -7 15 -8 0 -12 -5 -9 -10z"/>
<path d="M0 674 l0 -306 47 7 c96 14 184 81 230 174 10 21 19 67 21 113 4 67 1 84 -22 131 -47 100 -101 147 -199 173 -28 8 -58 14 -64 14 -10 0 -13 -68 -13 -306z"/>
</g>
<g id="layer104" fill="#3677ae" stroke="none">
<path d="M0 2360 l0 -1010 20 0 c29 0 76 -26 84 -45 3 -9 6 -50 6 -90 l0 -73 33 -7 c17 -4 49 -16 71 -27 l38 -19 26 23 c14 13 37 35 50 50 19 22 32 28 67 28 38 0 47 -5 84 -45 58 -63 56 -90 -13 -163 l-53 -57 16 -30 c9 -16 23 -48 30 -70 l12 -40 67 3 c53 2 74 -1 99 -17 32 -20 33 -22 33 -94 0 -98 -10 -107 -114 -107 -74 0 -77 -1 -87 -27 -5 -16 -21 -50 -34 -76 l-24 -49 59 -58 c57 -56 59 -60 50 -92 -12 -43 -91 -118 -124 -118 -16 0 -44 19 -82 54 l-58 54 -36 -15 c-19 -9 -52 -20 -73 -26 -33 -10 -37 -15 -37 -43 0 -18 6 -35 13 -37 9 -4 9 -6 0 -6 -8 -1 -13 -17 -13 -44 0 -43 -15 -67 -50 -80 -8 -3 1113 -6 2493 -6 l2507 -1 -1 1468 c-1 807 -5 1447 -9 1422 -10 -56 -19 -84 -47 -136 -22 -41 -119 -144 -136 -144 -5 0 -21 -8 -35 -18 -47 -31 -99 -43 -190 -43 -89 0 -107 4 -191 45 -132 63 -221 208 -221 362 0 194 133 356 330 400 44 10 -252 12 -1527 13 -1501 1 -1583 0 -1583 -16 0 -15 -2 -16 -10 -3 -8 13 -55 15 -305 18 -163 2 -316 -1 -341 -6 -25 -5 -44 -6 -44 -1 0 5 -166 9 -375 9 l-375 0 0 -1010z m847 953 c-4 -3 -7 0 -7 7 0 7 3 10 7 7 3 -4 3 -10 0 -14z m210 11 c-3 -3 -12 -4 -19 -1 -8 3 -5 6 6 6 11 1 17 -2 13 -5z m110 0 c-3 -3 -12 -4 -19 -1 -8 3 -5 6 6 6 11 1 17 -2 13 -5z m190 -11 c-4 -3 -7 0 -7 7 0 7 3 10 7 7 3 -4 3 -10 0 -14z m-530 -35 c-3 -8 -6 -5 -6 6 -1 11 2 17 5 13 3 -3 4 -12 1 -19z m550 5 c-4 -3 -7 0 -7 7 0 7 3 10 7 7 3 -4 3 -10 0 -14z m-310 -9 c-3 -3 -12 -4 -19 -1 -8 3 -5 6 6 6 11 1 17 -2 13 -5z m90 0 c-3 -3 -12 -4 -19 -1 -8 3 -5 6 6 6 11 1 17 -2 13 -5z m-440 -31 c-4 -3 -10 -3 -14 0 -3 4 0 7 7 7 7 0 10 -3 7 -7z m90 -15 c-3 -8 -6 -5 -6 6 -1 11 2 17 5 13 3 -3 4 -12 1 -19z m460 0 c-3 -8 -6 -5 -6 6 -1 11 2 17 5 13 3 -3 4 -12 1 -19z m230 16 c-3 -3 -12 -4 -19 -1 -8 3 -5 6 6 6 11 1 17 -2 13 -5z m-560 -21 c-4 -3 -7 0 -7 7 0 7 3 10 7 7 3 -4 3 -10 0 -14z m590 -115 c-2 -24 -4 -7 -4 37 0 44 2 63 4 43 2 -21 2 -57 0 -80z m-846 39 c1 -32 -1 -60 -4 -64 -4 -3 -7 24 -7 62 0 82 9 83 11 2z m46 -24 c-2 -16 -4 -3 -4 27 0 30 2 43 4 28 2 -16 2 -40 0 -55z m190 5 c-2 -13 -4 -3 -4 22 0 25 2 35 4 23 2 -13 2 -33 0 -45z m370 -5 c-2 -16 -4 -5 -4 22 0 28 2 40 4 28 2 -13 2 -35 0 -50z m-320 10 c-3 -10 -5 -2 -5 17 0 19 2 27 5 18 2 -10 2 -26 0 -35z m270 -15 c-2 -13 -4 -3 -4 22 0 25 2 35 4 23 2 -13 2 -33 0 -45z m240 45 c-4 -3 -7 0 -7 7 0 7 3 10 7 7 3 -4 3 -10 0 -14z m-742 -93 c3 -5 4 -10 1 -10 -3 0 -8 5 -11 10 -3 6 -4 10 -1 10 3 0 8 -4 11 -10z m202 -12 c-3 -8 -6 -5 -6 6 -1 11 2 17 5 13 3 -3 4 -12 1 -19z m50 5 c-4 -3 -7 0 -7 7 0 7 3 10 7 7 3 -4 3 -10 0 -14z m280 -5 c-3 -8 -6 -5 -6 6 -1 11 2 17 5 13 3 -3 4 -12 1 -19z m-460 -10 c-3 -8 -6 -5 -6 6 -1 11 2 17 5 13 3 -3 4 -12 1 -19z m590 0 c-3 -8 -6 -5 -6 6 -1 11 2 17 5 13 3 -3 4 -12 1 -19z m-157 -32 c0 -3 -4 -8 -10 -11 -5 -3 -10 -1 -10 4 0 6 5 11 10 11 6 0 10 -2 10 -4z m-393 -53 c-4 -3 -7 0 -7 7 0 7 3 10 7 7 3 -4 3 -10 0 -14z m190 11 c-3 -3 -12 -4 -19 -1 -8 3 -5 6 6 6 11 1 17 -2 13 -5z m150 -1 c-4 -3 -10 -3 -14 0 -3 4 0 7 7 7 7 0 10 -3 7 -7z m170 -10 c-4 -3 -7 0 -7 7 0 7 3 10 7 7 3 -4 3 -10 0 -14z m-600 -60 c-3 -10 -5 -2 -5 17 0 19 2 27 5 18 2 -10 2 -26 0 -35z m690 -20 c-4 -3 -7 0 -7 7 0 7 3 10 7 7 3 -4 3 -10 0 -14z m-504 0 c-7 -2 -19 -2 -25 0 -7 3 -2 5 12 5 14 0 19 -2 13 -5z m340 0 c-7 -2 -19 -2 -25 0 -7 3 -2 5 12 5 14 0 19 -2 13 -5z m-497 -18 c9 -8 11 -15 6 -15 -5 0 -15 7 -22 15 -7 8 -9 15 -6 15 4 0 14 -7 22 -15z m451 -1 c-3 -3 -12 -4 -19 -1 -8 3 -5 6 6 6 11 1 17 -2 13 -5z m-188 -51 c-2 -35 -2 -35 -6 -8 -3 16 -10 33 -16 37 -8 5 -6 8 6 8 13 0 17 -8 16 -37z m124 29 c-6 -4 -13 -21 -16 -37 -4 -27 -4 -27 -6 8 -1 29 3 37 17 37 11 0 13 -3 5 -8z m-196 -28 c-3 -3 -12 -4 -19 -1 -8 3 -5 6 6 6 11 1 17 -2 13 -5z m400 -1 c-4 -3 -10 -3 -14 0 -3 4 0 7 7 7 7 0 10 -3 7 -7z m-494 -20 c-7 -2 -19 -2 -25 0 -7 3 -2 5 12 5 14 0 19 -2 13 -5z m114 -25 c-3 -7 -5 -2 -5 12 0 14 2 19 5 13 2 -7 2 -19 0 -25z m210 0 c-3 -7 -5 -2 -5 12 0 14 2 19 5 13 2 -7 2 -19 0 -25z m136 25 c-7 -2 -19 -2 -25 0 -7 3 -2 5 12 5 14 0 19 -2 13 -5z m-276 -30 c-4 -3 -10 -3 -14 0 -3 4 0 7 7 7 7 0 10 -3 7 -7z m30 0 c-4 -3 -10 -3 -14 0 -3 4 0 7 7 7 7 0 10 -3 7 -7z m40 1 c-3 -3 -12 -4 -19 -1 -8 3 -5 6 6 6 11 1 17 -2 13 -5z m-44 -51 c-7 -2 -21 -2 -30 0 -10 3 -4 5 12 5 17 0 24 -2 18 -5z m60 0 c-7 -2 -19 -2 -25 0 -7 3 -2 5 12 5 14 0 19 -2 13 -5z m2757 -343 c64 -33 107 -94 119 -169 l8 -51 -113 0 -114 0 0 40 0 40 55 0 c30 0 55 4 55 9 0 27 -77 71 -122 71 -58 0 -128 -75 -128 -137 0 -130 138 -194 231 -107 14 13 27 24 30 24 3 0 20 -11 37 -24 l33 -24 -26 -30 c-80 -95 -259 -96 -339 -1 -40 47 -58 94 -58 153 -1 173 178 285 332 206z m-2750 -20 l0 -40 -90 0 -90 0 -2 -182 -3 -183 -47 -3 -48 -3 0 225 0 226 140 0 140 0 0 -40z m320 0 l0 -40 -90 0 -90 0 0 -60 0 -60 80 0 80 0 0 -40 0 -40 -80 0 -80 0 0 -40 0 -40 70 0 70 0 0 -45 0 -45 -120 0 -120 0 0 225 0 225 140 0 140 0 0 -40z m135 10 l16 -30 110 0 111 0 11 30 c11 28 15 30 64 30 l52 0 -71 -137 c-40 -76 -93 -178 -119 -227 l-47 -88 -77 148 c-43 82 -95 181 -116 221 -22 40 -39 75 -39 78 0 3 20 5 45 5 39 0 46 -3 60 -30z m495 -10 c0 -32 4 -40 18 -40 10 0 36 18 57 40 37 38 43 40 97 40 32 0 58 -3 58 -7 0 -4 -19 -27 -42 -51 l-43 -43 28 -21 c38 -28 67 -89 67 -142 0 -128 -80 -186 -257 -186 l-83 0 0 225 0 225 50 0 50 0 0 -40z m412 -85 l3 -124 144 120 c79 65 147 122 152 125 5 3 9 -91 9 -220 l0 -226 -45 0 -45 0 0 130 0 131 -147 -124 c-82 -68 -154 -127 -160 -131 -10 -6 -13 41 -13 218 l0 226 50 0 49 0 3 -125z m486 -97 l-3 -223 -47 -3 -48 -3 0 225 0 226 50 0 50 0 -2 -222z m184 97 l3 -124 144 120 c79 65 147 122 152 125 5 3 9 -91 9 -220 l0 -226 -45 0 -45 0 0 131 0 130 -155 -130 c-85 -72 -157 -131 -160 -131 -3 0 -5 101 -5 225 l0 225 50 0 49 0 3 -125z m-1289 -489 c178 -64 207 -297 49 -392 -61 -37 -95 -44 -219 -44 l-93 0 0 225 0 225 113 0 c67 -1 127 -6 150 -14z m497 -26 l0 -40 -90 0 -90 0 0 -60 0 -60 80 0 80 0 0 -40 0 -40 -80 0 -80 0 0 -40 0 -40 70 0 70 0 0 -45 0 -45 -120 0 -120 0 0 225 0 225 140 0 140 0 0 -40z m340 0 l0 -40 -90 0 -90 0 0 -60 0 -60 80 0 80 0 0 -40 0 -40 -80 0 -80 0 0 -40 0 -40 70 0 70 0 0 -45 0 -45 -120 0 -120 0 0 225 0 225 140 0 140 0 0 -40z m170 5 l0 -35 47 0 c101 0 181 -71 191 -169 6 -66 -12 -113 -58 -155 -48 -43 -92 -56 -197 -56 l-83 0 0 225 0 225 50 0 50 0 0 -35z m220 -585 c171 -88 161 -342 -17 -417 -18 -7 -57 -13 -88 -13 -131 0 -226 94 -226 223 0 176 176 286 331 207z m-1900 -15 l0 -35 47 0 c161 0 254 -189 151 -306 -48 -55 -81 -67 -195 -72 l-103 -5 0 227 0 226 50 0 50 0 0 -35z m540 -37 c0 -72 1 -75 63 -179 35 -58 76 -126 90 -150 l27 -45 -48 -2 -47 -2 -65 110 c-35 60 -66 107 -68 105 -3 -2 -33 -51 -66 -107 l-62 -103 -52 -3 c-29 -2 -52 -1 -52 2 0 3 43 76 95 161 94 154 95 156 95 220 l0 65 45 0 45 0 0 -72z m390 -108 l0 -180 60 0 60 0 0 -45 0 -45 -160 0 -160 0 0 45 0 45 55 0 55 0 0 180 0 180 45 0 45 0 0 -180z m270 80 l0 -100 100 0 100 0 0 100 0 100 45 0 45 0 0 -225 0 -225 -45 0 -45 0 0 85 0 85 -100 0 -99 0 -3 -82 -3 -83 -47 -3 -48 -3 0 225 0 226 50 0 50 0 0 -100z m992 -25 l3 -124 144 120 c79 65 147 122 152 125 5 3 9 -91 9 -220 l0 -226 -45 0 -45 0 0 130 0 131 -147 -124 c-82 -68 -154 -127 -160 -131 -10 -6 -13 41 -13 218 l0 226 50 0 49 0 3 -125z m666 -107 l-2 -73 -3 67 -4 67 -52 4 -52 3 58 2 57 2 -2 -72z m-140 38 c-7 -8 -15 -12 -17 -11 -5 6 10 25 20 25 5 0 4 -6 -3 -14z m-51 -108 c-3 -7 -5 -2 -5 12 0 14 2 19 5 13 2 -7 2 -19 0 -25z m210 -25 c-4 -3 -10 -3 -14 0 -3 4 0 7 7 7 7 0 10 -3 7 -7z m43 -41 c0 -5 -7 -9 -15 -9 -8 0 -12 4 -9 9 3 4 9 8 15 8 5 0 9 -4 9 -8z m-50 -12 c0 -5 -4 -10 -10 -10 -5 0 -10 5 -10 10 0 6 5 10 10 10 6 0 10 -4 10 -10z m96 -15 c18 -14 18 -14 -8 -15 -18 0 -28 5 -28 15 0 19 11 19 36 0z m345 -37 l29 -32 0 -147 0 -146 -32 -29 c-36 -33 -111 -54 -186 -54 -61 1 -165 23 -169 36 -3 10 63 40 85 38 6 -1 12 2 12 7 0 5 -4 9 -8 9 -7 0 -10 12 -14 71 -2 16 -9 26 -20 26 -10 1 -18 -3 -18 -8 0 -6 4 -8 9 -4 5 3 12 1 16 -5 3 -5 -1 -10 -9 -10 -8 0 -19 6 -23 14 -4 7 -15 16 -23 19 -8 3 24 6 73 6 80 1 87 3 87 21 0 19 -7 20 -182 22 -101 1 -150 4 -110 5 53 3 71 7 66 16 -5 9 -3 9 7 0 18 -17 77 -16 95 1 18 19 18 26 -3 26 -15 0 -15 1 0 18 19 21 8 45 -19 40 -15 -2 -18 2 -16 22 2 14 10 29 18 33 8 4 14 15 14 22 0 13 25 15 146 15 l145 0 30 -32z m-644 -40 c-3 -8 -6 -5 -6 6 -1 11 2 17 5 13 3 -3 4 -12 1 -19z m20 -60 c-3 -8 -6 -5 -6 6 -1 11 2 17 5 13 3 -3 4 -12 1 -19z m283 -18 c0 -13 -7 -20 -20 -20 -22 0 -23 1 -14 24 9 23 34 20 34 -4z m-225 -30 c3 -6 -1 -7 -9 -4 -18 7 -21 14 -7 14 6 0 13 -4 16 -10z m186 -77 c12 -16 12 -17 -2 -6 -9 7 -19 10 -22 6 -4 -3 -7 -1 -7 5 0 17 16 15 31 -5z m6 -40 c-4 -3 -10 -3 -14 0 -3 4 0 7 7 7 7 0 10 -3 7 -7z m0 -35 c-3 -8 -6 -5 -6 6 -1 11 2 17 5 13 3 -3 4 -12 1 -19z m-11 -38 c9 0 12 4 9 10 -3 6 1 7 9 4 9 -3 16 -10 16 -16 0 -5 -5 -6 -10 -3 -6 3 -13 -1 -16 -10 -8 -20 -34 -1 -33 24 0 10 2 11 6 4 2 -7 11 -13 19 -13z m-3559 -37 c-4 -3 -10 -3 -14 0 -3 4 0 7 7 7 7 0 10 -3 7 -7z m120 1 c-3 -3 -12 -4 -19 -1 -8 3 -5 6 6 6 11 1 17 -2 13 -5z m300 0 c-3 -3 -12 -4 -19 -1 -8 3 -5 6 6 6 11 1 17 -2 13 -5z m110 0 c-3 -3 -12 -4 -19 -1 -8 3 -5 6 6 6 11 1 17 -2 13 -5z m310 0 c-3 -3 -12 -4 -19 -1 -8 3 -5 6 6 6 11 1 17 -2 13 -5z m110 0 c-3 -3 -12 -4 -19 -1 -8 3 -5 6 6 6 11 1 17 -2 13 -5z m310 0 c-3 -3 -12 -4 -19 -1 -8 3 -5 6 6 6 11 1 17 -2 13 -5z m106 -1 c-7 -2 -19 -2 -25 0 -7 3 -2 5 12 5 14 0 19 -2 13 -5z m294 0 c-4 -3 -10 -3 -14 0 -3 4 0 7 7 7 7 0 10 -3 7 -7z m120 0 c-4 -3 -10 -3 -14 0 -3 4 0 7 7 7 7 0 10 -3 7 -7z m300 0 c-4 -3 -10 -3 -14 0 -3 4 0 7 7 7 7 0 10 -3 7 -7z m110 0 c-4 -3 -10 -3 -14 0 -3 4 0 7 7 7 7 0 10 -3 7 -7z m310 1 c-3 -3 -12 -4 -19 -1 -8 3 -5 6 6 6 11 1 17 -2 13 -5z m-1710 -21 c-4 -3 -10 -3 -14 0 -3 4 0 7 7 7 7 0 10 -3 7 -7z m200 0 c-4 -3 -10 -3 -14 0 -3 4 0 7 7 7 7 0 10 -3 7 -7z m-919 -10 c-10 -2 -26 -2 -35 0 -10 3 -2 5 17 5 19 0 27 -2 18 -5z m420 0 c-10 -2 -26 -2 -35 0 -10 3 -2 5 17 5 19 0 27 -2 18 -5z m405 0 c-7 -2 -21 -2 -30 0 -10 3 -4 5 12 5 17 0 24 -2 18 -5z m420 0 c-7 -2 -19 -2 -25 0 -7 3 -2 5 12 5 14 0 19 -2 13 -5z m420 0 c-7 -2 -19 -2 -25 0 -7 3 -2 5 12 5 14 0 19 -2 13 -5z m415 0 c-10 -2 -26 -2 -35 0 -10 3 -2 5 17 5 19 0 27 -2 18 -5z m409 1 c-3 -3 -12 -4 -19 -1 -8 3 -5 6 6 6 11 1 17 -2 13 -5z m-2620 -11 c-4 -3 -10 -3 -14 0 -3 4 0 7 7 7 7 0 10 -3 7 -7z m1660 1 c-3 -3 -12 -4 -19 -1 -8 3 -5 6 6 6 11 1 17 -2 13 -5z m-1190 -10 c-3 -3 -12 -4 -19 -1 -8 3 -5 6 6 6 11 1 17 -2 13 -5z m410 -1 c-4 -3 -10 -3 -14 0 -3 4 0 7 7 7 7 0 10 -3 7 -7z m560 0 c-4 -3 -10 -3 -14 0 -3 4 0 7 7 7 7 0 10 -3 7 -7z m690 1 c-3 -3 -12 -4 -19 -1 -8 3 -5 6 6 6 11 1 17 -2 13 -5z m410 -1 c-4 -3 -10 -3 -14 0 -3 4 0 7 7 7 7 0 10 -3 7 -7z m-2194 -10 c-13 -2 -33 -2 -45 0 -13 2 -3 4 22 4 25 0 35 -2 23 -4z m415 0 c-16 -2 -40 -2 -55 0 -16 2 -3 4 27 4 30 0 43 -2 28 -4z m369 1 c-3 -3 -12 -4 -19 -1 -8 3 -5 6 6 6 11 1 17 -2 13 -5z m66 -1 c-7 -2 -19 -2 -25 0 -7 3 -2 5 12 5 14 0 19 -2 13 -5z m344 0 c-4 -3 -10 -3 -14 0 -3 4 0 7 7 7 7 0 10 -3 7 -7z m80 1 c-3 -3 -12 -4 -19 -1 -8 3 -5 6 6 6 11 1 17 -2 13 -5z m350 0 c-3 -3 -12 -4 -19 -1 -8 3 -5 6 6 6 11 1 17 -2 13 -5z m60 -1 c-4 -3 -10 -3 -14 0 -3 4 0 7 7 7 7 0 10 -3 7 -7z m340 1 c-3 -3 -12 -4 -19 -1 -8 3 -5 6 6 6 11 1 17 -2 13 -5z m70 0 c-3 -3 -12 -4 -19 -1 -8 3 -5 6 6 6 11 1 17 -2 13 -5z m-2420 -11 c-4 -3 -10 -3 -14 0 -3 4 0 7 7 7 7 0 10 -3 7 -7z m620 0 c-4 -3 -10 -3 -14 0 -3 4 0 7 7 7 7 0 10 -3 7 -7z m630 0 c-4 -3 -10 -3 -14 0 -3 4 0 7 7 7 7 0 10 -3 7 -7z m410 0 c-4 -3 -10 -3 -14 0 -3 4 0 7 7 7 7 0 10 -3 7 -7z m-1280 -20 c-4 -3 -10 -3 -14 0 -3 4 0 7 7 7 7 0 10 -3 7 -7z m280 1 c-3 -3 -12 -4 -19 -1 -8 3 -5 6 6 6 11 1 17 -2 13 -5z m410 -1 c-4 -3 -10 -3 -14 0 -3 4 0 7 7 7 7 0 10 -3 7 -7z m830 1 c-3 -3 -12 -4 -19 -1 -8 3 -5 6 6 6 11 1 17 -2 13 -5z m140 -1 c-4 -3 -10 -3 -14 0 -3 4 0 7 7 7 7 0 10 -3 7 -7z m-2339 -70 c-10 -2 -26 -2 -35 0 -10 3 -2 5 17 5 19 0 27 -2 18 -5z m415 0 c-13 -2 -33 -2 -45 0 -13 2 -3 4 22 4 25 0 35 -2 23 -4z m420 0 c-13 -2 -35 -2 -50 0 -16 2 -5 4 22 4 28 0 40 -2 28 -4z m420 0 c-13 -2 -35 -2 -50 0 -16 2 -5 4 22 4 28 0 40 -2 28 -4z m400 0 c-13 -2 -33 -2 -45 0 -13 2 -3 4 22 4 25 0 35 -2 23 -4z m420 0 c-13 -2 -33 -2 -45 0 -13 2 -3 4 22 4 25 0 35 -2 23 -4z m420 0 c-13 -2 -33 -2 -45 0 -13 2 -3 4 22 4 25 0 35 -2 23 -4z m400 0 c-7 -2 -21 -2 -30 0 -10 3 -4 5 12 5 17 0 24 -2 18 -5z m-2576 -20 c-4 -3 -10 -3 -14 0 -3 4 0 7 7 7 7 0 10 -3 7 -7z m170 1 c-3 -3 -12 -4 -19 -1 -8 3 -5 6 6 6 11 1 17 -2 13 -5z m2070 -1 c-4 -3 -10 -3 -14 0 -3 4 0 7 7 7 7 0 10 -3 7 -7z m250 0 c-4 -3 -10 -3 -14 0 -3 4 0 7 7 7 7 0 10 -3 7 -7z m90 -10 c-4 -3 -10 -3 -14 0 -3 4 0 7 7 7 7 0 10 -3 7 -7z m-1780 -10 c-4 -3 -10 -3 -14 0 -3 4 0 7 7 7 7 0 10 -3 7 -7z m230 1 c-3 -3 -12 -4 -19 -1 -8 3 -5 6 6 6 11 1 17 -2 13 -5z m410 -1 c-4 -3 -10 -3 -14 0 -3 4 0 7 7 7 7 0 10 -3 7 -7z m1020 0 c-4 -3 -10 -3 -14 0 -3 4 0 7 7 7 7 0 10 -3 7 -7z m-2320 -9 c-3 -3 -12 -4 -19 -1 -8 3 -5 6 6 6 11 1 17 -2 13 -5z m710 -1 c-4 -3 -10 -3 -14 0 -3 4 0 7 7 7 7 0 10 -3 7 -7z m950 1 c-3 -3 -12 -4 -19 -1 -8 3 -5 6 6 6 11 1 17 -2 13 -5z m310 0 c-3 -3 -12 -4 -19 -1 -8 3 -5 6 6 6 11 1 17 -2 13 -5z m110 0 c-3 -3 -12 -4 -19 -1 -8 3 -5 6 6 6 11 1 17 -2 13 -5z m-2280 -10 c-3 -3 -12 -4 -19 -1 -8 3 -5 6 6 6 11 1 17 -2 13 -5z m290 0 c-3 -3 -12 -4 -19 -1 -8 3 -5 6 6 6 11 1 17 -2 13 -5z m420 0 c-3 -3 -12 -4 -19 -1 -8 3 -5 6 6 6 11 1 17 -2 13 -5z m530 -1 c-4 -3 -10 -3 -14 0 -3 4 0 7 7 7 7 0 10 -3 7 -7z m420 1 c-3 -3 -12 -4 -19 -1 -8 3 -5 6 6 6 11 1 17 -2 13 -5z m710 0 c-3 -3 -12 -4 -19 -1 -8 3 -5 6 6 6 11 1 17 -2 13 -5z m-1910 -11 c-4 -3 -10 -3 -14 0 -3 4 0 7 7 7 7 0 10 -3 7 -7z m420 0 c-4 -3 -10 -3 -14 0 -3 4 0 7 7 7 7 0 10 -3 7 -7z m600 0 c-4 -3 -10 -3 -14 0 -3 4 0 7 7 7 7 0 10 -3 7 -7z m208 -12 c-3 -6 -11 -11 -16 -11 -5 0 -4 6 3 14 14 16 24 13 13 -3z m852 12 c-4 -3 -10 -3 -14 0 -3 4 0 7 7 7 7 0 10 -3 7 -7z m-2520 -20 c-4 -3 -10 -3 -14 0 -3 4 0 7 7 7 7 0 10 -3 7 -7z m413 3 c0 -2 -7 -7 -16 -10 -8 -3 -12 -2 -9 4 6 10 25 14 25 6z m247 -2 c-3 -3 -12 -4 -19 -1 -8 3 -5 6 6 6 11 1 17 -2 13 -5z m170 -1 c-4 -3 -10 -3 -14 0 -3 4 0 7 7 7 7 0 10 -3 7 -7z m1490 0 c-4 -3 -10 -3 -14 0 -3 4 0 7 7 7 7 0 10 -3 7 -7z m173 3 c0 -2 -7 -6 -15 -10 -8 -3 -15 -1 -15 4 0 6 7 10 15 10 8 0 15 -2 15 -4z m-2562 -23 c-16 -2 -40 -2 -55 0 -16 2 -3 4 27 4 30 0 43 -2 28 -4z m420 0 c-16 -2 -40 -2 -55 0 -16 2 -3 4 27 4 30 0 43 -2 28 -4z m420 0 c-16 -2 -40 -2 -55 0 -16 2 -3 4 27 4 30 0 43 -2 28 -4z m410 0 c-15 -2 -42 -2 -60 0 -18 2 -6 4 27 4 33 0 48 -2 33 -4z m410 0 c-16 -2 -40 -2 -55 0 -16 2 -3 4 27 4 30 0 43 -2 28 -4z m420 0 c-16 -2 -40 -2 -55 0 -16 2 -3 4 27 4 30 0 43 -2 28 -4z m420 0 c-16 -2 -40 -2 -55 0 -16 2 -3 4 27 4 30 0 43 -2 28 -4z"/>
<path d="M4356 597 c3 -10 9 -15 12 -12 3 3 0 11 -7 18 -10 9 -11 8 -5 -6z"/>
<path d="M4380 580 c0 -7 3 -10 7 -7 3 4 3 10 0 14 -4 3 -7 0 -7 -7z"/>
<path d="M4300 512 c0 -6 -6 -10 -12 -8 -7 1 -10 1 -5 -1 4 -3 4 -10 1 -16 -4 -7 1 -4 11 5 11 10 16 21 12 24 -4 4 -7 2 -7 -4z"/>
<path d="M4285 450 c4 -6 11 -8 16 -5 14 9 11 15 -7 15 -8 0 -12 -5 -9 -10z"/>
<path d="M4206 391 c-4 -5 1 -8 9 -7 21 3 31 16 12 16 -9 0 -18 -4 -21 -9z"/>
<path d="M4751 3351 c165 -44 285 -187 302 -361 2 -19 5 58 5 173 l2 207 -187 -1 -188 -1 66 -17z"/>
<path d="M4570 3296 c-165 -36 -274 -168 -279 -336 -4 -143 100 -290 240 -338 55 -19 176 -15 237 7 63 23 73 30 130 91 66 69 95 142 94 238 -1 101 -33 175 -107 247 -51 50 -114 82 -184 95 -63 12 -60 12 -131 -4z m40 -164 c0 -33 -8 -45 -70 -107 l-70 -69 70 -71 c62 -62 70 -75 70 -108 0 -20 -3 -37 -8 -37 -11 0 -212 204 -212 215 0 11 201 215 212 215 5 0 8 -17 8 -38z m187 -64 c57 -57 103 -107 103 -113 0 -6 -47 -58 -105 -115 -84 -84 -107 -102 -115 -90 -17 28 2 65 71 135 l69 71 -66 64 c-36 36 -69 72 -74 80 -9 16 -2 70 8 70 4 0 53 -46 109 -102z"/>
<path d="M0 670 c0 -335 -6 -311 74 -288 82 24 160 87 199 163 16 31 21 60 21 125 1 75 -2 91 -27 139 -16 29 -43 67 -60 83 -43 41 -124 78 -169 78 l-38 0 0 -300z"/>
</g>
<g id="layer105" fill="#fecf46" stroke="none">
<path d="M0 2360 l0 -1010 30 0 c19 0 40 -9 55 -25 22 -21 25 -33 25 -100 0 -63 3 -76 17 -81 10 -3 42 -16 72 -30 l53 -25 58 56 c74 70 94 71 160 9 42 -39 50 -53 50 -83 0 -29 -9 -44 -52 -88 l-51 -52 26 -59 c15 -33 27 -64 27 -70 0 -5 34 -11 79 -13 108 -5 121 -18 121 -115 0 -66 -2 -74 -26 -93 -22 -17 -41 -21 -100 -21 -48 0 -74 -4 -74 -11 0 -6 -12 -38 -27 -71 l-26 -59 40 -41 40 -40 55 31 c74 42 118 41 202 -4 87 -46 131 -46 200 -3 43 28 60 33 111 33 51 0 68 -5 111 -33 69 -43 113 -43 200 3 93 50 144 47 233 -12 51 -34 112 -31 173 9 33 20 67 33 99 36 43 4 59 0 119 -32 88 -46 121 -46 206 -1 93 49 150 46 239 -15 19 -13 46 -20 75 -20 29 0 56 7 75 20 95 65 180 65 262 0 41 -32 101 -27 182 16 76 40 126 44 126 9 0 -14 -10 -21 -37 -27 -20 -4 -58 -21 -84 -38 -40 -25 -58 -30 -109 -30 -51 0 -69 5 -110 31 -74 47 -107 48 -187 5 -92 -49 -159 -50 -232 -4 -69 45 -122 45 -190 0 -42 -27 -59 -32 -111 -32 -51 0 -69 5 -108 30 -74 47 -110 48 -189 6 -92 -49 -159 -50 -232 -3 -69 44 -122 44 -190 -1 -72 -46 -141 -45 -232 3 -36 19 -76 35 -88 35 -13 0 -53 -16 -89 -35 -91 -48 -158 -49 -231 -2 -67 43 -123 44 -183 3 -28 -18 -43 -36 -43 -49 0 -12 -19 -41 -42 -64 -39 -40 -41 -43 -18 -43 13 0 46 15 74 33 44 28 59 32 116 32 57 0 72 -4 116 -32 67 -43 105 -43 190 2 46 24 79 35 109 35 30 0 63 -11 109 -35 86 -45 126 -46 192 -3 43 29 58 33 114 33 57 0 72 -4 116 -33 67 -43 105 -42 191 4 61 32 74 36 123 31 39 -3 70 -14 105 -36 67 -42 115 -42 181 1 43 29 57 33 115 33 56 0 72 -4 109 -29 68 -45 112 -45 195 -1 62 33 76 36 125 33 40 -3 69 -13 104 -36 67 -43 115 -43 182 0 61 39 139 47 139 13 0 -15 -9 -21 -37 -26 -20 -3 -56 -19 -80 -35 -37 -25 -52 -29 -113 -29 -62 0 -76 4 -122 34 -44 28 -59 33 -95 29 -24 -3 -65 -19 -92 -37 -72 -45 -136 -44 -222 4 -79 44 -115 45 -180 3 -43 -29 -57 -33 -119 -33 -63 0 -75 3 -120 33 -42 29 -57 33 -95 30 -28 -3 -62 -16 -89 -33 -31 -21 -59 -30 -101 -33 -53 -4 -65 -1 -124 32 -81 46 -117 46 -182 4 -44 -29 -57 -33 -120 -33 -62 0 -76 4 -115 30 -61 41 -127 42 -187 0 -33 -21 -59 -30 -102 -33 -53 -4 -65 -1 -124 32 -81 46 -117 46 -182 4 -43 -29 -57 -33 -119 -33 -63 0 -75 3 -120 33 -42 29 -57 33 -95 30 -25 -3 -62 -15 -82 -29 -34 -21 -38 -29 -38 -66 0 -33 -5 -46 -26 -62 l-27 -21 2502 0 2501 0 -1 1458 c-1 860 -5 1439 -10 1412 -22 -110 -115 -230 -220 -283 -207 -104 -459 -17 -562 193 -30 61 -32 71 -32 175 0 103 2 114 32 175 57 116 171 205 294 229 26 5 -616 9 -1526 10 l-1571 1 -17 -30 c-24 -40 -14 -67 31 -86 20 -8 40 -20 44 -27 4 -7 8 -44 8 -83 0 -77 -15 -104 -59 -104 -32 0 -47 -46 -27 -82 25 -40 20 -55 -35 -114 -55 -57 -79 -65 -117 -38 -32 22 -82 3 -82 -31 0 -40 -44 -65 -112 -65 -49 0 -63 4 -83 25 -14 13 -25 33 -25 43 0 29 -46 46 -73 27 -35 -25 -64 -18 -113 27 -59 54 -68 78 -48 121 21 43 6 87 -30 87 -39 0 -56 35 -56 112 0 74 12 95 60 105 35 6 46 42 28 84 l-13 29 -372 0 -373 0 0 -1010z m3910 10 c64 -33 107 -94 119 -169 l8 -51 -113 0 -114 0 0 40 0 40 55 0 c30 0 55 4 55 9 0 27 -77 71 -122 71 -58 0 -128 -75 -128 -137 0 -130 138 -194 231 -107 14 13 27 24 30 24 3 0 20 -11 37 -24 l33 -24 -26 -30 c-80 -95 -259 -96 -339 -1 -40 47 -58 94 -58 153 -1 173 178 285 332 206z m-2750 -20 l0 -40 -90 0 -90 0 -2 -182 -3 -183 -47 -3 -48 -3 0 225 0 226 140 0 140 0 0 -40z m320 0 l0 -40 -90 0 -90 0 0 -60 0 -60 80 0 80 0 0 -40 0 -40 -80 0 -80 0 0 -40 0 -40 70 0 70 0 0 -45 0 -45 -120 0 -120 0 0 225 0 225 140 0 140 0 0 -40z m135 10 l16 -30 110 0 111 0 11 30 c11 28 15 30 64 30 l52 0 -71 -137 c-40 -76 -93 -178 -119 -227 l-47 -88 -77 148 c-43 82 -95 181 -116 221 -22 40 -39 75 -39 78 0 3 20 5 45 5 39 0 46 -3 60 -30z m495 -10 c0 -32 4 -40 18 -40 10 0 36 18 57 40 37 38 43 40 97 40 32 0 58 -3 58 -7 0 -4 -19 -27 -42 -51 l-43 -43 28 -21 c38 -28 67 -89 67 -142 0 -128 -80 -186 -257 -186 l-83 0 0 225 0 225 50 0 50 0 0 -40z m412 -85 l3 -124 144 120 c79 65 147 122 152 125 5 3 9 -91 9 -220 l0 -226 -45 0 -45 0 0 130 0 131 -147 -124 c-82 -68 -154 -127 -160 -131 -10 -6 -13 41 -13 218 l0 226 50 0 49 0 3 -125z m486 -97 l-3 -223 -47 -3 -48 -3 0 225 0 226 50 0 50 0 -2 -222z m184 97 l3 -124 144 120 c79 65 147 122 152 125 5 3 9 -91 9 -220 l0 -226 -45 0 -45 0 0 131 0 130 -155 -130 c-85 -72 -157 -131 -160 -131 -3 0 -5 101 -5 225 l0 225 50 0 49 0 3 -125z m-1289 -489 c178 -64 207 -297 49 -392 -61 -37 -95 -44 -219 -44 l-93 0 0 225 0 225 113 0 c67 -1 127 -6 150 -14z m497 -26 l0 -40 -90 0 -90 0 0 -60 0 -60 80 0 80 0 0 -40 0 -40 -80 0 -80 0 0 -40 0 -40 70 0 70 0 0 -45 0 -45 -120 0 -120 0 0 225 0 225 140 0 140 0 0 -40z m340 0 l0 -40 -90 0 -90 0 0 -60 0 -60 80 0 80 0 0 -40 0 -40 -80 0 -80 0 0 -40 0 -40 70 0 70 0 0 -45 0 -45 -120 0 -120 0 0 225 0 225 140 0 140 0 0 -40z m170 5 l0 -35 47 0 c101 0 181 -71 191 -169 6 -66 -12 -113 -58 -155 -48 -43 -92 -56 -197 -56 l-83 0 0 225 0 225 50 0 50 0 0 -35z m220 -585 c171 -88 161 -342 -17 -417 -18 -7 -57 -13 -88 -13 -131 0 -226 94 -226 223 0 176 176 286 331 207z m-1900 -15 l0 -35 47 0 c161 0 254 -189 151 -306 -48 -55 -81 -67 -195 -72 l-103 -5 0 227 0 226 50 0 50 0 0 -35z m540 -37 c0 -72 1 -75 63 -179 35 -58 76 -126 90 -150 l27 -45 -48 -2 -47 -2 -65 110 c-35 60 -66 107 -68 105 -3 -2 -33 -51 -66 -107 l-62 -103 -52 -3 c-29 -2 -52 -1 -52 2 0 3 43 76 95 161 94 154 95 156 95 220 l0 65 45 0 45 0 0 -72z m390 -108 l0 -180 60 0 60 0 0 -45 0 -45 -160 0 -160 0 0 45 0 45 55 0 55 0 0 180 0 180 45 0 45 0 0 -180z m270 80 l0 -100 100 0 100 0 0 100 0 100 45 0 45 0 0 -225 0 -225 -45 0 -45 0 0 85 0 85 -100 0 -99 0 -3 -82 -3 -83 -47 -3 -48 -3 0 225 0 226 50 0 50 0 0 -100z m992 -25 l3 -124 144 120 c79 65 147 122 152 125 5 3 9 -91 9 -220 l0 -226 -45 0 -45 0 0 130 0 131 -147 -124 c-82 -68 -154 -127 -160 -131 -10 -6 -13 41 -13 218 l0 226 50 0 49 0 3 -125z m668 -90 c0 -69 18 -113 59 -148 32 -26 35 -27 174 -28 156 0 200 -10 230 -51 17 -23 19 -41 18 -168 -2 -159 -8 -176 -69 -206 -29 -15 -61 -19 -152 -18 -186 0 -230 26 -230 140 l0 64 116 0 c88 0 115 3 112 13 -4 9 -54 13 -191 17 l-186 5 -31 30 c-78 75 -81 291 -4 371 29 31 36 34 93 34 l61 0 0 -55z"/>
</g>
<g id="layer106" fill="#f1d26d" stroke="none">
<path d="M0 2360 l0 -1010 30 0 c19 0 40 -9 55 -25 22 -21 25 -33 25 -100 0 -63 3 -76 17 -81 10 -3 42 -16 72 -30 l53 -25 58 56 c74 70 94 71 160 9 42 -39 50 -53 50 -83 0 -29 -9 -44 -52 -88 l-51 -52 26 -59 c15 -33 27 -64 27 -70 0 -5 34 -11 79 -13 108 -5 121 -18 121 -115 0 -66 -2 -74 -26 -93 -22 -17 -41 -21 -100 -21 -48 0 -74 -4 -74 -11 0 -6 -12 -38 -27 -71 l-26 -59 40 -41 40 -40 55 31 c74 42 118 41 202 -4 87 -46 131 -46 200 -3 43 28 60 33 111 33 51 0 68 -5 111 -33 69 -43 113 -43 200 3 93 50 144 47 233 -12 51 -34 112 -31 173 9 33 20 67 33 99 36 43 4 59 0 119 -32 88 -46 121 -46 206 -1 93 49 150 46 239 -15 19 -13 46 -20 75 -20 29 0 56 7 75 20 95 65 180 65 262 0 41 -32 101 -27 182 16 76 40 126 44 126 9 0 -14 -10 -21 -37 -27 -20 -4 -58 -21 -84 -38 -40 -25 -58 -30 -109 -30 -51 0 -69 5 -110 31 -74 47 -107 48 -187 5 -92 -49 -159 -50 -232 -4 -69 45 -122 45 -190 0 -42 -27 -59 -32 -111 -32 -51 0 -69 5 -108 30 -74 47 -110 48 -189 6 -92 -49 -159 -50 -232 -3 -69 44 -122 44 -190 -1 -72 -46 -141 -45 -232 3 -36 19 -76 35 -88 35 -13 0 -53 -16 -89 -35 -91 -48 -158 -49 -231 -2 -67 43 -123 44 -183 3 -28 -18 -43 -36 -43 -49 0 -12 -19 -41 -42 -64 -39 -40 -41 -43 -18 -43 13 0 46 15 74 33 44 28 59 32 116 32 57 0 72 -4 116 -32 67 -43 105 -43 190 2 46 24 79 35 109 35 30 0 63 -11 109 -35 86 -45 126 -46 192 -3 43 29 58 33 114 33 57 0 72 -4 116 -33 67 -43 105 -42 191 4 61 32 74 36 123 31 39 -3 70 -14 105 -36 67 -42 115 -42 181 1 43 29 57 33 115 33 56 0 72 -4 109 -29 68 -45 112 -45 195 -1 62 33 76 36 125 33 40 -3 69 -13 104 -36 67 -43 115 -43 182 0 61 39 139 47 139 13 0 -15 -9 -21 -37 -26 -20 -3 -56 -19 -80 -35 -37 -25 -52 -29 -113 -29 -62 0 -76 4 -122 34 -44 28 -59 33 -95 29 -24 -3 -65 -19 -92 -37 -72 -45 -136 -44 -222 4 -79 44 -115 45 -180 3 -43 -29 -57 -33 -119 -33 -63 0 -75 3 -120 33 -42 29 -57 33 -95 30 -28 -3 -62 -16 -89 -33 -31 -21 -59 -30 -101 -33 -53 -4 -65 -1 -124 32 -81 46 -117 46 -182 4 -44 -29 -57 -33 -120 -33 -62 0 -76 4 -115 30 -61 41 -127 42 -187 0 -33 -21 -59 -30 -102 -33 -53 -4 -65 -1 -124 32 -81 46 -117 46 -182 4 -43 -29 -57 -33 -119 -33 -63 0 -75 3 -120 33 -42 29 -57 33 -95 30 -25 -3 -62 -15 -82 -29 -34 -21 -38 -29 -38 -66 0 -33 -5 -46 -26 -62 l-27 -21 2502 0 2501 0 -1 1458 c-1 860 -5 1439 -10 1412 -22 -110 -115 -230 -220 -283 -207 -104 -459 -17 -562 193 -30 61 -32 71 -32 175 0 103 2 114 32 175 57 116 171 205 294 229 26 5 -616 9 -1526 10 l-1571 1 -17 -30 c-24 -40 -14 -67 31 -86 20 -8 40 -20 44 -27 4 -7 8 -44 8 -83 0 -77 -15 -104 -59 -104 -32 0 -47 -46 -27 -82 25 -40 20 -55 -35 -114 -55 -57 -79 -65 -117 -38 -32 22 -82 3 -82 -31 0 -40 -44 -65 -112 -65 -49 0 -63 4 -83 25 -14 13 -25 33 -25 43 0 29 -46 46 -73 27 -35 -25 -64 -18 -113 27 -59 54 -68 78 -48 121 21 43 6 87 -30 87 -39 0 -56 35 -56 112 0 74 12 95 60 105 35 6 46 42 28 84 l-13 29 -372 0 -373 0 0 -1010z m3910 10 c64 -33 107 -94 119 -169 l8 -51 -113 0 -114 0 0 40 0 40 55 0 c30 0 55 4 55 9 0 27 -77 71 -122 71 -58 0 -128 -75 -128 -137 0 -130 138 -194 231 -107 14 13 27 24 30 24 3 0 20 -11 37 -24 l33 -24 -26 -30 c-80 -95 -259 -96 -339 -1 -40 47 -58 94 -58 153 -1 173 178 285 332 206z m-2750 -20 l0 -40 -90 0 -90 0 -2 -182 -3 -183 -47 -3 -48 -3 0 225 0 226 140 0 140 0 0 -40z m320 0 l0 -40 -90 0 -90 0 0 -60 0 -60 80 0 80 0 0 -40 0 -40 -80 0 -80 0 0 -40 0 -40 70 0 70 0 0 -45 0 -45 -120 0 -120 0 0 225 0 225 140 0 140 0 0 -40z m135 10 l16 -30 110 0 111 0 11 30 c11 28 15 30 64 30 l52 0 -71 -137 c-40 -76 -93 -178 -119 -227 l-47 -88 -77 148 c-43 82 -95 181 -116 221 -22 40 -39 75 -39 78 0 3 20 5 45 5 39 0 46 -3 60 -30z m495 -10 c0 -32 4 -40 18 -40 10 0 36 18 57 40 37 38 43 40 97 40 32 0 58 -3 58 -7 0 -4 -19 -27 -42 -51 l-43 -43 28 -21 c38 -28 67 -89 67 -142 0 -128 -80 -186 -257 -186 l-83 0 0 225 0 225 50 0 50 0 0 -40z m412 -85 l3 -124 144 120 c79 65 147 122 152 125 5 3 9 -91 9 -220 l0 -226 -45 0 -45 0 0 130 0 131 -147 -124 c-82 -68 -154 -127 -160 -131 -10 -6 -13 41 -13 218 l0 226 50 0 49 0 3 -125z m486 -97 l-3 -223 -47 -3 -48 -3 0 225 0 226 50 0 50 0 -2 -222z m184 97 l3 -124 144 120 c79 65 147 122 152 125 5 3 9 -91 9 -220 l0 -226 -45 0 -45 0 0 131 0 130 -155 -130 c-85 -72 -157 -131 -160 -131 -3 0 -5 101 -5 225 l0 225 50 0 49 0 3 -125z m-1289 -489 c178 -64 207 -297 49 -392 -61 -37 -95 -44 -219 -44 l-93 0 0 225 0 225 113 0 c67 -1 127 -6 150 -14z m497 -26 l0 -40 -90 0 -90 0 0 -60 0 -60 80 0 80 0 0 -40 0 -40 -80 0 -80 0 0 -40 0 -40 70 0 70 0 0 -45 0 -45 -120 0 -120 0 0 225 0 225 140 0 140 0 0 -40z m340 0 l0 -40 -90 0 -90 0 0 -60 0 -60 80 0 80 0 0 -40 0 -40 -80 0 -80 0 0 -40 0 -40 70 0 70 0 0 -45 0 -45 -120 0 -120 0 0 225 0 225 140 0 140 0 0 -40z m170 5 l0 -35 47 0 c101 0 181 -71 191 -169 6 -66 -12 -113 -58 -155 -48 -43 -92 -56 -197 -56 l-83 0 0 225 0 225 50 0 50 0 0 -35z m1550 -505 c0 -5 10 -10 23 -10 12 0 34 -11 50 -24 24 -21 27 -30 27 -90 l0 -66 -109 0 c-104 0 -110 -1 -108 -20 1 -19 8 -20 195 -20 192 0 193 0 217 -25 14 -13 25 -31 25 -39 0 -8 5 -18 10 -21 6 -3 10 -21 10 -40 0 -19 5 -37 11 -41 7 -4 9 -22 5 -48 -4 -22 -9 -60 -12 -83 -3 -24 -10 -43 -15 -43 -5 0 -9 -7 -9 -15 0 -9 -11 -27 -25 -40 -20 -21 -34 -25 -87 -25 l-63 0 -2 75 c-2 71 -5 77 -36 108 -41 41 -71 48 -246 53 -133 4 -133 5 -161 34 -18 20 -26 37 -23 50 3 11 0 20 -6 20 -14 0 -15 206 -1 215 6 3 10 15 10 26 0 10 5 19 11 19 5 0 7 5 4 10 -4 6 5 10 19 10 14 0 26 5 26 10 0 6 9 10 20 10 11 0 20 5 20 10 0 6 43 10 110 10 67 0 110 -4 110 -10z m-1330 -80 c171 -88 161 -342 -17 -417 -18 -7 -57 -13 -88 -13 -131 0 -226 94 -226 223 0 176 176 286 331 207z m-1900 -15 l0 -35 47 0 c161 0 254 -189 151 -306 -48 -55 -81 -67 -195 -72 l-103 -5 0 227 0 226 50 0 50 0 0 -35z m540 -37 c0 -72 1 -75 63 -179 35 -58 76 -126 90 -150 l27 -45 -48 -2 -47 -2 -65 110 c-35 60 -66 107 -68 105 -3 -2 -33 -51 -66 -107 l-62 -103 -52 -3 c-29 -2 -52 -1 -52 2 0 3 43 76 95 161 94 154 95 156 95 220 l0 65 45 0 45 0 0 -72z m390 -108 l0 -180 60 0 60 0 0 -45 0 -45 -160 0 -160 0 0 45 0 45 55 0 55 0 0 180 0 180 45 0 45 0 0 -180z m270 80 l0 -100 100 0 100 0 0 100 0 100 45 0 45 0 0 -225 0 -225 -45 0 -45 0 0 85 0 85 -100 0 -99 0 -3 -82 -3 -83 -47 -3 -48 -3 0 225 0 226 50 0 50 0 0 -100z m992 -25 l3 -124 144 120 c79 65 147 122 152 125 5 3 9 -91 9 -220 l0 -226 -45 0 -45 0 0 130 0 131 -147 -124 c-82 -68 -154 -127 -160 -131 -10 -6 -13 41 -13 218 l0 226 50 0 49 0 3 -125z m668 -90 c0 -69 18 -113 59 -148 32 -26 35 -27 174 -28 156 0 200 -10 230 -51 17 -23 19 -41 18 -168 -2 -159 -8 -176 -69 -206 -29 -15 -61 -19 -152 -18 -186 0 -230 26 -230 140 l0 64 116 0 c88 0 115 3 112 13 -4 9 -54 13 -191 17 l-186 5 -31 30 c-78 75 -81 291 -4 371 29 31 36 34 93 34 l61 0 0 -55z"/>
<path d="M4433 1185 c-32 -36 1 -70 65 -66 19 1 22 7 22 41 0 40 0 40 -37 40 -21 -1 -44 -7 -50 -15z"/>
<path d="M4710 3363 c156 -26 292 -150 332 -303 l17 -65 0 188 1 187 -187 -1 c-104 -1 -177 -4 -163 -6z"/>
<path d="M4513 3279 c-65 -25 -151 -102 -181 -161 -89 -179 -16 -390 166 -480 39 -19 63 -23 142 -23 81 0 103 4 150 26 173 82 250 291 169 463 -29 63 -102 134 -167 164 -78 36 -203 41 -279 11z m101 -134 c8 -33 -1 -49 -73 -120 -34 -33 -61 -64 -61 -69 0 -6 32 -43 71 -82 66 -66 71 -74 64 -103 -4 -17 -10 -31 -13 -31 -4 0 -55 48 -114 107 l-108 108 107 107 c59 60 111 108 114 108 4 0 10 -11 13 -25z m183 -77 c57 -57 103 -107 103 -113 0 -6 -47 -58 -105 -115 -85 -85 -107 -102 -115 -90 -20 31 -8 54 60 124 39 40 70 77 70 83 0 6 -29 38 -66 72 -48 45 -66 70 -69 93 -4 32 0 48 13 48 4 0 53 -46 109 -102z"/>
</g>
<g id="layer107" fill="#fee875" stroke="none">
<path d="M0 2360 l0 -1010 30 0 c19 0 40 -9 55 -25 22 -21 25 -33 25 -100 0 -63 3 -76 17 -81 10 -3 42 -16 72 -30 l53 -25 58 56 c74 70 94 71 160 9 42 -39 50 -53 50 -83 0 -29 -9 -44 -52 -88 l-51 -52 26 -59 c15 -33 27 -64 27 -70 0 -5 34 -11 79 -13 108 -5 121 -18 121 -115 0 -66 -2 -74 -26 -93 -22 -17 -41 -21 -100 -21 -48 0 -74 -4 -74 -11 0 -6 -12 -38 -27 -71 l-26 -59 40 -41 40 -40 55 31 c74 42 118 41 202 -4 87 -46 131 -46 200 -3 43 28 60 33 111 33 51 0 68 -5 111 -33 69 -43 113 -43 200 3 93 50 144 47 233 -12 51 -34 112 -31 173 9 33 20 67 33 99 36 43 4 59 0 119 -32 88 -46 121 -46 206 -1 93 49 150 46 239 -15 19 -13 46 -20 75 -20 29 0 56 7 75 20 95 65 180 65 262 0 41 -32 101 -27 182 16 76 40 126 44 126 9 0 -14 -10 -21 -37 -27 -20 -4 -58 -21 -84 -38 -40 -25 -58 -30 -109 -30 -51 0 -69 5 -110 31 -74 47 -107 48 -187 5 -92 -49 -159 -50 -232 -4 -69 45 -122 45 -190 0 -42 -27 -59 -32 -111 -32 -51 0 -69 5 -108 30 -74 47 -110 48 -189 6 -92 -49 -159 -50 -232 -3 -69 44 -122 44 -190 -1 -72 -46 -141 -45 -232 3 -36 19 -76 35 -88 35 -13 0 -53 -16 -89 -35 -91 -48 -158 -49 -231 -2 -67 43 -123 44 -183 3 -28 -18 -43 -36 -43 -49 0 -12 -19 -41 -42 -64 -39 -40 -41 -43 -18 -43 13 0 46 15 74 33 44 28 59 32 116 32 57 0 72 -4 116 -32 67 -43 105 -43 190 2 46 24 79 35 109 35 30 0 63 -11 109 -35 86 -45 126 -46 192 -3 43 29 58 33 114 33 57 0 72 -4 116 -33 67 -43 105 -42 191 4 61 32 74 36 123 31 39 -3 70 -14 105 -36 67 -42 115 -42 181 1 43 29 57 33 115 33 56 0 72 -4 109 -29 68 -45 112 -45 195 -1 62 33 76 36 125 33 40 -3 69 -13 104 -36 67 -43 115 -43 182 0 61 39 139 47 139 13 0 -15 -9 -21 -37 -26 -20 -3 -56 -19 -80 -35 -37 -25 -52 -29 -113 -29 -62 0 -76 4 -122 34 -44 28 -59 33 -95 29 -24 -3 -65 -19 -92 -37 -72 -45 -136 -44 -222 4 -79 44 -115 45 -180 3 -43 -29 -57 -33 -119 -33 -63 0 -75 3 -120 33 -42 29 -57 33 -95 30 -28 -3 -62 -16 -89 -33 -31 -21 -59 -30 -101 -33 -53 -4 -65 -1 -124 32 -81 46 -117 46 -182 4 -44 -29 -57 -33 -120 -33 -62 0 -76 4 -115 30 -61 41 -127 42 -187 0 -33 -21 -59 -30 -102 -33 -53 -4 -65 -1 -124 32 -81 46 -117 46 -182 4 -43 -29 -57 -33 -119 -33 -63 0 -75 3 -120 33 -42 29 -57 33 -95 30 -25 -3 -62 -15 -82 -29 -34 -21 -38 -29 -38 -66 0 -33 -5 -46 -26 -62 l-27 -21 2502 0 2501 0 -1 1458 c-1 860 -5 1439 -10 1412 -22 -110 -115 -230 -220 -283 -207 -104 -459 -17 -562 192 -28 57 -32 77 -35 166 -4 99 -3 103 31 176 59 124 170 213 298 238 26 5 -616 9 -1526 10 l-1571 1 -17 -30 c-24 -40 -14 -67 31 -86 20 -8 40 -20 44 -27 4 -7 8 -44 8 -83 0 -77 -15 -104 -59 -104 -32 0 -47 -46 -27 -82 25 -40 20 -55 -35 -114 -55 -57 -79 -65 -117 -38 -32 22 -82 3 -82 -31 0 -40 -44 -65 -112 -65 -49 0 -63 4 -83 25 -14 13 -25 33 -25 43 0 29 -46 46 -73 27 -35 -25 -64 -18 -113 27 -59 54 -68 78 -48 121 21 43 6 87 -30 87 -43 0 -56 24 -56 105 0 81 11 102 60 112 35 6 46 42 28 83 l-12 29 -373 1 -373 0 0 -1010z m47 983 c-4 -3 -7 0 -7 7 0 7 3 10 7 7 3 -4 3 -10 0 -14z m40 -100 c-4 -3 -7 0 -7 7 0 7 3 10 7 7 3 -4 3 -10 0 -14z m2710 -100 c-4 -3 -10 -3 -14 0 -3 4 0 7 7 7 7 0 10 -3 7 -7z m420 0 c-4 -3 -10 -3 -14 0 -3 4 0 7 7 7 7 0 10 -3 7 -7z m200 -60 c-4 -3 -10 -3 -14 0 -3 4 0 7 7 7 7 0 10 -3 7 -7z m-860 -50 c-4 -3 -10 -3 -14 0 -3 4 0 7 7 7 7 0 10 -3 7 -7z m-220 -10 c-4 -3 -10 -3 -14 0 -3 4 0 7 7 7 7 0 10 -3 7 -7z m380 0 c-4 -3 -10 -3 -14 0 -3 4 0 7 7 7 7 0 10 -3 7 -7z m420 0 c-4 -3 -10 -3 -14 0 -3 4 0 7 7 7 7 0 10 -3 7 -7z m840 1 c-3 -3 -12 -4 -19 -1 -8 3 -5 6 6 6 11 1 17 -2 13 -5z m50 0 c-3 -3 -12 -4 -19 -1 -8 3 -5 6 6 6 11 1 17 -2 13 -5z m-3390 -11 c-4 -3 -10 -3 -14 0 -3 4 0 7 7 7 7 0 10 -3 7 -7z m1580 -30 c-4 -3 -10 -3 -14 0 -3 4 0 7 7 7 7 0 10 -3 7 -7z m1100 -20 c-4 -3 -10 -3 -14 0 -3 4 0 7 7 7 7 0 10 -3 7 -7z m-1180 -50 c-4 -3 -10 -3 -14 0 -3 4 0 7 7 7 7 0 10 -3 7 -7z m1200 0 c-4 -3 -10 -3 -14 0 -3 4 0 7 7 7 7 0 10 -3 7 -7z m76 0 c-7 -2 -19 -2 -25 0 -7 3 -2 5 12 5 14 0 19 -2 13 -5z m744 0 c-4 -3 -10 -3 -14 0 -3 4 0 7 7 7 7 0 10 -3 7 -7z m40 1 c-3 -3 -12 -4 -19 -1 -8 3 -5 6 6 6 11 1 17 -2 13 -5z m-3800 -20 c-3 -3 -12 -4 -19 -1 -8 3 -5 6 6 6 11 1 17 -2 13 -5z m3513 -524 c64 -33 107 -94 119 -169 l8 -51 -113 0 -114 0 0 40 0 40 55 0 c30 0 55 4 55 9 0 27 -77 71 -122 71 -58 0 -128 -75 -128 -137 0 -130 138 -194 231 -107 14 13 27 24 30 24 3 0 20 -11 37 -24 l33 -24 -26 -30 c-80 -95 -259 -96 -339 -1 -40 47 -58 94 -58 153 -1 173 178 285 332 206z m-2750 -20 l0 -40 -90 0 -90 0 -2 -182 -3 -183 -47 -3 -48 -3 0 225 0 226 140 0 140 0 0 -40z m320 0 l0 -40 -90 0 -90 0 0 -60 0 -60 80 0 80 0 0 -40 0 -40 -80 0 -80 0 0 -40 0 -40 70 0 70 0 0 -45 0 -45 -120 0 -120 0 0 225 0 225 140 0 140 0 0 -40z m135 10 l16 -30 110 0 111 0 11 30 c11 28 15 30 64 30 l52 0 -71 -137 c-40 -76 -93 -178 -119 -227 l-47 -88 -77 148 c-43 82 -95 181 -116 221 -22 40 -39 75 -39 78 0 3 20 5 45 5 39 0 46 -3 60 -30z m495 -10 c0 -32 4 -40 18 -40 10 0 36 18 57 40 37 38 43 40 97 40 32 0 58 -3 58 -7 0 -4 -19 -27 -42 -51 l-43 -43 28 -21 c38 -28 67 -89 67 -142 0 -128 -80 -186 -257 -186 l-83 0 0 225 0 225 50 0 50 0 0 -40z m412 -85 l3 -124 144 120 c79 65 147 122 152 125 5 3 9 -91 9 -220 l0 -226 -45 0 -45 0 0 130 0 131 -147 -124 c-82 -68 -154 -127 -160 -131 -10 -6 -13 41 -13 218 l0 226 50 0 49 0 3 -125z m486 -97 l-3 -223 -47 -3 -48 -3 0 225 0 226 50 0 50 0 -2 -222z m184 97 l3 -124 144 120 c79 65 147 122 152 125 5 3 9 -91 9 -220 l0 -226 -45 0 -45 0 0 131 0 130 -155 -130 c-85 -72 -157 -131 -160 -131 -3 0 -5 101 -5 225 l0 225 50 0 49 0 3 -125z m-1289 -489 c178 -64 207 -297 49 -392 -61 -37 -95 -44 -219 -44 l-93 0 0 225 0 225 113 0 c67 -1 127 -6 150 -14z m497 -26 l0 -40 -90 0 -90 0 0 -60 0 -60 80 0 80 0 0 -40 0 -40 -80 0 -80 0 0 -40 0 -40 70 0 70 0 0 -45 0 -45 -120 0 -120 0 0 225 0 225 140 0 140 0 0 -40z m340 0 l0 -40 -90 0 -90 0 0 -60 0 -60 80 0 80 0 0 -40 0 -40 -80 0 -80 0 0 -40 0 -40 70 0 70 0 0 -45 0 -45 -120 0 -120 0 0 225 0 225 140 0 140 0 0 -40z m170 5 l0 -35 47 0 c101 0 181 -71 191 -169 6 -66 -12 -113 -58 -155 -48 -43 -92 -56 -197 -56 l-83 0 0 225 0 225 50 0 50 0 0 -35z m1541 -497 c33 -8 64 -23 85 -44 31 -29 34 -36 34 -93 l0 -61 -110 0 c-91 0 -110 -3 -110 -15 0 -13 27 -15 180 -15 118 0 188 -4 205 -12 16 -7 38 -33 53 -62 49 -96 29 -296 -35 -346 -20 -15 -41 -20 -89 -20 l-64 0 0 63 c0 75 -23 123 -71 152 -29 17 -58 21 -192 25 l-159 5 -25 29 c-17 20 -23 36 -19 52 4 15 2 24 -5 24 -8 0 -10 35 -7 118 3 94 7 123 22 145 13 19 25 27 37 24 10 -3 17 0 16 7 -1 6 5 11 13 12 8 0 22 4 30 7 36 14 48 15 102 16 31 1 80 -4 109 -11z m-1321 -88 c171 -88 161 -342 -17 -417 -18 -7 -57 -13 -88 -13 -131 0 -226 94 -226 223 0 176 176 286 331 207z m-1900 -15 l0 -35 47 0 c161 0 254 -189 151 -306 -48 -55 -81 -67 -195 -72 l-103 -5 0 227 0 226 50 0 50 0 0 -35z m540 -37 c0 -72 1 -75 63 -179 35 -58 76 -126 90 -150 l27 -45 -48 -2 -47 -2 -65 110 c-35 60 -66 107 -68 105 -3 -2 -33 -51 -66 -107 l-62 -103 -52 -3 c-29 -2 -52 -1 -52 2 0 3 43 76 95 161 94 154 95 156 95 220 l0 65 45 0 45 0 0 -72z m390 -108 l0 -180 60 0 60 0 0 -45 0 -45 -160 0 -160 0 0 45 0 45 55 0 55 0 0 180 0 180 45 0 45 0 0 -180z m270 80 l0 -100 100 0 100 0 0 100 0 100 45 0 45 0 0 -225 0 -225 -45 0 -45 0 0 85 0 85 -100 0 -99 0 -3 -82 -3 -83 -47 -3 -48 -3 0 225 0 226 50 0 50 0 0 -100z m992 -25 l3 -124 144 120 c79 65 147 122 152 125 5 3 9 -91 9 -220 l0 -226 -45 0 -45 0 0 130 0 131 -147 -124 c-82 -68 -154 -127 -160 -131 -10 -6 -13 41 -13 218 l0 226 50 0 49 0 3 -125z m668 -90 c0 -69 18 -113 59 -148 32 -26 35 -27 174 -28 156 0 200 -10 230 -51 17 -23 19 -41 18 -168 -2 -159 -8 -176 -69 -206 -29 -15 -61 -19 -152 -18 -186 0 -230 26 -230 140 l0 64 116 0 c88 0 115 3 112 13 -4 9 -54 13 -191 17 l-186 5 -31 30 c-78 75 -81 291 -4 371 29 31 36 34 93 34 l61 0 0 -55z"/>
<path d="M4442 1188 c-30 -30 -2 -72 45 -66 50 6 40 78 -11 78 -12 0 -27 -5 -34 -12z"/>
<path d="M4730 3359 c148 -29 297 -179 321 -323 3 -23 7 43 8 147 l1 187 -187 -1 c-137 -1 -176 -4 -143 -10z"/>
<path d="M4513 3279 c-75 -29 -145 -96 -184 -176 -29 -60 -33 -78 -33 -149 0 -72 4 -89 32 -147 36 -73 96 -132 170 -169 39 -19 63 -23 142 -23 81 0 103 4 150 26 183 86 252 302 156 488 -25 48 -96 112 -154 139 -78 36 -203 41 -279 11z m101 -134 c8 -31 -15 -79 -48 -100 -12 -8 -37 -33 -55 -55 l-32 -41 71 -74 c66 -67 71 -76 65 -104 -4 -17 -10 -31 -13 -31 -4 0 -55 48 -114 107 l-107 107 24 32 c13 17 21 35 17 38 -3 4 0 5 8 2 10 -4 43 22 89 69 41 41 78 75 82 75 4 0 10 -11 13 -25z m189 -80 c59 -58 106 -108 106 -112 -1 -5 -51 -55 -111 -113 -87 -84 -111 -102 -118 -90 -20 31 -8 54 60 124 39 40 70 77 70 82 0 4 -30 37 -67 72 -54 51 -68 71 -69 96 -2 33 2 46 14 46 4 0 56 -47 115 -105z m14 78 c-4 -3 -10 -3 -14 0 -3 4 0 7 7 7 7 0 10 -3 7 -7z m-200 -110 c-4 -3 -10 -3 -14 0 -3 4 0 7 7 7 7 0 10 -3 7 -7z m-20 -120 c-4 -3 -10 -3 -14 0 -3 4 0 7 7 7 7 0 10 -3 7 -7z m60 0 c-4 -3 -10 -3 -14 0 -3 4 0 7 7 7 7 0 10 -3 7 -7z"/>
</g>
<g id="layer108" fill="#fefffe" stroke="none">
<path d="M48 3363 c6 -2 12 -18 12 -34 0 -16 5 -29 10 -29 6 0 10 -9 10 -20 0 -11 5 -20 10 -20 17 0 11 -30 -12 -63 -12 -18 -26 -35 -30 -38 -12 -8 77 -99 96 -99 9 0 16 4 16 9 0 5 9 11 20 14 11 3 20 12 20 21 0 9 8 16 20 16 11 0 20 -4 20 -10 0 -5 9 -10 20 -10 11 0 20 -4 20 -10 0 -5 9 -10 20 -10 11 0 20 -4 20 -10 0 -5 14 -10 30 -10 29 0 30 -1 30 -50 0 -43 3 -50 19 -50 11 0 21 -4 23 -9 2 -4 29 -3 61 3 l57 10 0 48 c0 46 1 48 29 48 16 0 31 5 33 10 2 6 18 11 36 13 l32 2 0 67 c0 74 12 95 60 105 19 3 30 13 35 30 8 32 -15 83 -37 83 -28 0 -48 -11 -48 -27 0 -8 -21 -35 -47 -59 -41 -39 -60 -49 -85 -45 -5 0 -8 -3 -8 -9 0 -6 -33 -10 -80 -10 -47 0 -80 4 -80 10 0 6 -9 10 -20 10 -11 0 -20 5 -20 10 0 6 -7 10 -15 10 -23 0 -85 66 -85 90 0 19 -6 20 -102 19 -57 0 -97 -3 -90 -6z"/>
<path d="M332 3338 c18 -18 49 -39 69 -45 43 -16 105 -17 114 -3 3 6 15 10 26 10 10 0 19 5 19 10 0 6 7 10 16 10 8 0 12 5 9 10 -3 6 1 10 10 10 9 0 14 4 11 9 -4 5 0 12 6 14 7 3 -60 6 -150 6 l-163 1 33 -32z"/>
<path d="M828 3347 l21 -23 -24 -59 c-21 -54 -27 -61 -57 -65 -31 -5 -33 -7 -36 -52 l-3 -48 34 0 c32 0 34 -3 60 -67 l26 -68 -21 -22 -22 -23 34 -35 34 -35 24 24 24 24 52 -24 c28 -13 56 -24 63 -24 6 0 13 -17 15 -37 3 -38 3 -38 48 -38 45 0 45 0 48 38 2 20 9 37 15 37 7 0 35 11 63 24 l52 24 24 -25 25 -24 31 26 c37 31 39 41 12 70 l-21 22 26 54 c13 30 25 60 25 67 0 7 14 12 36 12 l35 0 -3 48 c-3 45 -4 47 -35 50 -27 3 -34 9 -44 40 -7 20 -19 47 -27 60 -14 21 -13 25 8 47 l23 25 -293 0 -293 0 21 -23z m333 -19 c80 -27 129 -96 129 -181 0 -114 -77 -190 -193 -190 -48 0 -65 5 -100 29 -90 63 -115 191 -51 271 56 70 139 97 215 71z"/>
<path d="M1038 3258 c-78 -45 -90 -145 -24 -205 31 -28 43 -33 87 -33 46 0 55 4 90 39 33 33 39 45 39 82 0 56 -30 106 -75 125 -47 19 -73 17 -117 -8z"/>
<path d="M1447 3340 c-24 -40 -14 -67 31 -86 20 -8 40 -20 44 -27 4 -7 8 -44 8 -83 0 -77 -15 -104 -59 -104 -32 0 -47 -46 -27 -82 25 -40 20 -55 -35 -114 -55 -57 -79 -65 -117 -38 -32 22 -82 3 -82 -31 0 -40 -44 -65 -112 -65 -49 0 -63 4 -83 25 -14 13 -25 33 -25 43 0 29 -46 46 -73 27 -35 -25 -64 -18 -113 27 -59 54 -68 78 -48 121 24 49 6 87 -41 87 -19 0 -35 -4 -35 -10 0 -5 -9 -10 -20 -10 -11 0 -20 -4 -20 -10 0 -5 -9 -10 -20 -10 -16 0 -20 -7 -20 -35 0 -25 -8 -44 -25 -60 -22 -22 -32 -25 -105 -25 -109 0 -150 23 -150 84 0 29 -4 36 -20 36 -11 0 -20 5 -20 10 0 6 -9 10 -19 10 -11 0 -21 6 -24 13 -3 8 -11 4 -25 -12 -16 -17 -31 -23 -62 -23 -33 1 -47 7 -78 39 -20 21 -45 44 -55 52 -16 13 -17 -30 -17 -863 l0 -876 30 0 c19 0 40 -9 55 -25 22 -21 25 -33 25 -100 0 -63 3 -76 18 -81 9 -3 41 -16 71 -30 l53 -25 58 56 c74 70 94 71 160 9 42 -39 50 -53 50 -83 0 -29 -9 -44 -52 -88 l-51 -52 26 -59 c15 -33 27 -64 27 -70 0 -5 34 -11 79 -13 108 -5 121 -18 121 -115 0 -66 -2 -74 -26 -93 -22 -17 -41 -21 -100 -21 -48 0 -74 -4 -74 -11 0 -6 -12 -38 -27 -71 l-26 -59 40 -41 40 -40 55 31 c74 42 118 41 202 -4 87 -46 131 -46 200 -3 43 28 60 33 111 33 51 0 68 -5 111 -33 69 -43 113 -43 200 3 93 50 144 47 233 -12 51 -34 112 -31 173 9 33 20 67 33 99 36 43 4 59 0 119 -32 88 -46 121 -46 206 -1 93 49 150 46 239 -15 40 -27 110 -27 150 0 95 65 180 65 262 0 41 -32 101 -27 182 16 76 40 126 44 126 9 0 -14 -10 -21 -37 -27 -20 -4 -58 -21 -84 -38 -40 -25 -58 -30 -109 -30 -51 0 -69 5 -110 31 -74 47 -107 48 -187 5 -92 -49 -159 -50 -232 -4 -69 45 -122 45 -190 0 -42 -27 -59 -32 -111 -32 -51 0 -69 5 -108 30 -74 47 -110 48 -189 6 -92 -49 -159 -50 -232 -3 -69 44 -122 44 -190 -1 -72 -46 -141 -45 -232 3 -36 19 -76 35 -88 35 -13 0 -53 -16 -89 -35 -91 -48 -158 -49 -231 -2 -67 43 -123 44 -183 3 -28 -18 -43 -36 -43 -49 0 -12 -19 -41 -42 -64 -39 -40 -41 -43 -18 -43 13 0 46 15 74 32 73 47 159 47 232 1 67 -43 105 -43 190 2 87 46 131 46 218 0 86 -45 126 -46 192 -3 43 29 58 33 114 33 57 0 72 -4 116 -33 67 -43 105 -42 191 4 61 32 74 36 123 31 39 -3 70 -14 105 -36 67 -42 115 -42 181 1 43 29 57 33 115 33 56 0 72 -4 109 -29 68 -45 112 -45 195 -1 62 33 76 36 125 33 40 -3 69 -13 104 -36 67 -43 115 -43 182 0 61 39 139 47 139 13 0 -15 -9 -21 -37 -26 -20 -3 -56 -19 -80 -35 -37 -25 -52 -29 -113 -29 -62 0 -76 4 -122 34 -44 28 -59 33 -95 29 -24 -3 -65 -19 -92 -37 -72 -45 -136 -44 -222 4 -79 44 -115 45 -180 3 -43 -29 -57 -33 -119 -33 -63 0 -75 3 -120 33 -42 29 -57 33 -95 30 -28 -3 -62 -16 -89 -33 -31 -21 -59 -30 -101 -33 -53 -4 -65 -1 -124 32 -81 46 -117 46 -182 3 -44 -28 -57 -32 -120 -32 -62 0 -76 4 -115 30 -61 41 -127 42 -187 0 -33 -21 -59 -30 -102 -33 -53 -4 -65 -1 -124 32 -81 46 -117 46 -182 3 -43 -28 -57 -32 -119 -32 -63 0 -75 3 -120 33 -42 29 -57 33 -95 30 -25 -3 -62 -15 -82 -29 -34 -21 -38 -29 -38 -66 0 -33 -5 -46 -26 -62 l-27 -21 2502 0 2501 0 -1 1458 c-1 860 -5 1439 -10 1412 -22 -110 -115 -230 -220 -283 -207 -103 -459 -17 -562 192 -26 53 -32 79 -37 165 -4 55 -8 95 -8 89 -2 -15 -62 -18 -62 -3 0 6 -10 10 -23 10 -13 0 -33 9 -45 20 -12 11 -28 20 -37 20 -8 0 -15 5 -15 10 0 6 -22 10 -50 10 -27 0 -50 -4 -50 -10 0 -5 -7 -10 -15 -10 -9 0 -25 -9 -37 -20 -12 -11 -32 -20 -45 -20 -13 0 -23 -4 -23 -10 0 -5 -9 -10 -20 -10 -28 0 -100 23 -100 32 0 5 -9 8 -20 8 -11 0 -20 4 -20 8 0 15 -50 32 -95 32 -25 0 -45 -4 -45 -10 0 -5 -8 -10 -18 -10 -10 0 -24 -9 -32 -20 -8 -11 -23 -20 -34 -20 -11 0 -35 -6 -54 -12 -28 -10 -36 -10 -39 0 -3 6 -18 12 -34 12 -16 0 -29 5 -29 10 0 6 -8 10 -18 10 -10 0 -24 9 -32 20 -11 16 -26 20 -70 20 -44 0 -59 -4 -70 -20 -8 -11 -22 -20 -32 -20 -10 0 -18 -4 -18 -10 0 -5 -13 -10 -30 -10 -16 0 -30 -4 -30 -10 0 -5 -13 -10 -30 -10 -16 0 -30 5 -30 10 0 6 -11 10 -25 10 -14 0 -35 9 -47 20 -12 11 -28 20 -35 20 -7 0 -13 5 -13 10 0 6 -24 10 -53 10 -39 0 -59 -5 -75 -20 -12 -11 -28 -20 -37 -20 -8 0 -15 -4 -15 -10 0 -5 -11 -10 -24 -10 -14 0 -28 -4 -31 -10 -3 -5 -19 -10 -36 -10 -16 0 -29 5 -29 10 0 6 -13 10 -28 10 -16 0 -34 8 -42 20 -8 11 -22 20 -32 20 -10 0 -18 5 -18 10 0 6 -22 10 -50 10 -27 0 -50 -4 -50 -10 0 -5 -8 -10 -18 -10 -10 0 -24 -9 -32 -20 -8 -11 -25 -20 -38 -20 -13 0 -32 -4 -42 -10 -26 -14 -50 -2 -50 26 0 20 5 24 30 24 17 0 30 5 30 10 0 6 9 10 20 10 11 0 20 3 20 8 0 8 49 32 67 32 7 0 13 5 13 10 0 6 23 10 50 10 28 0 50 -4 50 -10 0 -5 6 -10 13 -10 18 0 67 -24 67 -32 0 -5 9 -8 20 -8 11 0 20 -4 20 -10 0 -5 18 -10 40 -10 22 0 40 5 40 10 0 6 7 10 16 10 9 0 24 8 33 18 9 9 32 23 52 30 43 14 119 16 119 2 0 -5 9 -10 20 -10 11 0 20 -4 20 -10 0 -5 9 -10 20 -10 11 0 20 -4 20 -10 0 -5 9 -10 20 -10 11 0 20 -4 20 -10 0 -23 101 0 130 30 32 32 170 57 170 30 0 -5 7 -10 15 -10 9 0 25 -9 37 -20 12 -11 28 -20 35 -20 7 0 13 -4 13 -10 0 -5 18 -10 40 -10 22 0 40 5 40 10 0 6 9 10 20 10 11 0 20 5 20 11 0 5 4 8 9 4 5 -3 16 2 24 10 9 8 23 15 31 15 9 0 16 5 16 10 0 13 98 11 106 -2 3 -4 15 -8 27 -8 13 0 29 -9 37 -20 8 -11 22 -20 32 -20 10 0 18 -4 18 -10 0 -5 18 -10 40 -10 22 0 40 5 40 10 0 6 9 10 20 10 11 0 20 3 20 8 0 8 49 32 67 32 7 0 13 5 13 10 0 6 23 10 50 10 28 0 50 -4 50 -9 0 -5 13 -11 29 -14 16 -3 36 -13 44 -22 9 -8 23 -15 31 -15 9 0 16 -4 16 -10 0 -5 19 -10 43 -10 41 0 42 1 69 58 49 106 169 198 289 221 26 5 -616 9 -1526 10 l-1571 1 -17 -30z m933 -312 c22 -7 40 -16 40 -20 0 -5 8 -8 18 -8 10 0 24 -9 32 -20 11 -15 26 -20 62 -20 26 0 48 5 48 10 0 6 9 10 20 10 11 0 20 5 20 10 0 6 9 10 20 10 11 0 20 5 20 10 0 6 9 10 20 10 11 0 20 5 20 10 0 6 14 10 30 10 36 0 110 -22 110 -32 0 -5 6 -8 13 -8 7 0 23 -9 35 -20 23 -21 112 -29 112 -10 0 6 8 10 18 10 10 0 24 9 32 20 8 12 26 20 42 20 15 0 28 5 28 10 0 6 18 10 40 10 22 0 40 -4 40 -10 0 -5 13 -10 28 -10 16 0 34 -8 42 -20 8 -11 22 -20 32 -20 10 0 18 -4 18 -10 0 -5 23 -10 50 -10 28 0 50 5 50 10 0 6 6 10 13 10 7 0 23 9 35 20 12 11 33 20 47 20 14 0 25 5 25 10 0 6 18 10 40 10 22 0 40 -4 40 -10 0 -5 6 -10 13 -10 18 0 67 -24 67 -32 0 -5 9 -8 20 -8 11 0 20 -4 20 -10 0 -19 89 -11 112 10 12 11 28 20 35 20 7 0 13 5 13 10 0 6 10 10 23 10 13 0 28 5 34 11 14 14 110 -7 131 -28 8 -7 17 -11 21 -9 4 3 14 -4 21 -15 10 -13 26 -19 52 -19 36 0 38 -2 38 -30 0 -23 -4 -30 -20 -30 -26 0 -100 23 -100 31 0 4 -13 12 -30 19 -16 7 -30 16 -30 21 0 5 -22 9 -50 9 -27 0 -50 -4 -50 -10 0 -5 -6 -10 -13 -10 -7 0 -22 -8 -33 -17 -23 -21 -81 -43 -114 -43 -34 0 -93 22 -111 42 -9 10 -24 18 -33 18 -9 0 -16 5 -16 10 0 19 -89 11 -112 -10 -12 -11 -28 -20 -35 -20 -7 0 -13 -3 -13 -8 0 -10 -74 -32 -110 -32 -16 0 -30 5 -30 10 0 6 -9 10 -20 10 -11 0 -20 5 -20 10 0 6 -9 10 -20 10 -11 0 -20 5 -20 10 0 6 -9 10 -20 10 -11 0 -20 5 -20 10 0 6 -18 10 -40 10 -22 0 -40 -4 -40 -10 0 -5 -9 -10 -20 -10 -11 0 -20 -4 -20 -10 0 -5 -9 -10 -20 -10 -11 0 -20 -4 -20 -10 0 -5 -9 -10 -20 -10 -11 0 -20 -4 -20 -10 0 -5 -22 -10 -50 -10 -27 0 -50 5 -50 10 0 6 -9 10 -20 10 -11 0 -20 5 -20 10 0 6 -8 10 -18 10 -10 0 -24 9 -32 20 -11 15 -26 20 -62 20 -26 0 -48 -4 -48 -10 0 -5 -7 -10 -16 -10 -9 0 -24 -9 -34 -20 -10 -11 -29 -21 -44 -22 -14 -1 -26 -6 -26 -10 0 -25 -122 3 -151 34 -9 10 -24 18 -33 18 -9 0 -16 5 -16 10 0 6 -22 10 -50 10 -27 0 -50 -4 -50 -10 0 -5 -7 -10 -16 -10 -9 0 -24 -8 -33 -18 -17 -19 -83 -42 -113 -40 -13 1 -18 10 -18 30 0 23 4 28 25 28 29 0 75 20 75 32 0 5 4 7 9 3 5 -3 16 2 24 10 9 8 23 15 31 15 9 0 16 5 16 10 0 14 52 13 100 -2z m1530 -658 c64 -33 107 -94 119 -169 l8 -51 -113 0 -114 0 0 40 0 40 55 0 c30 0 55 4 55 9 0 27 -77 71 -122 71 -58 0 -128 -75 -128 -137 0 -130 138 -194 231 -107 14 13 27 24 30 24 3 0 20 -11 37 -24 l33 -24 -26 -30 c-80 -95 -259 -96 -339 -1 -40 47 -58 94 -58 153 -1 173 178 285 332 206z m-2750 -20 l0 -40 -90 0 -90 0 -2 -182 -3 -183 -47 -3 -48 -3 0 225 0 226 140 0 140 0 0 -40z m320 0 l0 -40 -90 0 -90 0 0 -60 0 -60 80 0 80 0 0 -40 0 -40 -80 0 -80 0 0 -40 0 -40 70 0 70 0 0 -45 0 -45 -120 0 -120 0 0 225 0 225 140 0 140 0 0 -40z m135 10 l16 -30 110 0 111 0 11 30 c11 28 15 30 64 30 l52 0 -71 -137 c-40 -76 -93 -178 -119 -227 l-47 -88 -77 148 c-43 82 -95 181 -116 221 -22 40 -39 75 -39 78 0 3 20 5 45 5 39 0 46 -3 60 -30z m495 -10 c0 -32 4 -40 18 -40 10 0 36 18 57 40 37 38 43 40 97 40 32 0 58 -3 58 -7 0 -4 -19 -27 -42 -51 l-43 -43 28 -21 c38 -28 67 -89 67 -142 0 -128 -80 -186 -257 -186 l-83 0 0 225 0 225 50 0 50 0 0 -40z m412 -85 l3 -124 144 120 c79 65 147 122 152 125 5 3 9 -91 9 -220 l0 -226 -45 0 -45 0 0 130 0 131 -147 -124 c-82 -68 -154 -127 -160 -131 -10 -6 -13 41 -13 218 l0 226 50 0 49 0 3 -125z m486 -97 l-3 -223 -47 -3 -48 -3 0 225 0 226 50 0 50 0 -2 -222z m184 97 l3 -124 144 120 c79 65 147 122 152 125 5 3 9 -91 9 -220 l0 -226 -45 0 -45 0 0 131 0 130 -155 -130 c-85 -72 -157 -131 -160 -131 -3 0 -5 101 -5 225 l0 225 50 0 49 0 3 -125z m-1289 -489 c178 -64 207 -297 49 -392 -61 -37 -95 -44 -219 -44 l-93 0 0 225 0 225 113 0 c67 -1 127 -6 150 -14z m497 -26 l0 -40 -90 0 -90 0 0 -60 0 -60 80 0 80 0 0 -40 0 -40 -80 0 -80 0 0 -40 0 -40 70 0 70 0 0 -45 0 -45 -120 0 -120 0 0 225 0 225 140 0 140 0 0 -40z m340 0 l0 -40 -90 0 -90 0 0 -60 0 -60 80 0 80 0 0 -40 0 -40 -80 0 -80 0 0 -40 0 -40 70 0 70 0 0 -45 0 -45 -120 0 -120 0 0 225 0 225 140 0 140 0 0 -40z m170 5 l0 -35 47 0 c101 0 181 -71 191 -169 6 -66 -12 -113 -58 -155 -48 -43 -92 -56 -197 -56 l-83 0 0 225 0 225 50 0 50 0 0 -35z m1510 -485 c0 -5 11 -10 25 -10 38 0 115 -41 115 -62 0 -10 5 -18 10 -18 6 0 10 -27 10 -60 l0 -60 -110 0 c-67 0 -110 -4 -110 -10 0 -6 67 -10 180 -10 113 0 180 -4 180 -10 0 -5 7 -10 16 -10 20 0 44 -24 44 -44 0 -9 3 -16 8 -16 25 0 46 -230 22 -245 -5 -3 -10 -15 -10 -26 0 -20 -17 -55 -35 -74 -25 -24 -58 -35 -110 -35 l-55 0 0 65 c0 63 -15 115 -32 115 -5 0 -6 4 -3 10 3 6 -1 10 -10 10 -9 0 -13 5 -10 10 4 6 -5 10 -19 10 -14 0 -26 5 -26 10 0 6 -55 10 -145 10 -151 0 -166 3 -212 47 -22 21 -23 28 -23 173 0 93 4 150 10 150 6 0 10 5 10 11 0 16 26 39 44 39 9 0 16 5 16 10 0 6 18 10 40 10 22 0 40 5 40 10 0 6 30 10 70 10 40 0 70 -4 70 -10z m-1290 -100 c171 -88 161 -342 -17 -417 -18 -7 -57 -13 -88 -13 -131 0 -226 94 -226 223 0 176 176 286 331 207z m-1900 -15 l0 -35 47 0 c161 0 254 -189 151 -306 -48 -55 -81 -67 -195 -72 l-103 -5 0 227 0 226 50 0 50 0 0 -35z m540 -37 c0 -72 1 -75 63 -179 35 -58 76 -126 90 -150 l27 -45 -48 -2 -47 -2 -65 110 c-35 60 -66 107 -68 105 -3 -2 -33 -51 -66 -107 l-62 -103 -52 -3 c-29 -2 -52 -1 -52 2 0 3 43 76 95 161 94 154 95 156 95 220 l0 65 45 0 45 0 0 -72z m390 -108 l0 -180 60 0 60 0 0 -45 0 -45 -160 0 -160 0 0 45 0 45 55 0 55 0 0 180 0 180 45 0 45 0 0 -180z m270 80 l0 -100 100 0 100 0 0 100 0 100 45 0 45 0 0 -225 0 -225 -45 0 -45 0 0 85 0 85 -100 0 -99 0 -3 -82 -3 -83 -47 -3 -48 -3 0 225 0 226 50 0 50 0 0 -100z m992 -25 l3 -124 144 120 c79 65 147 122 152 125 5 3 9 -91 9 -220 l0 -226 -45 0 -45 0 0 130 0 131 -147 -124 c-82 -68 -154 -127 -160 -131 -10 -6 -13 41 -13 218 l0 226 50 0 49 0 3 -125z m668 -90 c0 -69 18 -113 59 -148 32 -26 35 -27 174 -28 156 0 200 -10 230 -51 17 -23 19 -41 18 -168 -2 -159 -8 -176 -69 -206 -29 -15 -61 -19 -152 -18 -186 0 -230 26 -230 140 l0 64 116 0 c88 0 115 3 112 13 -4 9 -54 13 -191 17 l-186 5 -31 30 c-78 75 -81 291 -4 371 29 31 36 34 93 34 l61 0 0 -55z"/>
<path d="M1680 2241 c0 -4 13 -37 29 -72 l29 -63 31 62 c17 34 31 66 31 72 0 6 -26 10 -60 10 -33 0 -60 -4 -60 -9z"/>
<path d="M2110 2131 l0 -101 41 0 c53 0 78 14 95 55 29 70 -9 130 -89 141 l-47 7 0 -102z"/>
<path d="M1740 1571 l0 -141 60 0 c72 0 113 19 140 63 38 62 17 152 -45 193 -14 9 -54 19 -90 22 l-65 5 0 -142z"/>
<path d="M2910 1536 l0 -106 44 0 c73 0 115 60 95 135 -13 45 -41 67 -94 72 l-45 6 0 -107z"/>
<path d="M4455 1190 c3 -5 1 -10 -4 -10 -6 0 -11 -7 -11 -16 0 -18 23 -44 40 -44 15 0 40 25 40 40 0 18 -27 40 -50 40 -12 0 -18 -4 -15 -10z"/>
<path d="M2970 1093 c-72 -37 -99 -120 -62 -192 25 -51 61 -73 117 -73 56 0 92 22 117 73 60 117 -59 250 -172 192z"/>
<path d="M1230 936 l0 -106 44 0 c73 0 115 60 95 135 -13 45 -41 67 -94 72 l-45 6 0 -107z"/>
<path d="M4190 485 c-26 -32 13 -81 48 -59 22 14 27 41 12 59 -16 19 -44 19 -60 0z"/>
<path d="M4730 3359 c112 -22 229 -114 284 -222 15 -31 32 -57 37 -57 5 0 9 65 9 145 l0 145 -187 -1 c-137 -1 -176 -4 -143 -10z"/>
<path d="M4513 3279 c-53 -20 -164 -111 -162 -133 0 -7 2 -7 6 2 6 15 103 17 103 2 0 -5 7 -10 16 -10 9 0 24 -9 34 -20 16 -19 17 -19 50 15 19 19 37 35 41 35 13 0 19 -50 9 -70 -9 -18 -8 -20 15 -20 34 0 51 18 48 52 -3 37 14 45 40 20 20 -18 25 -19 47 -7 29 16 120 20 120 5 0 -5 8 -10 18 -10 10 0 24 -9 32 -20 21 -30 33 -24 16 8 -25 49 -96 113 -154 140 -78 36 -203 41 -279 11z"/>
<path d="M0 3250 c0 -16 5 -30 10 -30 6 0 10 14 10 30 0 17 -4 30 -10 30 -5 0 -10 -13 -10 -30z"/>
<path d="M4360 3090 c0 -5 -11 -10 -25 -10 -20 0 -25 -6 -31 -35 -6 -34 4 -63 13 -37 3 6 13 12 24 12 10 0 19 5 19 10 0 13 77 13 82 0 2 -6 16 3 33 20 27 29 28 30 7 30 -12 0 -22 5 -22 10 0 6 -22 10 -50 10 -27 0 -50 -4 -50 -10z"/>
<path d="M4809 3057 c36 -35 50 -42 73 -39 20 3 34 -2 47 -17 10 -11 25 -21 34 -21 8 0 18 -6 21 -12 3 -7 4 5 3 27 -2 33 -6 41 -24 43 -13 2 -23 8 -23 13 0 5 -8 9 -18 9 -10 0 -24 9 -32 20 -11 16 -26 20 -70 20 l-55 0 44 -43z"/>
<path d="M4700 3050 c0 -5 -13 -10 -30 -10 -16 0 -30 -4 -30 -10 0 -15 -58 -12 -63 3 -6 16 -34 0 -55 -31 -13 -20 -13 -22 0 -17 9 4 22 -1 31 -9 17 -18 107 -22 107 -6 0 6 8 10 18 10 10 0 24 9 32 20 8 11 21 20 29 20 11 0 10 4 -4 20 -20 22 -35 26 -35 10z"/>
<path d="M5052 3020 c0 -14 2 -19 5 -12 2 6 2 18 0 25 -3 6 -5 1 -5 -13z"/>
<path d="M4297 2925 c8 -119 86 -230 201 -287 39 -19 63 -23 142 -23 81 0 103 4 150 26 103 48 186 160 196 262 2 23 1 36 -2 30 -7 -15 -40 -17 -49 -3 -15 24 -46 4 -143 -92 -83 -83 -104 -100 -112 -88 -20 31 -8 54 60 124 39 40 70 77 70 83 0 6 -7 16 -15 23 -12 10 -15 10 -15 -4 0 -9 -7 -16 -15 -16 -9 0 -25 -9 -37 -20 -12 -11 -32 -20 -45 -20 -13 0 -23 -4 -23 -10 0 -5 -14 -10 -30 -10 -36 0 -110 22 -110 32 0 5 -8 8 -17 8 -12 0 6 -23 51 -69 63 -63 68 -71 61 -100 -4 -17 -10 -31 -13 -31 -4 0 -56 49 -115 108 -84 85 -105 110 -95 120 9 9 7 12 -10 12 -12 0 -22 -4 -22 -10 0 -5 -9 -10 -20 -10 -11 0 -20 -4 -20 -10 0 -20 -19 -10 -23 13 -3 12 -3 -5 0 -38z"/>
<path d="M0 676 l0 -296 38 0 c107 1 222 105 252 228 39 165 -82 341 -246 360 l-44 5 0 -297z"/>
<path d="M230 245 c-25 -14 -25 -14 14 -15 33 0 37 2 26 15 -7 8 -13 15 -14 15 0 -1 -12 -7 -26 -15z"/>
</g>


</svg>