<!DOCTYPE svg PUBLIC "-//W3C//DTD SVG 20010904//EN" "http://www.w3.org/TR/2001/REC-SVG-20010904/DTD/svg10.dtd">
<svg version="1.0" xmlns="http://www.w3.org/2000/svg" width="926px" height="617px" viewBox="0 0 9260 6170" preserveAspectRatio="xMidYMid meet">
<g id="layer101" fill="#000000" stroke="none">
<path d="M0 3085 l0 -3085 4630 0 4630 0 0 3085 0 3085 -4630 0 -4630 0 0 -3085z"/>
</g>
<g id="layer102" fill="#427a95" stroke="none">
<path d="M0 3085 l0 -3085 3278 1 3277 0 64 89 c35 49 79 106 96 127 18 21 82 97 142 169 59 71 153 184 208 250 55 66 117 140 138 166 20 26 47 48 60 50 15 2 23 12 27 32 5 27 6 28 20 11 24 -29 91 -55 145 -55 105 0 175 37 214 115 24 47 26 61 31 251 l5 201 41 49 c46 54 295 354 352 424 21 24 53 63 72 85 19 23 53 63 75 90 22 26 56 67 75 89 19 23 51 62 71 86 20 25 61 74 90 109 30 36 94 112 142 170 49 58 96 115 105 126 9 11 37 45 62 75 25 30 53 64 62 75 9 11 78 94 154 185 75 91 146 176 158 190 11 14 38 46 59 72 l37 46 0 1446 0 1446 -4630 0 -4630 0 0 -3085z m7496 -2000 c-10 -52 -42 -85 -82 -85 -19 0 -34 3 -34 6 0 4 26 39 57 78 60 74 72 74 59 1z"/>
</g>
<g id="layer103" fill="#5898bc" stroke="none">
<path d="M0 5619 c0 -372 3 -548 10 -544 6 4 29 32 52 63 23 31 45 59 48 62 4 3 26 28 50 55 79 93 252 265 356 355 16 14 47 41 70 60 22 19 64 55 94 80 29 25 58 50 64 55 6 6 52 42 101 80 50 38 92 72 95 75 3 3 23 19 45 36 22 16 46 35 53 42 8 6 35 26 60 44 26 18 52 36 57 40 6 4 21 17 35 28 25 19 23 19 -582 20 l-608 0 0 -551z"/>
<path d="M1115 6043 c-94 -69 -172 -129 -175 -132 -3 -3 -39 -33 -80 -66 -81 -65 -80 -64 -188 -154 -137 -114 -239 -210 -367 -341 -128 -131 -155 -163 -238 -274 l-67 -89 0 -909 c0 -861 1 -909 18 -904 155 47 297 80 430 101 37 6 42 5 42 -12 0 -17 -16 -23 -113 -42 -61 -12 -146 -31 -187 -42 -41 -11 -92 -24 -114 -30 -21 -5 -47 -14 -57 -20 -18 -9 -19 -56 -19 -1569 l0 -1560 2620 0 c2114 0 2620 2 2620 13 0 7 -11 66 -25 132 -14 66 -32 152 -40 190 -8 39 -21 102 -30 140 -9 39 -22 102 -30 140 -8 39 -21 102 -30 140 -8 39 -15 73 -15 76 0 3 28 9 62 13 68 7 147 39 194 79 33 28 98 140 87 151 -3 3 -53 6 -109 6 -93 0 -103 -2 -109 -20 -11 -34 -54 -60 -99 -60 -56 0 -67 10 -77 66 -4 27 -17 91 -28 143 -22 100 -22 104 24 143 31 27 128 25 154 -4 12 -12 23 -30 27 -40 5 -16 18 -18 115 -18 60 0 109 2 109 4 0 2 -10 25 -21 52 -28 62 -82 120 -144 152 -46 24 -60 27 -165 27 -74 0 -123 -4 -137 -13 -21 -11 -23 -10 -32 25 -6 21 -17 72 -25 113 -8 41 -46 224 -85 405 -66 310 -84 394 -116 540 -7 33 -20 94 -29 135 -8 41 -24 116 -35 165 -11 50 -27 126 -36 170 -9 44 -23 107 -31 140 -7 33 -15 76 -16 95 l-3 34 80 18 c44 10 114 25 155 34 41 8 105 22 143 30 123 26 211 45 287 60 41 9 101 22 132 30 57 14 108 18 108 10 0 -3 -13 -24 -29 -48 -16 -24 -32 -53 -35 -65 -9 -30 22 -60 71 -68 123 -19 168 -31 171 -46 1 -9 -11 -45 -28 -82 -41 -89 -46 -121 -26 -152 16 -24 21 -25 114 -25 129 0 137 -6 118 -81 -8 -30 -18 -78 -22 -106 -5 -44 -3 -54 16 -73 24 -24 27 -24 135 1 28 7 64 12 80 13 l30 1 3 -110 c4 -159 18 -169 146 -110 75 34 110 42 132 27 6 -4 19 -50 28 -102 9 -52 22 -100 28 -107 25 -30 101 -9 148 42 32 35 80 56 101 44 9 -4 22 -23 29 -41 40 -103 71 -158 87 -159 38 -3 50 5 115 74 66 72 67 72 94 57 15 -8 46 -46 69 -85 73 -124 117 -125 180 -3 39 75 58 97 86 98 8 0 46 -31 83 -70 37 -38 76 -72 87 -75 26 -9 51 14 68 62 35 96 59 139 82 140 21 2 122 -51 161 -84 9 -8 31 -13 49 -11 l34 3 20 95 c26 119 30 130 52 130 10 -1 57 -16 105 -34 51 -19 98 -31 113 -28 25 4 25 5 25 117 0 148 8 159 101 131 26 -8 71 -17 102 -21 78 -10 85 5 61 132 -24 126 -23 127 96 130 133 2 140 5 140 52 0 21 -15 72 -34 116 -48 110 -37 126 95 141 46 5 69 13 86 30 13 13 23 27 23 32 0 6 -15 32 -33 58 -93 140 -91 157 24 204 48 19 94 41 103 49 25 21 20 58 -11 77 -16 10 -49 39 -75 66 -70 72 -66 86 35 152 45 30 88 64 95 76 17 29 1 47 -92 108 -49 32 -65 47 -55 52 12 7 154 40 264 61 22 4 68 13 103 21 l62 13 0 917 0 918 -3541 0 c-2140 0 -3539 -4 -3537 -9 2 -5 35 -43 75 -84 140 -147 309 -360 466 -590 46 -66 147 -233 147 -242 0 -2 13 -26 28 -52 56 -96 116 -255 132 -351 15 -87 4 -118 -61 -162 -28 -19 -60 -42 -69 -50 -10 -8 -80 -60 -155 -115 -76 -55 -200 -146 -277 -203 -103 -76 -146 -102 -168 -102 -17 0 -30 3 -30 8 1 4 55 45 122 92 66 47 186 133 267 193 80 59 187 138 238 175 l92 67 1 58 c0 83 -32 180 -115 342 -74 146 -138 252 -239 395 -66 94 -193 265 -210 283 -6 7 -24 28 -40 47 -32 39 -172 193 -235 258 l-41 42 -413 0 -412 0 -170 -127z m7355 -1988 l0 -104 -57 -27 c-32 -14 -65 -30 -73 -35 -8 -5 -22 -12 -31 -15 -52 -18 -126 -63 -137 -84 -18 -35 -9 -90 26 -163 16 -34 42 -99 56 -144 l27 -83 -53 -87 c-66 -111 -215 -266 -323 -338 -118 -78 -334 -184 -417 -205 -21 -6 -57 -15 -79 -20 l-41 -11 -95 93 c-51 51 -104 98 -116 105 -57 32 -108 7 -202 -97 -28 -30 -59 -62 -70 -72 -24 -21 -68 -23 -103 -4 -15 8 -58 25 -97 37 -176 55 -383 183 -510 316 l-46 48 748 5 c771 6 768 6 868 47 56 24 152 91 197 138 21 22 53 72 73 111 33 68 34 77 32 160 -5 142 -57 226 -215 347 -62 47 -60 48 48 71 41 8 152 32 245 52 94 19 199 40 235 46 36 5 72 14 80 18 8 4 18 6 23 3 4 -2 7 -51 7 -108z m-6445 -53 c-26 -23 -133 -100 -153 -111 -13 -7 -26 -10 -29 -7 -12 11 8 37 64 80 43 34 67 46 93 46 19 0 30 -4 25 -8z m5321 -183 c50 -15 79 -53 78 -102 -1 -34 -8 -47 -37 -72 -58 -50 -98 -56 -342 -53 l-220 3 -3 112 -3 112 33 5 c18 3 44 7 58 9 47 7 405 -5 436 -14z m1134 -49 c10 -5 28 -26 40 -45 38 -61 11 -123 -65 -154 -68 -27 -145 45 -131 122 13 67 97 109 156 77z m-6904 -75 c-2 -7 -16 -19 -30 -27 -14 -7 -57 -33 -96 -57 -58 -36 -73 -42 -81 -30 -13 21 -13 22 39 52 26 15 74 45 107 66 44 28 61 34 63 24 2 -8 1 -20 -2 -28z m4620 -57 c-4 -23 -12 -45 -17 -49 -13 -8 -146 -12 -158 -4 -19 11 10 65 37 71 15 3 41 10 57 14 17 5 43 9 59 9 28 1 28 0 22 -41z m-336 -42 c-28 -31 -71 -41 -102 -25 l-23 12 30 9 c17 5 48 13 70 17 22 5 42 9 44 10 3 1 -6 -10 -19 -23z m-4733 -142 c3 -9 0 -20 -8 -25 -22 -14 -198 -85 -267 -108 -77 -26 -95 -26 -90 -3 2 12 34 28 108 53 58 20 134 50 170 67 77 36 79 36 87 16z m6059 -718 c48 -48 48 -96 -2 -142 -40 -38 -77 -44 -124 -19 -36 19 -50 43 -50 90 0 65 39 103 109 104 25 1 41 -7 67 -33z"/>
<path d="M6535 1524 c-81 -21 -177 -97 -213 -169 -42 -84 -45 -245 -5 -325 55 -111 153 -176 281 -187 220 -18 384 127 386 340 1 138 -69 258 -182 314 -48 23 -70 28 -152 30 -52 1 -104 -1 -115 -3z m177 -186 c44 -31 62 -74 62 -153 0 -49 -5 -80 -17 -103 -53 -99 -195 -95 -247 7 -36 71 -22 189 27 233 56 51 118 57 175 16z"/>
<path d="M5645 1506 c-68 -30 -70 -35 -73 -277 l-3 -219 -45 0 -44 0 0 -80 0 -80 45 0 45 0 0 -115 0 -116 98 3 97 3 3 113 3 112 54 0 55 0 0 80 0 80 -55 0 -55 0 0 163 c0 113 4 167 12 175 7 7 31 12 55 12 l43 0 0 80 0 80 -102 0 c-63 -1 -115 -6 -133 -14z"/>
<path d="M7090 1185 l0 -336 97 3 98 3 5 29 c5 27 6 28 20 11 24 -29 91 -55 145 -55 105 0 174 37 214 115 26 49 26 54 29 308 l4 257 -101 0 -100 0 -3 -229 c-3 -215 -4 -231 -24 -258 -18 -24 -29 -28 -75 -31 -48 -3 -58 0 -79 23 -25 26 -25 27 -28 261 l-3 234 -100 0 -99 0 0 -335z"/>
<path d="M6023 794 c-58 -29 -68 -117 -17 -164 13 -13 24 -21 24 -17 0 4 12 2 27 -4 39 -15 107 13 122 49 15 40 16 44 9 78 -5 21 -18 39 -41 53 -41 25 -80 26 -124 5z"/>
<path d="M6546 13 c-6 -14 -5 -15 5 -6 7 7 10 15 7 18 -3 3 -9 -2 -12 -12z"/>
</g>
<g id="layer104" fill="#d7eced" stroke="none">
<path d="M7074 5926 c-11 -17 -37 -57 -57 -88 -54 -84 -75 -81 -156 17 -51 61 -68 75 -91 75 -45 0 -65 -25 -101 -131 -34 -102 -34 -102 -140 -31 -50 34 -96 62 -103 62 -23 0 -55 -31 -64 -63 -6 -17 -13 -59 -17 -91 -4 -33 -9 -65 -12 -73 -8 -22 -47 -15 -126 22 -86 40 -109 43 -137 15 -18 -18 -20 -33 -20 -131 l0 -112 -53 7 c-30 3 -73 13 -97 21 -58 20 -73 19 -99 -9 l-22 -24 26 -103 26 -103 -25 -24 c-24 -25 -26 -25 -95 -14 -38 7 -80 12 -93 12 -63 -1 -70 -46 -23 -147 57 -122 48 -142 -66 -162 -141 -23 -176 -59 -122 -123 60 -71 94 -128 88 -147 -3 -12 -25 -25 -58 -36 -29 -9 -73 -26 -98 -36 -43 -19 -45 -22 -43 -57 3 -31 14 -47 73 -104 96 -90 96 -99 -16 -169 -73 -45 -89 -59 -91 -82 -4 -37 14 -56 99 -109 38 -23 71 -49 74 -57 7 -18 -39 -76 -96 -120 -24 -18 -48 -44 -52 -57 -12 -33 11 -67 55 -83 18 -7 41 -17 50 -22 10 -5 25 -9 34 -9 20 0 74 -38 74 -52 0 -6 -18 -35 -40 -64 -62 -82 -83 -129 -71 -153 12 -22 42 -31 161 -53 53 -9 76 -18 78 -29 2 -9 -11 -45 -28 -82 -41 -89 -46 -121 -26 -152 16 -24 21 -25 114 -25 129 0 137 -6 118 -81 -8 -30 -18 -78 -22 -106 -5 -44 -3 -54 16 -73 24 -24 27 -24 135 1 28 7 64 12 80 13 l30 1 3 -110 c4 -159 18 -169 146 -110 75 34 110 42 132 27 6 -4 19 -50 28 -102 9 -52 22 -100 28 -107 25 -30 101 -9 148 42 32 35 80 56 101 44 9 -4 22 -23 29 -41 7 -18 26 -61 41 -95 26 -58 31 -63 60 -63 27 0 43 12 100 73 67 72 67 72 95 57 15 -8 46 -46 69 -85 73 -124 117 -125 180 -3 39 75 58 97 86 98 8 0 46 -31 83 -70 105 -108 117 -106 175 37 29 70 41 89 59 91 20 3 122 -50 164 -85 9 -8 31 -13 49 -11 l34 3 20 95 c26 119 30 130 52 130 10 -1 57 -16 105 -34 51 -19 98 -31 113 -28 25 4 25 5 25 117 0 148 8 159 101 131 26 -8 71 -17 102 -21 78 -10 85 5 61 132 -24 126 -23 127 96 130 133 2 140 5 140 52 0 21 -15 72 -34 116 -48 110 -37 126 95 141 46 5 69 13 86 30 13 13 23 27 23 32 0 6 -15 32 -32 58 -94 140 -92 157 23 204 48 19 94 41 103 49 29 24 20 58 -23 85 -51 33 -111 104 -111 133 0 18 18 35 83 77 45 30 88 64 95 76 12 20 11 25 -10 47 -13 14 -56 45 -95 70 -94 58 -94 68 -3 157 38 37 72 77 75 88 10 30 -12 43 -187 107 -43 16 -37 56 18 131 25 34 50 72 56 85 15 34 -5 63 -50 70 -20 4 -53 11 -72 16 -19 5 -49 9 -66 9 -22 0 -34 6 -41 23 -8 18 -3 39 28 111 62 143 59 150 -84 147 -82 -1 -107 1 -116 13 -13 16 -11 61 8 171 9 49 8 63 -5 82 -16 25 -34 25 -124 2 -47 -12 -117 -11 -125 1 -4 6 -6 52 -6 102 1 148 -25 166 -149 103 -73 -37 -111 -43 -128 -22 -13 16 -32 108 -32 157 0 30 -6 43 -26 59 -15 12 -32 21 -38 21 -7 0 -47 -27 -90 -60 -43 -33 -84 -60 -90 -60 -31 0 -56 35 -82 112 -32 99 -38 108 -73 108 -26 0 -101 -63 -101 -85 -1 -19 -60 -75 -78 -75 -23 0 -48 28 -97 105 -21 33 -39 61 -40 63 -1 1 -16 6 -32 11 -26 8 -31 5 -49 -23z m211 -497 c81 -10 160 -29 295 -72 91 -29 98 -35 110 -96 49 -249 64 -277 153 -274 28 0 79 8 112 17 105 28 127 24 190 -39 30 -31 55 -60 55 -65 0 -6 -108 -10 -290 -10 -340 0 -341 0 -413 -99 -46 -62 -65 -113 -92 -251 -29 -148 -52 -214 -91 -254 -58 -60 -84 -66 -290 -67 -101 0 -188 2 -194 6 -6 4 -10 51 -10 115 l0 110 168 2 167 3 -2 190 c-1 105 -2 202 -2 218 l-1 27 -522 0 c-288 0 -533 3 -545 6 -13 4 -23 10 -23 15 0 15 80 98 101 104 10 4 47 -1 81 -10 190 -48 237 -28 267 115 6 30 21 84 32 120 l20 66 77 36 c180 84 411 116 647 87z m-912 -129 c29 -33 37 -93 17 -131 -15 -26 -62 -49 -104 -49 -39 0 -92 44 -102 86 -11 42 29 109 76 127 32 13 85 -2 113 -33z m1626 14 c62 -52 44 -154 -32 -183 -43 -16 -76 -9 -114 23 -24 21 -28 32 -28 76 0 46 4 55 33 81 43 38 98 40 141 3z m-1808 -885 c6 -12 9 -165 7 -425 -3 -347 -5 -406 -18 -414 -18 -12 -157 -13 -164 -2 -3 5 6 32 20 61 45 98 26 150 -69 194 -28 14 -82 39 -119 57 -62 29 -68 35 -79 73 -15 56 -5 287 17 375 27 111 9 103 215 101 165 -1 180 -3 190 -20z m2050 -2 c46 -31 61 -67 70 -167 4 -47 8 -86 8 -87 1 -1 34 -3 74 -5 l72 -3 3 -108 3 -107 -98 -46 c-167 -78 -188 -89 -201 -115 -18 -33 -10 -82 26 -159 16 -36 42 -102 56 -147 l27 -83 -53 -87 c-66 -111 -215 -266 -323 -338 -118 -78 -334 -184 -417 -205 -21 -6 -57 -15 -79 -20 l-41 -11 -95 93 c-51 51 -104 98 -116 105 -55 31 -112 5 -193 -87 -89 -102 -123 -118 -182 -86 -15 8 -58 25 -97 37 -176 55 -383 183 -510 316 l-46 48 748 5 748 5 71 26 c147 53 259 144 315 256 30 62 33 76 34 158 0 148 -51 234 -211 356 l-52 40 80 81 c86 87 113 136 124 221 14 107 47 133 170 136 38 1 60 -5 85 -22z m-895 -608 c45 -14 78 -53 78 -94 0 -50 -22 -82 -73 -107 -44 -22 -57 -23 -286 -23 l-240 0 -3 117 -3 117 58 3 c100 6 437 -3 469 -13z m-1476 -75 c37 -36 35 -102 -4 -143 -36 -38 -75 -47 -115 -27 -41 21 -61 53 -61 96 0 93 112 139 180 74z m2610 26 c10 -5 28 -26 40 -45 38 -62 9 -129 -67 -155 -69 -24 -143 46 -129 123 13 67 97 109 156 77z m-1294 -1034 c26 -26 34 -42 34 -71 0 -54 -53 -105 -108 -105 -61 0 -102 43 -102 105 0 100 105 142 176 71z"/>
<path d="M1778 4207 c-77 -22 -124 -61 -161 -136 l-32 -66 -3 -342 -3 -343 130 0 131 0 0 290 c0 321 6 357 61 385 35 19 110 19 153 1 62 -26 66 -47 66 -380 l0 -296 135 0 135 0 -2 443 -3 442 -130 0 -130 0 -3 -44 c-3 -42 -4 -43 -18 -22 -8 11 -36 33 -61 48 -39 23 -60 27 -132 30 -50 2 -106 -3 -133 -10z"/>
<path d="M2828 4210 c-147 -26 -279 -146 -302 -272 l-7 -38 131 0 c87 0 130 4 130 11 0 22 43 70 80 89 78 40 203 18 216 -37 14 -54 -18 -75 -162 -109 -279 -67 -354 -127 -354 -284 0 -94 27 -148 100 -201 114 -83 329 -91 478 -17 78 39 172 168 172 236 0 22 -2 22 -125 22 -108 0 -125 -2 -125 -16 0 -49 -116 -113 -177 -98 -92 23 -106 92 -26 127 21 9 88 26 148 38 140 27 208 53 256 96 75 68 97 165 59 265 -27 73 -70 117 -153 158 -61 30 -76 33 -179 36 -62 2 -134 -1 -160 -6z"/>
<path d="M490 3609 l0 -601 338 4 c319 4 340 6 390 26 70 29 118 67 149 115 70 112 75 287 11 412 -20 39 -101 125 -117 125 -7 0 50 155 94 255 7 17 21 50 30 75 21 55 43 106 62 144 8 17 10 33 5 38 -5 5 -71 7 -148 6 l-139 -3 -63 -165 c-35 -91 -68 -178 -73 -195 -5 -16 -13 -39 -18 -50 -5 -11 -12 -28 -15 -38 -5 -16 -18 -17 -118 -15 l-113 3 -3 233 -2 232 -135 0 -135 0 0 -601z m595 -123 c71 -30 86 -134 26 -188 -36 -32 -92 -41 -241 -36 l-105 3 -3 118 -3 117 146 0 c103 0 156 -4 180 -14z"/>
<path d="M1112 2688 c-72 -29 -145 -96 -179 -166 -25 -52 -28 -67 -27 -162 0 -124 19 -176 89 -245 70 -71 121 -89 250 -90 99 0 116 3 165 26 71 34 127 90 159 159 22 48 25 68 25 155 -1 80 -5 109 -22 146 -32 68 -93 131 -158 164 -50 25 -73 29 -154 32 -79 2 -104 -1 -148 -19z m209 -171 c49 -33 64 -70 64 -158 0 -64 -4 -81 -25 -112 -65 -95 -192 -81 -241 27 -43 94 -6 224 71 255 43 17 95 12 131 -12z"/>
<path d="M596 2687 c-21 -7 -48 -25 -60 -40 -19 -26 -21 -45 -26 -245 l-5 -217 -42 -3 -43 -3 0 -74 0 -74 43 -3 42 -3 3 -113 3 -113 97 3 97 3 3 113 3 112 54 0 55 0 0 75 0 75 -55 0 -55 0 0 174 c0 172 0 174 23 180 12 3 37 6 55 6 l32 0 0 80 0 80 -92 -1 c-51 0 -111 -6 -132 -12z"/>
<path d="M2720 1524 c-102 -37 -149 -69 -189 -128 -75 -111 -82 -269 -16 -396 8 -15 37 -48 66 -74 130 -117 353 -113 487 8 78 71 116 201 93 322 -15 82 -38 129 -88 178 -68 67 -124 89 -238 92 -55 2 -107 1 -115 -2z m170 -183 c52 -37 70 -78 70 -155 0 -60 -4 -77 -25 -109 -62 -90 -180 -91 -236 -1 -32 53 -32 166 1 219 43 69 130 90 190 46z"/>
<path d="M3454 1522 c-46 -14 -111 -65 -141 -110 -47 -70 -66 -148 -61 -252 7 -155 83 -267 204 -305 88 -28 196 -8 227 42 21 34 27 4 27 -132 l0 -145 95 0 95 0 0 450 0 450 -95 0 -95 0 0 -30 c0 -37 -8 -37 -40 -4 -13 14 -35 30 -48 35 -26 10 -136 10 -168 1z m217 -182 c81 -59 90 -207 17 -290 -55 -62 -157 -51 -210 22 -32 45 -34 175 -3 226 42 70 129 89 196 42z"/>
<path d="M4172 1523 c-13 -3 -43 -23 -67 -46 -67 -66 -75 -105 -75 -389 l0 -238 99 0 99 0 4 239 c4 283 3 281 98 281 48 0 60 -4 81 -26 24 -25 24 -29 29 -257 l5 -232 98 -3 97 -3 0 336 0 335 -100 0 -100 0 0 -32 0 -32 -27 26 c-16 15 -41 32 -56 37 -27 11 -138 13 -185 4z"/>
<path d="M4983 1521 c-48 -12 -116 -56 -155 -99 -80 -88 -105 -253 -58 -377 29 -77 104 -152 181 -180 83 -31 216 -28 289 6 30 14 69 38 86 52 33 28 98 140 87 151 -3 3 -53 6 -109 6 -93 0 -103 -2 -109 -20 -11 -35 -54 -60 -102 -60 -88 0 -133 51 -141 159 -6 84 10 141 50 180 28 27 38 31 90 31 60 0 90 -18 104 -62 5 -16 18 -18 115 -18 60 0 109 2 109 4 0 19 -50 108 -79 139 -60 65 -120 90 -231 93 -52 2 -109 0 -127 -5z"/>
<path d="M6503 1511 c-120 -44 -191 -132 -210 -258 -34 -223 92 -392 305 -410 220 -18 384 127 386 340 1 138 -69 258 -182 314 -76 37 -219 44 -299 14z m209 -173 c44 -31 62 -74 62 -153 0 -49 -5 -80 -17 -103 -53 -99 -195 -95 -247 7 -36 71 -22 189 27 233 56 51 118 57 175 16z"/>
<path d="M462 1073 l3 -448 103 -3 102 -3 0 451 0 450 -105 0 -105 0 2 -447z"/>
<path d="M810 1185 l0 -335 95 0 c93 0 95 1 95 23 0 37 9 38 57 4 41 -30 51 -32 126 -32 94 1 150 23 187 75 42 58 50 119 50 368 l0 232 -99 0 -100 0 -3 -234 c-3 -232 -3 -235 -27 -260 -19 -20 -34 -26 -68 -26 -105 0 -116 27 -121 303 l-4 217 -94 0 -94 0 0 -335z"/>
<path d="M1664 1503 c-60 -30 -64 -48 -64 -281 l0 -211 -47 -3 -48 -3 0 -75 0 -75 45 -5 45 -5 3 -112 3 -113 94 0 95 0 0 115 0 114 58 3 57 3 0 75 0 75 -57 3 -58 3 0 158 c0 110 4 162 13 174 7 10 30 17 57 19 l45 3 3 78 3 77 -108 -1 c-76 0 -117 -5 -139 -16z"/>
<path d="M2012 1188 l3 -333 98 -3 97 -3 0 31 c0 36 8 37 38 5 26 -27 78 -45 130 -45 l32 0 0 95 0 95 -54 0 c-64 0 -99 23 -127 84 -16 35 -19 68 -19 224 l0 182 -100 0 -100 0 2 -332z"/>
<path d="M5645 1506 c-68 -30 -70 -35 -73 -277 l-3 -219 -45 0 -44 0 0 -80 0 -80 45 0 45 0 0 -115 0 -116 98 3 97 3 3 113 3 112 54 0 55 0 0 80 0 80 -55 0 -55 0 2 173 3 172 53 3 52 3 0 80 0 79 -102 0 c-63 -1 -115 -6 -133 -14z"/>
<path d="M5982 1188 l3 -333 98 -3 97 -3 0 336 0 335 -100 0 -100 0 2 -332z"/>
<path d="M7090 1185 l0 -336 98 3 97 3 0 28 c-1 31 7 34 26 10 23 -27 91 -53 144 -53 105 0 174 37 214 115 26 49 26 53 29 308 l3 257 -100 0 -100 0 -3 -229 c-3 -215 -4 -231 -24 -258 -18 -24 -29 -28 -75 -31 -48 -3 -58 0 -79 23 -25 26 -25 27 -28 261 l-3 234 -100 0 -99 0 0 -335z"/>
<path d="M6023 794 c-37 -18 -58 -68 -48 -113 8 -35 29 -55 76 -70 49 -16 112 8 128 47 15 40 16 44 9 78 -5 21 -18 39 -41 53 -41 25 -80 26 -124 5z"/>
</g>
<g id="layer105" fill="#f3f9fa" stroke="none">
<path d="M7074 5926 c-11 -17 -37 -57 -57 -88 -54 -84 -75 -81 -156 17 -51 61 -68 75 -91 75 -45 0 -65 -25 -101 -131 -34 -102 -34 -102 -140 -31 -50 34 -96 62 -103 62 -23 0 -55 -31 -64 -63 -6 -17 -13 -59 -17 -91 -4 -33 -9 -65 -12 -73 -8 -22 -47 -15 -126 22 -86 40 -109 43 -137 15 -18 -18 -20 -33 -20 -131 l0 -112 -53 7 c-30 3 -73 13 -97 21 -58 20 -73 19 -99 -9 l-22 -24 26 -103 26 -103 -25 -24 c-24 -25 -26 -25 -95 -14 -38 7 -80 12 -93 12 -63 -1 -70 -46 -23 -147 57 -122 48 -142 -66 -162 -141 -23 -176 -59 -122 -123 60 -71 94 -128 88 -147 -3 -12 -25 -25 -58 -36 -29 -9 -72 -26 -97 -36 -44 -19 -45 -20 -42 -59 4 -35 14 -49 73 -104 95 -87 94 -97 -18 -167 -73 -45 -89 -59 -91 -82 -4 -37 14 -56 99 -109 38 -23 71 -49 74 -57 7 -18 -39 -76 -96 -120 -24 -18 -48 -44 -52 -57 -12 -33 11 -67 55 -83 18 -7 41 -17 50 -22 10 -5 26 -9 35 -9 10 0 32 -11 48 -24 l30 -24 -19 -34 c-11 -18 -30 -44 -42 -57 -12 -13 -31 -43 -43 -67 -37 -73 -21 -85 149 -116 53 -9 76 -18 78 -29 2 -9 -11 -45 -28 -82 -41 -89 -46 -121 -26 -152 16 -24 21 -25 114 -25 129 0 137 -6 118 -81 -8 -30 -18 -78 -22 -106 -5 -44 -3 -54 16 -73 24 -24 27 -24 135 1 28 7 64 12 80 13 l30 1 3 -110 c4 -159 18 -169 146 -110 75 34 110 42 132 27 6 -4 19 -50 28 -102 9 -52 22 -100 28 -107 25 -30 101 -9 148 42 32 35 80 56 101 44 9 -4 22 -23 29 -41 7 -18 26 -61 41 -95 27 -60 30 -63 63 -63 29 0 40 7 75 51 22 28 52 60 67 71 24 20 29 20 52 7 14 -8 44 -45 67 -84 73 -124 117 -125 180 -3 39 75 58 97 86 98 8 0 46 -31 83 -70 105 -108 117 -106 175 37 29 70 41 89 59 91 20 3 122 -50 164 -85 9 -8 31 -13 49 -11 l34 3 20 95 c26 119 30 130 52 130 10 -1 57 -16 105 -34 51 -19 98 -31 113 -28 25 4 25 5 25 117 0 148 8 159 101 131 26 -8 71 -17 102 -21 78 -10 85 5 61 132 -24 126 -23 127 96 130 133 2 140 5 140 52 0 21 -12 65 -26 97 -45 101 -45 100 -23 128 11 14 23 25 27 24 4 -1 38 2 76 7 52 6 75 13 93 31 13 13 23 27 23 32 0 6 -15 32 -32 58 -94 140 -92 157 23 204 48 19 94 41 103 49 29 24 20 58 -23 85 -50 32 -111 104 -111 131 0 18 40 65 55 65 16 0 106 65 120 86 16 25 16 27 -7 51 -12 13 -56 45 -95 70 -94 58 -94 68 -3 157 38 37 72 77 75 88 10 30 -12 43 -187 107 -21 8 -28 17 -28 37 0 26 26 81 47 99 18 16 63 87 63 99 0 28 -29 46 -100 61 -41 8 -87 15 -101 15 -17 0 -29 8 -36 23 -8 18 -3 39 28 111 62 143 59 150 -84 147 -82 -1 -107 1 -116 13 -13 16 -11 61 8 171 9 49 8 63 -5 82 -16 25 -34 25 -124 2 -47 -12 -117 -11 -125 1 -4 6 -6 52 -6 102 1 148 -25 166 -149 103 -38 -19 -80 -35 -93 -35 -26 0 -54 26 -55 50 0 8 -4 48 -8 88 -6 61 -11 76 -32 92 -14 11 -30 20 -36 20 -7 0 -47 -27 -90 -60 -43 -33 -84 -60 -90 -60 -31 0 -56 35 -82 112 -32 99 -38 108 -73 108 -26 0 -101 -63 -101 -85 -1 -19 -60 -75 -78 -75 -23 0 -48 28 -97 105 -21 33 -39 61 -40 63 -1 1 -16 6 -32 11 -26 8 -31 5 -49 -23z m211 -497 c81 -10 160 -29 295 -72 91 -29 98 -35 110 -96 49 -249 64 -277 153 -274 28 0 79 8 112 17 105 28 127 24 190 -39 30 -31 55 -60 55 -65 0 -6 -107 -10 -287 -10 -341 0 -345 -1 -416 -98 -46 -63 -64 -114 -92 -252 -28 -148 -52 -214 -90 -253 -62 -64 -84 -69 -283 -71 -97 0 -185 2 -194 6 -16 6 -18 22 -18 117 l0 111 168 2 167 3 -2 208 c-1 114 -5 212 -8 217 -4 6 -190 10 -523 10 -284 0 -527 3 -539 6 -33 9 -29 21 26 75 53 54 72 58 140 34 23 -8 71 -18 106 -21 97 -10 129 18 154 136 6 30 21 84 32 120 l20 66 77 36 c180 84 411 116 647 87z m-912 -129 c29 -33 37 -93 17 -131 -15 -26 -62 -49 -104 -49 -39 0 -92 44 -102 86 -11 42 29 109 76 127 32 13 85 -2 113 -33z m1626 14 c62 -52 44 -154 -32 -183 -43 -16 -76 -9 -114 23 -24 21 -28 32 -28 76 0 46 4 55 33 81 43 38 98 40 141 3z m-1809 -885 c12 -21 15 -761 4 -806 -4 -15 -12 -31 -18 -35 -15 -10 -154 -10 -160 0 -3 5 6 32 20 61 47 103 26 149 -94 206 -42 21 -81 38 -87 39 -36 6 -76 44 -86 81 -15 53 -5 292 16 370 30 116 9 106 215 104 164 -1 182 -3 190 -20z m2051 -2 c46 -31 61 -67 70 -167 4 -47 8 -86 8 -87 1 -1 34 -3 74 -5 l72 -3 5 -95 c3 -52 3 -102 -1 -110 -8 -16 -34 -30 -134 -75 -131 -58 -144 -67 -160 -97 -8 -17 -15 -39 -15 -48 0 -15 40 -121 60 -158 5 -9 20 -54 35 -99 l26 -83 -53 -87 c-66 -111 -215 -266 -323 -338 -118 -78 -334 -184 -417 -205 -129 -33 -117 -33 -149 -3 -17 16 -58 56 -92 91 -34 35 -74 70 -89 78 -59 31 -111 8 -194 -86 -89 -102 -123 -118 -182 -86 -15 8 -58 25 -97 37 -130 40 -295 131 -412 225 -56 46 -145 135 -139 141 2 2 320 4 707 4 667 0 815 5 844 29 6 5 22 11 35 13 92 18 239 141 291 244 30 62 33 76 34 158 0 148 -51 234 -212 357 l-52 39 80 80 c86 86 114 135 125 222 14 107 47 133 170 136 38 1 60 -5 85 -22z m-895 -608 c74 -23 101 -103 56 -166 -38 -53 -103 -64 -357 -61 l-220 3 -3 123 -3 123 248 -6 c136 -4 262 -11 279 -16z m-1477 -75 c18 -16 25 -36 27 -66 2 -36 -3 -48 -28 -75 -39 -40 -77 -49 -117 -29 -41 21 -61 53 -61 96 0 93 112 139 179 74z m2611 26 c34 -18 63 -77 56 -115 -8 -39 -51 -80 -95 -90 -65 -14 -130 57 -117 128 13 67 97 109 156 77z m-1294 -1034 c26 -26 34 -42 34 -71 0 -55 -52 -105 -110 -105 -34 0 -48 6 -71 30 -24 25 -29 39 -29 79 0 43 4 53 31 75 46 39 101 36 145 -8z"/>
<path d="M1793 4211 c-90 -23 -142 -66 -181 -149 l-27 -57 -3 -342 -3 -343 130 0 131 0 0 290 c0 324 5 357 62 386 38 20 104 20 150 1 65 -27 68 -46 68 -381 l0 -296 135 0 135 0 -2 443 -3 442 -130 0 -130 0 -3 -42 -3 -43 -28 29 c-49 50 -88 64 -181 67 -47 2 -99 -1 -117 -5z"/>
<path d="M2828 4210 c-147 -26 -279 -146 -302 -272 l-7 -38 131 0 c87 0 130 4 130 11 0 22 43 70 80 89 78 40 203 18 216 -37 14 -54 -18 -75 -162 -110 -281 -67 -354 -126 -354 -283 0 -94 27 -148 100 -201 114 -83 329 -91 478 -17 78 39 172 168 172 236 0 22 -2 22 -125 22 -108 0 -125 -2 -125 -16 0 -49 -116 -113 -177 -98 -92 23 -106 92 -26 127 21 9 88 26 148 38 140 27 208 53 256 96 75 68 97 165 59 265 -27 73 -70 117 -153 158 -61 30 -76 33 -179 36 -62 2 -134 -1 -160 -6z"/>
<path d="M490 3609 l0 -601 338 4 c319 4 340 6 390 26 103 43 159 103 189 205 27 92 14 262 -24 308 -7 8 -13 21 -13 28 0 14 -95 111 -109 111 -7 0 48 151 94 255 7 17 21 50 30 75 21 55 43 106 62 144 8 17 10 33 5 38 -5 5 -71 7 -148 6 l-139 -3 -63 -165 c-35 -91 -68 -178 -73 -195 -5 -16 -13 -39 -18 -50 -5 -11 -12 -28 -15 -38 -5 -16 -18 -17 -118 -15 l-113 3 -3 233 -2 232 -135 0 -135 0 0 -601z m595 -123 c71 -30 86 -134 26 -188 -36 -32 -92 -41 -241 -36 l-105 3 -3 118 -3 117 146 0 c103 0 156 -4 180 -14z"/>
<path d="M3710 4200 c-68 -11 -95 -25 -127 -66 l-28 -37 -3 -289 -3 -288 -59 0 -60 0 0 -100 0 -100 60 0 60 0 0 -155 0 -156 128 3 127 3 3 153 3 152 74 0 75 0 0 100 0 100 -75 0 -75 0 0 223 c0 160 3 226 12 235 7 7 39 12 75 12 l64 0 -3 108 -3 107 -100 1 c-55 1 -120 -2 -145 -6z"/>
</g>
<g id="layer106" fill="#ffffff" stroke="none">
<path d="M7072 5926 c-9 -11 -12 -17 -6 -13 7 4 9 -2 6 -18 -2 -14 -8 -22 -13 -19 -5 3 -9 1 -9 -4 0 -4 -10 -19 -22 -32 -13 -13 -28 -37 -34 -54 -11 -33 -34 -47 -34 -22 0 20 -19 21 -26 1 -4 -8 -10 -15 -15 -15 -4 0 -6 7 -2 16 3 9 1 19 -4 23 -5 3 -15 15 -21 26 -10 17 -11 18 -12 3 0 -11 -7 -18 -17 -17 -11 0 -13 3 -5 6 19 7 14 23 -7 23 -11 0 -23 5 -26 10 -3 6 -1 10 4 10 17 0 13 18 -8 39 -21 21 -61 18 -61 -5 0 -8 -4 -14 -10 -14 -5 0 -10 9 -10 20 0 23 -6 25 -24 8 -7 -7 -11 -22 -9 -33 4 -16 3 -17 -6 -5 -10 13 -11 13 -12 0 -1 -8 -1 -20 0 -27 1 -6 -8 -27 -19 -46 -19 -32 -19 -67 1 -67 5 0 8 -10 8 -22 -1 -16 -3 -18 -6 -7 -6 22 -40 31 -47 12 -5 -11 -14 -13 -38 -8 -43 9 -53 16 -39 25 7 3 9 14 6 23 -7 18 -35 31 -35 17 0 -6 -9 -10 -20 -10 -25 0 -26 15 -2 30 14 8 12 9 -10 4 -20 -4 -28 -2 -28 8 0 7 -9 19 -21 26 -17 11 -25 11 -45 -2 -14 -10 -21 -22 -18 -31 4 -8 1 -15 -6 -15 -6 0 -8 -4 -5 -10 3 -5 1 -10 -4 -10 -6 0 -11 -7 -11 -15 0 -8 9 -15 20 -15 26 0 26 -26 -1 -33 -16 -4 -19 -10 -14 -28 5 -15 4 -19 -5 -14 -9 5 -10 2 -5 -14 4 -13 2 -21 -5 -21 -6 0 -8 -4 -5 -10 4 -6 -7 -10 -25 -10 -17 0 -33 -6 -36 -14 -3 -9 -12 -12 -21 -9 -14 5 -13 8 3 20 10 7 13 14 6 14 -21 2 -27 4 -39 12 -8 5 -13 4 -13 -2 0 -16 -46 -13 -64 4 -8 8 -22 15 -30 15 -9 0 -16 5 -16 11 0 8 -6 7 -17 -2 -14 -12 -16 -12 -9 1 5 9 2 9 -7 -2 -14 -18 -11 -78 4 -78 5 0 9 14 9 30 0 22 5 30 18 29 10 0 12 -3 5 -6 -7 -2 -13 -20 -13 -39 0 -22 -5 -34 -13 -34 -9 0 -12 -10 -9 -31 3 -22 1 -30 -7 -25 -6 4 -11 3 -11 -2 0 -5 9 -12 20 -15 11 -3 20 -12 20 -21 0 -10 -6 -13 -15 -10 -8 4 -16 1 -16 -5 -1 -6 -2 -17 -3 -23 -1 -7 -12 -13 -25 -13 -15 0 -27 -8 -32 -20 -6 -17 -8 -17 -8 -2 -1 19 -17 23 -23 5 -2 -6 -10 -8 -16 -4 -17 10 -15 24 6 28 12 3 10 6 -9 9 -22 5 -25 3 -21 -13 7 -29 -17 -21 -29 9 -6 16 -13 23 -17 17 -13 -21 -47 -33 -63 -23 -12 8 -11 12 5 24 11 8 15 15 10 15 -14 0 -54 -43 -54 -58 0 -7 5 -12 11 -12 5 0 7 -4 4 -10 -3 -5 1 -20 9 -32 9 -12 16 -17 16 -10 0 6 5 12 10 12 16 0 12 -27 -5 -34 -18 -7 -20 -37 -2 -33 28 5 14 -78 -19 -110 -7 -7 -14 -18 -16 -24 -3 -9 -9 -9 -26 0 -14 8 -22 8 -22 1 0 -5 -21 -10 -46 -10 -37 0 -47 -4 -51 -20 -4 -14 -13 -20 -32 -19 -23 2 -24 2 -3 6 29 6 32 58 3 66 -23 6 -46 -7 -37 -22 4 -6 2 -20 -4 -31 -8 -14 -8 -20 0 -20 6 0 8 -4 5 -10 -3 -5 -1 -10 4 -10 6 0 11 -6 11 -13 0 -9 10 -12 30 -9 l30 4 0 -60 c0 -34 -5 -64 -11 -67 -6 -4 -8 -13 -5 -20 3 -8 -6 -17 -22 -23 -52 -19 -107 -33 -137 -35 -28 -2 -65 -24 -65 -39 0 -3 9 -10 20 -13 25 -8 26 -33 3 -51 -17 -13 -16 -15 7 -33 14 -11 22 -23 18 -26 -3 -4 0 -14 8 -23 7 -10 21 -26 30 -37 8 -11 12 -13 8 -5 -5 12 -4 12 6 3 10 -9 7 -17 -15 -37 -15 -14 -24 -26 -18 -26 5 0 15 6 22 13 11 10 12 8 3 -8 -9 -19 -97 -58 -129 -58 -7 0 -13 -5 -13 -10 0 -5 -7 -7 -15 -3 -9 3 -15 0 -15 -10 0 -10 -6 -14 -14 -11 -10 4 -12 0 -9 -14 3 -10 12 -19 19 -19 8 0 14 -5 14 -10 0 -13 47 -65 60 -66 23 -3 24 -5 10 -14 -10 -6 -21 -4 -35 8 -12 9 -7 3 10 -14 18 -17 37 -33 44 -35 7 -3 14 -29 17 -62 5 -55 4 -57 -20 -57 -13 0 -26 5 -28 12 -3 8 -13 6 -34 -8 -16 -12 -37 -24 -46 -27 -25 -9 -23 -37 2 -37 11 0 20 -7 20 -15 0 -24 -28 -17 -43 11 -11 22 -15 23 -25 11 -15 -17 -6 -47 14 -47 8 0 17 -13 20 -30 4 -16 10 -27 15 -24 4 2 17 -4 29 -16 11 -11 26 -20 33 -20 8 0 7 4 -3 10 -13 8 -12 10 3 10 19 0 23 -15 6 -25 -6 -5 -4 -12 8 -21 27 -20 33 -17 33 16 0 17 5 30 10 30 13 0 8 -63 -5 -72 -6 -5 -4 -8 4 -8 11 0 11 -4 -3 -19 -16 -18 -12 -56 5 -45 10 6 12 -9 2 -19 -3 -4 -11 1 -18 10 -11 14 -15 13 -43 -12 -22 -20 -32 -38 -33 -59 -1 -25 -2 -27 -7 -10 -6 17 -11 20 -28 14 -21 -8 -40 -50 -23 -50 5 0 9 9 9 20 0 11 4 20 9 20 4 0 6 -11 3 -25 -3 -18 0 -25 11 -25 8 0 18 -7 21 -16 4 -12 1 -14 -14 -9 -18 6 -18 5 3 -19 17 -20 25 -22 36 -13 12 9 13 9 7 0 -7 -13 3 -17 35 -14 9 1 21 -5 28 -13 6 -8 21 -12 34 -9 18 4 19 3 7 -6 -13 -10 -13 -11 0 -12 8 -1 19 -1 24 0 5 1 6 -5 3 -13 -3 -8 -1 -17 6 -20 9 -5 9 -7 0 -12 -7 -3 -13 -14 -13 -24 0 -17 -22 -43 -31 -37 -2 2 -15 -8 -29 -22 -14 -13 -20 -21 -13 -18 8 5 8 1 0 -17 -7 -14 -16 -24 -21 -23 -5 1 -12 -10 -17 -25 -4 -16 -3 -28 2 -28 5 0 9 6 9 13 0 8 3 9 8 1 4 -6 14 -14 22 -17 12 -4 12 -6 -2 -6 -9 -1 -20 -7 -24 -13 -4 -7 -4 -10 0 -6 4 3 18 0 32 -7 27 -14 84 -11 95 6 4 7 8 5 12 -6 5 -10 3 -14 -5 -9 -6 4 -8 3 -5 -4 4 -5 16 -8 27 -5 11 3 20 1 20 -4 0 -5 10 -10 22 -10 30 -3 54 -34 34 -45 -16 -9 -30 -54 -27 -82 2 -10 -2 -15 -7 -12 -15 9 -45 -62 -38 -90 4 -14 11 -22 17 -19 5 4 9 3 8 -2 -5 -27 4 -30 69 -28 37 2 80 8 95 14 32 13 51 6 43 -15 -3 -8 1 -14 9 -14 8 0 15 9 15 20 0 11 5 20 10 20 6 0 10 -9 10 -20 0 -11 -5 -20 -11 -20 -7 0 -8 -11 -4 -31 6 -24 4 -30 -6 -24 -9 6 -11 3 -6 -8 3 -10 2 -17 -2 -17 -5 0 -7 -10 -3 -22 3 -14 1 -19 -6 -14 -8 5 -10 2 -6 -8 3 -9 11 -16 17 -16 6 0 3 -6 -8 -14 -12 -8 -16 -20 -12 -35 3 -11 1 -21 -4 -21 -10 0 10 -41 25 -51 18 -14 146 10 153 28 4 10 16 12 40 8 50 -8 54 -12 47 -51 -4 -22 -2 -34 5 -34 6 0 11 -17 11 -37 0 -28 -3 -34 -10 -23 -8 13 -10 13 -10 -2 0 -27 11 -48 26 -48 8 0 14 -7 14 -15 0 -9 -6 -12 -15 -9 -21 8 -19 -9 3 -29 23 -21 41 -22 56 -2 6 8 22 16 36 17 14 2 30 10 37 18 6 8 15 12 19 7 4 -4 15 0 24 8 14 13 23 13 61 2 24 -8 51 -12 59 -10 10 3 9 0 -2 -7 -24 -15 -23 -40 0 -33 16 4 19 -3 21 -54 1 -32 6 -62 12 -68 5 -5 9 -13 9 -17 0 -12 -36 24 -43 42 -4 12 -6 12 -6 -2 -1 -9 3 -19 9 -23 5 -3 6 -13 3 -22 -4 -11 -3 -14 5 -9 7 4 12 1 12 -9 0 -13 8 -15 42 -11 24 3 44 10 46 15 2 6 8 9 13 5 5 -3 8 -2 7 3 -2 4 0 8 4 8 3 0 18 11 32 24 24 22 24 25 8 37 -19 15 -5 19 17 5 10 -7 18 -5 26 6 7 9 19 13 31 9 20 -6 74 -95 74 -121 0 -8 5 -15 11 -15 5 0 7 -4 4 -10 -8 -13 23 -70 38 -70 7 0 39 27 72 60 33 33 65 58 72 55 7 -2 14 0 14 5 1 6 2 15 3 22 1 16 73 17 73 1 0 -6 -7 -8 -16 -5 -9 3 -1 -7 17 -22 17 -15 32 -32 32 -37 0 -6 9 -19 20 -31 11 -12 20 -28 20 -35 0 -7 5 -13 10 -13 18 0 11 48 -7 53 -13 3 -12 5 5 6 20 1 23 -3 22 -32 -3 -53 -1 -69 10 -62 6 3 10 2 10 -3 0 -5 10 -9 23 -8 12 1 21 7 20 14 -3 10 8 16 28 14 3 -1 6 6 6 14 0 8 -5 14 -11 14 -6 0 0 7 13 16 15 11 21 23 18 35 -3 11 0 19 6 19 7 0 25 14 40 30 16 17 37 30 47 30 21 0 137 -108 132 -123 -2 -6 5 -4 15 3 10 8 15 10 11 6 -5 -5 2 -16 13 -24 19 -13 23 -13 38 4 17 18 60 116 65 147 1 8 8 23 16 33 9 11 10 15 3 10 -7 -4 -13 -3 -13 2 0 5 11 12 25 14 14 3 22 1 18 -5 -3 -5 0 -7 8 -5 8 3 27 -6 42 -18 16 -13 37 -24 47 -24 10 0 22 -4 25 -10 3 -5 11 -10 16 -10 6 0 7 5 4 10 -3 6 -1 10 5 10 7 0 9 -7 6 -16 -3 -8 1 -23 10 -32 15 -15 16 -14 10 6 -6 17 -3 22 9 22 11 0 15 -5 11 -15 -4 -11 2 -15 24 -15 23 0 30 4 30 20 0 11 0 23 1 28 0 4 -10 10 -23 14 -22 6 -21 6 4 7 22 1 29 7 34 29 3 15 10 42 15 61 4 19 6 37 4 42 -6 8 25 23 40 19 6 -1 19 -3 30 -4 11 -1 35 -10 53 -19 17 -10 32 -14 32 -10 0 5 4 3 8 -2 13 -19 58 -33 85 -28 l27 5 0 124 c0 104 2 124 15 124 8 0 15 7 15 15 0 8 8 15 18 15 14 0 15 -2 2 -10 -13 -8 -12 -10 5 -11 11 -1 28 -1 38 -1 12 1 16 -2 11 -10 -5 -7 -2 -9 8 -5 9 3 19 3 23 -1 4 -4 16 -7 28 -8 12 0 39 -4 60 -8 33 -6 38 -4 48 18 9 19 7 44 -9 118 -18 84 -19 95 -4 111 14 15 13 17 -4 17 -15 0 -16 2 -5 9 11 7 9 10 -10 14 -19 3 -17 5 9 6 18 0 31 -3 28 -8 -3 -4 27 -9 67 -10 39 -1 84 -3 98 -5 14 -2 34 3 44 11 17 11 12 13 -41 14 -32 1 -51 3 -41 6 14 4 17 16 17 60 0 31 3 53 7 49 4 -4 6 -22 5 -41 -3 -35 3 -40 32 -29 18 7 22 49 5 59 -6 4 -8 14 -5 22 3 8 2 12 -3 9 -8 -5 -26 68 -22 88 1 5 -4 13 -11 17 -9 6 -6 9 9 9 12 0 24 4 28 9 5 9 44 17 125 25 19 2 38 4 42 5 4 0 15 12 23 25 19 29 11 52 -39 103 -22 24 -40 33 -63 33 -23 0 -33 5 -33 15 0 9 9 15 24 15 18 0 24 5 24 25 0 31 -5 31 -31 3 l-20 -23 6 25 c4 14 7 40 7 58 0 22 5 32 15 32 17 0 20 -16 5 -25 -13 -8 -13 -25 -1 -25 5 0 16 7 24 15 8 8 18 11 22 7 5 -4 6 0 2 10 -4 12 2 18 21 23 15 4 21 10 15 12 -26 9 -13 33 17 33 17 0 30 -4 30 -10 0 -5 -4 -10 -8 -10 -5 0 -9 -6 -9 -14 0 -11 5 -11 25 0 14 7 29 11 34 8 4 -3 8 -1 8 5 0 5 -6 12 -12 14 -8 3 -6 6 5 6 9 1 17 -5 17 -11 1 -7 9 -3 19 9 23 27 17 68 -8 57 -38 -15 -51 -16 -51 -2 0 8 9 19 19 24 17 8 16 11 -19 35 -24 18 -42 24 -51 18 -10 -6 -8 -12 10 -28 24 -21 18 -27 -13 -15 -9 3 -16 17 -16 30 0 13 -4 24 -10 24 -18 0 -11 18 10 25 18 6 18 9 6 28 -8 12 -14 37 -14 55 -1 30 1 32 26 26 22 -5 24 -3 12 6 -12 9 -10 11 11 6 19 -4 29 -1 33 10 3 8 10 12 16 9 5 -3 10 -2 10 3 0 5 16 17 35 26 39 19 46 27 16 19 -16 -4 -19 -1 -14 16 3 13 1 21 -7 21 -14 0 -40 25 -40 39 0 6 5 11 10 11 6 0 10 5 10 10 0 7 -6 7 -19 0 -29 -15 -61 -12 -61 5 0 8 7 15 15 15 22 0 18 17 -9 35 -28 19 -62 11 -43 -10 7 -7 15 -11 20 -8 4 2 7 -7 7 -21 0 -16 -6 -26 -15 -26 -8 0 -15 7 -15 15 0 8 -4 15 -10 15 -5 0 -10 6 -10 14 0 8 -5 16 -11 18 -7 2 -9 13 -4 27 5 17 12 21 27 18 17 -5 19 -2 15 19 -3 18 1 28 17 36 34 17 65 58 59 76 -5 13 -3 14 7 5 18 -16 44 -5 29 13 -6 7 -8 18 -4 24 4 7 -2 9 -19 4 -20 -5 -26 -2 -26 10 0 9 8 16 18 17 9 0 12 3 5 5 -7 3 -10 11 -7 19 3 7 -4 18 -15 25 -12 6 -21 8 -21 5 0 -3 -11 2 -25 11 -14 9 -25 13 -25 8 0 -4 -5 -3 -11 3 -6 6 -17 9 -24 6 -28 -10 -37 84 -9 100 24 14 15 24 -16 19 -23 -3 -30 0 -30 12 0 13 9 15 43 13 27 -1 41 2 40 9 -1 7 8 23 20 36 13 14 22 37 22 57 1 31 0 32 -31 26 -22 -4 -34 -1 -36 7 -4 11 -8 11 -20 0 -9 -7 -23 -10 -32 -6 -9 3 -16 1 -16 -5 0 -6 -6 -11 -14 -11 -9 0 -12 8 -9 24 4 18 0 25 -18 29 -13 3 -28 2 -33 -3 -7 -5 -21 0 -36 12 l-25 21 29 -7 29 -7 -17 26 c-15 22 -15 26 -1 31 23 9 18 23 -7 18 -21 -4 -22 -4 -3 5 32 14 90 132 81 164 -6 25 -10 27 -56 27 -33 0 -50 -4 -50 -12 0 -9 -3 -8 -10 2 -8 12 -10 12 -16 -3 -7 -18 -44 -24 -44 -7 0 6 -8 10 -18 10 -11 0 -27 9 -36 19 -15 16 -17 30 -11 78 14 115 15 143 4 143 -14 0 -39 26 -39 39 0 18 -25 7 -32 -14 -6 -19 -6 -18 -7 3 -1 21 -21 33 -21 12 0 -6 -6 -10 -12 -9 -7 1 -30 1 -51 0 -30 -1 -40 -6 -44 -21 -4 -16 -11 -19 -27 -14 -26 8 -45 24 -28 24 7 0 12 4 12 10 0 5 -7 7 -15 4 -8 -4 -15 -14 -15 -23 0 -10 -3 -12 -8 -5 -4 6 -14 14 -22 17 -12 4 -11 6 3 6 9 1 17 8 17 16 0 8 7 15 15 15 8 0 15 6 16 13 0 6 2 31 5 55 4 27 2 42 -5 42 -6 0 -11 9 -11 19 0 14 -8 21 -27 24 l-28 4 28 2 c22 1 27 6 27 28 0 14 -3 24 -6 20 -3 -3 -17 -2 -30 3 -15 6 -24 6 -24 0 0 -5 -7 -6 -17 -3 -9 4 -14 2 -11 -3 3 -5 0 -14 -7 -21 -11 -10 -15 -10 -18 0 -3 7 -6 3 -6 -8 -1 -17 -3 -17 -11 -5 -7 11 -10 4 -10 -27 0 -24 -4 -43 -9 -43 -6 0 -7 15 -4 34 5 32 3 34 -16 29 -11 -3 -21 -9 -21 -13 0 -14 -44 -20 -52 -7 -6 9 -8 9 -8 0 0 -7 -7 -13 -16 -13 -14 0 -14 3 -4 15 10 12 10 15 0 15 -8 0 -11 9 -8 25 3 14 1 25 -3 25 -5 0 -9 7 -9 15 0 9 -10 15 -22 16 -17 1 -19 2 -5 6 9 2 17 8 17 13 0 5 3 15 6 24 4 10 1 16 -9 16 -8 0 -17 7 -21 15 -3 8 -1 15 5 15 6 0 9 8 7 18 -2 12 -11 16 -31 14 -15 -2 -27 1 -27 7 0 15 -27 14 -36 -1 -5 -7 -3 -8 6 -3 8 5 11 3 8 -6 -3 -8 -13 -13 -22 -11 -19 3 -66 -41 -66 -61 0 -7 -4 -6 -10 3 -8 12 -10 12 -10 -5 0 -17 -2 -17 -10 -5 -8 13 -10 12 -11 -5 -1 -11 -1 -24 0 -28 1 -5 -3 -6 -9 -2 -5 3 -10 12 -10 20 0 8 -4 17 -10 20 -6 3 -7 -1 -4 -9 4 -10 1 -16 -9 -16 -9 0 -18 13 -22 32 -4 18 -11 39 -16 48 -5 8 -13 35 -19 59 -8 29 -18 45 -31 48 -18 5 -18 7 -3 17 15 11 15 13 0 25 -9 8 -19 11 -23 7 -3 -3 -1 -6 5 -6 7 0 12 -4 12 -10 0 -5 -7 -10 -15 -10 -8 0 -15 7 -15 16 0 24 -34 12 -38 -13 -2 -14 -8 -20 -17 -17 -10 4 -12 -1 -9 -18 2 -13 2 -17 -2 -10 -9 18 -24 15 -17 -5 5 -11 3 -14 -6 -8 -10 6 -11 3 -2 -13 7 -14 8 -23 1 -27 -5 -3 -10 1 -10 10 0 9 -5 13 -10 10 -6 -4 -8 -10 -5 -15 3 -4 -4 -10 -14 -13 -14 -3 -17 -11 -14 -31 4 -17 1 -26 -7 -26 -7 0 -10 6 -7 13 3 8 -3 14 -15 14 -16 2 -19 -3 -15 -23 2 -13 0 -24 -4 -24 -8 0 -14 31 -10 53 1 5 -3 6 -8 3 -5 -3 -14 1 -21 9 -7 8 -9 15 -5 15 9 0 -35 72 -54 88 -9 7 -17 17 -17 22 -1 6 -2 14 -3 19 0 5 -17 11 -36 13 -26 3 -40 -1 -53 -16z m25 -8 c-3 -8 -6 -5 -6 6 -1 11 2 17 5 13 3 -3 4 -12 1 -19z m363 -8 c0 -5 -4 -10 -10 -10 -5 0 -10 5 -10 10 0 6 5 10 10 10 6 0 10 -4 10 -10z m-320 -46 c0 -2 -7 -4 -15 -4 -8 0 -15 4 -15 10 0 5 7 7 15 4 8 -4 15 -8 15 -10z m-313 0 c-3 -3 -12 -4 -19 -1 -8 3 -5 6 6 6 11 1 17 -2 13 -5z m-87 -71 c0 -18 -6 -23 -25 -23 -14 0 -25 -5 -25 -11 0 -5 -5 -7 -12 -3 -8 5 -5 11 11 18 17 7 21 15 17 32 -4 13 -1 24 7 27 15 5 27 -12 27 -40z m790 25 c0 -13 -32 -6 -37 9 -3 7 3 9 16 6 12 -3 21 -10 21 -15z m-1120 -18 c0 -5 -4 -10 -10 -10 -5 0 -10 5 -10 10 0 6 5 10 10 10 6 0 10 -4 10 -10z m770 -15 c0 -8 -4 -15 -10 -15 -5 0 -10 7 -10 15 0 8 5 15 10 15 6 0 10 -7 10 -15z m-753 -32 c-4 -3 -7 0 -7 7 0 7 3 10 7 7 3 -4 3 -10 0 -14z m-40 -10 c-4 -3 -7 0 -7 7 0 7 3 10 7 7 3 -4 3 -10 0 -14z m1437 1 c3 -8 2 -12 -4 -9 -6 3 -10 10 -10 16 0 14 7 11 14 -7z m-307 -31 c-4 -3 -10 -3 -14 0 -3 4 0 7 7 7 7 0 10 -3 7 -7z m190 -30 c-4 -3 -7 0 -7 7 0 7 3 10 7 7 3 -4 3 -10 0 -14z m110 0 c-4 -3 -7 0 -7 7 0 7 3 10 7 7 3 -4 3 -10 0 -14z m-1427 -18 c0 -8 -4 -15 -10 -15 -5 0 -7 7 -4 15 4 8 8 15 10 15 2 0 4 -7 4 -15z m157 9 c-3 -3 -12 -4 -19 -1 -8 3 -5 6 6 6 11 1 17 -2 13 -5z m1050 0 c-3 -3 -12 -4 -19 -1 -8 3 -5 6 6 6 11 1 17 -2 13 -5z m-1287 -114 c0 -11 -6 -20 -13 -20 -19 0 -27 10 -20 26 8 21 33 17 33 -6z m40 4 c0 -2 -7 -4 -15 -4 -8 0 -15 4 -15 10 0 5 7 7 15 4 8 -4 15 -8 15 -10z m-75 -34 c3 -5 -3 -10 -14 -10 -12 0 -21 5 -21 10 0 6 6 10 14 10 8 0 18 -4 21 -10z m723 -96 c5 3 66 6 135 7 125 1 167 -5 299 -41 37 -11 77 -17 88 -15 11 2 18 0 16 -4 -7 -11 62 -31 82 -24 10 4 13 2 8 -5 -4 -7 10 -16 41 -25 43 -12 48 -17 51 -45 2 -17 -2 -41 -8 -53 -10 -17 -9 -20 1 -14 9 6 11 -2 6 -33 -3 -25 -1 -45 5 -49 6 -3 8 -1 5 5 -5 6 1 8 15 4 19 -5 20 -7 6 -10 -25 -5 -23 -32 2 -32 12 0 20 -7 20 -16 0 -14 -3 -14 -15 -4 -28 23 -19 -43 10 -70 19 -18 31 -22 60 -17 21 3 33 2 30 -4 -4 -5 4 -5 19 1 14 5 26 7 26 4 0 -4 6 -1 14 5 8 7 31 13 50 14 20 1 36 5 36 9 0 4 7 5 15 2 8 -4 15 -1 15 5 0 6 -8 11 -17 11 -9 0 -14 2 -11 5 3 3 19 2 37 -1 23 -5 29 -9 19 -15 -8 -6 0 -9 25 -9 20 0 37 -5 37 -11 0 -5 -5 -7 -12 -3 -7 4 -8 3 -4 -5 4 -6 11 -9 16 -6 4 3 15 -7 25 -21 9 -14 19 -23 22 -20 8 7 43 -12 43 -24 0 -5 -8 -7 -17 -4 -13 4 -11 0 5 -12 28 -21 31 -74 5 -74 -12 0 -14 3 -6 8 18 12 12 51 -7 44 -21 -8 -40 -28 -33 -36 4 -3 -24 -6 -62 -6 -50 0 -73 5 -87 17 -23 21 -115 25 -176 7 -24 -7 -51 -10 -60 -7 -10 4 -13 2 -8 -5 5 -9 -7 -12 -43 -12 -40 0 -53 4 -61 20 -11 21 -18 20 -87 -12 -57 -26 -65 -38 -57 -87 7 -44 -9 -59 -20 -18 -6 21 -6 21 -25 -8 -16 -25 -17 -32 -5 -41 20 -16 17 -27 -6 -21 -13 3 -20 0 -21 -9 -2 -23 -4 -28 -12 -41 -4 -6 -3 -14 3 -18 5 -3 10 -2 10 3 0 5 9 12 19 15 26 7 17 -16 -12 -28 -17 -8 -22 -18 -21 -43 1 -17 -2 -30 -6 -27 -5 3 -11 1 -15 -4 -3 -5 3 -15 12 -21 17 -10 16 -10 -2 -8 -17 3 -20 -2 -18 -34 2 -21 -2 -38 -8 -38 -6 0 -8 -4 -4 -9 3 -5 1 -12 -4 -15 -5 -4 -8 -22 -6 -40 2 -29 0 -34 -14 -29 -9 4 -13 3 -9 -2 4 -4 3 -14 -4 -22 -6 -7 -8 -17 -4 -20 4 -4 11 -1 16 7 8 12 10 11 10 -7 0 -50 -35 -76 -43 -30 -3 20 -4 20 -12 3 -5 -12 -3 -21 6 -26 16 -10 9 -19 -19 -25 -16 -3 -19 1 -14 18 5 19 3 20 -10 10 -8 -7 -18 -10 -21 -6 -4 3 -7 -1 -7 -10 0 -10 5 -17 10 -17 6 0 10 -5 10 -11 0 -6 -8 -9 -17 -7 -10 2 -17 11 -17 21 1 12 -2 14 -13 8 -9 -4 -35 -6 -59 -3 -30 3 -44 1 -44 -7 0 -8 -5 -9 -19 -1 -25 13 -34 13 -26 0 9 -14 -21 -12 -45 3 -17 10 -22 9 -29 -2 -6 -9 -15 -11 -27 -6 -27 12 -75 14 -68 4 6 -11 -19 -12 -30 -2 -15 15 -46 9 -46 -9 0 -11 -7 -18 -17 -18 -14 0 -15 2 -5 9 11 7 11 9 -2 14 -8 3 -17 1 -20 -6 -2 -7 -5 -4 -5 6 -1 10 6 17 17 17 15 0 18 11 21 71 3 82 -6 149 -21 149 -5 0 -16 7 -25 16 -12 12 -13 18 -4 27 9 9 14 8 21 -3 5 -8 10 -10 10 -5 0 6 63 10 169 10 93 0 172 3 176 7 10 9 10 347 1 376 -7 20 -12 21 -49 15 -23 -3 -44 -10 -46 -16 -2 -5 -7 -3 -12 4 -7 11 -68 15 -308 17 -290 3 -301 2 -320 -17 -21 -21 -48 -19 -63 3 -5 7 -66 12 -165 13 -87 1 -162 2 -166 2 -5 1 1 15 13 32 14 18 28 28 37 25 10 -4 13 -1 8 13 -4 14 0 21 15 26 11 4 17 11 14 17 -5 7 0 9 14 6 14 -4 20 -2 15 5 -4 6 0 8 10 4 10 -3 17 -2 17 3 0 6 7 10 15 10 8 0 15 5 15 10 0 6 5 10 11 10 5 0 8 -4 4 -9 -7 -12 12 -24 42 -27 14 -2 23 3 23 12 0 8 -5 14 -12 14 -6 0 -9 2 -6 5 10 11 38 -8 38 -25 0 -29 46 -39 113 -26 46 9 62 18 77 41 12 19 17 38 13 54 -4 17 -2 22 6 17 6 -4 11 -1 11 7 0 10 -7 14 -22 10 -22 -4 -22 -4 1 9 33 18 47 68 24 86 -10 7 -12 12 -4 12 7 0 9 5 6 11 -4 6 0 9 11 7 15 -2 20 4 22 30 2 22 8 32 20 32 14 0 15 2 2 9 -10 7 -2 13 33 22 26 6 50 15 52 20 3 4 12 6 20 3 9 -4 18 2 23 17 6 15 11 18 16 11 4 -7 13 -9 19 -5 6 4 18 8 27 9 59 8 187 37 194 45 6 5 15 4 22 -2 7 -6 17 -8 22 -5z m-281 -21 c-4 -3 -7 0 -7 7 0 7 3 10 7 7 3 -4 3 -10 0 -14z m-827 -23 c0 -5 -4 -10 -10 -10 -5 0 -10 5 -10 10 0 6 5 10 10 10 6 0 10 -4 10 -10z m199 -27 c0 -33 -1 -35 -9 -15 -8 20 -4 52 6 52 2 0 4 -17 3 -37z m2218 20 c-4 -3 -7 0 -7 7 0 7 3 10 7 7 3 -4 3 -10 0 -14z m-376 -6 c-34 -17 -31 -30 8 -33 18 -1 43 -12 55 -23 12 -12 28 -21 35 -21 6 0 11 -8 9 -17 -2 -12 3 -17 15 -15 15 3 17 -4 15 -55 -2 -53 -10 -72 -31 -73 -4 0 -3 9 3 19 13 26 13 51 -1 51 -6 0 -9 -7 -5 -15 3 -8 1 -15 -4 -15 -6 0 -10 -6 -10 -14 0 -17 -23 -36 -47 -41 -10 -2 -19 -4 -20 -5 -2 -2 -7 -3 -12 -4 -5 0 -13 -4 -17 -8 -14 -14 -36 -9 -30 7 3 10 -3 17 -19 21 -14 3 -25 10 -25 15 0 5 -15 13 -32 18 -18 5 -26 10 -17 10 13 1 16 11 15 46 0 25 -5 45 -9 45 -14 0 -37 -28 -37 -44 0 -9 -4 -16 -10 -16 -15 0 -12 50 3 51 10 0 10 2 0 6 -7 2 -13 11 -13 19 0 17 46 19 54 2 3 -9 10 -7 23 8 10 12 29 26 41 33 12 6 25 23 28 36 5 19 13 25 33 25 l26 0 -24 -13z m-1736 -45 c-6 -4 -16 -19 -24 -34 -8 -16 -16 -26 -18 -25 -7 7 29 67 40 67 8 0 8 -3 2 -8z m150 -6 c18 -8 37 -11 41 -8 4 4 4 1 0 -5 -5 -9 1 -13 18 -13 26 0 36 -15 15 -22 -7 -2 -13 -24 -14 -48 -1 -25 -3 -46 -5 -47 -1 -2 -3 -9 -4 -15 0 -7 -11 -17 -24 -23 -12 -5 -25 -18 -28 -28 -3 -10 -10 -14 -17 -10 -7 5 -29 8 -49 9 -20 0 -44 7 -53 14 -10 8 -32 13 -51 11 -31 -2 -34 0 -34 26 0 43 11 73 26 73 8 0 14 9 14 20 0 11 4 20 9 20 5 0 11 9 14 19 9 35 88 49 142 27z m1672 -13 c-4 -3 -7 0 -7 7 0 7 3 10 7 7 3 -4 3 -10 0 -14z m-1900 -95 c-3 -8 -6 -5 -6 6 -1 11 2 17 5 13 3 -3 4 -12 1 -19z m317 -78 c-6 -6 -10 7 -10 33 l-1 42 10 -33 c6 -20 7 -36 1 -42z m-47 -42 c-3 -8 -6 -5 -6 6 -1 11 2 17 5 13 3 -3 4 -12 1 -19z m1630 0 c-3 -8 -6 -5 -6 6 -1 11 2 17 5 13 3 -3 4 -12 1 -19z m-1817 2 c0 -5 -7 -10 -15 -10 -8 0 -15 5 -15 10 0 6 7 10 15 10 8 0 15 -4 15 -10z m2390 -11 c0 -5 -4 -9 -10 -9 -5 0 -10 7 -10 16 0 8 5 12 10 9 6 -3 10 -10 10 -16z m-2763 -6 c-4 -3 -10 -3 -14 0 -3 4 0 7 7 7 7 0 10 -3 7 -7z m2070 1 c-3 -3 -12 -4 -19 -1 -8 3 -5 6 6 6 11 1 17 -2 13 -5z m570 -1 c-4 -3 -10 -3 -14 0 -3 4 0 7 7 7 7 0 10 -3 7 -7z m-2340 -39 c-3 -3 -12 -4 -19 -1 -8 3 -5 6 6 6 11 1 17 -2 13 -5z m1863 -3 c0 -5 -9 -11 -20 -14 -11 -3 -20 -1 -20 3 0 5 -8 11 -17 13 -10 3 -1 5 20 6 20 0 37 -3 37 -8z m647 -8 c-4 -3 -10 -3 -14 0 -3 4 0 7 7 7 7 0 10 -3 7 -7z m-467 -53 c0 -11 -2 -20 -5 -20 -2 0 -9 9 -15 20 -9 16 -8 20 5 20 8 0 15 -9 15 -20z m-2136 -141 c-3 -5 -17 -8 -32 -8 -17 1 -21 3 -9 6 9 2 17 8 17 13 0 5 7 7 15 4 8 -4 12 -10 9 -15z m1593 -5 c-3 -3 -12 -4 -19 -1 -8 3 -5 6 6 6 11 1 17 -2 13 -5z m-77 -29 c0 -14 -4 -25 -10 -25 -5 0 -10 11 -10 25 0 14 5 25 10 25 6 0 10 -11 10 -25z m1160 -25 c0 -5 -4 -10 -10 -10 -5 0 -10 5 -10 10 0 6 5 10 10 10 6 0 10 -4 10 -10z m54 -45 c-4 -8 -8 -15 -10 -15 -2 0 -4 7 -4 15 0 8 4 15 10 15 5 0 7 -7 4 -15z m-3227 -92 c-4 -3 -10 -3 -14 0 -3 4 0 7 7 7 7 0 10 -3 7 -7z m11 -48 c0 -19 -4 -35 -9 -35 -10 0 -11 16 -3 48 9 31 12 28 12 -13z m3166 -42 c-5 -5 -12 -12 -16 -18 -4 -6 -8 -2 -8 8 0 9 7 17 17 17 9 0 12 -3 7 -7z m30 -48 c3 -9 0 -15 -9 -15 -8 0 -15 7 -15 15 0 8 4 15 9 15 5 0 11 -7 15 -15z m-3304 -15 c0 -5 -12 -10 -27 -9 l-28 1 25 8 c14 4 26 8 28 9 1 1 2 -3 2 -9z m2680 -14 c0 -8 -8 -17 -17 -19 -14 -4 -13 -5 4 -6 13 0 28 8 35 19 19 29 78 24 78 -7 0 -12 8 -13 40 -8 33 6 40 4 40 -9 0 -9 5 -16 10 -16 6 0 10 -7 10 -15 0 -19 -14 -19 -34 1 -9 8 -16 11 -16 5 0 -5 5 -13 10 -16 6 -3 10 -15 10 -26 0 -10 4 -19 10 -19 5 0 7 7 4 15 -4 8 -1 15 5 15 8 0 9 -25 6 -82 -3 -46 -2 -89 3 -95 11 -17 72 -29 72 -14 0 6 9 11 20 11 11 0 20 -5 20 -11 0 -7 11 -8 30 -4 26 6 30 4 30 -14 0 -11 -4 -23 -10 -26 -5 -3 -10 -12 -9 -18 0 -9 2 -9 6 1 7 17 33 15 33 -3 0 -8 -6 -15 -14 -15 -15 0 -32 -37 -22 -47 3 -4 6 -1 6 5 0 7 7 12 15 12 8 0 15 -7 15 -15 0 -8 -6 -15 -14 -15 -16 0 -32 -53 -18 -58 5 -1 7 -14 4 -29 -4 -20 -2 -24 9 -18 8 5 11 5 7 1 -3 -4 -9 -7 -12 -6 -10 2 -66 -34 -66 -42 0 -4 7 -8 15 -8 8 0 15 7 15 15 0 9 6 12 15 9 27 -11 17 -34 -15 -34 -20 0 -30 -5 -30 -15 0 -8 -7 -15 -15 -15 -11 0 -12 5 -5 25 12 31 6 31 -51 3 -24 -12 -47 -21 -50 -20 -4 1 -5 -9 -2 -21 3 -16 2 -18 -5 -8 -11 15 -62 8 -62 -10 0 -6 -4 -8 -9 -5 -5 4 -15 -7 -22 -23 -7 -16 -16 -28 -20 -25 -9 5 -20 -52 -13 -70 3 -8 12 -12 20 -9 17 6 18 -9 2 -25 -9 -9 -8 -12 4 -12 9 0 19 6 21 13 3 6 6 -3 6 -20 1 -19 -4 -33 -11 -33 -6 0 -4 -7 5 -18 10 -10 17 -26 17 -35 0 -9 4 -18 10 -22 5 -3 7 -12 3 -20 -4 -11 2 -15 23 -15 32 0 54 -33 54 -82 0 -21 -5 -28 -20 -28 -13 0 -20 -7 -20 -20 0 -11 5 -20 11 -20 5 0 7 -4 4 -10 -10 -16 -25 -12 -25 8 -1 10 -7 3 -15 -15 -8 -18 -19 -33 -25 -33 -6 0 -9 -4 -5 -10 3 -5 -3 -18 -15 -30 -11 -11 -20 -32 -21 -47 0 -16 -3 -22 -6 -15 -8 21 -25 13 -18 -9 5 -14 3 -19 -3 -15 -6 3 -49 -31 -96 -76 -102 -98 -106 -102 -134 -117 -18 -10 -20 -16 -12 -31 13 -24 13 -40 0 -40 -5 0 -10 9 -10 20 0 17 -3 19 -19 11 -10 -6 -21 -7 -25 -4 -4 4 -9 -3 -13 -16 -4 -14 -8 -18 -13 -11 -5 8 -11 7 -22 -4 -9 -8 -18 -12 -22 -9 -3 4 -6 0 -6 -7 0 -7 -3 -10 -6 -7 -12 11 -43 -13 -38 -28 7 -18 -12 -20 -20 -2 -5 10 -7 10 -12 0 -3 -7 -14 -13 -25 -13 -10 0 -19 -4 -19 -10 0 -5 -9 -10 -20 -10 -12 0 -24 -10 -30 -22 -5 -13 -9 -19 -9 -15 -1 5 -8 1 -17 -7 -8 -9 -20 -16 -25 -16 -12 0 -12 17 1 23 6 3 5 4 -2 3 -7 -1 -17 -12 -23 -24 -11 -24 -30 -31 -21 -7 3 8 1 15 -4 15 -6 0 -10 -5 -10 -11 0 -6 -9 -8 -21 -4 -12 4 -24 2 -28 -3 -11 -19 -86 -31 -104 -17 -9 7 -13 16 -9 20 4 5 2 5 -5 1 -7 -4 -18 2 -25 13 -11 18 -13 18 -24 3 -7 -9 -16 -14 -20 -10 -4 4 -1 14 6 23 11 13 2 25 -53 81 -37 36 -71 63 -77 59 -5 -3 -10 -1 -10 5 0 12 -38 7 -68 -9 -11 -6 -22 -8 -25 -5 -3 4 -16 -9 -28 -27 -11 -19 -18 -26 -15 -16 3 11 2 16 -4 12 -6 -3 -10 -11 -10 -17 0 -6 -8 -17 -17 -24 -16 -11 -13 -13 20 -10 26 2 37 -2 37 -11 0 -18 -25 -27 -47 -17 -26 11 -48 10 -48 -1 0 -6 -12 -24 -27 -40 -16 -16 -28 -35 -28 -42 0 -7 -4 -13 -10 -13 -5 0 -10 7 -10 16 0 12 -7 15 -28 12 -17 -2 -35 3 -46 13 -14 14 -24 15 -46 8 -40 -15 -94 1 -98 29 -4 24 -36 31 -48 10 -5 -8 0 -9 14 -6 12 4 22 2 22 -3 0 -5 -13 -8 -30 -7 -21 2 -30 8 -30 19 0 10 5 19 11 21 6 2 -7 11 -28 21 -29 13 -33 14 -19 2 11 -8 24 -15 29 -15 4 0 5 -5 1 -11 -6 -11 -54 -4 -64 9 -3 4 -18 13 -34 20 -27 12 -28 13 -10 27 18 14 18 14 -2 15 -12 0 -27 7 -34 15 -9 11 -23 14 -44 10 -25 -5 -28 -4 -14 5 15 9 15 14 5 24 -6 8 -15 12 -19 9 -5 -2 -8 0 -8 6 0 6 -12 8 -29 5 -23 -5 -35 -1 -55 19 -14 14 -34 31 -43 36 -17 10 -17 10 0 11 22 0 21 9 -3 40 -12 15 -18 18 -14 8 4 -12 1 -18 -9 -18 -10 0 -13 7 -10 19 4 16 1 19 -16 14 -17 -4 -20 -2 -15 11 5 12 0 16 -20 16 l-26 0 20 20 c20 20 33 20 407 21 264 0 391 3 400 11 9 7 13 7 13 -1 0 -8 52 -11 175 -11 114 0 175 4 175 10 0 7 8 7 22 -1 16 -8 57 -10 147 -4 69 4 138 8 154 9 15 0 27 5 27 9 0 5 6 7 13 4 6 -2 27 4 45 15 19 12 32 15 32 8 0 -6 5 -8 10 -5 6 4 8 11 4 16 -3 6 0 10 7 8 30 -4 46 2 69 24 14 12 26 21 27 19 2 -1 11 3 21 9 13 8 17 20 14 38 -4 22 -3 24 9 14 10 -8 20 -9 29 -3 13 8 12 10 -2 10 -10 0 -18 5 -18 10 0 6 11 8 25 4 20 -5 26 -1 35 20 5 14 14 26 20 26 5 0 10 6 10 14 0 8 6 21 13 28 23 24 37 66 24 71 -8 3 -6 11 7 25 16 18 18 33 13 94 -5 83 -30 144 -82 203 -20 22 -33 32 -29 23 4 -13 1 -18 -10 -18 -19 0 -21 -21 -4 -38 9 -9 8 -12 -4 -12 -20 0 -31 60 -12 67 14 5 28 34 15 30 -5 -1 -19 8 -32 20 -52 49 -79 72 -79 66 0 -4 -6 2 -14 13 -13 17 -10 23 40 70 59 56 64 65 34 57 -18 -5 -20 0 -20 40 l0 44 53 8 c28 4 45 10 37 13 -19 7 -40 28 -40 40 0 5 19 13 42 18 32 7 42 14 43 30 1 16 -3 20 -19 17 -12 -2 -15 -1 -6 3 20 8 40 34 40 52 0 10 -7 12 -26 8 -24 -6 -25 -5 -22 26 l3 33 63 3 c44 2 65 7 69 17 7 19 33 19 33 1z m-700 -46 c0 -15 -7 -30 -15 -33 -11 -5 -12 -1 -4 20 5 15 7 33 5 40 -3 8 -1 11 4 8 6 -3 10 -19 10 -35z m-1197 0 c-2 -20 -2 -636 -1 -742 1 -16 5 -28 9 -28 13 0 11 -65 -3 -95 -13 -30 -38 -33 -38 -6 0 19 -7 20 -90 17 l-90 -2 4 34 c2 19 8 37 13 41 18 11 33 50 33 85 0 27 -3 34 -15 30 -11 -5 -13 -2 -9 10 8 22 -21 53 -57 61 -16 4 -29 11 -29 16 0 6 -4 7 -10 4 -10 -6 -47 10 -68 32 -10 9 -19 10 -32 3 -25 -14 -40 -13 -35 3 7 17 -15 46 -22 30 -5 -13 -33 -18 -33 -7 0 4 8 13 18 20 16 12 15 13 -5 14 -12 0 -25 5 -28 10 -3 6 3 10 15 10 13 0 18 4 14 11 -9 15 -8 224 2 241 4 7 -3 4 -16 -7 -20 -17 -23 -18 -17 -2 4 9 2 17 -3 17 -6 0 -10 5 -10 12 0 9 3 9 11 1 13 -13 42 -6 33 8 -3 5 -14 9 -25 9 -10 0 -19 5 -19 10 0 6 11 10 25 10 24 0 30 9 26 38 -1 8 3 20 9 27 7 8 9 19 5 25 -3 5 -1 10 4 10 6 0 11 9 11 20 0 11 -4 20 -10 20 -5 0 -2 8 8 18 15 15 40 17 222 17 l205 0 -2 -25z m-836 -37 c-4 -3 -10 -3 -14 0 -3 4 0 7 7 7 7 0 10 -3 7 -7z m388 -4 c-27 -11 -55 -11 -55 0 0 5 17 9 38 9 28 0 32 -2 17 -9z m3055 -43 c0 -2 -7 -6 -15 -10 -8 -3 -15 -1 -15 4 0 6 7 10 15 10 8 0 15 -2 15 -4z m-3090 -26 c0 -5 -4 -10 -10 -10 -5 0 -10 5 -10 10 0 6 5 10 10 10 6 0 10 -4 10 -10z m-350 -165 c0 -8 -4 -15 -10 -15 -5 0 -7 7 -4 15 4 8 8 15 10 15 2 0 4 -7 4 -15z m1775 -35 c3 -5 4 -10 1 -10 -3 0 -8 5 -11 10 -3 6 -4 10 -1 10 3 0 8 -4 11 -10z m-260 -120 c3 -5 4 -10 1 -10 -3 0 -8 5 -11 10 -3 6 -4 10 -1 10 3 0 8 -4 11 -10z m-1490 -30 c3 -5 4 -10 1 -10 -3 0 -8 5 -11 10 -3 6 -4 10 -1 10 3 0 8 -4 11 -10z m2408 -58 c-3 -12 -9 -22 -14 -22 -14 0 -11 38 4 43 16 6 17 5 10 -21z m947 -37 c0 -8 -7 -15 -15 -15 -8 0 -15 7 -15 15 0 8 7 15 15 15 8 0 15 -7 15 -15z m-2952 -23 c3 -9 -2 -13 -14 -10 -9 1 -19 9 -22 16 -3 9 2 13 14 10 9 -1 19 -9 22 -16z m976 -7 c-7 -17 11 -21 21 -5 3 5 27 7 53 5 87 -9 225 -11 206 -4 -14 6 -10 8 16 8 27 1 31 -2 20 -9 -11 -7 8 -10 63 -9 51 1 83 7 92 16 21 20 155 2 155 -22 0 -19 -12 -26 -27 -14 -22 19 -15 -1 12 -33 14 -16 25 -37 25 -46 1 -15 2 -15 11 1 13 22 44 23 35 1 -3 -9 -6 -19 -6 -24 0 -5 -10 -10 -22 -12 -13 -2 -21 -7 -20 -12 2 -5 -3 -13 -12 -18 -11 -6 -14 -18 -11 -36 4 -19 3 -22 -3 -9 -7 17 -9 17 -21 3 -7 -9 -17 -13 -22 -10 -5 3 -9 0 -9 -7 0 -7 -3 -9 -6 -6 -4 3 -16 0 -28 -8 -11 -8 -28 -15 -38 -15 -11 0 -18 -8 -18 -20 0 -15 -7 -20 -25 -20 -18 0 -25 5 -25 19 0 16 -9 21 -45 27 -53 7 -299 -1 -334 -12 -22 -6 -23 -5 -19 19 3 15 1 24 -3 21 -5 -3 -9 0 -9 5 0 6 5 11 10 11 11 0 13 80 4 129 -4 17 -12 31 -18 31 -10 0 -36 44 -36 62 0 4 9 8 20 8 13 0 18 -5 14 -15z m133 9 c-3 -3 -12 -4 -19 -1 -8 3 -5 6 6 6 11 1 17 -2 13 -5z m-1010 -31 c-4 -3 -7 0 -7 7 0 7 3 10 7 7 3 -4 3 -10 0 -14z m-190 -20 c-4 -3 -10 -3 -14 0 -3 4 0 7 7 7 7 0 10 -3 7 -7z m2688 -3 c24 0 27 -2 15 -11 -12 -8 -12 -9 5 -7 11 1 27 -2 35 -7 13 -8 13 -7 1 8 -17 22 -9 31 19 22 15 -5 20 -13 17 -26 -4 -16 1 -21 24 -26 23 -4 29 -11 31 -32 0 -14 2 -39 4 -56 1 -16 -3 -49 -8 -72 -9 -38 -14 -43 -45 -49 -18 -4 -37 -4 -40 0 -4 3 1 6 9 6 9 0 18 9 21 20 5 21 -7 28 -18 10 -3 -5 -24 -14 -47 -20 -32 -9 -43 -9 -49 2 -7 10 -9 10 -9 1 0 -7 -11 -13 -25 -13 -28 0 -33 15 -8 24 14 6 14 8 -3 22 -10 9 -13 12 -5 9 9 -6 9 -1 -3 17 -16 24 -20 108 -5 108 4 0 9 7 12 15 5 11 1 12 -17 5 -21 -8 -24 -6 -24 18 0 40 7 45 47 38 20 -3 50 -6 66 -6z m-2604 -9 c-9 -6 -10 -11 -2 -15 6 -4 16 -4 21 -1 6 4 22 -1 36 -10 25 -16 26 -16 20 7 l-6 23 11 -22 c7 -13 19 -24 28 -24 14 -1 14 -2 0 -6 -17 -4 -34 -43 -20 -43 11 0 10 -33 0 -46 -6 -7 0 -16 16 -24 25 -13 34 -30 16 -30 -5 0 -12 8 -15 17 -6 15 -8 15 -16 3 -6 -8 -10 -11 -10 -7 0 12 -30 -20 -30 -32 0 -5 -12 -11 -27 -13 -21 -2 -28 -8 -27 -24 0 -14 -4 -20 -13 -17 -7 3 -13 11 -13 19 0 8 -7 14 -15 14 -8 0 -23 8 -33 18 -11 11 -31 18 -48 17 -16 -1 -21 0 -12 2 15 4 17 14 15 59 -2 30 0 54 5 54 13 0 9 28 -4 33 -7 3 0 6 15 6 19 1 26 5 21 13 -5 8 -2 9 9 5 10 -3 17 -2 17 4 0 6 4 8 9 4 6 -3 16 1 23 9 7 9 20 15 28 15 12 1 12 -1 1 -8z m2404 -11 c3 -5 4 -10 1 -10 -3 0 -8 5 -11 10 -3 6 -4 10 -1 10 3 0 8 -4 11 -10z m-2551 -38 c-6 -4 -14 -14 -17 -22 -4 -10 -6 -8 -6 8 -1 15 5 22 17 22 10 0 13 -3 6 -8z m3276 -6 c0 -2 -9 -6 -20 -9 -11 -3 -20 -1 -20 4 0 5 9 9 20 9 11 0 20 -2 20 -4z m-2993 -63 c-4 -3 -7 0 -7 7 0 7 3 10 7 7 3 -4 3 -10 0 -14z m-320 -25 c-3 -7 -5 -2 -5 12 0 14 2 19 5 13 2 -7 2 -19 0 -25z m-150 6 c-3 -3 -12 -4 -19 -1 -8 3 -5 6 6 6 11 1 17 -2 13 -5z m453 -4 c0 -5 -4 -10 -10 -10 -5 0 -10 5 -10 10 0 6 5 10 10 10 6 0 10 -4 10 -10z m-381 -52 c-1 -29 -5 -64 -10 -78 -7 -19 -8 -16 -4 17 3 23 1 52 -4 65 -9 25 -5 48 10 48 5 0 9 -24 8 -52z m1828 -15 c-4 -3 -10 -3 -14 0 -3 4 0 7 7 7 7 0 10 -3 7 -7z m-7 -28 c0 -8 -7 -15 -15 -15 -9 0 -12 6 -9 15 4 8 10 15 15 15 5 0 9 -7 9 -15z m-63 -12 c-4 -3 -7 0 -7 7 0 7 3 10 7 7 3 -4 3 -10 0 -14z m1150 -10 c-4 -3 -10 -3 -14 0 -3 4 0 7 7 7 7 0 10 -3 7 -7z m-2617 -13 c0 -5 -5 -10 -11 -10 -5 0 -7 5 -4 10 3 6 8 10 11 10 2 0 4 -4 4 -10z m-353 -37 c-4 -3 -10 -3 -14 0 -3 4 0 7 7 7 7 0 10 -3 7 -7z m2490 -10 c-4 -3 -7 0 -7 7 0 7 3 10 7 7 3 -4 3 -10 0 -14z m-2500 -30 c-4 -3 -10 -3 -14 0 -3 4 0 7 7 7 7 0 10 -3 7 -7z m-27 -13 c0 -5 -4 -10 -10 -10 -5 0 -10 5 -10 10 0 6 5 10 10 10 6 0 10 -4 10 -10z m27 -66 c-3 -3 -12 -4 -19 -1 -8 3 -5 6 6 6 11 1 17 -2 13 -5z m3260 0 c-3 -3 -12 -4 -19 -1 -8 3 -5 6 6 6 11 1 17 -2 13 -5z m-77 -8 c0 -3 -5 -8 -12 -12 -7 -4 -8 -3 -4 4 7 12 16 16 16 8z m-3013 -23 c-4 -3 -10 -3 -14 0 -3 4 0 7 7 7 7 0 10 -3 7 -7z m2660 -15 c-3 -8 -6 -5 -6 6 -1 11 2 17 5 13 3 -3 4 -12 1 -19z m-490 -5 c-4 -3 -10 -3 -14 0 -3 4 0 7 7 7 7 0 10 -3 7 -7z m443 -18 c0 -8 -4 -15 -10 -15 -5 0 -7 7 -4 15 4 8 8 15 10 15 2 0 4 -7 4 -15z m-463 -42 c-4 -3 -10 -3 -14 0 -3 4 0 7 7 7 7 0 10 -3 7 -7z m-2151 -79 c-7 -26 -26 -33 -26 -9 0 8 5 15 10 15 6 0 11 15 11 33 1 25 3 27 6 8 3 -12 2 -34 -1 -47z m479 35 c12 -18 -3 -22 -20 -5 -14 14 -14 16 -1 16 8 0 18 -5 21 -11z m1492 -1 c-4 -14 -45 -12 -81 2 -15 6 -7 9 32 9 39 1 52 -2 49 -11z m53 8 c0 -2 -9 -6 -20 -9 -11 -3 -20 -1 -20 4 0 5 9 9 20 9 11 0 20 -2 20 -4z m-1990 -156 c0 -5 -7 -7 -15 -4 -8 4 -15 8 -15 10 0 2 7 4 15 4 8 0 15 -4 15 -10z m2840 0 c-19 -13 -30 -13 -30 0 0 6 10 10 23 10 18 0 19 -2 7 -10z m-456 -25 c-4 -8 -8 -15 -10 -15 -2 0 -4 7 -4 15 0 8 4 15 10 15 5 0 7 -7 4 -15z m-1864 -18 c11 -5 9 -6 -4 -4 -11 1 -21 9 -23 17 -3 10 -2 11 4 4 4 -6 15 -14 23 -17z m2190 3 c0 -5 -10 -10 -22 -10 -19 0 -20 2 -8 10 19 13 30 13 30 0z m-2123 -67 c-4 -3 -10 -3 -14 0 -3 4 0 7 7 7 7 0 10 -3 7 -7z m-430 -45 c-15 -9 -19 -4 -11 16 5 14 9 15 15 5 5 -8 3 -17 -4 -21z m1270 -5 c-4 -3 -10 -3 -14 0 -3 4 0 7 7 7 7 0 10 -3 7 -7z m-680 -20 c-4 -3 -10 -3 -14 0 -3 4 0 7 7 7 7 0 10 -3 7 -7z m653 -7 c0 -15 -18 -31 -26 -23 -7 7 7 37 17 37 5 0 9 -6 9 -14z m-1253 -33 c-4 -3 -7 0 -7 7 0 7 3 10 7 7 3 -4 3 -10 0 -14z m647 -18 c3 -8 1 -15 -4 -15 -6 0 -10 7 -10 15 0 8 2 15 4 15 2 0 6 -7 10 -15z m1213 -2 c-4 -3 -7 0 -7 7 0 7 3 10 7 7 3 -4 3 -10 0 -14z m83 -9 c0 -2 -16 -4 -36 -4 -19 0 -33 4 -30 8 5 8 66 4 66 -4z m544 1 c-4 -8 -8 -15 -10 -15 -2 0 -4 7 -4 15 0 8 4 15 10 15 5 0 7 -7 4 -15z m-2297 -2 c-4 -3 -10 -3 -14 0 -3 4 0 7 7 7 7 0 10 -3 7 -7z m1153 3 c0 -2 3 -11 6 -20 4 -11 1 -16 -10 -16 -9 0 -16 5 -16 10 0 6 -9 10 -21 10 -11 0 -17 5 -14 10 6 9 55 15 55 6z m-1243 -23 c-4 -3 -7 0 -7 7 0 7 3 10 7 7 3 -4 3 -10 0 -14z m163 -70 c0 -42 -2 -74 -4 -72 -8 10 -14 159 -5 154 5 -4 9 -40 9 -82z m2265 77 c3 -5 1 -10 -4 -10 -6 0 -11 5 -11 10 0 6 2 10 4 10 3 0 8 -4 11 -10z m-2398 -17 c-4 -3 -10 -3 -14 0 -3 4 0 7 7 7 7 0 10 -3 7 -7z m617 -18 c3 -8 1 -15 -4 -15 -6 0 -10 7 -10 15 0 8 2 15 4 15 2 0 6 -7 10 -15z m576 6 c0 -5 11 -12 25 -15 14 -4 25 -12 25 -19 0 -7 5 -18 11 -24 7 -7 13 -41 15 -77 3 -52 1 -66 -10 -66 -8 0 -18 5 -21 10 -4 6 -11 8 -16 4 -5 -3 -7 -10 -4 -15 4 -5 -2 -9 -12 -10 -10 0 -42 -2 -71 -4 -44 -2 -51 -1 -41 11 8 10 8 14 0 14 -19 0 -39 44 -46 104 -6 52 -5 58 9 53 10 -4 19 -1 22 8 4 8 12 15 20 15 8 0 14 3 14 8 0 4 18 8 40 9 22 2 40 -1 40 -6z m510 -6 c11 -13 5 -15 -41 -15 -34 0 -49 3 -40 9 7 5 21 6 31 4 10 -3 21 0 24 6 9 14 11 14 26 -4z m-353 -47 c-3 -8 -6 -5 -6 6 -1 11 2 17 5 13 3 -3 4 -12 1 -19z m213 8 c0 -19 -39 -31 -53 -17 -8 8 -4 11 16 11 15 0 27 5 27 10 0 6 2 10 5 10 3 0 5 -6 5 -14z m-600 -16 c11 -7 4 -10 -25 -9 -31 0 -36 2 -20 9 26 11 28 11 45 0z m507 3 c-4 -3 -10 -3 -14 0 -3 4 0 7 7 7 7 0 10 -3 7 -7z m510 -89 c-3 -3 -12 -4 -19 -1 -8 3 -5 6 6 6 11 1 17 -2 13 -5z m-1760 -26 c-3 -8 -6 -5 -6 6 -1 11 2 17 5 13 3 -3 4 -12 1 -19z m60 15 c-4 -3 -10 -3 -14 0 -3 4 0 7 7 7 7 0 10 -3 7 -7z m108 -3 c3 -5 4 -10 1 -10 -3 0 -8 5 -11 10 -3 6 -4 10 -1 10 3 0 8 -4 11 -10z m1670 0 c8 -13 -15 -13 -35 0 -12 8 -11 10 7 10 12 0 25 -4 28 -10z m-1870 -40 c-3 -5 -13 -10 -21 -10 -8 0 -12 5 -9 10 3 6 13 10 21 10 8 0 12 -4 9 -10z m935 -50 c0 -5 -4 -10 -10 -10 -5 0 -10 5 -10 10 0 6 5 10 10 10 6 0 10 -4 10 -10z m77 -17 c-4 -3 -10 -3 -14 0 -3 4 0 7 7 7 7 0 10 -3 7 -7z m400 -25 c-3 -7 -5 -2 -5 12 0 14 2 19 5 13 2 -7 2 -19 0 -25z m313 0 c0 -4 -6 -8 -14 -8 -8 0 -17 4 -20 8 -2 4 4 8 15 8 10 0 19 -4 19 -8z m-1353 -15 c-4 -3 -10 -3 -14 0 -3 4 0 7 7 7 7 0 10 -3 7 -7z m163 -14 c0 -6 -4 -7 -10 -4 -5 3 -10 11 -10 16 0 6 5 7 10 4 6 -3 10 -11 10 -16z m-213 -36 c-4 -3 -7 0 -7 7 0 7 3 10 7 7 3 -4 3 -10 0 -14z m273 2 c0 -18 -1 -18 -36 0 l-29 15 33 0 c22 0 32 -5 32 -15z m280 5 c0 -5 -7 -10 -15 -10 -8 0 -15 5 -15 10 0 6 7 10 15 10 8 0 15 -4 15 -10z m357 4 c-3 -3 -12 -4 -19 -1 -8 3 -5 6 6 6 11 1 17 -2 13 -5z m-639 -71 c-2 -14 -9 -28 -16 -29 -7 -1 -8 0 -2 3 17 8 11 41 -7 46 -13 3 -12 5 5 6 20 1 23 -3 20 -26z m289 -5 c-3 -7 -5 -2 -5 12 0 14 2 19 5 13 2 -7 2 -19 0 -25z m-250 -25 c-4 -3 -10 -3 -14 0 -3 4 0 7 7 7 7 0 10 -3 7 -7z m383 -10 c0 -7 -7 -10 -16 -6 -9 3 -20 0 -25 -8 -7 -11 -9 -8 -9 8 0 18 5 22 25 21 14 -1 25 -8 25 -15z m327 -40 c-4 -3 -10 -3 -14 0 -3 4 0 7 7 7 7 0 10 -3 7 -7z"/>
<path d="M7690 5286 c5 -15 8 -32 4 -37 -3 -5 0 -9 5 -9 17 0 13 46 -4 60 -14 11 -14 10 -5 -14z"/>
<path d="M8023 4863 c4 -3 10 -3 14 0 3 4 0 7 -7 7 -7 0 -10 -3 -7 -7z"/>
<path d="M6173 5173 c-18 -7 -16 -23 2 -23 8 0 15 5 15 11 0 5 5 7 12 3 7 -4 8 -3 4 4 -8 13 -13 14 -33 5z"/>
<path d="M8188 4453 c7 -3 16 -2 19 1 4 3 -2 6 -13 5 -11 0 -14 -3 -6 -6z"/>
<path d="M8045 4440 c-3 -6 1 -7 9 -4 18 7 21 14 7 14 -6 0 -13 -4 -16 -10z"/>
<path d="M7990 4420 c0 -5 4 -10 9 -10 6 0 13 5 16 10 3 6 -1 10 -9 10 -9 0 -16 -4 -16 -10z"/>
<path d="M7916 4194 c-10 -27 2 -29 24 -6 20 21 20 22 1 22 -10 0 -22 -7 -25 -16z"/>
<path d="M8328 4173 c6 -2 18 -2 25 0 6 3 1 5 -13 5 -14 0 -19 -2 -12 -5z"/>
<path d="M7883 4143 c4 -3 10 -3 14 0 3 4 0 7 -7 7 -7 0 -10 -3 -7 -7z"/>
<path d="M8195 3640 c3 -5 8 -10 11 -10 2 0 4 5 4 10 0 6 -5 10 -11 10 -5 0 -7 -4 -4 -10z"/>
<path d="M8250 3491 c0 -6 5 -13 10 -16 6 -4 8 -11 5 -16 -4 -5 -1 -9 5 -9 6 0 8 -4 5 -10 -3 -5 3 -10 14 -10 27 0 26 14 -1 45 -22 26 -38 32 -38 16z"/>
<path d="M6245 3040 c3 -5 8 -10 11 -10 3 0 2 5 -1 10 -3 6 -8 10 -11 10 -3 0 -2 -4 1 -10z"/>
<path d="M6083 4443 c4 -3 10 -3 14 0 3 4 0 7 -7 7 -7 0 -10 -3 -7 -7z"/>
<path d="M6203 4350 c0 -30 2 -43 4 -27 2 15 2 39 0 55 -2 15 -4 2 -4 -28z"/>
<path d="M6204 4095 c0 -55 1 -76 3 -47 2 29 2 74 0 100 -2 26 -3 2 -3 -53z"/>
<path d="M6204 3795 c0 -49 1 -71 3 -48 2 23 2 64 0 90 -2 26 -3 8 -3 -42z"/>
<path d="M6200 3670 c0 -7 3 -10 7 -7 3 4 3 10 0 14 -4 3 -7 0 -7 -7z"/>
<path d="M6200 3616 c0 -16 6 -26 15 -26 8 0 15 5 15 11 0 6 -7 17 -15 25 -13 14 -15 13 -15 -10z"/>
<path d="M7285 3840 c3 -5 8 -10 11 -10 2 0 4 5 4 10 0 6 -5 10 -11 10 -5 0 -7 -4 -4 -10z"/>
<path d="M7313 3833 c4 -3 10 -3 14 0 3 4 0 7 -7 7 -7 0 -10 -3 -7 -7z"/>
<path d="M8340 3776 c0 -2 7 -6 15 -10 8 -3 15 -1 15 4 0 6 -7 10 -15 10 -8 0 -15 -2 -15 -4z"/>
<path d="M8510 3742 c0 -12 19 -26 26 -19 2 2 -2 10 -11 17 -9 8 -15 8 -15 2z"/>
<path d="M8516 3595 c4 -8 8 -15 10 -15 2 0 4 7 4 15 0 8 -4 15 -10 15 -5 0 -7 -7 -4 -15z"/>
<path d="M7206 2604 c-4 -9 -4 -19 -1 -22 2 -3 7 3 11 12 4 9 4 19 1 22 -2 3 -7 -3 -11 -12z"/>
<path d="M7810 5820 c0 -7 3 -10 7 -7 3 4 3 10 0 14 -4 3 -7 0 -7 -7z"/>
<path d="M6587 5719 c7 -7 15 -10 18 -7 3 3 -2 9 -12 12 -14 6 -15 5 -6 -5z"/>
<path d="M8403 5423 c4 -3 10 -3 14 0 3 4 0 7 -7 7 -7 0 -10 -3 -7 -7z"/>
<path d="M5648 5153 c7 -3 16 -2 19 1 4 3 -2 6 -13 5 -11 0 -14 -3 -6 -6z"/>
<path d="M5603 5005 c0 -8 4 -15 9 -15 5 0 7 -4 4 -8 -5 -9 11 -39 17 -32 9 10 -6 70 -17 70 -7 0 -13 -7 -13 -15z"/>
<path d="M8703 4843 c4 -3 10 -3 14 0 3 4 0 7 -7 7 -7 0 -10 -3 -7 -7z"/>
<path d="M5383 4788 c2 -12 35 -48 44 -48 1 0 3 9 3 20 0 11 -7 20 -15 20 -8 0 -15 5 -15 10 0 6 -4 10 -10 10 -5 0 -9 -6 -7 -12z"/>
<path d="M5395 4530 c-16 -7 -17 -9 -3 -9 9 -1 20 4 23 9 7 11 7 11 -20 0z"/>
<path d="M8927 4469 c7 -7 15 -10 18 -7 3 3 -2 9 -12 12 -14 6 -15 5 -6 -5z"/>
<path d="M1848 4214 c17 -8 15 -34 -3 -34 -8 0 -15 7 -15 15 0 11 -9 15 -28 13 -25 -2 -27 -5 -24 -35 3 -20 0 -33 -7 -33 -6 0 -11 14 -11 30 0 28 -14 42 -22 21 -1 -5 -10 -11 -18 -13 -21 -4 -29 -18 -31 -53 -1 -24 -3 -25 -6 -7 -7 36 -28 25 -57 -30 -34 -66 -45 -128 -22 -128 11 0 16 8 15 28 -1 15 4 38 10 52 11 24 11 23 6 -9 -3 -18 -5 -45 -5 -58 0 -16 -7 -27 -19 -30 -11 -3 -21 -17 -25 -35 -8 -40 -8 -476 0 -516 l6 -31 124 -3 124 -3 1 275 c1 315 1 319 20 331 8 5 10 9 5 9 -5 0 -3 7 4 15 7 8 17 12 23 8 7 -4 8 0 3 12 -5 15 -4 16 9 5 15 -13 17 -10 18 25 0 16 1 17 4 3 3 -10 11 -18 19 -19 55 -4 59 -3 56 20 -3 30 22 23 26 -7 2 -12 13 -27 24 -33 11 -6 18 -7 15 -2 -3 4 10 9 29 10 37 2 39 -2 24 -41 -5 -14 -6 -26 -2 -26 4 0 7 -138 7 -307 l0 -308 128 0 127 -1 -125 3 c-102 3 -125 6 -125 18 0 12 22 15 124 15 l125 0 6 43 c3 23 5 213 3 422 l-3 380 -130 0 -130 0 2 -47 c1 -27 -2 -48 -6 -48 -9 0 -41 38 -41 49 0 13 -64 44 -85 39 -14 -2 -20 -12 -20 -31 1 -15 -3 -27 -7 -27 -4 0 -8 9 -8 20 0 15 -7 20 -25 20 -16 0 -25 6 -25 15 0 8 -6 15 -12 15 -7 0 -24 3 -38 5 -14 3 -19 3 -12 -1z m432 -49 c0 -8 -7 -15 -15 -15 -26 0 -18 20 13 29 1 1 2 -6 2 -14z m-173 -72 c-4 -3 -10 -3 -14 0 -3 4 0 7 7 7 7 0 10 -3 7 -7z m-252 -93 c-3 -5 -10 -10 -16 -10 -5 0 -9 5 -9 10 0 6 7 10 16 10 8 0 12 -4 9 -10z m-28 -37 c-4 -3 -7 0 -7 7 0 7 3 10 7 7 3 -4 3 -10 0 -14z"/>
<path d="M2844 4213 c-26 -3 -30 -8 -27 -27 6 -28 -18 -49 -49 -43 -20 4 -20 4 5 6 23 1 27 5 26 29 -1 17 -3 21 -6 9 -3 -13 -10 -16 -25 -12 -26 9 -78 -13 -78 -34 0 -14 -2 -14 -10 -1 -8 12 -10 9 -10 -12 0 -17 6 -28 18 -31 10 -3 5 -5 -12 -6 -24 -1 -27 2 -23 19 4 17 2 18 -14 10 -23 -13 -89 -98 -89 -116 0 -7 -3 -21 -6 -31 -5 -17 -5 -17 6 0 6 9 15 17 20 17 13 0 13 -57 0 -65 -5 -3 -10 1 -10 9 0 9 -4 16 -10 16 -5 0 -10 -8 -10 -19 0 -15 11 -19 68 -25 74 -7 149 0 171 17 7 6 17 22 22 34 5 13 20 28 35 33 14 6 32 16 39 24 17 16 148 14 168 -2 7 -6 22 -9 33 -6 28 7 59 -19 49 -42 -7 -17 -8 -18 -12 -1 -3 9 -11 17 -19 17 -8 0 -12 -5 -9 -11 4 -5 1 -23 -5 -40 -12 -28 -43 -48 -98 -64 -21 -6 -23 -11 -17 -41 6 -33 5 -34 -27 -34 -18 0 -40 5 -48 11 -12 8 -10 9 9 4 24 -7 41 6 41 33 0 10 -9 12 -32 7 -58 -12 -68 -16 -68 -31 0 -8 -4 -14 -10 -14 -5 0 -10 4 -10 10 0 5 -11 9 -25 8 -22 -2 -25 -6 -20 -30 5 -22 3 -28 -9 -28 -13 0 -15 6 -10 26 4 15 3 25 -2 22 -5 -2 -26 -12 -46 -22 -41 -18 -58 -38 -40 -44 17 -5 15 -32 -2 -32 -8 0 -16 9 -18 20 -3 20 -4 20 -30 -3 -28 -25 -48 -77 -29 -77 6 0 11 6 11 14 0 8 5 18 10 21 6 3 10 -4 10 -15 0 -13 -8 -24 -20 -27 -13 -3 -20 -14 -20 -29 0 -12 -5 -26 -11 -30 -8 -5 -8 -9 1 -14 8 -5 9 -17 2 -42 -7 -28 -6 -38 8 -56 10 -12 23 -22 29 -22 6 0 11 -9 11 -19 0 -14 5 -18 19 -14 10 3 22 0 25 -6 5 -7 -3 -11 -21 -12 -16 0 -22 -3 -13 -6 8 -3 17 -9 20 -12 12 -15 61 -41 76 -41 10 0 26 -8 36 -17 27 -24 203 -25 278 0 30 10 62 19 70 21 19 3 88 46 75 46 -5 0 1 6 15 13 27 14 93 104 85 117 -3 5 0 10 5 12 6 2 13 21 17 42 5 35 4 39 -11 33 -10 -4 -24 -7 -32 -7 -8 0 -14 -9 -14 -19 0 -18 -9 -20 -95 -23 -59 -2 -95 1 -95 7 0 6 -15 -7 -34 -27 -26 -28 -44 -38 -79 -43 -49 -8 -107 1 -107 15 0 5 -6 7 -13 4 -14 -5 -17 3 -20 57 -2 27 -5 30 -29 27 -19 -3 -28 0 -28 9 0 9 15 13 45 14 49 2 52 2 78 14 15 6 16 10 5 16 -9 6 -4 9 15 9 16 0 26 -4 23 -8 -3 -4 15 -3 39 2 24 6 42 13 39 17 -2 4 15 6 38 5 49 -3 118 12 118 26 0 5 6 8 13 7 24 -3 38 1 33 10 -4 5 8 13 26 17 29 6 30 8 13 15 -18 7 -17 8 6 8 24 1 61 34 67 60 2 10 -6 12 -28 9 -24 -4 -30 -1 -30 14 0 14 8 18 39 18 35 0 39 3 45 31 8 42 8 84 -1 93 -5 4 -8 13 -8 19 0 7 -10 13 -22 15 -22 3 -33 22 -14 22 6 0 9 9 8 20 -1 11 -5 20 -9 20 -4 0 -8 6 -8 13 0 26 -123 106 -135 87 -3 -5 -13 -10 -22 -10 -13 0 -13 3 -3 15 10 12 10 15 -1 16 -8 0 -24 2 -36 3 -12 1 -24 -3 -27 -11 -7 -17 -26 -17 -26 1 0 8 -14 15 -36 18 -29 3 -38 1 -42 -14 -5 -22 -22 -24 -22 -3 0 8 -6 15 -14 15 -8 0 -20 2 -28 3 -7 2 -27 2 -44 0z m231 -65 c6 -4 2 -8 -7 -8 -10 0 -18 7 -18 17 0 9 3 12 8 7 4 -5 12 -12 17 -16z m-355 -18 c0 -5 -5 -10 -11 -10 -5 0 -7 5 -4 10 3 6 8 10 11 10 2 0 4 -4 4 -10z m-93 -52 c-3 -8 -6 -5 -6 6 -1 11 2 17 5 13 3 -3 4 -12 1 -19z m323 -28 c0 -5 -12 -10 -27 -9 l-28 1 25 8 c14 4 26 8 28 9 1 1 2 -3 2 -9z m63 3 c-7 -2 -19 -2 -25 0 -7 3 -2 5 12 5 14 0 19 -2 13 -5z m57 -25 c0 -5 -6 -8 -14 -8 -9 0 -12 7 -9 21 4 16 8 17 14 7 5 -7 9 -16 9 -20z m-260 -22 c0 -2 -9 -6 -20 -9 -11 -3 -20 -1 -20 4 0 5 9 9 20 9 11 0 20 -2 20 -4z m-35 -76 c-3 -5 -10 -10 -16 -10 -5 0 -9 5 -9 10 0 6 7 10 16 10 8 0 12 -4 9 -10z m339 -25 c-4 -8 -12 -15 -20 -15 -8 0 -11 6 -8 15 4 8 12 15 20 15 8 0 11 -6 8 -15z m-44 -50 c0 -8 -7 -15 -16 -15 -14 0 -14 3 -4 15 7 8 14 15 16 15 2 0 4 -7 4 -15z m-353 -111 c-3 -3 -12 -4 -19 -1 -8 3 -5 6 6 6 11 1 17 -2 13 -5z m490 -1 c-4 -3 -10 -3 -14 0 -3 4 0 7 7 7 7 0 10 -3 7 -7z m-137 -228 c0 -8 -4 -15 -10 -15 -5 0 -10 7 -10 15 0 8 5 15 10 15 6 0 10 -7 10 -15z m-50 -44 c0 -24 -33 -36 -57 -22 -15 9 -13 10 15 11 22 0 32 5 32 15 0 8 2 15 5 15 3 0 5 -9 5 -19z m-157 -16 c31 4 37 3 22 -4 -11 -5 -32 -10 -47 -10 -23 -1 -28 3 -27 22 1 16 2 18 6 4 4 -14 12 -16 46 -12z m303 -44 c-3 -5 -15 -7 -26 -4 -28 7 -25 13 6 13 14 0 23 -4 20 -9z m-401 -51 c3 -5 -3 -10 -14 -10 -12 0 -21 5 -21 10 0 6 6 10 14 10 8 0 18 -4 21 -10z m284 -7 c0 -11 -3 -13 -6 -5 -2 6 -11 12 -18 12 -7 0 -16 -6 -18 -12 -3 -8 -6 -6 -6 5 -1 12 7 17 24 17 17 0 25 -5 24 -17z m28 10 c-4 -3 -10 -3 -14 0 -3 4 0 7 7 7 7 0 10 -3 7 -7z m-300 -40 c-4 -3 -7 0 -7 7 0 7 3 10 7 7 3 -4 3 -10 0 -14z"/>
<path d="M5423 4213 c-18 -7 -16 -23 2 -23 8 0 15 7 15 15 0 8 -1 15 -2 14 -2 0 -9 -3 -15 -6z"/>
<path d="M497 3743 c2 -258 3 -528 3 -601 l0 -133 308 4 c327 5 352 7 421 32 81 29 160 107 130 126 -11 7 -11 9 2 9 37 0 74 147 60 240 -5 40 -9 45 -31 43 -15 -1 -18 0 -7 3 12 4 17 14 15 33 -2 23 -6 27 -23 23 -19 -4 -19 -4 -2 10 17 13 17 15 3 27 -9 7 -13 17 -10 22 5 9 -4 12 -46 11 -15 -1 -18 1 -8 4 27 8 30 34 4 44 -13 4 -26 16 -29 24 -4 9 -10 16 -14 15 -4 -1 -19 -1 -33 1 -23 1 -23 2 -5 9 11 5 20 12 20 17 1 5 9 24 18 42 l18 32 -36 0 c-26 0 -35 4 -35 16 0 13 7 15 35 11 32 -5 47 2 51 26 1 4 2 8 4 10 1 1 3 11 5 22 2 11 9 21 15 23 5 2 7 8 4 13 -3 6 0 17 7 25 10 12 9 13 -5 8 -9 -3 -16 -1 -16 5 0 6 9 11 19 11 19 0 35 25 26 40 -3 4 2 13 10 20 23 19 18 27 -15 22 -23 -3 -30 0 -30 12 0 14 7 16 33 11 30 -6 33 -3 50 37 10 24 25 56 33 72 9 17 11 33 6 38 -5 5 -65 8 -133 6 l-124 -3 -5 -40 c-4 -32 -10 -40 -30 -45 -19 -5 -24 -12 -22 -31 1 -13 -4 -28 -11 -34 -8 -5 -19 -27 -26 -47 -7 -21 -16 -38 -21 -38 -12 0 -20 -39 -9 -46 5 -3 9 0 9 7 0 9 3 10 11 2 7 -7 7 -22 -2 -52 -15 -51 -29 -53 -29 -4 0 37 -9 40 -15 6 -2 -10 -4 -19 -5 -20 -2 -2 -3 -7 -4 -12 0 -5 -4 -13 -8 -17 -5 -4 -8 -16 -8 -26 0 -10 -4 -18 -9 -18 -8 0 -8 -17 -1 -40 1 -3 8 9 15 25 l14 30 1 -31 0 -31 -140 -2 -140 -2 0 236 0 235 -132 0 -133 0 2 -467z m643 261 c0 -8 -7 -14 -15 -14 -15 0 -21 21 -9 33 10 9 24 -2 24 -19z m177 4 c-3 -8 -6 -5 -6 6 -1 11 2 17 5 13 3 -3 4 -12 1 -19z m-20 -105 c-4 -3 -10 -3 -14 0 -3 4 0 7 7 7 7 0 10 -3 7 -7z m-510 -210 c-4 -3 -7 0 -7 7 0 7 3 10 7 7 3 -4 3 -10 0 -14z m473 -43 c0 -5 -8 -10 -17 -10 -15 0 -16 2 -3 10 19 12 20 12 20 0z m67 -132 c-3 -8 -6 -5 -6 6 -1 11 2 17 5 13 3 -3 4 -12 1 -19z m-416 -14 c75 -2 143 -6 153 -10 11 -4 15 -2 11 8 -5 11 1 14 24 10 17 -2 33 -12 35 -21 10 -32 19 -107 17 -138 -1 -18 3 -33 9 -33 5 0 10 5 10 10 0 6 5 10 10 10 6 0 10 -6 10 -14 0 -19 -40 -32 -50 -17 -5 9 -10 8 -20 -3 -10 -13 -9 -17 3 -22 9 -3 13 -12 10 -20 -7 -19 -21 -18 -25 3 -3 15 -4 15 -20 -1 -10 -9 -23 -14 -28 -11 -6 4 -75 7 -153 8 -139 2 -142 2 -145 25 -2 14 -10 22 -23 22 -10 0 -19 7 -19 15 0 8 9 15 20 15 17 0 20 7 20 50 0 43 -3 50 -20 50 -11 0 -20 7 -20 15 0 8 9 15 20 15 22 0 29 36 8 43 -7 2 -4 2 7 -1 11 -3 81 -7 156 -8z m476 0 c-3 -3 -12 -4 -19 -1 -8 3 -5 6 6 6 11 1 17 -2 13 -5z m-199 -75 c-3 -8 -7 -3 -11 10 -4 17 -3 21 5 13 5 -5 8 -16 6 -23z m-1 -35 c-3 -3 -12 -4 -19 -1 -8 3 -5 6 6 6 11 1 17 -2 13 -5z m163 -194 c0 -5 -7 -10 -15 -10 -8 0 -15 5 -15 10 0 6 7 10 15 10 8 0 15 -4 15 -10z m-113 -87 c-4 -3 -10 -3 -14 0 -3 4 0 7 7 7 7 0 10 -3 7 -7z m-50 -59 c-3 -3 -12 -4 -19 -1 -8 3 -5 6 6 6 11 1 17 -2 13 -5z"/>
<path d="M1096 3493 c5 -5 12 -12 16 -18 4 -6 8 -2 8 8 0 9 -7 17 -17 17 -9 0 -12 -3 -7 -7z"/>
<path d="M3748 4204 c-4 -3 -23 -6 -42 -6 -20 0 -36 -4 -36 -9 0 -5 -9 -9 -20 -9 -22 0 -70 -44 -70 -65 0 -7 6 -16 13 -19 6 -4 2 -4 -10 -2 -12 2 -24 -2 -27 -10 -3 -8 -1 -14 4 -14 5 0 6 -10 2 -22 -4 -13 -5 -135 -2 -273 3 -137 4 -255 2 -262 -3 -8 -11 -9 -29 -2 -13 5 -38 9 -54 9 l-30 0 3 -77 c3 -72 5 -78 26 -81 12 -2 22 -10 22 -18 0 -8 13 -17 30 -20 l29 -6 3 -152 3 -151 120 0 120 0 3 105 c4 138 -3 186 -28 193 -11 3 -20 12 -20 20 0 17 40 25 140 30 l55 2 3 79 3 79 -73 -6 c-40 -4 -84 -8 -98 -10 -14 -2 -18 -2 -9 0 25 6 30 54 28 268 -1 133 2 199 10 208 6 8 8 17 4 20 -3 4 1 7 11 7 9 0 15 -3 13 -7 -3 -5 22 -9 54 -11 l60 -3 -3 108 -3 108 -101 3 c-55 1 -103 0 -106 -4z m2 -54 c-8 -5 -31 -9 -50 -8 l-35 1 40 7 c59 11 61 11 45 0z m-133 -42 c-3 -8 -6 -5 -6 6 -1 11 2 17 5 13 3 -3 4 -12 1 -19z m176 -155 c-7 -2 -19 -2 -25 0 -7 3 -2 5 12 5 14 0 19 -2 13 -5z m-36 -410 c-4 -3 -7 0 -7 7 0 7 3 10 7 7 3 -4 3 -10 0 -14z m-207 -183 c0 -5 -7 -7 -15 -4 -8 4 -15 8 -15 10 0 2 7 4 15 4 8 0 15 -4 15 -10z"/>
<path d="M1154 4165 c-12 -26 -9 -35 13 -35 14 0 19 45 5 54 -4 2 -12 -6 -18 -19z"/>
<path d="M8921 4147 c-17 -17 -13 -27 8 -27 25 0 32 12 16 27 -9 8 -15 9 -24 0z"/>
<path d="M8960 4100 c-8 -5 -11 -12 -7 -16 4 -4 15 0 24 9 18 18 8 23 -17 7z"/>
<path d="M5270 4066 c0 -4 7 -14 15 -22 8 -9 15 -11 15 -6 0 5 -7 15 -15 22 -8 7 -15 9 -15 6z"/>
<path d="M2096 3975 c4 -8 8 -15 10 -15 2 0 4 7 4 15 0 8 -4 15 -10 15 -5 0 -7 -7 -4 -15z"/>
<path d="M2560 3640 c0 -7 3 -10 7 -7 3 4 3 10 0 14 -4 3 -7 0 -7 -7z"/>
<path d="M3551 3534 c0 -11 3 -14 6 -6 3 7 2 16 -1 19 -3 4 -6 -2 -5 -13z"/>
<path d="M3433 3445 c0 -44 2 -61 4 -37 2 23 2 59 0 80 -2 20 -4 1 -4 -43z"/>
<path d="M1580 3338 c0 -16 12 -18 128 -16 l127 2 -120 3 c-80 3 -122 8 -127 16 -5 8 -8 7 -8 -5z"/>
<path d="M3430 3336 c0 -2 7 -6 15 -10 8 -3 15 -1 15 4 0 6 -7 10 -15 10 -8 0 -15 -2 -15 -4z"/>
<path d="M3843 3323 c20 -2 54 -2 75 0 20 2 3 4 -38 4 -41 0 -58 -2 -37 -4z"/>
<path d="M5755 3040 c-19 -8 -19 -9 3 -9 12 -1 22 4 22 9 0 6 -1 10 -2 9 -2 0 -12 -4 -23 -9z"/>
<path d="M6357 2510 c-3 -11 -1 -20 4 -20 5 0 9 9 9 20 0 11 -2 20 -4 20 -2 0 -6 -9 -9 -20z"/>
<path d="M6806 2294 c-23 -23 -20 -30 4 -9 11 10 20 20 20 22 0 7 -9 2 -24 -13z"/>
</g>


</svg>