<!DOCTYPE svg PUBLIC "-//W3C//DTD SVG 20010904//EN" "http://www.w3.org/TR/2001/REC-SVG-20010904/DTD/svg10.dtd">
<svg version="1.0" xmlns="http://www.w3.org/2000/svg" width="506px" height="337px" viewBox="0 0 5060 3370" preserveAspectRatio="xMidYMid meet">
<g id="layer101" fill="#25aff4" stroke="none">
 <path d="M0 1685 l0 -1685 2530 0 2530 0 0 1685 0 1685 -2530 0 -2530 0 0 -1685z"/>
 </g>
<g id="layer102" fill="#fdb826" stroke="none">
 <path d="M3591 2284 c-25 -9 -54 -22 -66 -30 -25 -16 -80 -18 -216 -9 -65 5 -114 3 -155 -6 -36 -8 -133 -13 -249 -13 -186 -1 -191 -2 -241 -28 -27 -14 -56 -34 -63 -42 -23 -28 -88 -20 -127 14 -51 44 -105 68 -182 82 -61 10 -77 9 -138 -8 -99 -27 -205 -23 -292 12 -117 47 -275 44 -377 -9 -48 -24 -93 -23 -146 3 -128 66 -276 38 -373 -71 -21 -23 -47 -60 -57 -83 -25 -57 -32 -178 -19 -311 6 -60 14 -153 19 -206 11 -113 24 -166 58 -232 55 -109 148 -177 275 -202 40 -8 91 -20 113 -26 89 -25 210 10 285 82 l41 40 43 -26 c63 -37 162 -55 304 -55 113 0 125 -2 160 -25 44 -29 136 -52 248 -61 90 -7 154 8 218 51 34 23 35 23 265 18 l230 -6 66 32 65 32 53 -25 c35 -17 77 -28 127 -32 41 -3 96 -14 121 -24 31 -13 85 -21 165 -26 179 -10 278 22 353 113 79 96 92 229 33 343 -28 55 -32 73 -32 140 0 56 4 81 15 90 24 20 55 118 55 174 0 79 -27 150 -78 208 -59 65 -124 97 -220 108 -42 5 -90 13 -105 19 -40 15 -124 13 -176 -5z"/>
 </g>
<g id="layer103" fill="#fefdfb" stroke="none">
 <path d="M3591 2284 c-25 -9 -54 -22 -66 -30 -25 -16 -80 -18 -216 -9 -65 5 -114 3 -155 -6 -36 -8 -133 -13 -249 -13 -186 -1 -191 -2 -241 -28 -27 -14 -56 -34 -63 -42 -23 -28 -88 -20 -127 14 -51 44 -105 68 -182 82 -61 10 -77 9 -138 -8 -99 -27 -205 -23 -292 12 -117 47 -275 44 -377 -9 -48 -24 -93 -23 -146 3 -128 66 -276 38 -373 -71 -21 -23 -47 -60 -57 -83 -25 -57 -32 -178 -19 -311 6 -60 14 -153 19 -206 11 -113 24 -166 58 -232 55 -109 148 -177 275 -202 40 -8 91 -20 113 -26 89 -25 210 10 285 82 l41 40 43 -26 c63 -37 162 -55 304 -55 113 0 125 -2 160 -25 44 -29 136 -52 248 -61 90 -7 154 8 218 51 34 23 35 23 265 18 l230 -6 66 32 65 32 53 -25 c35 -17 77 -28 127 -32 41 -3 96 -14 121 -24 31 -13 85 -21 165 -26 179 -10 278 22 353 113 79 96 92 229 33 343 -28 55 -32 73 -32 140 0 56 4 81 15 90 24 20 55 118 55 174 0 79 -27 150 -78 208 -59 65 -124 97 -220 108 -42 5 -90 13 -105 19 -40 15 -124 13 -176 -5z m-1837 -178 c21 -3 56 -17 77 -30 21 -14 44 -23 52 -21 7 3 59 -1 114 -10 l101 -15 44 25 c94 54 221 13 274 -86 19 -38 57 -44 110 -18 43 20 59 21 120 3 17 -4 24 1 34 25 7 17 28 40 46 52 31 19 46 20 173 17 120 -3 142 -6 160 -22 19 -17 23 -18 39 -4 50 44 133 61 223 46 91 -15 252 -10 262 8 22 39 93 53 184 34 26 -5 70 -12 96 -15 124 -16 175 -156 87 -240 l-30 -29 0 -144 0 -145 35 -38 c30 -33 35 -46 35 -87 0 -29 -7 -59 -20 -79 -32 -52 -64 -63 -193 -63 -105 0 -117 2 -151 25 -31 21 -48 25 -112 25 -55 0 -85 5 -114 20 -22 11 -40 24 -40 29 0 11 -101 61 -123 61 -9 0 -23 -15 -30 -32 -16 -38 -41 -63 -77 -76 -39 -14 -473 0 -493 16 -14 12 -19 8 -41 -26 -35 -55 -68 -66 -179 -58 -106 7 -153 27 -182 77 l-20 35 -45 -14 c-54 -17 -258 -19 -316 -3 -22 6 -53 24 -69 41 -47 49 -104 77 -167 82 l-58 5 0 -46 c0 -83 -57 -141 -137 -141 -21 1 -49 7 -63 15 -14 8 -44 14 -66 15 -129 1 -207 109 -203 281 1 52 -4 90 -15 121 -14 37 -17 70 -14 176 l3 132 37 36 c49 50 115 58 169 21 20 -13 58 -27 89 -31 29 -4 66 -14 81 -22 26 -13 30 -12 56 12 51 47 131 75 193 68 14 -2 43 -5 64 -8z"/>
 <path d="M3671 2007 c-18 -23 -2 -46 40 -58 l39 -12 0 -115 0 -114 -29 5 c-15 3 -51 9 -80 13 -28 4 -54 11 -57 16 -4 5 -6 40 -6 76 l0 67 32 6 c35 8 51 24 43 46 -8 20 -196 19 -213 -2 -18 -21 4 -45 41 -45 l29 0 0 -199 0 -200 -32 -3 c-28 -2 -33 -7 -33 -28 l0 -25 100 0 100 0 0 25 c0 21 -5 26 -32 28 l-33 3 0 85 c0 94 1 100 15 97 6 -1 43 -7 83 -13 l72 -12 0 -104 0 -104 -29 0 c-33 0 -54 -20 -45 -44 9 -23 202 -24 210 -1 9 23 -15 45 -47 45 l-29 0 2 243 3 242 33 3 c36 4 52 26 33 45 -7 7 -47 17 -89 23 -42 7 -84 15 -93 18 -9 4 -21 1 -28 -7z"/>
 <path d="M1626 2000 c-73 -23 -96 -71 -96 -201 0 -116 12 -168 47 -201 29 -27 92 -30 141 -5 l32 15 0 -28 c0 -31 23 -55 45 -46 12 4 15 24 15 91 0 105 -13 116 -69 61 -20 -20 -53 -41 -72 -46 -31 -9 -36 -8 -56 15 -21 24 -23 36 -23 136 0 123 9 142 74 154 67 13 116 -32 116 -108 0 -41 20 -58 45 -37 34 29 5 145 -46 181 -32 23 -110 33 -153 19z"/>
 <path d="M1177 1993 c-4 -3 -7 -57 -7 -118 0 -88 3 -115 15 -125 21 -18 45 4 45 42 0 21 11 41 34 64 45 45 95 47 137 5 35 -36 36 -54 5 -86 -21 -21 -45 -30 -129 -49 -63 -14 -93 -83 -77 -178 10 -66 23 -94 50 -108 30 -16 80 -12 111 11 l29 20 0 -25 c0 -30 25 -57 45 -50 12 5 15 28 15 109 0 115 -4 135 -29 135 -25 0 -41 -20 -41 -52 0 -36 -54 -98 -85 -98 -26 0 -30 9 -40 86 -8 65 10 87 85 103 74 15 118 44 137 88 40 97 -69 206 -175 176 -21 -6 -45 -14 -54 -18 -15 -6 -18 -2 -18 18 0 14 -3 32 -6 41 -6 16 -35 22 -47 9z"/>
 <path d="M2214 1973 c-45 -9 -66 -47 -75 -133 -15 -153 -24 -167 -97 -148 l-42 10 0 84 0 84 29 0 c16 0 34 7 41 15 22 26 -6 42 -97 55 -71 10 -87 10 -94 -1 -15 -24 -2 -39 44 -53 14 -5 17 -18 17 -91 0 -65 -3 -85 -14 -85 -38 0 -42 -53 -5 -63 18 -5 20 -13 17 -69 -3 -63 -3 -63 -35 -66 -42 -4 -57 -23 -39 -47 12 -17 28 -19 137 -19 133 -1 188 14 210 57 16 28 4 83 -25 122 -24 31 -25 35 -12 67 8 18 18 67 21 108 4 41 12 83 17 93 13 26 41 20 60 -13 30 -52 70 -31 51 27 -8 25 -66 75 -82 72 -3 -1 -16 -4 -27 -6z m-141 -359 c45 -15 87 -53 87 -79 0 -19 -47 -35 -105 -35 l-55 0 0 65 c0 73 1 74 73 49z"/>
 <path d="M3190 1952 c-23 -11 -43 -33 -58 -62 -21 -41 -23 -55 -19 -150 5 -113 19 -156 59 -184 28 -20 95 -20 128 -1 35 20 40 19 40 -14 0 -37 24 -59 45 -41 12 10 15 31 13 94 -4 100 -17 107 -84 46 -38 -35 -50 -41 -82 -38 -32 3 -39 7 -49 38 -7 19 -12 75 -12 123 -1 85 0 90 28 118 23 23 38 29 71 29 63 0 99 -46 91 -116 -2 -17 27 -37 44 -30 23 9 20 101 -5 141 -38 62 -137 84 -210 47z"/>
 <path d="M2773 1925 c-8 -22 5 -33 47 -37 l35 -4 3 -198 2 -197 -62 3 -63 3 4 35 c10 77 7 104 -13 108 -26 5 -33 -10 -46 -106 -10 -66 -10 -86 0 -92 13 -8 410 -21 423 -13 13 8 8 150 -7 162 -27 22 -46 2 -46 -49 0 -27 -4 -51 -9 -55 -5 -3 -35 -2 -65 1 l-56 7 0 193 0 194 33 0 c41 0 60 12 55 36 -3 17 -15 19 -116 22 -95 2 -113 0 -119 -13z"/>
 <path d="M2567 1853 c-14 -14 -6 -42 17 -60 23 -18 23 -20 8 -57 -12 -30 -19 -37 -36 -32 -11 2 -42 8 -68 11 -51 8 -61 25 -36 64 22 35 4 51 -59 51 -83 0 -131 -10 -138 -28 -9 -25 11 -36 64 -33 45 2 51 0 56 -21 6 -28 65 -320 65 -325 0 -2 -24 0 -53 3 -46 5 -55 4 -61 -12 -11 -28 13 -42 89 -53 62 -8 72 -7 86 9 8 9 46 93 84 186 37 93 71 173 76 178 5 5 21 3 39 -4 26 -11 34 -11 46 2 22 22 8 44 -41 63 -24 9 -60 27 -80 41 -38 25 -47 28 -58 17z m-20 -197 c6 -6 -48 -146 -57 -146 -5 0 -30 123 -30 152 0 10 75 6 87 -6z"/>
 </g>

</svg>